<?xml version="1.0" encoding="UTF-8"?>
<svg width="35px" height="64px" viewBox="0 0 35 64" version="1.1" xmlns="http://www.w3.org/2000/svg" xmlns:xlink="http://www.w3.org/1999/xlink">
    <!-- Generator: Sketch 42 (36781) - http://www.bohemiancoding.com/sketch -->
    <title>iPad Pro Portrait</title>
    <desc>Created with Sketch.</desc>
    <defs></defs>
    <g id="Page-1" stroke="none" stroke-width="1" fill="none" fill-rule="evenodd">
        <g id="iPad-Pro-Portrait" fill-rule="nonzero">
            <g id="iconmonstr-light-bulb-16" transform="translate(6.000000, 0.000000)" fill="#273D5E">
                <path d="M23,9.57375 L23,11.11725 L20.0813,11.11725 C20.1043,10.866375 20.125,10.61325 20.125,10.351125 C20.125,10.0845 20.10545,9.829125 20.08475,9.574875 L23,9.574875 L23,9.57375 Z M10.7548,2.201625 L10.7548,0 L12.33145,0 L12.33145,2.2095 C12.05315,2.18475 11.77485,2.170125 11.49655,2.170125 C11.2493,2.170125 11.00205,2.181375 10.7548,2.201625 Z M17.10395,3.938625 L18.90945,1.97775 L20.0813,3.0105 L18.23785,5.009625 C17.95035,4.6755 17.5559,4.253625 17.10395,3.938625 L17.10395,3.938625 Z M4.75525,5.009625 L2.9118,3.0105 L4.08365,1.97775 L5.88915,3.938625 C5.43835,4.253625 5.04275,4.6755 4.75525,5.009625 Z M2.9187,11.11725 L0,11.11725 L0,9.57375 L2.91525,9.57375 C2.89455,9.828 2.875,10.0845 2.875,10.351125 C2.875,10.61325 2.8957,10.866375 2.9187,11.11725 L2.9187,11.11725 Z M13.8,21.375 L9.2,21.375 C8.8826,21.375 8.625,21.627 8.625,21.9375 C8.625,22.248 8.8826,22.5 9.2,22.5 L13.8,22.5 C14.1174,22.5 14.375,22.248 14.375,21.9375 C14.375,21.627 14.1174,21.375 13.8,21.375 Z M13.8,23.625 L9.2,23.625 C8.8826,23.625 8.625,23.877 8.625,24.1875 C8.625,24.498 8.8826,24.75 9.2,24.75 L13.8,24.75 C14.1174,24.75 14.375,24.498 14.375,24.1875 C14.375,23.877 14.1174,23.625 13.8,23.625 Z M14.0875,25.875 L8.9125,25.875 L10.2787,26.75475 C10.4558,26.91 10.7157,27 10.98595,27 L12.0152,27 C12.2843,27 12.54535,26.91 12.72245,26.75475 L14.0875,25.875 Z M18.4,10.351125 C18.4,14.36625 14.7039,17.082 14.7039,20.25 L12.41655,20.25 C12.4131,18.15975 13.41705,16.437375 14.3957,14.774625 C15.27085,13.284 16.1,11.8755 16.1,10.351125 C16.1,7.435125 13.71375,6.107625 11.49655,6.107625 C9.2828,6.107625 6.9,7.435125 6.9,10.351125 C6.9,11.8755 7.72915,13.284 8.6043,14.774625 C9.58295,16.437375 10.58805,18.15975 10.5823,20.25 L8.2961,20.25 C8.2961,17.082 4.6,14.36625 4.6,10.351125 C4.6,6.16275 8.0477,3.857625 11.49655,3.857625 C14.9477,3.857625 18.4,6.165 18.4,10.351125 Z" id="Shape"></path>
            </g>
            <g id="iconmonstr-light-bulb-16" transform="translate(6.000000, 37.000000)" fill="#628BA9">
                <path d="M23,9.57375 L23,11.11725 L20.0813,11.11725 C20.1043,10.866375 20.125,10.61325 20.125,10.351125 C20.125,10.0845 20.10545,9.829125 20.08475,9.574875 L23,9.574875 L23,9.57375 Z M10.7548,2.201625 L10.7548,0 L12.33145,0 L12.33145,2.2095 C12.05315,2.18475 11.77485,2.170125 11.49655,2.170125 C11.2493,2.170125 11.00205,2.181375 10.7548,2.201625 Z M17.10395,3.938625 L18.90945,1.97775 L20.0813,3.0105 L18.23785,5.009625 C17.95035,4.6755 17.5559,4.253625 17.10395,3.938625 L17.10395,3.938625 Z M4.75525,5.009625 L2.9118,3.0105 L4.08365,1.97775 L5.88915,3.938625 C5.43835,4.253625 5.04275,4.6755 4.75525,5.009625 Z M2.9187,11.11725 L0,11.11725 L0,9.57375 L2.91525,9.57375 C2.89455,9.828 2.875,10.0845 2.875,10.351125 C2.875,10.61325 2.8957,10.866375 2.9187,11.11725 L2.9187,11.11725 Z M13.8,21.375 L9.2,21.375 C8.8826,21.375 8.625,21.627 8.625,21.9375 C8.625,22.248 8.8826,22.5 9.2,22.5 L13.8,22.5 C14.1174,22.5 14.375,22.248 14.375,21.9375 C14.375,21.627 14.1174,21.375 13.8,21.375 Z M13.8,23.625 L9.2,23.625 C8.8826,23.625 8.625,23.877 8.625,24.1875 C8.625,24.498 8.8826,24.75 9.2,24.75 L13.8,24.75 C14.1174,24.75 14.375,24.498 14.375,24.1875 C14.375,23.877 14.1174,23.625 13.8,23.625 Z M14.0875,25.875 L8.9125,25.875 L10.2787,26.75475 C10.4558,26.91 10.7157,27 10.98595,27 L12.0152,27 C12.2843,27 12.54535,26.91 12.72245,26.75475 L14.0875,25.875 Z M18.4,10.351125 C18.4,14.36625 14.7039,17.082 14.7039,20.25 L12.41655,20.25 C12.4131,18.15975 13.41705,16.437375 14.3957,14.774625 C15.27085,13.284 16.1,11.8755 16.1,10.351125 C16.1,7.435125 13.71375,6.107625 11.49655,6.107625 C9.2828,6.107625 6.9,7.435125 6.9,10.351125 C6.9,11.8755 7.72915,13.284 8.6043,14.774625 C9.58295,16.437375 10.58805,18.15975 10.5823,20.25 L8.2961,20.25 C8.2961,17.082 4.6,14.36625 4.6,10.351125 C4.6,6.16275 8.0477,3.857625 11.49655,3.857625 C14.9477,3.857625 18.4,6.165 18.4,10.351125 Z" id="Shape"></path>
            </g>
        </g>
    </g>
</svg>