<?xml version="1.0" encoding="UTF-8"?>
<svg width="40px" height="80px" viewBox="0 0 40 80" version="1.1" xmlns="http://www.w3.org/2000/svg" xmlns:xlink="http://www.w3.org/1999/xlink">
    <!-- Generator: Sketch 41 (35326) - http://www.bohemiancoding.com/sketch -->
    <title>academics</title>
    <desc>Created with Sketch.</desc>
    <defs></defs>
    <g id="icon" stroke="none" stroke-width="1" fill="none" fill-rule="evenodd">
        <g id="academics">
            <g id="iconmonstr-book-16" transform="translate(6.000000, 9.000000)" fill="#273D5E">
                <path d="M13.5,3.11305 C10.19475,1.00855 5.157,0.161 0,0 L0,20.3711 C4.429125,20.5091 8.769375,21.15425 12.000375,22.66535 C12.952125,23.11155 14.0445,23.11155 15.00075,22.66535 C18.23175,21.15425 22.570875,20.5091 27,20.3711 L27,0 C21.843,0.161 16.80525,1.00855 13.5,3.11305 Z M12.375,20.25035 C10.659375,19.62245 7.0695,18.5196 2.25,18.1815 L2.25,2.42305 C8.0505,2.8704 10.717875,4.1055 12.375,5.10715 L12.375,20.25035 Z M24.75,18.18265 C19.931625,18.5196 16.340625,19.62245 14.625,20.2515 L14.625,5.10485 C15.6015,4.5126 16.956,3.8318 19.125,3.28325 L19.125,10.35 L20.8125,8.625 L22.5,10.35 L22.5,2.65535 C23.194125,2.5645 23.938875,2.48515 24.75,2.42305 L24.75,18.18265 Z" id="Shape"></path>
            </g>
            <g id="iconmonstr-book-16" transform="translate(6.000000, 49.000000)" fill="#628BA9">
                <path d="M13.5,3.11305 C10.19475,1.00855 5.157,0.161 0,0 L0,20.3711 C4.429125,20.5091 8.769375,21.15425 12.000375,22.66535 C12.952125,23.11155 14.0445,23.11155 15.00075,22.66535 C18.23175,21.15425 22.570875,20.5091 27,20.3711 L27,0 C21.843,0.161 16.80525,1.00855 13.5,3.11305 Z M12.375,20.25035 C10.659375,19.62245 7.0695,18.5196 2.25,18.1815 L2.25,2.42305 C8.0505,2.8704 10.717875,4.1055 12.375,5.10715 L12.375,20.25035 Z M24.75,18.18265 C19.931625,18.5196 16.340625,19.62245 14.625,20.2515 L14.625,5.10485 C15.6015,4.5126 16.956,3.8318 19.125,3.28325 L19.125,10.35 L20.8125,8.625 L22.5,10.35 L22.5,2.65535 C23.194125,2.5645 23.938875,2.48515 24.75,2.42305 L24.75,18.18265 Z" id="Shape"></path>
            </g>
        </g>
    </g>
</svg>