<?xml version="1.0" encoding="UTF-8"?>
<svg width="26px" height="71px" viewBox="0 0 26 71" version="1.1" xmlns="http://www.w3.org/2000/svg" xmlns:xlink="http://www.w3.org/1999/xlink">
    <!-- Generator: Sketch 42 (36781) - http://www.bohemiancoding.com/sketch -->
    <title>Desktop HD</title>
    <desc>Created with Sketch.</desc>
    <defs></defs>
    <g id="Page-1" stroke="none" stroke-width="1" fill="none" fill-rule="evenodd">
        <g id="Desktop-HD" fill-rule="nonzero">
            <g id="running-man" transform="translate(2.000000, 0.000000)" fill="#273D5E">
                <g id="Capa_1">
                    <g id="Group">
                        <path d="M13.2594253,5.05838586 C14.6703333,5.05838586 15.8135115,3.92610303 15.8135115,2.52897374 C15.8135115,1.13253333 14.6703333,0 13.2594253,0 C11.8508563,0 10.7067931,1.13253333 10.7067931,2.52903636 C10.7067931,3.92610303 11.8507931,5.05838586 13.2594253,5.05838586 Z" id="Shape"></path>
                        <path d="M20.6855,11.8079939 L16.3400575,11.8079939 L13.8893333,8.36167071 L13.8971092,8.30255152 C13.9846034,7.64409899 13.8038621,6.97825657 13.3951552,6.4515697 C12.9867011,5.92494545 12.3832184,5.58087677 11.7186034,5.49420202 C11.0278793,5.40470909 10.2886667,5.68959596 9.74581034,6.03566869 C9.65471264,6.09378586 4.37414368,9.47516566 4.37414368,9.47516566 C4.04698851,9.68546465 3.83413218,10.031099 3.79474713,10.4155616 C3.75466667,10.7994606 3.89425287,11.1809798 4.17254023,11.4514626 L7.90128736,15.0837859 L7.49561494,18.1495919 L6.31298851,22.2568727 L2.02678161,21.0419232 C1.21056897,20.8117091 0.355287356,21.2796525 0.120178161,22.0907253 C-0.113666667,22.901798 0.360344828,23.7477535 1.17959195,23.9800343 L6.9495977,25.6151434 C7.08817241,25.6544101 7.23054023,25.6737616 7.37316092,25.6737616 C7.63317816,25.6737616 7.89123563,25.6086303 8.12217241,25.4813111 C8.47967241,25.2842889 8.74379885,24.9546869 8.85620115,24.5647758 L10.2446667,19.7389838 L11.9114195,22.0335475 L12.3339713,29.525402 C12.3801207,30.3389798 13.061046,30.9680606 13.8732759,30.9680606 C13.9011552,30.9680606 13.9314368,30.9670586 13.960454,30.9656182 C14.810931,30.9187737 15.4615747,30.1976949 15.414477,29.3553091 L14.9667011,21.4183071 C14.949569,21.1275333 14.85,20.8474061 14.6784253,20.6112424 L12.6402644,17.804897 L13.3962931,12.0884343 L14.6232989,13.814101 C14.8631494,14.1527212 15.2557989,14.3541899 15.673546,14.3541899 L20.6855,14.3541899 C21.3951897,14.3541899 21.970477,13.7842283 21.970477,13.0810606 C21.970477,12.3778929 21.3951264,11.8079939 20.6855,11.8079939 Z M8.31991954,11.9213475 L7.11712644,10.7491717 L8.60124138,9.79687677 L8.31991954,11.9213475 Z" id="Shape"></path>
                    </g>
                </g>
            </g>
            <g id="running-man" transform="translate(2.000000, 40.000000)" fill="#628BA9">
                <g id="Capa_1">
                    <g id="Group">
                        <path d="M13.2594253,5.05838586 C14.6703333,5.05838586 15.8135115,3.92610303 15.8135115,2.52897374 C15.8135115,1.13253333 14.6703333,0 13.2594253,0 C11.8508563,0 10.7067931,1.13253333 10.7067931,2.52903636 C10.7067931,3.92610303 11.8507931,5.05838586 13.2594253,5.05838586 Z" id="Shape"></path>
                        <path d="M20.6855,11.8079939 L16.3400575,11.8079939 L13.8893333,8.36167071 L13.8971092,8.30255152 C13.9846034,7.64409899 13.8038621,6.97825657 13.3951552,6.4515697 C12.9867011,5.92494545 12.3832184,5.58087677 11.7186034,5.49420202 C11.0278793,5.40470909 10.2886667,5.68959596 9.74581034,6.03566869 C9.65471264,6.09378586 4.37414368,9.47516566 4.37414368,9.47516566 C4.04698851,9.68546465 3.83413218,10.031099 3.79474713,10.4155616 C3.75466667,10.7994606 3.89425287,11.1809798 4.17254023,11.4514626 L7.90128736,15.0837859 L7.49561494,18.1495919 L6.31298851,22.2568727 L2.02678161,21.0419232 C1.21056897,20.8117091 0.355287356,21.2796525 0.120178161,22.0907253 C-0.113666667,22.901798 0.360344828,23.7477535 1.17959195,23.9800343 L6.9495977,25.6151434 C7.08817241,25.6544101 7.23054023,25.6737616 7.37316092,25.6737616 C7.63317816,25.6737616 7.89123563,25.6086303 8.12217241,25.4813111 C8.47967241,25.2842889 8.74379885,24.9546869 8.85620115,24.5647758 L10.2446667,19.7389838 L11.9114195,22.0335475 L12.3339713,29.525402 C12.3801207,30.3389798 13.061046,30.9680606 13.8732759,30.9680606 C13.9011552,30.9680606 13.9314368,30.9670586 13.960454,30.9656182 C14.810931,30.9187737 15.4615747,30.1976949 15.414477,29.3553091 L14.9667011,21.4183071 C14.949569,21.1275333 14.85,20.8474061 14.6784253,20.6112424 L12.6402644,17.804897 L13.3962931,12.0884343 L14.6232989,13.814101 C14.8631494,14.1527212 15.2557989,14.3541899 15.673546,14.3541899 L20.6855,14.3541899 C21.3951897,14.3541899 21.970477,13.7842283 21.970477,13.0810606 C21.970477,12.3778929 21.3951264,11.8079939 20.6855,11.8079939 Z M8.31991954,11.9213475 L7.11712644,10.7491717 L8.60124138,9.79687677 L8.31991954,11.9213475 Z" id="Shape"></path>
                    </g>
                </g>
            </g>
        </g>
    </g>
</svg>