<?xml version="1.0" encoding="UTF-8"?>
<svg width="40px" height="80px" viewBox="0 0 40 80" version="1.1" xmlns="http://www.w3.org/2000/svg" xmlns:xlink="http://www.w3.org/1999/xlink">
    <!-- Generator: Sketch 41 (35326) - http://www.bohemiancoding.com/sketch -->
    <title>campus</title>
    <desc>Created with Sketch.</desc>
    <defs>
        <polygon id="path-1" points="0.00556701031 28 26.9149175 28 26.9149175 0.00138613861 0.00556701031 0.00138613861"></polygon>
        <polygon id="path-3" points="0.00556701031 28 26.9149175 28 26.9149175 0.00138613861 0.00556701031 0.00138613861"></polygon>
    </defs>
    <g id="icon" stroke="none" stroke-width="1" fill="none" fill-rule="evenodd">
        <g id="campus">
            <g id="campus-icon" transform="translate(6.000000, 6.000000)">
                <g id="Group-4">
                    <mask id="mask-2" fill="white">
                        <use xlink:href="#path-1"></use>
                    </mask>
                    <g id="Clip-2"></g>
                    <path d="M26.6233918,5.48726073 L0.279,5.48726073 C0.177680412,5.48726073 0.149103093,5.34883168 0.242628866,5.30983498 C2.05970103,4.55291089 9.30841237,1.59692409 13.0762577,0.0815973597 C13.2691546,0.0040660066 13.5409175,-0.0320660066 13.723701,0.0413993399 C17.5486082,1.5779802 24.8400928,4.55180198 26.6597629,5.30983498 C26.7532887,5.34883168 26.7247113,5.48726073 26.6233918,5.48726073" id="Fill-1" fill="#273D5E" mask="url(#mask-2)"></path>
                    <path d="M0,27.630363 C0,27.834495 0.166175258,28 0.371134021,28 L26.5437835,28 C26.7487423,28 26.9149175,27.834495 26.9149175,27.630363 L26.9149175,26.7045149 C26.9149175,26.5003828 26.7487423,26.3348779 26.5437835,26.3348779 L0.371134021,26.3348779 C0.166175258,26.3348779 0,26.5003828 0,26.7045149 L0,27.630363" id="Fill-3" fill="#273D5E" mask="url(#mask-2)"></path>
                </g>
                <path d="M1.57165979,24.7300066 C1.57165979,24.9341386 1.73783505,25.0996436 1.94279381,25.0996436 L24.9603402,25.0996436 C25.165299,25.0996436 25.3314742,24.9341386 25.3314742,24.7300066 L25.3314742,23.7790231 C25.3314742,23.5748911 25.165299,23.4093861 24.9603402,23.4093861 L1.94279381,23.4093861 C1.73783505,23.4093861 1.57165979,23.5748911 1.57165979,23.7790231 L1.57165979,24.7300066" id="Fill-5" fill="#273D5E"></path>
                <path d="M0.185752577,7.79915512 C0.185752577,8.00328713 0.351927835,8.16879208 0.556886598,8.16879208 L26.3455052,8.16879208 C26.5504639,8.16879208 26.7166392,8.00328713 26.7166392,7.79915512 L26.7166392,7.17650165 C26.7166392,6.97236964 26.5504639,6.80686469 26.3455052,6.80686469 L0.556886598,6.80686469 C0.351927835,6.80686469 0.185752577,6.97236964 0.185752577,7.17650165 L0.185752577,7.79915512" id="Fill-6" fill="#273D5E"></path>
                <path d="M8.94887629,21.4528053 C8.94887629,21.6569373 9.11505155,21.8224422 9.32001031,21.8224422 L11.7528866,21.8224422 C11.9578454,21.8224422 12.1240206,21.6569373 12.1240206,21.4528053 L12.1240206,10.2698086 C12.1240206,10.0656766 11.9578454,9.90017162 11.7528866,9.90017162 L9.32001031,9.90017162 C9.11505155,9.90017162 8.94887629,10.0656766 8.94887629,10.2698086 L8.94887629,21.4528053" id="Fill-7" fill="#273D5E"></path>
                <path d="M3.09896907,21.4487393 C3.09896907,21.6529637 3.26514433,21.8183762 3.47010309,21.8183762 L5.91262887,21.8183762 C6.11758763,21.8183762 6.28376289,21.6529637 6.28376289,21.4487393 L6.28376289,10.26833 C6.28376289,10.064198 6.11758763,9.89869307 5.91262887,9.89869307 L3.47010309,9.89869307 C3.26514433,9.89869307 3.09896907,10.064198 3.09896907,10.26833 L3.09896907,21.4487393" id="Fill-8" fill="#273D5E"></path>
                <path d="M20.6278144,21.4435644 C20.6278144,21.6476964 20.7939897,21.8132013 20.9989485,21.8132013 L23.4278351,21.8132013 C23.6327938,21.8132013 23.7989691,21.6476964 23.7989691,21.4435644 L23.7989691,10.2797888 C23.7989691,10.0756568 23.6327938,9.91015182 23.4278351,9.91015182 L20.9989485,9.91015182 C20.7939897,9.91015182 20.6278144,10.0756568 20.6278144,10.2797888 L20.6278144,21.4435644" id="Fill-9" fill="#273D5E"></path>
                <path d="M14.7832887,21.423604 C14.7832887,21.627736 14.9494639,21.7932409 15.1544227,21.7932409 L17.5983402,21.7932409 C17.803299,21.7932409 17.9694742,21.627736 17.9694742,21.423604 L17.9694742,10.2741518 C17.9694742,10.0700198 17.803299,9.90451485 17.5983402,9.90451485 L15.1544227,9.90451485 C14.9494639,9.90451485 14.7832887,10.0700198 14.7832887,10.2741518 L14.7832887,21.423604" id="Fill-10" fill="#273D5E"></path>
            </g>
            <g id="campus-icon" transform="translate(6.000000, 46.000000)">
                <g id="Group-4">
                    <mask id="mask-4" fill="white">
                        <use xlink:href="#path-3"></use>
                    </mask>
                    <g id="Clip-2"></g>
                    <path d="M26.6233918,5.48726073 L0.279,5.48726073 C0.177680412,5.48726073 0.149103093,5.34883168 0.242628866,5.30983498 C2.05970103,4.55291089 9.30841237,1.59692409 13.0762577,0.0815973597 C13.2691546,0.0040660066 13.5409175,-0.0320660066 13.723701,0.0413993399 C17.5486082,1.5779802 24.8400928,4.55180198 26.6597629,5.30983498 C26.7532887,5.34883168 26.7247113,5.48726073 26.6233918,5.48726073" id="Fill-1" fill="#628BA9" mask="url(#mask-4)"></path>
                    <path d="M0,27.630363 C0,27.834495 0.166175258,28 0.371134021,28 L26.5437835,28 C26.7487423,28 26.9149175,27.834495 26.9149175,27.630363 L26.9149175,26.7045149 C26.9149175,26.5003828 26.7487423,26.3348779 26.5437835,26.3348779 L0.371134021,26.3348779 C0.166175258,26.3348779 0,26.5003828 0,26.7045149 L0,27.630363" id="Fill-3" fill="#628BA9" mask="url(#mask-4)"></path>
                </g>
                <path d="M1.57165979,24.7300066 C1.57165979,24.9341386 1.73783505,25.0996436 1.94279381,25.0996436 L24.9603402,25.0996436 C25.165299,25.0996436 25.3314742,24.9341386 25.3314742,24.7300066 L25.3314742,23.7790231 C25.3314742,23.5748911 25.165299,23.4093861 24.9603402,23.4093861 L1.94279381,23.4093861 C1.73783505,23.4093861 1.57165979,23.5748911 1.57165979,23.7790231 L1.57165979,24.7300066" id="Fill-5" fill="#628BA9"></path>
                <path d="M0.185752577,7.79915512 C0.185752577,8.00328713 0.351927835,8.16879208 0.556886598,8.16879208 L26.3455052,8.16879208 C26.5504639,8.16879208 26.7166392,8.00328713 26.7166392,7.79915512 L26.7166392,7.17650165 C26.7166392,6.97236964 26.5504639,6.80686469 26.3455052,6.80686469 L0.556886598,6.80686469 C0.351927835,6.80686469 0.185752577,6.97236964 0.185752577,7.17650165 L0.185752577,7.79915512" id="Fill-6" fill="#628BA9"></path>
                <path d="M8.94887629,21.4528053 C8.94887629,21.6569373 9.11505155,21.8224422 9.32001031,21.8224422 L11.7528866,21.8224422 C11.9578454,21.8224422 12.1240206,21.6569373 12.1240206,21.4528053 L12.1240206,10.2698086 C12.1240206,10.0656766 11.9578454,9.90017162 11.7528866,9.90017162 L9.32001031,9.90017162 C9.11505155,9.90017162 8.94887629,10.0656766 8.94887629,10.2698086 L8.94887629,21.4528053" id="Fill-7" fill="#628BA9"></path>
                <path d="M3.09896907,21.4487393 C3.09896907,21.6529637 3.26514433,21.8183762 3.47010309,21.8183762 L5.91262887,21.8183762 C6.11758763,21.8183762 6.28376289,21.6529637 6.28376289,21.4487393 L6.28376289,10.26833 C6.28376289,10.064198 6.11758763,9.89869307 5.91262887,9.89869307 L3.47010309,9.89869307 C3.26514433,9.89869307 3.09896907,10.064198 3.09896907,10.26833 L3.09896907,21.4487393" id="Fill-8" fill="#628BA9"></path>
                <path d="M20.6278144,21.4435644 C20.6278144,21.6476964 20.7939897,21.8132013 20.9989485,21.8132013 L23.4278351,21.8132013 C23.6327938,21.8132013 23.7989691,21.6476964 23.7989691,21.4435644 L23.7989691,10.2797888 C23.7989691,10.0756568 23.6327938,9.91015182 23.4278351,9.91015182 L20.9989485,9.91015182 C20.7939897,9.91015182 20.6278144,10.0756568 20.6278144,10.2797888 L20.6278144,21.4435644" id="Fill-9" fill="#628BA9"></path>
                <path d="M14.7832887,21.423604 C14.7832887,21.627736 14.9494639,21.7932409 15.1544227,21.7932409 L17.5983402,21.7932409 C17.803299,21.7932409 17.9694742,21.627736 17.9694742,21.423604 L17.9694742,10.2741518 C17.9694742,10.0700198 17.803299,9.90451485 17.5983402,9.90451485 L15.1544227,9.90451485 C14.9494639,9.90451485 14.7832887,10.0700198 14.7832887,10.2741518 L14.7832887,21.423604" id="Fill-10" fill="#628BA9"></path>
            </g>
        </g>
    </g>
</svg>