<?xml version="1.0" encoding="UTF-8"?>
<svg width="40px" height="80px" viewBox="0 0 40 80" version="1.1" xmlns="http://www.w3.org/2000/svg" xmlns:xlink="http://www.w3.org/1999/xlink">
    <!-- Generator: Sketch 41 (35326) - http://www.bohemiancoding.com/sketch -->
    <title>event-news</title>
    <desc>Created with Sketch.</desc>
    <defs></defs>
    <g id="icon" stroke="none" stroke-width="1" fill="none" fill-rule="evenodd">
        <g id="event-news">
            <g id="iconmonstr-microphone-10" transform="translate(5.000000, 7.000000)" fill="#273D5E">
                <path d="M4.80795833,17.2370455 C3.034125,18.4373182 2.18829167,20.0143636 2.11216667,22.0909091 L0,22.0909091 C0.083375,19.2117273 1.32916667,16.9535455 3.809875,15.3445909 L4.80795833,17.2370455 Z M23.3679583,2.45454545 C25.1417917,2.45454545 26.5833333,3.91990909 26.5833333,5.72154545 C26.5833333,7.08995455 25.7967083,8.46818182 24.0639583,8.8155 L21.2050417,3.39463636 C21.9662917,2.58218182 22.7372083,2.45454545 23.3679583,2.45454545 Z M23.3679583,0 C21.130125,0 19.5037083,1.18554545 18.367875,3.21422727 L22.6514167,11.3363182 C26.75975,11.6087727 29,8.69890909 29,5.72154545 C29,2.53309091 26.4649167,0 23.3679583,0 Z M18.8705417,9.36531818 L9.907125,13.0189091 L17.8845417,7.49618182 L16.7378333,5.32145455 L5.40366667,13.1674091 L7.28504167,16.7338636 L20.0196667,11.5437273 L18.8705417,9.36531818 L18.8705417,9.36531818 Z M11.161375,17.7966818 C11.92625,18.5563636 12.0845417,19.8192273 12.0845417,20.9360455 L12.0845417,27 L14.5,27 L14.5,20.7445909 C14.5,18.5649545 15.2999167,17.0333182 16.5964583,15.5814545 L11.161375,17.7966818 L11.161375,17.7966818 Z" id="Shape"></path>
            </g>
            <g id="iconmonstr-microphone-10" transform="translate(5.000000, 47.000000)" fill="#628BA9">
                <path d="M4.80795833,17.2370455 C3.034125,18.4373182 2.18829167,20.0143636 2.11216667,22.0909091 L0,22.0909091 C0.083375,19.2117273 1.32916667,16.9535455 3.809875,15.3445909 L4.80795833,17.2370455 Z M23.3679583,2.45454545 C25.1417917,2.45454545 26.5833333,3.91990909 26.5833333,5.72154545 C26.5833333,7.08995455 25.7967083,8.46818182 24.0639583,8.8155 L21.2050417,3.39463636 C21.9662917,2.58218182 22.7372083,2.45454545 23.3679583,2.45454545 Z M23.3679583,0 C21.130125,0 19.5037083,1.18554545 18.367875,3.21422727 L22.6514167,11.3363182 C26.75975,11.6087727 29,8.69890909 29,5.72154545 C29,2.53309091 26.4649167,0 23.3679583,0 Z M18.8705417,9.36531818 L9.907125,13.0189091 L17.8845417,7.49618182 L16.7378333,5.32145455 L5.40366667,13.1674091 L7.28504167,16.7338636 L20.0196667,11.5437273 L18.8705417,9.36531818 L18.8705417,9.36531818 Z M11.161375,17.7966818 C11.92625,18.5563636 12.0845417,19.8192273 12.0845417,20.9360455 L12.0845417,27 L14.5,27 L14.5,20.7445909 C14.5,18.5649545 15.2999167,17.0333182 16.5964583,15.5814545 L11.161375,17.7966818 L11.161375,17.7966818 Z" id="Shape"></path>
            </g>
        </g>
    </g>
</svg>