<?xml version="1.0" encoding="UTF-8"?>
<svg width="40px" height="80px" viewBox="0 0 40 80" version="1.1" xmlns="http://www.w3.org/2000/svg" xmlns:xlink="http://www.w3.org/1999/xlink">
    <!-- Generator: Sketch 41 (35326) - http://www.bohemiancoding.com/sketch -->
    <title>faculty-staff</title>
    <desc>Created with Sketch.</desc>
    <defs></defs>
    <g id="icon" stroke="none" stroke-width="1" fill="none" fill-rule="evenodd">
        <g id="faculty-staff">
            <g id="faculty-and-staff-icon" transform="translate(6.000000, 46.000000)" fill="#74A3BD">
                <path d="M1.01735782,15.34 L12.9210829,15.34 L12.9210829,0.269 L1.01735782,0.269 L1.01735782,15.34 Z M1.9998376,14.34 L11.9386031,14.34 L11.9386031,1.269 L1.9998376,1.269 L1.9998376,14.34 Z" id="Fill-1"></path>
                <path d="M0.690192049,28 L6.84935782,28 C7.07581941,28 6.96922035,27.05 6.96922035,25.878 L6.96922035,24.374 C6.96922035,23.2015 6.03586456,22.2515 4.88439825,22.2515 L2.0848221,22.2515 C0.933355795,22.2515 0,23.2015 0,24.374 L0,25.878 C0,27.05 0,28 0.690192049,28" id="Fill-2"></path>
                <path d="M5.44981536,19.861 C5.44981536,20.9585 4.57540836,21.8485 3.49713679,21.8485 C2.41886523,21.8485 1.54494946,20.9585 1.54494946,19.861 C1.54494946,18.7635 2.41886523,17.874 3.49713679,17.874 C4.57540836,17.874 5.44981536,18.7635 5.44981536,19.861" id="Fill-3"></path>
                <path d="M10.132314,28 L16.2914798,28 C16.5184326,28 16.4118336,27.05 16.4118336,25.878 L16.4118336,24.374 C16.4118336,23.2015 15.4779865,22.2515 14.3265202,22.2515 L11.5274353,22.2515 C10.375969,22.2515 9.44261321,23.2015 9.44261321,24.374 L9.44261321,25.878 C9.44261321,27.05 9.44261321,28 10.132314,28" id="Fill-4"></path>
                <path d="M14.8919373,19.861 C14.8919373,20.9585 14.0180216,21.8485 12.93975,21.8485 C11.8614784,21.8485 10.9870714,20.9585 10.9870714,19.861 C10.9870714,18.7635 11.8614784,17.874 12.93975,17.874 C14.0180216,17.874 14.8919373,18.7635 14.8919373,19.861" id="Fill-5"></path>
                <path d="M19.2610249,28 L25.4206819,28 C25.6471435,28 25.5405445,27.05 25.5405445,25.878 L25.5405445,24.374 C25.5405445,23.2015 24.6071887,22.2515 23.4557224,22.2515 L20.6561462,22.2515 C19.5046799,22.2515 18.5713241,23.2015 18.5713241,24.374 L18.5713241,25.878 C18.5713241,27.05 18.5713241,28 19.2610249,28" id="Fill-6"></path>
                <path d="M24.0211395,19.861 C24.0211395,20.9585 23.1467325,21.8485 22.0684609,21.8485 C20.9901894,21.8485 20.1162736,20.9585 20.1162736,19.861 C20.1162736,18.7635 20.9901894,17.874 22.0684609,17.874 C23.1467325,17.874 24.0211395,18.7635 24.0211395,19.861" id="Fill-7"></path>
                <g id="Group-11" transform="translate(8.842318, 3.500000)">
                    <path d="M13.6098012,4.312 C14.6880728,4.312 15.5624798,3.4225 15.5624798,2.325 C15.5624798,1.227 14.6880728,0.3375 13.6098012,0.3375 C12.5315296,0.3375 11.6576139,1.227 11.6576139,2.325 C11.6576139,3.4225 12.5315296,4.312 13.6098012,4.312" id="Fill-8"></path>
                    <path d="M17.0804111,9.361 L17.0804111,7.3975 C17.0804111,5.867 16.0959663,4.6265 14.8811301,4.6265 L11.9282871,4.6265 C11.494031,4.6265 10.4943578,4.8095 10.0782776,5.4745 L8.44834367,7.8405 L5.84771968,7.8405 C5.79270081,7.8405 5.73915566,7.848 5.68610175,7.857 L0.77468531,2.7895 C0.679876011,2.6915 0.524152965,2.6905 0.427869946,2.7875 C0.331095687,2.884 0.330113208,3.0425 0.425413747,3.141 L5.21451146,8.0815 C5.00278706,8.265 4.86523989,8.535 4.86523989,8.8405 C4.86523989,9.3925 5.30539084,9.8405 5.84771968,9.8405 L9.08204313,9.7885 L9.72900606,8.9645 C9.7294973,10.4465 9.74570822,12.132 10.4570236,12.132 L16.4624313,12.132 C17.2690472,12.132 17.0804111,10.8915 17.0804111,9.361" id="Fill-10"></path>
                </g>
            </g>
            <g id="faculty-and-staff-icon" transform="translate(6.000000, 6.000000)" fill="#273D5E">
                <path d="M1.01735782,15.34 L12.9210829,15.34 L12.9210829,0.269 L1.01735782,0.269 L1.01735782,15.34 Z M1.9998376,14.34 L11.9386031,14.34 L11.9386031,1.269 L1.9998376,1.269 L1.9998376,14.34 Z" id="Fill-1"></path>
                <path d="M0.690192049,28 L6.84935782,28 C7.07581941,28 6.96922035,27.05 6.96922035,25.878 L6.96922035,24.374 C6.96922035,23.2015 6.03586456,22.2515 4.88439825,22.2515 L2.0848221,22.2515 C0.933355795,22.2515 0,23.2015 0,24.374 L0,25.878 C0,27.05 0,28 0.690192049,28" id="Fill-2"></path>
                <path d="M5.44981536,19.861 C5.44981536,20.9585 4.57540836,21.8485 3.49713679,21.8485 C2.41886523,21.8485 1.54494946,20.9585 1.54494946,19.861 C1.54494946,18.7635 2.41886523,17.874 3.49713679,17.874 C4.57540836,17.874 5.44981536,18.7635 5.44981536,19.861" id="Fill-3"></path>
                <path d="M10.132314,28 L16.2914798,28 C16.5184326,28 16.4118336,27.05 16.4118336,25.878 L16.4118336,24.374 C16.4118336,23.2015 15.4779865,22.2515 14.3265202,22.2515 L11.5274353,22.2515 C10.375969,22.2515 9.44261321,23.2015 9.44261321,24.374 L9.44261321,25.878 C9.44261321,27.05 9.44261321,28 10.132314,28" id="Fill-4"></path>
                <path d="M14.8919373,19.861 C14.8919373,20.9585 14.0180216,21.8485 12.93975,21.8485 C11.8614784,21.8485 10.9870714,20.9585 10.9870714,19.861 C10.9870714,18.7635 11.8614784,17.874 12.93975,17.874 C14.0180216,17.874 14.8919373,18.7635 14.8919373,19.861" id="Fill-5"></path>
                <path d="M19.2610249,28 L25.4206819,28 C25.6471435,28 25.5405445,27.05 25.5405445,25.878 L25.5405445,24.374 C25.5405445,23.2015 24.6071887,22.2515 23.4557224,22.2515 L20.6561462,22.2515 C19.5046799,22.2515 18.5713241,23.2015 18.5713241,24.374 L18.5713241,25.878 C18.5713241,27.05 18.5713241,28 19.2610249,28" id="Fill-6"></path>
                <path d="M24.0211395,19.861 C24.0211395,20.9585 23.1467325,21.8485 22.0684609,21.8485 C20.9901894,21.8485 20.1162736,20.9585 20.1162736,19.861 C20.1162736,18.7635 20.9901894,17.874 22.0684609,17.874 C23.1467325,17.874 24.0211395,18.7635 24.0211395,19.861" id="Fill-7"></path>
                <g id="Group-11" transform="translate(8.842318, 3.500000)">
                    <path d="M13.6098012,4.312 C14.6880728,4.312 15.5624798,3.4225 15.5624798,2.325 C15.5624798,1.227 14.6880728,0.3375 13.6098012,0.3375 C12.5315296,0.3375 11.6576139,1.227 11.6576139,2.325 C11.6576139,3.4225 12.5315296,4.312 13.6098012,4.312" id="Fill-8"></path>
                    <path d="M17.0804111,9.361 L17.0804111,7.3975 C17.0804111,5.867 16.0959663,4.6265 14.8811301,4.6265 L11.9282871,4.6265 C11.494031,4.6265 10.4943578,4.8095 10.0782776,5.4745 L8.44834367,7.8405 L5.84771968,7.8405 C5.79270081,7.8405 5.73915566,7.848 5.68610175,7.857 L0.77468531,2.7895 C0.679876011,2.6915 0.524152965,2.6905 0.427869946,2.7875 C0.331095687,2.884 0.330113208,3.0425 0.425413747,3.141 L5.21451146,8.0815 C5.00278706,8.265 4.86523989,8.535 4.86523989,8.8405 C4.86523989,9.3925 5.30539084,9.8405 5.84771968,9.8405 L9.08204313,9.7885 L9.72900606,8.9645 C9.7294973,10.4465 9.74570822,12.132 10.4570236,12.132 L16.4624313,12.132 C17.2690472,12.132 17.0804111,10.8915 17.0804111,9.361" id="Fill-10"></path>
                </g>
            </g>
        </g>
    </g>
</svg>