<?xml version="1.0" encoding="UTF-8"?>
<svg width="40px" height="80px" viewBox="0 0 40 80" version="1.1" xmlns="http://www.w3.org/2000/svg" xmlns:xlink="http://www.w3.org/1999/xlink">
    <!-- Generator: Sketch 41 (35326) - http://www.bohemiancoding.com/sketch -->
    <title>profiles</title>
    <desc>Created with Sketch.</desc>
    <defs></defs>
    <g id="icon" stroke="none" stroke-width="1" fill="none" fill-rule="evenodd">
        <g id="profiles">
            <g id="iconmonstr-user-1" transform="translate(5.000000, 6.000000)" fill="#273D5E">
                <path d="M25.2923333,21.112 C21.2801667,20.1856667 17.5456667,19.3736667 19.354,15.9576667 C24.8606667,5.56033333 20.8135,0 15,0 C9.071,0 5.12533333,5.77383333 10.646,15.9576667 C12.5091667,19.3935 8.6335,20.2055 4.70766667,21.112 C1.1225,21.9403333 0.988333333,23.7206667 1,26.8333333 L1.00466667,28 L28.993,28 L28.9976667,26.8695 C29.0116667,23.7335 28.8903333,21.9438333 25.2923333,21.112 L25.2923333,21.112 Z" id="Shape"></path>
            </g>
            <g id="iconmonstr-user-1" transform="translate(5.000000, 46.000000)" fill="#628BA9">
                <path d="M25.2923333,21.112 C21.2801667,20.1856667 17.5456667,19.3736667 19.354,15.9576667 C24.8606667,5.56033333 20.8135,0 15,0 C9.071,0 5.12533333,5.77383333 10.646,15.9576667 C12.5091667,19.3935 8.6335,20.2055 4.70766667,21.112 C1.1225,21.9403333 0.988333333,23.7206667 1,26.8333333 L1.00466667,28 L28.993,28 L28.9976667,26.8695 C29.0116667,23.7335 28.8903333,21.9438333 25.2923333,21.112 L25.2923333,21.112 Z" id="Shape"></path>
            </g>
        </g>
    </g>
</svg>