<?xml version="1.0" encoding="UTF-8"?>
<svg width="40px" height="80px" viewBox="0 0 40 80" version="1.1" xmlns="http://www.w3.org/2000/svg" xmlns:xlink="http://www.w3.org/1999/xlink">
    <!-- Generator: Sketch 41 (35326) - http://www.bohemiancoding.com/sketch -->
    <title>student-alumni</title>
    <desc>Created with Sketch.</desc>
    <defs>
        <polygon id="path-1" points="34.8770486 0.00298584461 34.8770486 23.3219086 0 23.3219086 0 11.6624472 0 0.00298584461 34.8770486 0.00298584461"></polygon>
        <polygon id="path-3" points="34.8770486 0.00298584461 34.8770486 23.3219086 0 23.3219086 0 11.6624472 0 0.00298584461 34.8770486 0.00298584461"></polygon>
    </defs>
    <g id="icon" stroke="none" stroke-width="1" fill="none" fill-rule="evenodd">
        <g id="student-alumni">
            <g id="grad-cap-icon" transform="translate(2.000000, 10.000000)">
                <mask id="mask-2" fill="white">
                    <use xlink:href="#path-1"></use>
                </mask>
                <g id="Clip-2"></g>
                <path d="M7.1453934,10.2995881 L17.5302642,13.6696268 C17.7353544,13.7361106 17.9570359,13.7369197 18.1625444,13.6716497 L28.7907071,10.2995881 L28.7907071,15.3903829 C28.7907071,15.3903829 28.5815736,16.8232225 26.5412675,17.6884553 C21.2524216,19.931237 11.4883984,19.8518071 6.95717328,16.0084256 C9.0857337,14.053021 6.95717328,12.3841843 6.95717328,12.3841843 L7.1453934,10.2995881" id="Fill-1" fill="#273D5E" mask="url(#mask-2)"></path>
                <path d="M34.1933216,5.09767241 L18.1675636,0.0507056646 C17.9589878,-0.0149689595 17.7338208,-0.0128112716 17.5267786,0.0569090172 L0.93900926,5.64302802 C0.571770895,5.7666905 0.571770895,6.26916206 0.93900926,6.39282455 L5.08947202,7.79060171 C4.58699401,8.20919315 3.35617385,9.54210482 3.46743286,12.4868093 C2.79472021,12.7245596 2.31789591,13.3115855 2.31789591,13.9996182 C2.31789591,14.6579827 2.75442716,15.2235667 3.38113045,15.4796572 C3.38113045,15.4799269 3.38099102,15.4801967 3.38099102,15.4804664 C3.20685256,19.5489217 0,21.8803034 0,21.8803034 L2.73616284,23.3299999 C6.18881693,22.7908477 5.36385512,16.7044148 5.13659676,15.3524885 C5.62262293,15.0606612 5.94287598,14.5638536 5.94287598,13.9996182 C5.94287598,13.4351131 5.62206524,12.9379009 5.13548138,12.6462085 L5.1356208,12.6459388 C5.1356208,12.6459388 5.10634211,8.74874997 7.41796402,7.85924315 L17.2890636,3.97972039 C17.7552918,3.79645178 18.2916494,4.0154571 18.4811243,4.46641386 L18.4886531,4.48434964 C18.6781281,4.9353064 18.4517062,5.45409547 17.985478,5.63736409 L9.08433947,9.13578523 L17.5267786,11.9788087 C17.7338208,12.0486638 17.9589878,12.0508215 18.1675636,11.9851469 L34.1933216,6.93818015 C35.1050041,6.64149807 35.1050041,5.39435449 34.1933216,5.09767241" id="Fill-3" fill="#273D5E" mask="url(#mask-2)"></path>
            </g>
            <g id="grad-cap-icon" transform="translate(2.000000, 50.000000)">
                <mask id="mask-4" fill="white">
                    <use xlink:href="#path-3"></use>
                </mask>
                <g id="Clip-2"></g>
                <path d="M7.1453934,10.2995881 L17.5302642,13.6696268 C17.7353544,13.7361106 17.9570359,13.7369197 18.1625444,13.6716497 L28.7907071,10.2995881 L28.7907071,15.3903829 C28.7907071,15.3903829 28.5815736,16.8232225 26.5412675,17.6884553 C21.2524216,19.931237 11.4883984,19.8518071 6.95717328,16.0084256 C9.0857337,14.053021 6.95717328,12.3841843 6.95717328,12.3841843 L7.1453934,10.2995881" id="Fill-1" fill="#628BA9" mask="url(#mask-4)"></path>
                <path d="M34.1933216,5.09767241 L18.1675636,0.0507056646 C17.9589878,-0.0149689595 17.7338208,-0.0128112716 17.5267786,0.0569090172 L0.93900926,5.64302802 C0.571770895,5.7666905 0.571770895,6.26916206 0.93900926,6.39282455 L5.08947202,7.79060171 C4.58699401,8.20919315 3.35617385,9.54210482 3.46743286,12.4868093 C2.79472021,12.7245596 2.31789591,13.3115855 2.31789591,13.9996182 C2.31789591,14.6579827 2.75442716,15.2235667 3.38113045,15.4796572 C3.38113045,15.4799269 3.38099102,15.4801967 3.38099102,15.4804664 C3.20685256,19.5489217 0,21.8803034 0,21.8803034 L2.73616284,23.3299999 C6.18881693,22.7908477 5.36385512,16.7044148 5.13659676,15.3524885 C5.62262293,15.0606612 5.94287598,14.5638536 5.94287598,13.9996182 C5.94287598,13.4351131 5.62206524,12.9379009 5.13548138,12.6462085 L5.1356208,12.6459388 C5.1356208,12.6459388 5.10634211,8.74874997 7.41796402,7.85924315 L17.2890636,3.97972039 C17.7552918,3.79645178 18.2916494,4.0154571 18.4811243,4.46641386 L18.4886531,4.48434964 C18.6781281,4.9353064 18.4517062,5.45409547 17.985478,5.63736409 L9.08433947,9.13578523 L17.5267786,11.9788087 C17.7338208,12.0486638 17.9589878,12.0508215 18.1675636,11.9851469 L34.1933216,6.93818015 C35.1050041,6.64149807 35.1050041,5.39435449 34.1933216,5.09767241" id="Fill-3" fill="#628BA9" mask="url(#mask-4)"></path>
            </g>
        </g>
    </g>
</svg>