<?xml version="1.0" encoding="UTF-8"?>
<svg width="35px" height="72px" viewBox="0 0 35 72" version="1.1" xmlns="http://www.w3.org/2000/svg" xmlns:xlink="http://www.w3.org/1999/xlink">
    <!-- Generator: Sketch 42 (36781) - http://www.bohemiancoding.com/sketch -->
    <title>iPad Pro Portrait</title>
    <desc>Created with Sketch.</desc>
    <defs></defs>
    <g id="Page-1" stroke="none" stroke-width="1" fill="none" fill-rule="evenodd">
        <g id="iPad-Pro-Portrait" fill-rule="nonzero">
            <g id="iconmonstr-light-bulb-16" transform="translate(5.000000, 0.000000)" fill="#273D5E">
                <path d="M26,10.9920833 L26,12.76425 L22.7006,12.76425 C22.7266,12.4762083 22.75,12.1855833 22.75,11.884625 C22.75,11.5785 22.7279,11.2852917 22.7045,10.993375 L26,10.993375 L26,10.9920833 Z M12.1576,2.52779167 L12.1576,0 L13.9399,0 L13.9399,2.53683333 C13.6253,2.50841667 13.3107,2.491625 12.9961,2.491625 C12.7166,2.491625 12.4371,2.50454167 12.1576,2.52779167 Z M19.3349,4.522125 L21.3759,2.27075 L22.7006,3.4565 L20.6167,5.75179167 C20.2917,5.36816667 19.8458,4.88379167 19.3349,4.522125 L19.3349,4.522125 Z M5.3755,5.75179167 L3.2916,3.4565 L4.6163,2.27075 L6.6573,4.522125 C6.1477,4.88379167 5.7005,5.36816667 5.3755,5.75179167 Z M3.2994,12.76425 L0,12.76425 L0,10.9920833 L3.2955,10.9920833 C3.2721,11.284 3.25,11.5785 3.25,11.884625 C3.25,12.1855833 3.2734,12.4762083 3.2994,12.76425 L3.2994,12.76425 Z M15.6,24.5416667 L10.4,24.5416667 C10.0412,24.5416667 9.75,24.831 9.75,25.1875 C9.75,25.544 10.0412,25.8333333 10.4,25.8333333 L15.6,25.8333333 C15.9588,25.8333333 16.25,25.544 16.25,25.1875 C16.25,24.831 15.9588,24.5416667 15.6,24.5416667 Z M15.6,27.125 L10.4,27.125 C10.0412,27.125 9.75,27.4143333 9.75,27.7708333 C9.75,28.1273333 10.0412,28.4166667 10.4,28.4166667 L15.6,28.4166667 C15.9588,28.4166667 16.25,28.1273333 16.25,27.7708333 C16.25,27.4143333 15.9588,27.125 15.6,27.125 Z M15.925,29.7083333 L10.075,29.7083333 L11.6194,30.7184167 C11.8196,30.8966667 12.1134,31 12.4189,31 L13.5824,31 C13.8866,31 14.1817,30.8966667 14.3819,30.7184167 L15.925,29.7083333 Z M20.8,11.884625 C20.8,16.4945833 16.6218,19.6126667 16.6218,23.25 L14.0361,23.25 C14.0322,20.8500833 15.1671,18.8725417 16.2734,16.9634583 C17.2627,15.252 18.2,13.6348333 18.2,11.884625 C18.2,8.536625 15.5025,7.01245833 12.9961,7.01245833 C10.4936,7.01245833 7.8,8.536625 7.8,11.884625 C7.8,13.6348333 8.7373,15.252 9.7266,16.9634583 C10.8329,18.8725417 11.9691,20.8500833 11.9626,23.25 L9.3782,23.25 C9.3782,19.6126667 5.2,16.4945833 5.2,11.884625 C5.2,7.07575 9.0974,4.429125 12.9961,4.429125 C16.8974,4.429125 20.8,7.07833333 20.8,11.884625 Z" id="Shape"></path>
            </g>
            <g id="iconmonstr-light-bulb-16" transform="translate(5.000000, 40.000000)" fill="#6697B8">
                <path d="M26,10.9920833 L26,12.76425 L22.7006,12.76425 C22.7266,12.4762083 22.75,12.1855833 22.75,11.884625 C22.75,11.5785 22.7279,11.2852917 22.7045,10.993375 L26,10.993375 L26,10.9920833 Z M12.1576,2.52779167 L12.1576,0 L13.9399,0 L13.9399,2.53683333 C13.6253,2.50841667 13.3107,2.491625 12.9961,2.491625 C12.7166,2.491625 12.4371,2.50454167 12.1576,2.52779167 Z M19.3349,4.522125 L21.3759,2.27075 L22.7006,3.4565 L20.6167,5.75179167 C20.2917,5.36816667 19.8458,4.88379167 19.3349,4.522125 L19.3349,4.522125 Z M5.3755,5.75179167 L3.2916,3.4565 L4.6163,2.27075 L6.6573,4.522125 C6.1477,4.88379167 5.7005,5.36816667 5.3755,5.75179167 Z M3.2994,12.76425 L0,12.76425 L0,10.9920833 L3.2955,10.9920833 C3.2721,11.284 3.25,11.5785 3.25,11.884625 C3.25,12.1855833 3.2734,12.4762083 3.2994,12.76425 L3.2994,12.76425 Z M15.6,24.5416667 L10.4,24.5416667 C10.0412,24.5416667 9.75,24.831 9.75,25.1875 C9.75,25.544 10.0412,25.8333333 10.4,25.8333333 L15.6,25.8333333 C15.9588,25.8333333 16.25,25.544 16.25,25.1875 C16.25,24.831 15.9588,24.5416667 15.6,24.5416667 Z M15.6,27.125 L10.4,27.125 C10.0412,27.125 9.75,27.4143333 9.75,27.7708333 C9.75,28.1273333 10.0412,28.4166667 10.4,28.4166667 L15.6,28.4166667 C15.9588,28.4166667 16.25,28.1273333 16.25,27.7708333 C16.25,27.4143333 15.9588,27.125 15.6,27.125 Z M15.925,29.7083333 L10.075,29.7083333 L11.6194,30.7184167 C11.8196,30.8966667 12.1134,31 12.4189,31 L13.5824,31 C13.8866,31 14.1817,30.8966667 14.3819,30.7184167 L15.925,29.7083333 Z M20.8,11.884625 C20.8,16.4945833 16.6218,19.6126667 16.6218,23.25 L14.0361,23.25 C14.0322,20.8500833 15.1671,18.8725417 16.2734,16.9634583 C17.2627,15.252 18.2,13.6348333 18.2,11.884625 C18.2,8.536625 15.5025,7.01245833 12.9961,7.01245833 C10.4936,7.01245833 7.8,8.536625 7.8,11.884625 C7.8,13.6348333 8.7373,15.252 9.7266,16.9634583 C10.8329,18.8725417 11.9691,20.8500833 11.9626,23.25 L9.3782,23.25 C9.3782,19.6126667 5.2,16.4945833 5.2,11.884625 C5.2,7.07575 9.0974,4.429125 12.9961,4.429125 C16.8974,4.429125 20.8,7.07833333 20.8,11.884625 Z" id="Shape"></path>
            </g>
        </g>
    </g>
</svg>