<svg id="Layer_1" data-name="Layer 1" xmlns="http://www.w3.org/2000/svg" xmlns:xlink="http://www.w3.org/1999/xlink" viewBox="0 0 500 250"><defs><style>.cls-1{fill:none;}.cls-2{font-size:20px;}.cls-12,.cls-2,.cls-4,.cls-5,.cls-6,.cls-8{fill:#293d5e;}.cls-2,.cls-4,.cls-6,.cls-8{font-family:PrioriSansOT-Regular, Priori Sans OT;}.cls-3{letter-spacing:-0.02em;}.cls-4{font-size:28px;}.cls-5,.cls-7{font-size:48px;font-family:PrioriSansOT-Bold, Priori Sans OT;font-weight:700;}.cls-6{font-size:40px;}.cls-7{fill:#74accf;}.cls-8{font-size:26px;}.cls-9{letter-spacing:-0.02em;}.cls-10{letter-spacing:0em;}.cls-11{clip-path:url(#clip-path);}</style><clipPath id="clip-path"><rect class="cls-1" width="500" height="250"/></clipPath></defs><title>PCG Infographics 2</title><text class="cls-2" transform="translate(20 53.62)">In 2018, Messiah Col<tspan class="cls-3" x="138.24" y="0">l</tspan><tspan x="142.28" y="0">ege awarded</tspan></text><text class="cls-4" transform="translate(244.98 53.62)"> </text><text class="cls-5" transform="translate(18 94.02)">651</text><text class="cls-6" transform="translate(78.43 94.02)"> </text><text class="cls-7" transform="translate(85.63 94.02)">undergraduate degrees</text><text class="cls-6" transform="translate(471.4 94.02)"> </text><text class="cls-8" transform="translate(43 136.42)">and</text><text class="cls-6" transform="translate(73.68 136.42)"> </text><text class="cls-5" transform="translate(80.88 136.42)">148</text><text class="cls-6" transform="translate(139.25 136.42)"> </text><text class="cls-7" transform="translate(146.45 136.42)">graduate degrees</text><text class="cls-6" transform="translate(433.77 136.42)">—</text><text class="cls-8" transform="translate(42.09 179.62)">enhancing the quality of the regional, </text><text class="cls-8" transform="translate(362.59 179.62)"> </text><text class="cls-8" transform="translate(43.83 206.82)">national and international work<tspan class="cls-9" x="261.32" y="0">f</tspan><tspan class="cls-10" x="267.25" y="0" xml:space="preserve">orce.  </tspan></text><g class="cls-11"><path class="cls-12" d="M444,185.06l-24.72,3.17-19.44-10.09a8.17,8.17,0,0,0-3.31,5.08L393.35,201c0,.19-.11.35-.15.53L415,212.82l25.68-3.37,3.44-19.4-.21,0a15,15,0,0,0,0-5"/><path class="cls-12" d="M400.86,175.18l19,9.84,46.73-6-41.82-21.7-46.73,6,18.4,9.55c-2.86,1.85-5.33,4.48-6,8.21l-3.15,17.76c-.85,4.81-6.09,7.68-6.15,7.7l2.71.78-.75,2.92c.29-.15,7.09-3.82,8.31-10.67l3.15-17.76c.54-3.06,3.31-5.19,6.34-6.62"/></g></svg>