<svg id="Layer_1" data-name="Layer 1" xmlns="http://www.w3.org/2000/svg" xmlns:xlink="http://www.w3.org/1999/xlink" viewBox="0 0 500 250"><defs><style>.cls-1{fill:none;}.cls-2,.cls-3{font-size:49.51px;}.cls-11,.cls-2,.cls-3,.cls-6,.cls-8{fill:#293d5e;}.cls-11,.cls-2,.cls-8{font-family:PrioriSansOT-Regular, Priori Sans OT;}.cls-3,.cls-4,.cls-6{font-family:PrioriSansOT-Bold, Priori Sans OT;font-weight:700;}.cls-4,.cls-6{font-size:97px;}.cls-12,.cls-4{fill:#74accf;}.cls-5{letter-spacing:-0.02em;}.cls-7{clip-path:url(#clip-path);}.cls-8{font-size:46px;}.cls-9{letter-spacing:-0.02em;}.cls-10{letter-spacing:0em;}.cls-11{font-size:38px;}</style><clipPath id="clip-path"><rect class="cls-1" width="500" height="250"/></clipPath></defs><title>PCG Infographics 25</title><text class="cls-2" transform="translate(18 52.14)">Messiah students </text><text class="cls-3" transform="translate(305.17 52.14)">compost</text><text class="cls-2" transform="translate(456.04 52.14)"> </text><text class="cls-4" transform="translate(18 118.18)"><tspan class="cls-5">7</tspan><tspan x="39.57" y="0">00+ </tspan></text><text class="cls-6" transform="translate(231.21 118.18)">pounds</text><g class="cls-7"><text class="cls-4" transform="translate(482 118.18)"> </text></g><text class="cls-8" transform="translate(18 170.85)">of organic waste week<tspan class="cls-9" x="331.33" y="0">l</tspan><tspan class="cls-10" x="340.62" y="0">y </tspan></text><text class="cls-11" transform="translate(18 209.53)">from campus dining facilities. </text><g class="cls-7"><path class="cls-12" d="M394,189.33c.17,1.9.21,3.82.53,5.7a62.68,62.68,0,0,0,15.37,31.59c3.1,3.51,6.64,6.52,11.14,8.14,3,1.08,6,1.46,8.63-1a4,4,0,0,1,1.27-.7,4.1,4.1,0,0,1,4.94,1c1.3,1.73,3,2,4.88,1.77a27,27,0,0,0,13.67-5.55c8.44-6.26,14.28-14.54,18.36-24.12,3.26-7.64,4.65-15.55,3-23.82-1.08-5.43-3.39-10.14-7.91-13.55-4.28-3.23-9.26-4.47-14.5-4.83a65.25,65.25,0,0,0-18.62,1.71,5.15,5.15,0,0,1-2.83-.11,45,45,0,0,0-17-2.51c-7.77.54-13.84,3.88-17.51,11-2.49,4.8-3.24,10-3.4,15.35M470.09,139a32.77,32.77,0,0,0-8.75-1.63c-11.21-.71-19.77,4-26.34,12.84-1,1.35-2,2.71-3,4.1a1.79,1.79,0,0,0-.34,1.21,28.85,28.85,0,0,0,1,3.34c.34,1,.78,1.94,1.19,2.92,2.44-.39,4.78-.83,7.14-1.13,7.24-.92,14.44-.94,21.45,1.46,9.68,3.32,15.21,10.22,17.14,20.15,1.66,8.5.17,16.61-3.13,24.48a63.6,63.6,0,0,1-18.92,25.7,31.12,31.12,0,0,1-14.45,6.88,23.24,23.24,0,0,1-4.58.23,7.14,7.14,0,0,1-5.14-2.45c-.37-.41-.74-.78-1.33-.32-5.74,4.47-11.27,2.66-16.66-.66a42.87,42.87,0,0,1-11.66-11.26,67.64,67.64,0,0,1-12.62-27.18c-1.82-9-1.12-17.79,3.45-25.94,4.17-7.45,10.78-11.32,19.16-12.33a41.2,41.2,0,0,1,14.05,1l1.1.24a1.46,1.46,0,0,0,.31,0,60,60,0,0,1-2.83-23.31l3.51.68.42,11.44.38.17C442,133.44,457,130.18,474.81,136.54c-1,10.78-11.68,19.69-23.8,19.94l-.69-3.59c2.19-.47,4.27-.88,6.35-1.36,6.38-1.47,10.87-5.15,13.17-11.36.1-.28.2-.56.29-.85,0-.06,0-.14,0-.31"/></g></svg>