<svg id="Layer_1" data-name="Layer 1" xmlns="http://www.w3.org/2000/svg" xmlns:xlink="http://www.w3.org/1999/xlink" viewBox="0 0 500 250"><defs><style>.cls-1,.cls-10,.cls-18,.cls-19,.cls-20,.cls-9{fill:none;}.cls-11,.cls-2{font-size:16px;}.cls-11,.cls-13,.cls-2,.cls-3,.cls-4,.cls-8{fill:#293d5e;}.cls-11,.cls-2,.cls-3,.cls-5,.cls-8{font-family:PrioriSansOT-Regular, Priori Sans OT;}.cls-3{font-size:20px;}.cls-4,.cls-5,.cls-8{font-size:32px;}.cls-13,.cls-14,.cls-15,.cls-16,.cls-4{font-family:PrioriSansOT-Bold, Priori Sans OT;font-weight:700;}.cls-14,.cls-15,.cls-16,.cls-21,.cls-5{fill:#74accf;}.cls-6{letter-spacing:-0.04em;}.cls-7{letter-spacing:-0.02em;}.cls-10,.cls-18,.cls-19,.cls-9{stroke:#293d5e;}.cls-9{stroke-miterlimit:10;}.cls-10,.cls-19{stroke-linecap:round;}.cls-10{stroke-linejoin:round;stroke-width:0.36px;}.cls-11{letter-spacing:-0.06em;}.cls-12{letter-spacing:0em;}.cls-13,.cls-14{font-size:33px;}.cls-15{font-size:30px;}.cls-16{font-size:31px;}.cls-17{clip-path:url(#clip-path);}.cls-18,.cls-19,.cls-20{stroke-width:2px;}.cls-20{stroke:#74accf;}</style><clipPath id="clip-path"><rect class="cls-1" width="500" height="250"/></clipPath></defs><title>PCG Infographics 3</title><text class="cls-2" transform="translate(131 80.36)">Of those,</text><text class="cls-3" transform="translate(182.22 80.36)"> </text><text class="cls-4" transform="translate(185.81 80.36)">13,581</text><text class="cls-5" transform="translate(255.86 80.36)"><tspan xml:space="preserve"> live </tspan></text><text class="cls-5" transform="translate(303.73 80.36)"> </text><text class="cls-5" transform="translate(131 104.74)">in </text><text class="cls-5" transform="translate(155.51 104.74)"><tspan class="cls-6">P</tspan><tspan x="12.45" y="0">ennsy</tspan><tspan class="cls-7" x="71.23" y="0">l</tspan><tspan x="77.69" y="0">vania</tspan></text><text class="cls-3" transform="translate(284.72 104.76)"> </text><text class="cls-3" transform="translate(227.44 137.16)">and </text><text class="cls-4" transform="translate(254.65 137.16)">2,850</text><text class="cls-8" transform="translate(324.06 137.16)"> </text><text class="cls-5" transform="translate(329.82 137.16)">live in the </text><text class="cls-5" transform="translate(431 137.16)"> </text><text class="cls-5" transform="translate(171.16 161.54)">greater Harrisburg region</text><polygon class="cls-9" points="116.07 52.52 116.17 51.45 116.17 51.33 116.17 51.09 116.14 49.66 116.13 48.94 116.23 47.62 116.19 45.83 116.18 45.12 116.17 44.52 116.28 44.04 116.25 41.89 116.24 41.77 116.84 41.52 118.5 40.77 121.58 39.41 122.05 39.28 123.13 39.02 124.67 38.27 124.9 38.15 125.5 37.9 125.5 38.02 125.97 37.66 126.09 37.65 126.21 37.65 126.92 37.52 126.92 37.4 127.28 37.39 127.28 37.27 128.23 37.02 128.22 36.9 128.46 36.77 130.12 36.03 130.24 35.91 131.31 35.41 132.37 34.68 132.84 34.43 134.03 33.81 134.5 33.56 135.56 32.95 135.8 32.82 136.27 32.58 136.63 32.45 137.1 32.2 137.57 31.84 137.69 31.84 137.81 31.71 137.93 31.59 138.52 31.22 138.75 30.98 139.22 30.49 140.14 28.21 140.37 27.61 140.72 27 141.54 26.15 142.01 26.02 142.25 26.02 142.61 25.89 143.44 25.64 144.04 25.75 144.28 25.98 143.93 26.47 144.42 27.18 143.95 27.42 144.19 27.78 144.44 27.89 144.68 28.01 145.03 28 145.98 27.51 146.34 27.26 146.69 27.14 147.17 26.89 147.64 26.52 148.11 26.28 148.23 26.15 148.82 25.91 149.29 25.54 149.53 25.41 149.65 25.41 149.88 25.17 150.24 24.92 151.42 24.07 151.89 23.82 152.72 23.21 153.19 22.96 153.67 22.83 154.73 22.34 154.97 22.21 155.09 22.09 155.79 21.6 156.03 21.36 157.22 20.86 158.64 20.48 159.35 20.11 159.83 19.86 161.6 18.87 163.02 18.13 163.85 17.64 163.85 17.88 163.76 19.19 163.77 19.91 163.77 20.03 163.74 24.93 163.74 25.29 163.75 25.76 163.77 26.72 163.78 27.32 163.79 27.68 163.69 29.35 163.71 30.3 163.76 33.05 163.71 36.76 163.74 38.79 163.77 40.46 164.25 40.45 167.35 40.4 169.38 40.36 170.22 40.47 171.06 40.45 171.89 40.44 172.25 40.43 173.21 40.41 176.91 40.47 177.63 40.46 178.35 40.56 179.42 40.55 180.62 40.52 181.81 40.5 185.63 40.56 186.71 40.54 187.55 40.52 189.93 40.48 192.92 40.55 193.52 40.54 195.79 40.5 196.39 40.49 196.74 40.48 200.09 40.42 200.21 40.42 200.81 40.41 202.36 40.5 203.19 40.49 207.5 40.41 208.09 40.52 212.04 40.45 212.39 40.45 212.75 40.44 212.99 40.44 213.83 40.54 214.9 40.52 216.46 40.5 217.29 40.6 219.09 40.57 219.21 40.57 222.19 40.52 225.18 40.46 227.09 40.43 229.24 40.39 230.31 40.38 233.42 40.32 233.78 40.31 235.33 40.29 236.64 40.26 237.24 40.25 237.48 40.25 237.72 40.24 238.2 40.24 240.47 40.2 241.42 40.3 245.01 40.24 249.78 40.15 252.05 40.11 252.17 40.11 252.29 40.11 253.73 40.2 254.68 40.19 256.95 40.15 257.19 40.14 258.03 40.13 261.01 40.08 261.97 40.06 263.4 40.04 264.95 39.89 266.14 39.87 266.38 39.86 268.42 39.95 269.25 39.93 270.21 39.92 270.45 39.91 272 39.89 273.44 39.98 274.03 39.97 274.15 39.97 276.3 39.93 276.66 39.92 277.73 39.91 280.12 39.86 281.44 39.84 283.59 39.8 283.94 39.8 284.42 39.79 285.02 39.78 289.56 39.7 290.99 39.67 296.72 39.57 296.84 39.57 298.39 39.42 304.96 39.31 306.28 39.29 306.75 39.28 307.95 39.26 309.02 39.24 312.01 39.19 315.95 39.12 316.67 39.11 318.34 39.08 322.76 39 323.95 38.98 325.5 38.83 326.58 38.81 327.65 38.8 328.73 38.78 329.32 38.77 330.04 38.75 331.36 38.73 332.55 38.59 333.26 38.58 334.58 38.55 336.01 38.53 338.64 38.36 340.07 38.34 340.43 38.33 341.15 38.32 341.38 38.32 341.5 38.31 342.7 38.29 346.88 38.1 347.12 38.1 348.07 38.08 349.86 38.05 352.25 38.01 352.37 38.01 353.33 37.99 353.44 37.99 353.56 37.98 355.24 37.95 359.18 37.89 364.19 37.8 364.79 37.79 365.27 37.78 365.63 37.77 365.87 37.77 365.99 37.77 366.34 37.76 366.46 37.76 366.7 37.76 367.06 37.75 367.54 37.74 369.45 37.71 369.93 37.7 370.17 37.69 375.18 37.49 377.21 37.45 377.57 37.45 381.87 37.37 382.58 37.24 386.29 37.17 389.87 36.99 390.94 36.97 391.3 36.97 392.01 36.95 392.49 36.95 395.12 36.78 395.36 36.78 398.82 36.72 399.77 36.58 400.13 36.57 400.37 36.57 401.69 36.55 405.98 36.35 407.18 36.33 409.45 36.29 413.27 36.23 413.75 36.22 413.99 36.21 415.18 36.07 415.89 36.06 419.48 35.88 420.67 35.86 423.41 35.69 423.53 35.69 423.65 35.69 424.25 35.67 427 35.51 431.41 35.31 431.77 35.3 434.4 35.14 434.63 35.13 436.31 35.11 439.17 34.94 439.53 35.17 440.01 35.28 440.25 35.4 440.38 35.51 440.5 35.99 440.5 36.11 440.28 37.07 440.29 37.19 440.53 37.3 440.76 37.3 441.13 37.53 441.61 38 441.74 38.12 441.86 38.59 442.23 38.95 442.35 39.06 442.83 39.05 442.95 39.05 442.94 38.81 442.94 38.69 443.06 38.57 443.18 38.57 443.3 38.57 443.42 38.57 443.54 38.68 443.55 39.16 443.67 39.28 443.79 39.52 444.39 39.86 444.52 40.22 444.52 40.34 444.65 40.81 444.66 41.17 444.66 41.41 445.15 42.12 445.28 42.48 445.28 42.84 444.93 43.32 444.94 43.68 445.07 44.15 445.31 44.27 445.67 44.26 445.79 44.38 446.04 44.97 445.92 45.09 445.8 45.22 445.68 45.34 445.57 45.46 445.69 45.7 445.69 45.82 445.81 45.93 445.82 46.05 446.06 46.17 446.42 46.16 446.53 46.04 446.65 46.04 446.89 45.8 447 45.67 447.25 45.79 447.49 46.14 447.73 46.38 448.09 46.49 448.21 46.49 448.45 46.24 448.68 45.64 448.79 45.52 449.03 45.4 449.39 45.39 449.75 45.51 449.99 45.62 450.11 45.74 450.23 45.74 450.24 45.98 450.36 46.09 450.48 46.09 450.6 46.21 450.6 46.09 450.71 46.09 450.71 45.97 450.83 45.97 450.83 45.84 450.83 45.61 450.94 45.37 450.94 45.25 451.06 45.24 451.06 45.13 451.18 45.12 451.18 45 451.3 45.12 451.42 45.12 451.54 45.24 451.66 45.47 451.67 46.19 451.8 46.66 451.92 46.78 452.16 46.9 452.4 47.01 452.64 47.01 453 46.76 453.24 46.76 453.47 46.64 454.08 47.22 454.2 47.22 454.8 47.09 455.04 47.21 455.04 47.33 455.16 47.56 455.17 47.92 455.06 48.4 455.06 48.64 455.18 48.88 455.19 49.12 456.15 49.34 456.51 49.81 456.76 49.92 457 49.92 457.35 49.67 457.47 49.55 457.7 49.55 457.83 49.67 457.83 49.79 457.95 49.78 457.95 49.9 457.83 50.02 457.83 50.14 457.84 50.5 457.72 50.62 457.73 50.74 457.61 50.98 457.49 51.11 457.37 51.11 456.9 51.12 456.66 51.24 456.54 51.36 456.31 51.72 456.19 51.85 456.07 51.97 456.08 52.09 455.96 52.45 455.97 52.69 455.97 53.05 455.98 53.16 455.98 53.28 456.1 53.4 456.22 53.52 456.34 53.52 456.58 53.51 456.7 53.51 457.53 53.26 457.65 53.25 457.77 53.25 457.89 53.25 457.89 53.37 458.01 53.37 458.01 53.49 458.25 53.6 458.49 53.6 458.73 53.71 458.98 54.19 459.1 54.42 459.23 54.78 459.36 55.38 459.25 56.21 459.38 56.69 459.38 56.81 459.39 56.93 459.64 57.88 459.64 58 459.65 58.12 459.53 58.24 458.93 58.13 458.57 58.14 458.46 58.38 458.46 58.5 458.58 58.73 459.07 59.2 459.31 59.56 459.56 60.15 459.69 60.63 459.69 60.87 459.7 60.98 459.58 60.99 459.23 61.35 459.23 61.47 459.35 61.71 459.35 61.83 459.59 61.82 459.84 62.3 459.97 62.77 459.98 63.37 459.99 63.97 459.99 64.09 460.12 64.68 460.12 64.8 460.37 65.51 460.38 65.99 460.38 66.11 460.27 66.23 460.15 66.23 460.02 66.12 459.9 66 459.78 66 459.67 66 459.43 66.13 459.31 66.25 459.43 66.37 459.43 66.49 459.44 66.61 459.44 66.72 459.32 66.73 459.2 66.73 458.96 66.73 458.72 66.74 458.72 66.86 458.6 66.86 458.49 66.98 458.49 67.1 458.85 67.45 459.1 67.69 459.22 68.04 459.46 68.28 459.59 68.4 459.95 68.63 460.43 68.98 460.56 69.57 460.81 70.05 461.05 70.28 461.3 70.4 461.53 70.39 461.65 70.51 462.27 71.45 462.52 71.93 462.52 72.05 462.4 72.29 462.05 72.42 461.93 72.54 461.94 72.89 462.06 73.01 462.54 73.12 462.66 73.12 462.9 73.36 463.38 73.71 463.51 74.06 463.51 74.18 463.51 74.3 463.4 74.54 463.4 74.78 463.4 74.9 463.41 75.02 463.41 75.14 463.65 75.14 464 75.01 464.36 75 464.6 75 464.6 75.12 464.61 75.24 464.72 75.24 464.73 75.36 464.73 75.59 464.85 75.83 464.74 75.95 464.63 76.55 464.63 76.67 464.63 76.79 464.63 76.91 464.64 77.03 464.76 77.15 464.76 77.27 464.88 77.38 465.72 77.61 465.96 77.6 466.2 77.6 466.44 77.6 466.56 77.59 467.03 77.23 467.14 76.99 467.38 76.98 467.62 76.98 467.98 76.97 467.98 77.09 468.35 77.32 468.58 77.44 468.94 77.43 469.06 77.43 469.3 77.55 469.43 77.78 469.55 77.78 469.55 78.14 469.56 78.5 469.68 78.73 469.93 78.85 470.52 78.96 470.64 79.08 470.77 79.19 470.89 79.43 470.89 79.55 470.54 79.91 470.43 80.28 470.43 80.51 470.67 80.51 470.91 80.63 471.15 80.5 471.5 80.38 471.74 80.37 472.45 80 472.81 79.99 473.05 80.11 473.42 80.34 473.66 80.46 474.26 80.92 474.38 81.04 474.62 81.04 474.74 81.04 474.98 80.91 475.09 80.55 475.21 80.43 475.33 80.31 475.32 80.19 475.44 80.19 475.56 80.07 475.8 79.94 476.04 79.94 476.16 80.06 476.52 80.29 476.52 80.41 476.52 80.53 476.53 80.77 476.65 80.88 476.65 81 476.9 81.48 477.02 81.59 477.14 81.59 477.26 81.71 477.62 81.58 477.97 81.34 478.33 81.21 478.45 81.21 478.81 81.32 478.93 81.44 479.17 81.44 479.29 81.43 479.41 81.31 479.52 81.19 479.64 80.95 480.11 80.7 480.35 80.7 480.47 80.7 480.59 80.81 480.71 81.05 480.72 81.17 480.72 81.41 480.5 82.13 480.38 82.37 480.38 82.61 480.39 82.85 480.63 83.2 480.76 83.44 480.88 83.56 481.12 83.67 481.72 83.66 482.08 83.89 482.2 84.13 482.32 84.25 482.45 84.72 482.58 84.96 482.82 85.2 482.94 85.31 483.18 85.43 483.3 85.55 483.42 85.66 483.67 85.9 483.79 86.14 483.8 86.37 483.8 86.49 483.44 86.74 483.56 86.74 483.21 86.98 482.97 86.99 482.73 87.11 481.9 87.6 481.31 87.85 480.95 87.74 480 87.88 479.88 87.88 479.76 88 479.53 88.36 479.41 88.36 479.42 88.72 479.3 88.96 479.3 89.08 479.3 89.2 479.19 89.32 479.07 89.44 478.95 89.57 478.83 89.69 478.72 89.69 478.6 89.81 478.48 89.81 478.24 89.82 478.12 89.82 477.88 89.82 477.76 89.94 477.64 89.95 477.52 89.95 477.41 90.19 477.29 90.31 477.54 90.67 477.54 90.91 477.54 91.02 476.72 91.64 476.37 92.12 476.13 92.24 475.78 92.49 475.31 93.09 475.08 93.58 474.96 93.82 474.85 93.94 474.73 94.06 474.73 94.18 474.62 94.42 474.39 95.14 474.39 95.26 474.52 95.5 474.4 95.86 474.4 95.98 474.29 96.1 473.93 96.22 473.81 96.23 473.69 96.35 473.47 96.95 473.47 97.31 473.24 97.79 473.13 98.15 473.25 98.27 473.62 98.62 473.74 98.74 473.74 98.86 473.62 98.98 473.27 99.7 473.05 100.3 473.05 100.42 472.93 100.66 472.7 101.27 472.71 101.62 472.48 102.11 472.01 102.71 471.43 103.44 471.31 103.68 471.32 103.8 471.08 104.28 470.04 105.85 469.57 106.22 468.74 106.71 468.5 106.95 468.5 107.07 468.51 107.19 467.56 107.93 467.45 108.05 467.21 108.05 466.97 108.06 466.62 108.3 466.38 108.55 465.93 109.87 465.93 110.22 466.17 110.22 466.29 110.22 466.41 110.1 466.53 110.09 466.88 109.73 467.12 109.61 467.23 109.49 467.36 109.6 467.48 109.6 467.48 109.72 467.37 110.2 467.25 110.44 466.54 110.93 466.07 111.06 465.71 111.19 465.48 111.43 465.01 112.03 464.77 112.04 464.65 112.16 464.54 112.64 464.55 112.88 464.43 113.12 464.31 113.24 463.96 113.84 463.85 113.97 463.97 114.32 463.98 114.44 463.62 114.57 463.38 114.69 463.03 115.17 462.8 115.3 461.14 116.28 460.9 116.41 460.55 116.53 459.95 116.78 459.96 116.9 459.84 117.02 459.6 117.27 459.37 117.39 458.77 117.64 458.66 117.88 457.95 118.37 457.72 118.61 457.6 118.62 457.6 118.73 457.48 118.86 457.48 118.98 457.49 119.33 457.37 119.58 457.38 119.69 457.26 120.06 457.27 120.29 457.39 120.53 457.51 120.65 457.63 120.65 458.11 120.52 458.11 120.64 458.23 120.64 458.23 120.88 458.24 120.99 458.24 121.11 458.24 121.23 458.37 121.71 458.49 121.95 458.86 122.3 459.23 123.01 459.35 123.36 459.72 123.84 459.84 124.07 459.96 124.31 460.45 124.66 460.57 124.78 461.06 125.13 461.06 125.25 461.18 125.36 461.18 125.48 461.31 125.72 461.31 126.32 461.32 126.68 461.44 126.79 461.44 126.91 462.05 127.5 462.17 127.5 462.3 127.73 462.54 128.09 462.9 128.44 462.91 128.56 463.03 128.68 463.03 128.92 463.04 129.04 463.04 129.16 462.92 129.4 462.92 129.52 462.93 129.63 462.46 130.12 462.23 130.6 461.87 130.73 461.63 130.49 461.51 130.5 460.55 130.63 460.32 130.76 460.2 131 460.2 131.12 460.21 131.24 460.21 131.47 460.33 131.59 460.82 132.06 460.94 132.06 461.06 132.18 461.06 132.3 461.06 132.42 461.07 132.66 461.07 132.89 460.72 133.38 460.37 133.62 460.37 133.74 460.25 133.86 460.14 134.1 460.14 134.22 460.14 134.46 460.14 134.58 460.15 134.7 459.68 135.55 459.56 135.55 459.57 135.67 459.21 135.67 459.09 135.8 458.74 135.92 458.62 136.16 458.5 136.4 458.27 136.88 458.16 137.01 457.8 137.01 457.2 137.02 456.48 136.8 456.24 136.68 456.12 136.68 455.88 136.81 455.76 136.81 455.65 136.93 455.53 137.05 455.53 137.17 455.42 137.53 455.43 138.01 455.31 138.13 455.07 138.38 454.48 138.74 454.25 138.99 454.25 139.11 454.25 139.23 454.26 139.47 454.38 139.58 454.74 139.93 454.99 140.17 454.99 140.29 455.23 140.52 455.24 140.76 455.24 140.88 455 141.24 455.01 141.36 454.78 141.85 454.66 142.09 454.54 142.09 454.54 142.21 454.43 142.45 454.31 142.81 454.32 142.93 454.2 143.29 454.09 143.77 454.1 143.89 453.98 144.13 454.1 144.37 454.11 144.49 454.23 144.6 454.47 144.96 454.83 145.07 454.95 145.07 455.31 145.06 455.43 145.06 455.55 145.06 455.67 145.18 455.79 145.17 455.79 145.29 455.79 145.41 455.8 145.65 455.68 145.77 455.57 146.01 455.57 146.13 455.45 146.25 455.09 146.38 454.98 146.62 454.86 146.62 454.63 147.23 454.4 147.71 454.4 147.83 454.89 148.18 454.89 148.3 455.01 148.41 455.01 148.53 455.14 148.89 455.27 149.72 455.27 149.84 455.28 149.96 455.16 150.08 454.68 150.21 454.44 150.22 454.45 150.34 454.45 150.57 454.69 150.81 454.82 151.05 454.82 151.16 455.06 151.52 455.2 152.35 455.2 152.47 455.32 152.47 455.32 152.59 455.21 152.83 455.21 152.95 455.09 153.19 454.98 153.31 454.98 153.43 454.98 153.55 455.1 153.79 455.23 153.91 455.47 154.14 455.59 154.26 455.59 154.38 455.71 154.38 455.71 154.5 455.83 154.49 455.95 154.49 456.19 154.61 456.31 154.6 456.43 154.72 456.67 154.72 456.79 154.72 456.91 154.71 457.15 154.71 457.39 154.59 457.97 153.98 458.09 153.86 458.21 153.85 458.33 153.73 458.45 153.73 458.57 153.73 458.69 153.61 458.81 153.6 459.64 153.71 460 153.82 460.48 153.93 461.08 154.16 461.21 154.28 461.45 154.51 462.06 155.1 462.18 155.34 462.55 155.81 463.27 156.28 463.39 156.51 463.4 156.75 463.53 157.59 463.54 158.18 463.55 158.3 463.56 158.9 463.56 159.38 463.82 160.33 463.82 160.45 463.95 160.92 463.96 161.28 463.73 161.76 463.61 162 463.62 162.36 463.62 162.72 463.63 162.84 463.63 162.96 463.52 163.44 463.52 163.56 463.65 164.16 464.03 165.34 464.16 166.18 464.28 166.29 464.29 166.41 464.41 166.65 464.53 166.77 464.65 166.77 465.01 166.88 465.13 166.88 465.25 166.99 465.37 167.11 465.49 167.23 465.74 167.46 465.86 167.46 466.1 167.58 466.34 167.69 466.46 167.69 466.58 167.69 467.05 167.56 468 167.31 468.24 167.06 468.36 167.06 468.84 167.17 469.08 167.29 469.08 167.41 469.2 167.4 469.32 167.52 469.44 167.52 469.56 167.64 470.16 167.87 470.29 167.98 470.41 168.1 470.53 168.22 471.02 169.16 471.27 169.76 471.4 169.99 471.65 170.71 471.9 171.3 471.9 171.54 471.91 172.02 471.91 172.14 472.04 172.61 472.16 172.61 472.28 172.97 472.77 173.31 473.25 173.67 473.86 174.13 474.46 174.6 474.82 174.71 474.94 174.71 475.18 174.71 475.54 174.94 475.79 175.06 475.91 175.17 476.15 175.29 476.27 175.53 477.12 176.35 477.37 176.7 477.61 177.17 477.98 177.76 478.23 178.36 478.61 179.31 478.98 180.02 479.34 180.25 480.06 180.6 480.19 180.71 480.43 180.95 481.63 181.41 482.11 181.52 482.48 181.87 482.59 181.87 482.72 181.98 482.84 182.1 482.96 182.22 483.08 182.22 483.2 182.33 483.32 182.45 483.68 182.69 483.93 183.16 483.93 183.28 484.18 183.63 484.42 183.99 484.43 184.1 484.68 184.82 484.8 185.05 484.92 185.17 485.04 185.29 485.52 185.52 486.01 185.75 486.25 185.99 487.11 187.05 487.11 187.28 487.12 187.64 487.12 188 487.01 188.24 486.89 188.36 485.95 189.34 485.83 189.34 485.71 189.34 485.11 189.35 485 189.35 484.88 189.47 484.52 189.6 484.17 189.85 483.81 190.21 483.34 190.58 483.23 190.7 483.11 190.7 482.99 190.7 482.87 190.7 482.15 190.48 481.91 190.48 481.55 190.25 481.43 190.25 481.19 190.14 480.95 190.14 480.83 190.26 480.6 190.5 480.36 190.87 480.36 190.99 480.37 191.11 480.25 191.23 480.14 191.59 480.14 191.95 480.03 192.19 479.91 192.43 479.56 192.79 479.32 192.92 479.2 192.92 479.09 193.04 478.97 193.04 478.85 193.16 478.73 193.29 478.73 193.41 478.62 193.53 478.5 193.89 478.51 194.01 478.27 194.13 477.91 194.26 477.2 194.51 476.73 194.75 476.13 195 475.78 195.13 475.42 195.25 475.3 195.38 474.7 195.27 474.47 195.27 474.35 195.27 474.23 195.4 473.99 195.52 473.87 195.52 473.16 196.01 473.05 196.13 472.1 196.75 471.75 196.99 471.28 197.36 470.92 197.72 470.69 197.85 470.57 197.97 470.57 198.09 470.34 198.33 469.64 199.18 469.28 199.54 469.05 199.67 468.93 199.79 468.81 199.91 468.46 200.04 467.98 200.28 467.86 200.29 467.39 200.41 467.27 200.54 467.15 200.54 467.03 200.66 466.8 200.9 466.57 201.26 466.45 201.39 466.11 202.23 465.99 202.47 465.64 202.84 465.52 202.96 465.52 203.07 465.29 203.32 464.22 203.81 463.98 203.94 463.04 204.31 462.8 204.44 462.32 204.69 461.97 204.93 461.97 205.05 461.86 205.17 461.74 205.29 461.62 205.29 461.38 205.66 461.39 205.9 461.39 206.13 461.4 206.25 461.28 206.38 461.28 206.5 461.28 206.62 461.29 206.85 461.42 207.45 461.42 207.57 461.42 207.81 461.43 207.93 461.55 208.16 461.67 208.4 461.68 208.64 461.8 208.88 461.92 208.99 461.92 209.11 461.93 209.23 461.93 209.71 461.94 209.83 461.82 210.19 461.71 210.55 461.48 210.79 461.25 211.28 461.13 211.4 461.01 211.64 460.66 211.76 459.11 211.91 458.51 211.92 458.39 211.92 458.15 212.05 457.8 212.41 457.44 212.66 456.86 213.38 456.15 213.75 455.68 214 455.32 214.25 454.73 214.38 453.9 214.63 452.94 214.88 452.82 214.89 451.99 215.02 451.87 215.02 451.51 215.03 451.16 215.04 451.04 215.04 450.44 214.93 450.08 215.06 449.96 215.06 449.6 215.06 449.13 215.07 448.42 215.44 448.3 215.44 448.18 215.57 447.94 215.69 447.94 215.81 447.59 215.94 447.59 216.05 446.76 216.79 446.53 217.03 446.42 217.27 446.3 217.27 446.06 217.4 445.94 217.64 445.36 218.13 444.88 218.49 444.77 218.61 444.53 218.86 443.82 219.35 442.98 218.76 442.62 218.53 442.37 218.41 441.53 218.07 441.53 217.95 441.29 217.96 441.29 217.84 440.93 217.72 440.69 217.61 440.09 217.38 439.97 217.38 439.49 217.27 438.76 217.04 438.29 216.93 437.45 216.83 437.09 216.72 435.65 216.62 434.82 216.64 433.62 216.66 433.02 216.67 432.19 216.8 432.07 216.92 430.64 217.19 429.57 217.56 429.1 217.69 428.04 218.31 427.8 218.43 426.97 218.92 426.62 219.05 426.5 219.17 426.26 219.29 426.26 219.41 425.79 219.78 425.32 220.03 425.2 220.27 425.08 220.27 424.85 220.51 424.38 221 424.26 221.12 424.14 221.24 424.03 221.37 423.91 221.49 423.79 221.61 423.79 221.73 423.56 221.97 423.32 222.21 423.21 222.45 423.09 222.58 422.97 222.7 422.86 222.82 422.62 223.06 422.63 223.18 422.51 223.3 422.28 223.78 422.16 223.91 422.04 224.15 421.7 224.87 421.36 225.71 421.36 225.83 421.01 226.79 420.9 226.92 419.94 227.05 419.23 227.06 418.63 227.07 418.51 227.08 417.91 227.09 416.48 227.23 414.33 227.27 410.39 227.46 408.72 227.49 407.53 227.51 406.33 227.65 405.38 227.66 404.54 227.68 401.92 227.72 398.22 227.91 397.74 227.92 397.5 227.92 396.31 227.94 396.19 227.94 391.77 228.14 391.17 228.15 390.69 228.16 389.14 228.31 384.72 228.38 384.49 228.39 384.01 228.4 381.62 228.56 380.67 228.57 380.07 228.58 379.23 228.6 379.11 228.6 377.8 228.62 377.68 228.63 376.49 228.65 374.46 228.8 372.79 228.83 372.19 228.84 371.11 228.86 370.63 228.87 369.44 228.89 366.81 229.06 365.38 229.08 363.95 229.1 363.71 229.11 361.92 229.14 361.08 229.16 360.84 229.16 360.13 229.17 359.89 229.18 357.26 229.34 356.79 229.35 355.35 229.37 354.4 229.39 354.04 229.4 353.92 229.4 351.17 229.57 349.26 229.6 348.67 229.61 348.19 229.62 346.99 229.64 346.63 229.65 345.68 229.66 344.61 229.68 344.25 229.69 343.17 229.71 342.1 229.84 341.5 229.85 338.75 229.9 338.52 229.91 337.8 229.92 337.68 229.92 337.2 229.93 334.57 229.98 333.62 229.99 331.59 230.03 330.75 230.04 327.53 230.22 327.41 230.22 325.98 230.25 325.74 230.25 322.51 230.31 322.39 230.31 320.84 230.34 318.81 230.37 318.1 230.38 317.98 230.38 317.74 230.39 317.62 230.39 317.38 230.4 316.9 230.4 316.78 230.41 316.66 230.41 316.06 230.42 315.11 230.44 311.76 230.49 311.17 230.5 309.38 230.53 308.66 230.55 306.99 230.58 306.87 230.58 306.27 230.59 304.72 230.62 304.36 230.62 302.33 230.66 298.15 230.73 298.03 230.73 297.79 230.74 294.57 230.79 294.45 230.8 294.09 230.8 293.61 230.81 293.37 230.81 292.66 230.83 291.7 230.72 290.86 230.74 290.38 230.75 287.4 230.8 287.28 230.8 286.68 230.81 285.49 230.83 284.89 230.84 284.77 230.84 284.53 230.85 283.1 230.87 280.83 230.91 280.71 230.92 280.11 230.93 277.01 230.98 272.82 230.93 271.99 230.95 271.87 230.95 270.32 230.98 268.29 231.01 267.81 231.02 267.09 231.03 265.3 231.07 263.63 231.09 263.51 231.1 262.2 231.12 261.12 231.14 261 231.14 259.33 231.17 258.49 231.18 255.27 231.12 254.91 231.25 254.79 231.25 254.67 231.25 254.55 231.25 252.04 231.18 249.18 231.23 248.34 231.24 247.86 231.25 247.5 231.26 246.91 231.27 245.83 231.29 244.88 231.3 244.28 231.31 241.89 231.35 241.65 231.36 241.53 231.36 241.29 231.25 240.57 231.26 239.38 231.28 238.54 231.29 237.83 231.31 236.63 231.33 235.68 231.34 234.36 231.37 234 231.37 232.93 231.39 232.45 231.4 231.02 231.31 230.06 231.32 229.82 231.33 228.99 231.34 228.63 231.35 227.43 231.37 226.96 231.38 226.72 231.38 225.88 231.4 225.76 231.4 224.33 231.42 223.97 231.43 223.49 231.44 221.94 231.46 221.58 231.47 221.46 231.47 219.31 231.39 218.12 231.41 217.4 231.42 216.44 231.44 209.04 231.45 208.8 231.45 208.32 231.46 206.29 231.5 198.53 231.51 195.78 231.56 195.54 231.57 195.06 231.57 192.55 231.62 191.36 231.52 190.28 231.54 186.58 231.6 181.08 231.58 177.98 231.63 176.43 231.66 173.56 231.59 173.2 231.6 172.6 231.61 172.36 231.61 171.41 231.63 169.14 231.55 165.91 231.6 165.31 231.62 164.12 231.52 162.45 231.55 159.58 231.6 156.71 231.53 156.59 231.53 156.47 231.53 156.35 231.53 152.89 231.47 152.65 231.48 148.23 231.44 147.75 231.44 144.4 231.38 143.81 231.39 143.21 231.4 143.09 231.41 142.97 231.41 142.25 231.42 138.79 231.36 135.92 231.29 135.08 231.31 133.89 231.33 133.77 231.33 133.65 231.33 132.93 231.22 131.5 231.25 131.38 231.25 129.35 231.29 128.51 231.18 127.2 231.21 127.08 231.21 125.17 231.24 121.34 231.19 119.91 231.09 117.88 231.13 117.76 231.13 117.52 231.14 117.28 231.02 116.32 231.04 113.57 230.97 113.59 225.11 113.57 223.92 113.64 221.29 113.63 220.33 113.74 219.85 113.72 219.01 113.71 218.18 113.7 217.82 113.8 216.74 113.74 212.92 113.85 212.8 113.83 211.25 113.82 211.01 113.82 210.77 113.81 210.53 113.86 206.23 113.94 203.96 113.9 201.92 114.01 201.44 114.01 201.21 114.01 201.09 113.98 199.65 113.97 198.94 114.07 197.74 114.03 195.59 114.13 194.27 114.11 193.2 114.07 191.17 114.12 187.1 114.12 186.98 114.22 186.03 114.2 185.07 114.19 184 114.29 182.92 114.26 181.13 114.23 179.93 114.34 178.97 114.34 178.85 114.33 178.5 114.43 177.3 114.42 176.82 114.37 174.19 114.48 173.71 114.46 172.16 114.52 168.81 114.52 168.7 114.5 167.86 114.5 167.62 114.49 167.26 114.48 166.78 114.56 164.15 114.51 161.41 114.62 160.69 114.57 158.18 114.57 157.94 114.65 155.91 114.62 154.12 114.62 154 114.61 153.64 114.72 153.16 114.72 153.04 114.72 152.8 114.69 151.49 114.69 151.13 114.67 149.81 114.74 147.42 114.73 146.71 114.83 145.87 114.78 143 114.78 142.64 114.77 142.04 114.88 141.45 114.87 141.21 114.86 140.37 114.84 139.41 114.93 137.5 114.91 136.43 114.91 136.31 114.91 136.19 114.99 134.03 114.95 132.12 114.95 132 114.94 131.53 114.94 131.05 115.04 130.33 115.03 129.49 115.01 128.66 115.01 128.42 115 127.82 115 127.7 114.99 127.22 115.09 126.51 115.07 124.95 115.06 124.83 115.06 124.36 115.05 124.12 115.14 122.44 115.13 121.73 115.12 121.25 115.21 119.33 115.2 118.62 115.19 118.5 115.18 117.78 115.18 117.66 115.17 117.42 115.17 116.83 115.15 116.11 115.26 115.27 115.25 114.91 115.24 114.08 115.22 113.24 115.21 112.52 115.31 111.57 115.29 110.25 115.27 109.42 115.37 107.98 115.36 107.5 115.35 106.91 115.35 106.67 115.34 106.19 115.32 105.35 115.32 105.23 115.43 104.63 115.42 104.28 115.41 103.44 115.41 103.32 115.4 102.84 115.38 101.53 115.37 101.29 115.48 100.81 115.43 98.06 115.43 97.58 115.51 95.79 115.51 95.55 115.51 95.43 115.51 95.31 115.5 95.19 115.49 94.36 115.47 93.52 115.47 93.4 115.58 92.56 115.57 91.97 115.55 91.25 115.63 88.86 115.62 88.14 115.61 87.78 115.6 87.19 115.6 86.83 115.68 84.91 115.64 82.76 115.64 82.64 115.75 81.81 115.71 79.42 115.7 79.06 115.69 78.46 115.79 77.38 115.76 75.83 115.75 75.23 115.83 72.84 115.9 69.73 115.87 68.3 115.86 67.58 115.86 67.47 115.93 64.95 115.91 63.76 116 61.73 115.98 60.65 115.97 60.17 115.96 59.58 116.04 57.42 116.07 52.52"/><path class="cls-10" d="M463.53,157.58v1.79l.26,1v.12l.13.48v.36l-.23.48-.12.24v1l-.11.48v.12l.13.59.38,1.19.13.83.12.12v.12l.12.24.12.12h.12l.36.11h.12l.12.12.12.12.12.12.24.24h.12l.24.12.24.12h.24l.48-.13,1-.26.23-.24h.12l.48.11.24.11v.12h.12l.12.12h.12l.12.12.6.23.12.12.12.12.12.12.5.95.25.59.12.24.25.71.25.59v.84l.13.48h.12l.13.36.48.35.48.35.61.47.61.47.36.11h.36l.36.23.24.11.12.12.24.11.12.24.85.82.24.36.25.47.37.59.25.59.38.95.37.71.36.23.72.35.12.12.24.24,1.2.46.48.11.36.35h.12l.12.12.12.12.12.12h.12l.12.12.12.12.36.23.25.47v.12l.25.35.24.35v.12l.25.71.12.24.12.12.12.12.48.23.48.23.24.23.86,1.06v1l-.12.24-.12.12-.94,1h-1l-.12.12-.36.13-.35.25-.35.36-.47.37-.12.12h-.36l-.72-.23h-.24l-.36-.23h-.12l-.24-.12h-.24l-.12.12-.23.24-.23.36v.24l-.12.12-.11.36v.36l-.11.24-.12.24-.35.36-.24.12h-.12l-.12.12H479l-.12.12-.12.12v.12l-.12.12-.11.36V194l-.24.13-.36.13-.71.25-.47.25-.59.25-.36.13-.36.13-.12.12-.6-.11h-.36l-.12.12-.24.12h-.12l-.71.49-.12.12-.95.61-.35.25-.47.37-.35.36-.24.12-.12.12v.12l-.23.24-.7.85-.35.37-.24.12-.12.12-.12.12-.36.13-.47.25h-.12l-.48.13-.12.12h-.12l-.12.12-.23.24-.23.36-.12.12-.34.84-.12.24-.35.36-.12.12v.12l-.24.24-1.07.5-.24.12-.95.38-.24.12-.47.25-.35.24V205l-.12.12-.12.12h-.12l-.23.36v.6l-.12.12v.48l.13.6v.48l.12.24.12.24v.24l.12.24.12.12v.84l-.11.36-.11.36-.23.24-.23.48-.12.12-.11.24-.36.13-1.55.15h-.72l-.24.12-.35.37-.35.24-.58.73-.71.37-.47.25-.35.24-.6.13-.83.25-1,.26h-.12L452,215h-1l-.6-.11-.36.13h-1l-.71.37h-.12l-.12.12-.24.12v.12l-.36.13v.12l-.82.73-.23.24-.12.24h-.12l-.24.12-.11.24-.59.49-.47.37-.12.12-.23.24-.71.49-.85-.58-.36-.23-.24-.12-.84-.34V218h-.24v-.12l-.36-.11-.24-.12-.6-.23H440l-.48-.11-.72-.23-.48-.11-.84-.1-.36-.11-1.43-.09h-.84l-1.19,0H433l-.83.13-.12.12-1.43.26-1.07.38-.48.13-1.07.62-.24.12-.83.49-.36.13-.12.12-.24.12v.12l-.47.37-.47.25-.12.24h-.12l-.24.24-.47.49-.12.12-.12.12-.12.12-.12.12-.12.12v.12l-.23.24-.23.24-.12.24-.12.12-.12.12-.12.12-.24.24v.12l-.12.12-.23.48-.12.12-.11.24-.35.72-.34.84v.12l-.34,1-.12.12-1,.14h-2l-1.43.15-2.15,0-3.94.19-1.67,0-1.19,0-1.19.14-1,0h-.84l-2.63,0-3.7.18h-.72l-1.19,0h-.12l-4.42.2h-1.08l-1.55.15-4.42.08H384l-2.39.16-1,0h-1.55l-1.31,0h-.12l-1.2,0-2,.15-1.67,0h-.6l-1.08,0h-.48l-1.19,0-2.63.17-1.43,0-1.43,0h-.24l-1.79,0h-2l-2.62.16h-.48l-1.43,0-1,0h-.48l-2.74.17-1.91,0h-1.08l-1.19,0h-.36l-1,0-1.08,0h-.36l-1.07,0-1.07.14h-.6l-2.75,0H337.2l-2.63,0-1,0-2,0h-.84l-3.22.17h-.12l-1.43,0h-.24l-3.23.06h-.12l-1.55,0-2,0h-2.75l-1,0-3.34.06h-.6l-1.79,0h-.72l-1.67,0h-.72l-1.55,0h-.36l-2,0-4.18.07h-.36l-3.23.06h-1.91l-1-.1h-1.31l-3,.05h-.72l-1.19,0h-1l-1.43,0-2.27,0h-.72L277,231l-4.18,0h-1l-1.55,0-2,0h-1.19l-1.79,0-1.67,0h-.12l-1.31,0-1.07,0H261l-1.67,0h-.84l-3.23-.06-.36.13h-.36l-2.51-.08-2.87.05h-2.27l-1.07,0-1,0h-.6l-2.39,0h-.36l-.24-.12h-.72l-1.19,0h-1.55l-1.19,0-1,0-1.31,0H234l-1.07,0h-.48l-1.43-.09-1,0h-1.43l-1.2,0h-1.67l-1.43,0h-.84l-1.55,0h-.48l-2.15-.08-1.19,0h-.72l-1,0h-8.12l-2,0-7.77,0-2.75,0h-.72l-2.51,0-1.2-.1-1.07,0-3.7.06-5.5,0-3.11.05-1.55,0-2.87-.07h-1.2l-1,0-2.27-.08-3.22.06h-.6l-1.2-.1-1.67,0-2.87.05-2.87-.07h-.36l-3.47-.06h-.24l-4.42,0h-.48l-3.35-.06h-2.15l-3.46-.06-2.87-.07h-.84l-1.19,0h-.24l-.72-.11-1.43,0h-.12l-2,0-.84-.1-1.31,0h-.12l-1.91,0-3.82-.05-1.43-.1-2,0h-.36l-.24-.11-1,0-2.75-.07,0-5.85,0-1.19.07-2.63,0-1,.11-.48v-2l.1-1.08-.07-3.82.12-.12,0-1.55v-.72l0-4.3.08-2.27,0-2,.11-.48v-.36l0-1.43v-.72l.1-1.2,0-2.15.1-1.32,0-1.07,0-2,0-4.06V187l.1-1,0-1,0-1.08.1-1.08,0-1.79,0-1.2.1-1v-.48l.1-1.2v-.48l0-2.63.11-.48,0-1.55.06-3.35v-2l.07-2.63,0-2.75.11-.72,0-2.51v-.24l.08-2,0-1.79v-.48l.11-.48v-.36l0-1.31v-.36l0-1.31.08-2.39v-.72l.1-.84,0-2.87v-1l.11-.6v-1.07l0-1,.09-1.91,0-1.08v-.24L115,134l0-1.91V131l.11-.72v-3.11l.11-.72,0-1.55v-.84l.09-1.68v-1.19l.09-1.91v-3.23l.11-.84v-2.75l.1-1,0-1.31v-.84l.09-1.44v-2.75l.11-.6v-1.79l0-1.31v-.24l.11-.48,0-2.75v-.48l.09-1.79v-.6l0-.84v-1l.11-.84V91.25l.08-2.39v-2l.09-1.91,0-2.15v-.12l.1-.84,0-2.39v-1l.1-1.08,0-1.55v-.6l.08-2.39.07-3.11,0-1.43v-.84l.08-2.51,0-1.19.08-2,0-1.07V59.58l.08-2.15,0-4.9m0,0,.1-1.08v-.36l0-1.43v-.72l.1-1.32,0-1.79V44.52l.11-.48,0-2.15v-.12l.59-.25,1.66-.75,3.08-1.37.47-.13,1.07-.26,1.54-.74.24-.12.59-.25V38l.47-.37h.24l.72-.13V37.4h.36v-.12l1-.26V36.9l.24-.12,1.66-.75.12-.12,1.07-.5,1.06-.74.47-.25,1.18-.62.47-.25,1.07-.62.24-.12.47-.25.36-.12.47-.25.47-.37h.12l.12-.12.12-.12.59-.37.24-.24.47-.49.92-2.29.23-.6.35-.6.82-.85L142,26h.24l.36-.12.83-.25.6.11.24.23-.35.48.49.71-.47.25.24.35.24.12.24.12H145l.95-.49.35-.24.36-.13.47-.25.47-.37.47-.25.12-.12.59-.25.47-.37.24-.12h.12l.23-.24.35-.25,1.18-.86.47-.25.83-.61.47-.25.48-.13,1.07-.5.24-.12.12-.12.71-.49.23-.24,1.19-.5,1.43-.38.71-.37.47-.25,1.78-1,1.42-.74.83-.49v.24l-.1,1.32V20l0,4.9v.84l0,1v1l-.09,1.67,0,1,0,2.75-.06,3.71,0,2,0,1.67h.48l3.11-.05,2,0,.84.1h2l1,0,3.71.05h.72l.72.11,1.08,0,1.19,0,1.19,0,3.82.05,1.08,0h.84l2.39,0,3,.07h.6l2.27,0h1l3.34-.06h.72l1.55.09h.84l4.3-.07.6.11,3.94-.07h1l.84.1,1.07,0,1.55,0,.84.11,1.79,0h.12l3-.05,3-.05,1.91,0,2.15,0,1.07,0,3.11-.05h.36l1.55,0,1.31,0h1.55l2.27,0,1,.1,3.58-.06,4.78-.08,2.27,0h.24l1.43.1,1,0,2.27,0H258l3-.05,1,0,1.43,0,1.55-.15,1.19,0h.24l2,.08h.84l1,0h.24l1.55,0,1.43.09h.72l2.15,0h.36l1.07,0,2.39,0,1.31,0,2.15,0H285l4.54-.08,1.43,0,5.73-.1h.12l1.55-.15,6.57-.12,1.31,0h.48l1.19,0,1.07,0,3-.05,3.94-.07h.72l1.67,0,4.42-.08L324,39l1.55-.15,1.07,0,1.08,0,1.07,0H330l1.31,0,1.19-.14h.72l1.31,0,1.43,0,2.63-.17,1.43,0h1.43l1.2,0,4.18-.19h.24l1,0,1.79,0,2.39,0h.12l1,0h.24l1.67,0,3.94-.07,5-.09h3.34l1.91,0h.72l5-.21,2,0h.36l4.3-.07.71-.13,3.7-.07,3.58-.18,1.08,0h1.55l2.63-.16h.24l3.46-.06,1-.14h.6l1.32,0,4.3-.19,1.19,0,2.27,0,3.82-.07H414l1.19-.14h.72l3.58-.18,1.19,0,2.74-.17h.84l2.74-.17,4.42-.2h.36l2.63-.17h.24l1.67,0,2.86-.17.36.23.48.11.24.12.12.12.13.48v.12l-.22,1v.12l.24.12h.24l.36.23.49.47.12.12.13.48.36.35.12.12h.6v-.36l.12-.12h.36l.12.12v.48l.12.12.12.24.6.35.13.36v.12l.13.48v.6l.49.71.13.36v.36l-.35.48v.36l.13.48.24.11h.36l.12.12L446,45l-.12.12-.12.12-.12.12-.12.12.12.24v.12l.12.12v.12l.24.12h.36l.12-.12h.12l.23-.24.12-.12.24.12.24.35.24.24.36.11h.12l.23-.24.23-.6.12-.12.24-.12h.36l.36.11.24.12.12.12h.12V46l.12.12h.12l.12.12v-.12h.12V46h.12v-.36l.12-.24v-.12h.12v-.12h.12V45l.12.12h.12l.12.12.12.24v.72l.13.48.12.12.24.12.24.12h.24l.35-.24h.24l.24-.12.61.59h.12l.59-.13.24.12v.12l.12.24v.36l-.11.48v.24l.12.24v.24l1,.22.37.47.24.11H457l.35-.24.12-.12h.24l.12.12v.12h.12v.12l-.12.12v.48l-.12.12v.12l-.12.24-.12.12h-.6l-.24.12-.12.12-.23.36-.12.12-.12.12v.12l-.11.36v.84l.12.12.12.12h.48l.83-.25h.36v.12H458v.12l.24.12h.24l.24.11.25.47.12.24.13.36.13.6-.1.84.13.48v.24l.26,1v.24l-.12.12-.6-.11h-.36l-.12.24v.12l.12.24.49.47.24.35.25.59.13.48V61h-.12l-.35.37v.12l.12.24v.12h.24l.25.47.13.48v1.31l.13.6v.12l.25.71v.6l-.12.12h-.12l-.12-.12L459.9,66h-.24l-.24.12-.12.12.12.12v.36h-.72v.12h-.12l-.12.12v.12l.37.35.24.24.13.36.24.24.12.12.36.23.48.35.13.6.25.47.24.24.24.12h.24l.12.12.61.95.25.47V72l-.12.24-.36.13-.12.12v.36l.12.12.48.11h.12l.24.24.48.35.13.36v.24l-.11.24v.6h.24L464,75h.6v.24h.12v.36l.12.24-.12.12-.11.6V77l.12.12v.12l.12.12.84.22h.84l.47-.37.12-.24H468v.12l.36.23.24.11h.48l.24.12.12.24h.12v.72l.12.24.24.12.6.11.12.12.12.12.12.24v.12l-.35.36-.11.36v.24h.24l.24.12.24-.12.36-.13h.24l.71-.37h.36l.24.11.36.23.24.12.61.47.12.12h.36l.24-.12.11-.36.12-.12.12-.12v-.12h.12l.12-.12.24-.12H476l.12.12.36.23v.48l.12.12V81l.25.47.12.12h.12l.12.12.36-.13.35-.25.36-.13h.12l.36.11.12.12h.36l.12-.12.12-.12.11-.24.47-.25h.36l.12.12.12.24v.36l-.23.72-.11.24v.48l.24.35.12.24.12.12.24.12h.6l.36.23.12.24.12.12.13.48.12.24.24.23.12.12.24.12.12.12.12.12.24.24.12.24v.36l-.35.24h.12l-.35.24H483l-.24.12-.83.49-.59.25-.36-.11-1,.14h-.12l-.12.12-.23.36h-.12v.36l-.12.24v.24l-.12.12-.12.12-.12.12-.12.12h-.12l-.12.12h-.72l-.12.12h-.24l-.11.24-.12.12.24.35V91l-.83.61-.35.48-.24.12-.35.25-.47.6-.23.48-.12.24-.12.12-.12.12v.12l-.11.24-.23.72v.12l.12.24-.11.36V96l-.12.12-.36.13h-.12l-.12.12-.23.6v.36l-.23.48-.11.36.12.12.36.35.12.12v.12l-.12.12-.35.72-.23.6v.12l-.12.24-.23.6v.36l-.23.48-.47.61-.58.73-.11.24v.12l-.23.48-1,1.57-.47.37-.83.49-.24.24v.24l-.94.73-.12.12H467l-.36.25-.23.24-.46,1.32v.36h.36l.12-.12h.12l.35-.36.24-.12.12-.12.12.12h.12v.12l-.11.48-.11.24-.71.49-.48.13-.36.13-.23.24L465,112h-.24l-.12.12-.11.48v.24l-.11.24-.12.12-.35.6-.12.12.13.36v.12l-.36.13-.24.12-.35.48-.24.12-1.65,1-.24.12-.36.13-.59.25v.12l-.12.12-.23.24-.24.12-.59.25-.11.24-.71.49-.23.24h-.12v.12l-.12.12v.48l-.12.24v.12l-.11.36v.24l.12.24.12.12h.12l.48-.13v.12h.12v.6l.13.48.12.24.36.35.37.71.13.36.37.47.12.24.12.24.48.35.12.12.48.35v.12l.12.12v.12l.12.24v1l.12.12v.12l.61.59h.12l.12.24.25.36.36.35v.12l.12.12v.48l-.12.24v.24l-.47.49-.23.48-.36.13-.24-.24h-.12l-1,.14-.24.12-.11.24v.48l.12.12.49.47h.12l.12.12v.72l-.35.48-.35.25v.12l-.12.12-.12.24v.6l-.46.85h-.12v.12h-.36l-.12.12-.36.13-.11.24-.12.24-.23.48-.12.12h-1l-.72-.23-.24-.12h-.12l-.24.12h-.12l-.12.12-.12.12v.12l-.11.36V138l-.12.12-.23.24-.59.37-.24.24v.48l.12.12.37.35.24.24v.12l.24.24v.36l-.23.36v.12l-.23.48-.11.24h-.12v.12l-.12.24-.11.36v.12l-.11.36-.11.48v.12l-.11.24.12.24v.12l.12.12.24.35.36.11h.72l.12.12h.12v.48l-.12.12-.11.24v.12l-.12.12-.36.13-.11.24h-.12l-.23.6-.23.48v.12l.48.35v.12l.12.12v.12l.13.36.13.83V150l-.12.12-.48.13h-.24v.36l.24.23.12.24v.12l.25.35.13.83v.12h.12v.12l-.11.24V153l-.11.24-.12.12v.24l.12.24.12.12.24.24.12.12v.12h.12v.12H456l.24.11h.12l.12.12h.72l.24-.12L458,154l.12-.12h.12l.12-.12h.24l.12-.12h.12l.84.1.36.11.48.11.6.23.12.12.24.24.61.59.12.24.37.47.73.46.12.24v.24l.13.83"/><text class="cls-11" transform="translate(15 27.68)">T<tspan class="cls-12" x="6.64" y="0">here are </tspan></text><text class="cls-13" transform="translate(15 54.08)">28,958</text><text class="cls-14" transform="translate(102.48 54.08)"> </text><text class="cls-15" transform="translate(15 80.48)">Messiah </text><text class="cls-16" transform="translate(15 106.88)">College</text><text class="cls-15" transform="translate(101.98 106.88)"> </text><text class="cls-15" transform="translate(15.01 133.28)">alumni. </text><text class="cls-2" transform="translate(100.8 133.28)"> </text><g class="cls-17"><path class="cls-18" d="M348.64,204.71V192.37H333.71v-5.18h0a8.63,8.63,0,0,0-8.48-7.89v-3h3.21v-3.21h-4.19v6.21a8.63,8.63,0,0,0-7.74,7.85h0v5.18H301.51v12.34Z"/></g><line class="cls-19" x1="321" y1="189.92" x2="321" y2="202"/><line class="cls-19" x1="325.07" y1="189.92" x2="325.07" y2="202"/><line class="cls-19" x1="329.15" y1="189.92" x2="329.15" y2="202"/><line class="cls-19" x1="333.22" y1="196" x2="333.22" y2="202"/><line class="cls-19" x1="337.29" y1="196" x2="337.29" y2="202"/><line class="cls-19" x1="341.37" y1="196" x2="341.37" y2="202"/><line class="cls-19" x1="345.44" y1="196" x2="345.44" y2="202"/><line class="cls-19" x1="316.93" y1="196" x2="316.93" y2="202"/><line class="cls-19" x1="312.85" y1="196" x2="312.85" y2="202"/><line class="cls-19" x1="308.78" y1="196" x2="308.78" y2="202"/><line class="cls-19" x1="304.71" y1="196" x2="304.71" y2="202"/><g class="cls-17"><path class="cls-20" d="M217,173s1.74,84.45,75.45,29.37"/><polygon class="cls-21" points="298 198.2 287.08 201.5 291.75 207.75 298 198.2"/></g></svg>