<svg id="Layer_1" data-name="Layer 1" xmlns="http://www.w3.org/2000/svg" xmlns:xlink="http://www.w3.org/1999/xlink" viewBox="0 0 500 250"><defs><style>.cls-1,.cls-9{fill:none;}.cls-2{font-size:52px;}.cls-2,.cls-4{fill:#293d5e;font-family:PrioriSansOT-Bold, Priori Sans OT;font-weight:700;}.cls-3{letter-spacing:-0.04em;}.cls-4,.cls-5{font-size:39px;}.cls-11,.cls-5{fill:#74accf;}.cls-5{font-family:PrioriSansOT-Regular, Priori Sans OT;}.cls-6{letter-spacing:-0.02em;}.cls-7{letter-spacing:-0.04em;}.cls-8{letter-spacing:-0.02em;}.cls-9{stroke:#293d5e;}.cls-10{clip-path:url(#clip-path);}</style><clipPath id="clip-path"><rect class="cls-1" width="500" height="250"/></clipPath></defs><title>PCG Infographics</title><text class="cls-2" transform="translate(18.21 65.78)">Messiah Employees in <tspan class="cls-3" x="412.04" y="0">P</tspan><tspan x="434.81" y="0">A</tspan></text><text class="cls-4" transform="translate(20.84 134.58)">928</text><text class="cls-5" transform="translate(77.86 134.58)"><tspan xml:space="preserve"> facu</tspan><tspan class="cls-6" x="60.96" y="0">l</tspan><tspan x="68.83" y="0">t</tspan><tspan class="cls-7" x="79.25" y="0">y</tspan><tspan x="90.17" y="0">, administrators and staﬀ</tspan></text><text class="cls-4" transform="translate(188.23 173.38)">31</text><text class="cls-5" transform="translate(216.46 173.38)"><tspan xml:space="preserve"> temp emp</tspan><tspan class="cls-8" x="138.17" y="0">l</tspan><tspan x="146.05" y="0">oyees</tspan></text><text class="cls-4" transform="translate(159.29 212.19)">862</text><text class="cls-5" transform="translate(216.31 212.19)"><tspan xml:space="preserve"> student emp</tspan><tspan class="cls-8" x="167.31" y="0">l</tspan><tspan x="175.18" y="0">oyees</tspan></text><line class="cls-9" x1="22" y1="92" x2="482" y2="92"/><g class="cls-10"><path class="cls-11" d="M65.94,163A12.45,12.45,0,1,1,53.48,150.5,12.45,12.45,0,0,1,65.94,163"/><path class="cls-11" d="M130.28,200.78v-2.21a1.2,1.2,0,1,1,2.41,0L135.47,219h6.84l-2.78-25.73c-1.57-8.81-7.07-15.8-15.79-15.8H109.09c-8.72,0-14.28,7-15.79,15.8l-.83,4.63-6.82,3.94s4-.71,5.77,2.14c1.39,2.19,1.75,7.2,1.75,7.2l6.27-5.74.72-6.86a1.21,1.21,0,0,1,2.41,0v2.1L95.8,260.47h18.07l5.07-6.94L126,259l12,3Z"/><path class="cls-11" d="M53.77,209.67c-.39.75-3.18,4.24-3.63,4s-4.09-3.34-4.07-4.29.39-16.71.48-18.22c0-1.83,1.48-9.31,1.86-9.62,0,0-1-2.29-.59-2.72s1.48-1.37,2-1.23,1.45.71,1.56,1.15-.61,2.07-.61,2.71,2.08,9.3,2.54,17.19c0,0,.86,10.3.47,11m21.59-16.44c-2.74-8.9-7.07-15.8-15.8-15.8H40.47a15.79,15.79,0,0,0-15.79,15.8v29.07h6.86V198.54a1.21,1.21,0,0,1,2.41,0v23.77h0v35.85l13.53-2.32V233.67a2.54,2.54,0,0,1,5.07,0v22.17l13.53,4.63V222.31h0V198.57a1.2,1.2,0,1,1,2.41,0l0,10.23,9.47,2s-.05-4.27,2.54-6.32a9.85,9.85,0,0,1,4.25-2.26l-8-1.6Z"/><path class="cls-11" d="M22.09,224.83h7.45v1.94H22.09Zm10,1.94H30.87v-2.6a.67.67,0,0,0-.67-.67H21.42a.67.67,0,0,0-.67.67v2.6H18.69c-.38,0-.69.48-.69,1.06v13.83c0,.59.31,1.06.69,1.06H31.33c.38,0,1.49-.48,1.49-1.06V227.83c0-.59-.31-1.06-.69-1.06"/><path class="cls-11" d="M134.12,153.11l-18.23-5.72a11.68,11.68,0,0,0-5.94,0L91.7,153c-1.64.51-1.7,1.48-.12,2.17l9.42,4.12a12.45,12.45,0,1,0,23.83,0l3.33-1.44.25,7.86L127,171.06h2l-.26-2.35.76,2.35H130l-1.35-5,.76-8.71,4.78-2.07c1.58-.68,1.53-1.65-.11-2.17"/><path class="cls-11" d="M84.51,209.6c.52,2.81,3.74,4.57.93,5.09a5.17,5.17,0,1,1-1.87-10.17c2.81-.52.42,2.28.94,5.08"/><path class="cls-11" d="M86.18,206.33c-.35-2.48-2.88-2.91-.26-3.28a4.66,4.66,0,0,1,5.36,3.82c.35,2.48.22,6.44-2.4,6.81-1.69.24-2.89-3.13-3.12-5.32-.13-1.2.53-1.15.41-2"/></g></svg>