<svg id="Layer_1" data-name="Layer 1" xmlns="http://www.w3.org/2000/svg" xmlns:xlink="http://www.w3.org/1999/xlink" viewBox="0 0 500 250"><defs><style>.cls-1{fill:none;}.cls-2,.cls-3{font-size:53.01px;}.cls-2,.cls-26{fill:#74accf;}.cls-2,.cls-26,.cls-28{font-family:PrioriSansOT-Bold, Priori Sans OT;font-weight:700;}.cls-25,.cls-28,.cls-3,.cls-5{fill:#293d5e;}.cls-25,.cls-3,.cls-4,.cls-5{font-family:PrioriSansOT-Regular, Priori Sans OT;}.cls-4{font-size:37.11px;fill:#4d87a9;}.cls-5{font-size:16px;}.cls-6{letter-spacing:-0.02em;}.cls-7{clip-path:url(#clip-path);}.cls-8{fill:#ef4136;}.cls-9{clip-path:url(#clip-path-2);}.cls-10{clip-path:url(#clip-path-3);}.cls-11{fill:#66414b;}.cls-12{clip-path:url(#clip-path-4);}.cls-13{fill:#75cee2;}.cls-14{clip-path:url(#clip-path-5);}.cls-15{fill:#fff;}.cls-16{clip-path:url(#clip-path-6);}.cls-17{fill:#39b54a;}.cls-18{clip-path:url(#clip-path-7);}.cls-19{fill:#e97063;}.cls-20{letter-spacing:-0.02em;}.cls-21{letter-spacing:-0.02em;}.cls-22{letter-spacing:0em;}.cls-23{letter-spacing:0em;}.cls-24{letter-spacing:-0.05em;}.cls-25{font-size:20px;}.cls-26{font-size:46px;}.cls-27{letter-spacing:-0.02em;}.cls-28{font-size:35.51px;}</style><clipPath id="clip-path"><rect class="cls-1" x="206.47" y="90.5" width="37.19" height="43.45"/></clipPath><clipPath id="clip-path-2"><rect class="cls-1" x="204.16" y="90.5" width="41.8" height="43.45"/></clipPath><clipPath id="clip-path-3"><rect class="cls-1" x="225.7" y="122.5" width="37.19" height="43.44"/></clipPath><clipPath id="clip-path-4"><rect class="cls-1" x="204.43" y="154.73" width="37.68" height="43.45"/></clipPath><clipPath id="clip-path-5"><rect class="cls-1" x="202.37" y="154.73" width="41.8" height="43.45"/></clipPath><clipPath id="clip-path-6"><rect class="cls-1" x="223.18" y="58" width="41.8" height="43.45"/></clipPath><clipPath id="clip-path-7"><rect class="cls-1" x="222.69" y="188.17" width="44.62" height="43.83"/></clipPath></defs><title>PCG Infographics 24</title><text class="cls-2" transform="translate(273.55 217)">10+</text><text class="cls-3" transform="translate(347.34 217)"> </text><text class="cls-4" transform="translate(350.3 217)"> </text><text class="cls-5" transform="translate(350.3 202)">Community Savings &amp; </text><text class="cls-5" transform="translate(350.3 216.99)">Loans Association training </text><text class="cls-5" transform="translate(278 231.98)">groups <tspan class="cls-6" x="38.09" y="0">f</tspan><tspan x="41.74" y="0">ormed in Zambia and Uganda </tspan></text><g class="cls-7"><path class="cls-8" d="M242.17,99.91l-15.62-9a3,3,0,0,0-3,0l-15.62,9a3,3,0,0,0-1.49,2.57v6l1.18-.48a11.61,11.61,0,0,1,16,10.77c0,3.7-2.85,8-5.82,10.17l-1,.78,6.82,3.85a3,3,0,0,0,3,0l15.62-9a3,3,0,0,0,1.49-2.57V102.48a3,3,0,0,0-1.49-2.57m-.23,20.61a1.25,1.25,0,0,1-.63,1.08l-15.62,9a1.27,1.27,0,0,1-1.25,0l-3.47-2a13.21,13.21,0,0,0,4.37-9.88A13.34,13.34,0,0,0,208.19,106v-3.48a1.25,1.25,0,0,1,.63-1.08l15.62-9a1.27,1.27,0,0,1,1.25,0l15.62,9a1.26,1.26,0,0,1,.63,1.08Z"/></g><g class="cls-9"><path class="cls-8" d="M220.33,118.78A8.47,8.47,0,0,0,206.82,112l-.35.26v8.29a3,3,0,0,0,1.49,2.57l6.51,3.76.38-.14a8.52,8.52,0,0,0,5.48-7.93"/></g><g class="cls-10"><path class="cls-11" d="M261.4,131.9l-15.62-9a3,3,0,0,0-3,0l-15.62,9a3,3,0,0,0-1.49,2.57v19.47a2.94,2.94,0,0,0,.13.87,3,3,0,0,0,1.35,1.7l15.62,9a3,3,0,0,0,3,0l2-1.17h0a.16.16,0,0,0,.14-.09l13.43-7.75a3,3,0,0,0,1.49-2.57V134.48a3,3,0,0,0-1.49-2.57m-34,20.61v-.79h0l.65-.38v1.24l-.6.32a1.25,1.25,0,0,1-.06-.38m13.82-6v-5.37c.75-.79,1.47-1.61,2.16-2.46v7.15q-1.08.32-2.16.68m-.39.13c-.79.27-1.69.62-2.66,1v-3.58h0c.9-.8,1.8-1.65,2.67-2.54Zm-3,1.18c-.73.31-1.5.66-2.28,1v-2.57c.76-.59,1.52-1.22,2.28-1.88ZM235.32,149l-1.79.85v-2c.59-.42,1.18-.86,1.79-1.33Zm-2.05,1-1.36.67v-1.69l1.36-.94Zm-1.62.8-1.07.54v-1.48l0,0,1-.68Zm-1.32.67-.85.43V150.5l.85-.53Zm-1.1.57-.89.46v-1.26l.89-.54Zm15.93,10.49-.25.15a1.27,1.27,0,0,1-1.25,0l-15.5-8.95a99.32,99.32,0,0,1,11.64-5c1.75-.52,3.62-1,5.5-1.38Zm.25-26.4-.09,9.23-1.55.44v-7.52q.86-1.09,1.63-2.26Zm15.74,16.44a1.25,1.25,0,0,1-.62,1.08L248,160.82l.13-14.09c5.65-1,10.94-1.52,13-1.69ZM254,143.28V138.2a31.7,31.7,0,0,0,3.27,1.08v3.4c-1,.16-2.07.36-3.27.59m-.46.09c-1,.19-2,.4-3,.64v-7.46a28.15,28.15,0,0,0,3,1.46Zm-3.41.72-2,.47.09-9.45c.63.44,1.26.84,1.9,1.21Zm11-2c-.65.08-1.87.25-3.49.52v-3.25c1.18.31,2.35.55,3.49.74Zm0-4.25v1.3a30.92,30.92,0,0,1-12.88-5.29v-2s-.09-.09-.22-.17c-.43-.28-1.37-.79-1.37-.79a14.38,14.38,0,0,0-1.26,1.24v2c-4.16,7.78-11.23,13.41-18,17.32v-16.9a1.26,1.26,0,0,1,.63-1.08l15.62-9a1.25,1.25,0,0,1,1.25,0l15.62,9a1.26,1.26,0,0,1,.63,1.08Z"/></g><g class="cls-12"><path class="cls-13" d="M240.61,164.27l-15.83-9.14a3.07,3.07,0,0,0-3,0l-15.83,9.14a3,3,0,0,0-1.51,2.61V186a3,3,0,0,0,1.51,2.61l15.83,9.14a3,3,0,0,0,3,0l15.83-9.14a3,3,0,0,0,1.51-2.61V166.88a3,3,0,0,0-1.51-2.61m-.24,20.89a1.27,1.27,0,0,1-.63,1.1l-15.83,9.14a1.29,1.29,0,0,1-1.27,0l-15.83-9.14a1.27,1.27,0,0,1-.63-1.1V166.88a1.27,1.27,0,0,1,.63-1.1l15.83-9.14a1.27,1.27,0,0,1,1.27,0l15.83,9.14a1.27,1.27,0,0,1,.63,1.1Z"/></g><g class="cls-14"><path class="cls-13" d="M236.16,172.26a13.9,13.9,0,0,0-4.86-.81,10.12,10.12,0,0,0-6.54,2c-.23.17-.48.33-.78.52a9.31,9.31,0,0,1-2.33,1.17,6.13,6.13,0,0,1-3.94-.33,6,6,0,0,0-2.23-.4,14.85,14.85,0,0,0-2.79.35l-.68.13a4.18,4.18,0,0,0-3.1,2,3.76,3.76,0,0,0-.33,2c0,.12,0,.25,0,.37V183a2.52,2.52,0,0,0,1.26,2.18l12.17,7a2.52,2.52,0,0,0,2.52,0l12.17-7A2.52,2.52,0,0,0,238,183v-7.34a4.24,4.24,0,0,0-.31-1.9,3,3,0,0,0-1.49-1.46m-1.08,1.12c0,.46-1.47.84-3.28.84s-3.28-.37-3.28-.84,1.47-.84,3.28-.84,3.28.38,3.28.84m-4.26,1.91c0,.23-.65.42-1.45.42s-1.45-.19-1.45-.42.65-.42,1.45-.42,1.45.19,1.45.42m-2.69-1c0,.16-.48.29-1.06.29s-1.06-.13-1.06-.29.47-.29,1.06-.29,1.06.13,1.06.29"/><path class="cls-15" d="M228.52,173.38c0,.46,1.47.84,3.28.84s3.28-.37,3.28-.84-1.47-.84-3.28-.84-3.28.38-3.28.84"/><path class="cls-15" d="M227.91,175.29c0,.23.65.42,1.45.42s1.45-.19,1.45-.42-.65-.42-1.45-.42-1.45.19-1.45.42"/><path class="cls-15" d="M226,174.29c0,.16.47.29,1.06.29s1.06-.13,1.06-.29-.47-.29-1.06-.29-1.06.13-1.06.29"/></g><g class="cls-16"><path class="cls-17" d="M262.66,70a3,3,0,0,0-1.49-2.57l-15.62-9a3,3,0,0,0-3,0l-15.61,9A3,3,0,0,0,225.49,70l0,19.18A3,3,0,0,0,227,91.75l15.62,9a3,3,0,0,0,1.48.4h0a3,3,0,0,0,1.49-.4l15.61-9a3,3,0,0,0,1.48-2.57Zm-35.45,0a1.26,1.26,0,0,1,.62-1.08l15.61-9a1.28,1.28,0,0,1,1.25,0l15.62,9a1.26,1.26,0,0,1,.63,1.08v.58a1.25,1.25,0,0,1-.62,1.09l-15.61,9a1.24,1.24,0,0,1-.62.17,1.26,1.26,0,0,1-.63-.17l-15.62-9a1.26,1.26,0,0,1-.63-1.08Zm33.12,19.08-15.61,9a1.25,1.25,0,0,1-.62.17v0a1.26,1.26,0,0,1-.62-.17l-15.62-9a1.25,1.25,0,0,1-.63-1.08V73.29l15.39,8.87a3,3,0,0,0,3,0l15.37-8.89V88a1.26,1.26,0,0,1-.62,1.08"/><path class="cls-17" d="M233.55,68.91l4.66,3a.25.25,0,0,0,.26,0l1.72-1a.25.25,0,0,0,0-.43l-4.66-3a.25.25,0,0,0-.13,0,.23.23,0,0,0-.13,0l-1.71,1a.25.25,0,0,0,0,.42"/><path class="cls-17" d="M242.3,64.31,247,67.26a.25.25,0,0,0,.13,0,.24.24,0,0,0,.13,0l1.72-1a.25.25,0,0,0,0-.42l-4.6-3a.24.24,0,0,0-.14,0,.24.24,0,0,0-.13,0l-1.81,1.06a.25.25,0,0,0,0,.43"/><path class="cls-17" d="M248.85,70.79l-2.91,1.84a.29.29,0,0,0,0,.49l3.24,2.13a.29.29,0,0,0,.29,0l3-1.79a.29.29,0,0,0,0-.49l-3.32-2.17a.29.29,0,0,0-.29,0"/></g><g class="cls-18"><path class="cls-19" d="M264.6,198.33l2.72-6.93-6.86,2.89,2.07.81-3.11,3.15a3,3,0,0,0-.7-.57L243,188.57a3.05,3.05,0,0,0-3,0l-15.76,9.1a3,3,0,0,0-1.5,2.6V219.9a3,3,0,0,0,1.5,2.6L240,231.6a3,3,0,0,0,3,0l15.76-9.1a3,3,0,0,0,1.5-2.6V200.26c0-.09,0-.19,0-.28l3.58-3.63Zm-39.54.84,15.76-9.1a1.26,1.26,0,0,1,1.26,0l15.76,9.1a1.28,1.28,0,0,1,.35.3L254.71,203l-5.73.81-3.67,4.83-8.38-1.79-5.61,6.64-2.88-1.4-4,5V200.26a1.27,1.27,0,0,1,.63-1.09m33.41,19.29a1.27,1.27,0,0,1-.63,1.09l-15.76,9.1a1.28,1.28,0,0,1-1.26,0l-15.76-9.1-.18-.13,4.07-5.1,2.84,1.38,5.81-6.89,8.45,1.8,3.91-5.15,5.6-.79,2.92-3Z"/></g><text class="cls-2" transform="translate(275.35 93.06)">6</text><text class="cls-3" transform="translate(302.76 93.06)"> </text><text class="cls-5" transform="translate(307 78.06)">solar power systems </text><text class="cls-5" transform="translate(414 78.06)"> </text><text class="cls-5" transform="translate(307 93.05)">designed and instal<tspan class="cls-20" x="99.53" y="0">l</tspan><tspan x="102.77" y="0">ed</tspan></text><text class="cls-5" transform="translate(28.87 82.94)">Mobility tricyc<tspan class="cls-21" x="75.5" y="0">l</tspan><tspan class="cls-22" x="78.73" y="0">es produced </tspan><tspan class="cls-21" x="146.4" y="0">f</tspan><tspan x="150.04" y="0">or</tspan></text><text class="cls-5" transform="translate(31.88 101.93)">peop<tspan class="cls-21" x="27.25" y="0">l</tspan><tspan class="cls-23" x="30.48" y="0">e with disabilities </tspan></text><text class="cls-5" transform="translate(77.81 120.93)">in <tspan class="cls-24" x="12.26" y="0">W</tspan><tspan x="22.34" y="0">est Africa:</tspan></text><text class="cls-25" transform="translate(153.1 120.94)"> </text><text class="cls-26" transform="translate(156.7 120.94)">13</text><text class="cls-2" transform="translate(277.21 157.56)">5</text><text class="cls-3" transform="translate(301.91 157.56)"> </text><text class="cls-5" transform="translate(306.15 142.56)">bridges bui<tspan class="cls-20" x="57.15" y="0">l</tspan><tspan x="60.38" y="0">t in </tspan></text><text class="cls-5" transform="translate(385.94 142.56)"> </text><text class="cls-5" transform="translate(306.15 157.55)">Latin America</text><text class="cls-5" transform="translate(67.67 166.4)">Number of peop<tspan class="cls-21" x="87.49" y="0">l</tspan><tspan x="90.72" y="0">e with </tspan></text><text class="cls-5" transform="translate(190 166.4)"> </text><text class="cls-5" transform="translate(29.76 181.39)">disabilities served by water and </text><text class="cls-5" transform="translate(15.86 196.38)">sanitation projects in <tspan class="cls-24" x="111.12" y="0">W</tspan><tspan x="121.2" y="0">est Africa:</tspan></text><text class="cls-26" transform="translate(87.88 231.41)">5<tspan class="cls-27" x="21.44" y="0">,</tspan><tspan x="32.06" y="0">000</tspan></text><text class="cls-28" transform="translate(28.3 43.92)">Global Impact of the Collaboratory</text></svg>