<svg id="Layer_1" data-name="Layer 1" xmlns="http://www.w3.org/2000/svg" viewBox="0 0 500 250"><defs><style>.cls-1{font-size:28px;}.cls-1,.cls-11,.cls-3,.cls-6{fill:#293d5e;}.cls-1,.cls-6{font-family:PrioriSansOT-Regular, Priori Sans OT;}.cls-2{letter-spacing:-0.02em;}.cls-3,.cls-4{font-size:78px;}.cls-3,.cls-4,.cls-5{font-family:PrioriSansOT-Bold, Priori Sans OT;font-weight:700;}.cls-4,.cls-5{fill:#74accf;}.cls-5{font-size:100px;}.cls-6{font-size:22px;}.cls-7{letter-spacing:-0.02em;}.cls-8{letter-spacing:-0.07em;}.cls-9{fill:#fff;}.cls-10,.cls-12{fill:none;stroke-width:1.49px;}.cls-10{stroke:#293d5e;}.cls-12{stroke:#74accf;}</style></defs><title>PCG Infographics 6</title><text class="cls-1" transform="translate(18 54.62)">Messiah Col<tspan class="cls-2" x="114.55" y="0">l</tspan><tspan x="120.2" y="0">ege facilitated </tspan></text><text class="cls-3" transform="translate(18 123.02)">999 </text><text class="cls-4" transform="translate(153.02 123.02)">clinical </text><text class="cls-5" transform="translate(18 189.42)">placements </text><text class="cls-6" transform="translate(111.59 215.82)"><tspan class="cls-7">f</tspan><tspan x="5.04" y="0">or its undergraduate nursing students in 2016-201</tspan><tspan class="cls-8" x="357.14" y="0">7</tspan><tspan x="364.93" y="0">.</tspan></text><rect class="cls-9" x="393.65" y="35.95" width="28.26" height="101.89" transform="translate(36.19 275.99) rotate(-39)"/><rect class="cls-10" x="393.65" y="35.95" width="28.26" height="101.89" transform="translate(36.19 275.99) rotate(-39)"/><rect class="cls-11" x="356.1" y="42.59" width="36.44" height="5.95" transform="translate(54.73 245.7) rotate(-39)"/><rect class="cls-11" x="341.66" y="20.63" width="29.75" height="5.95" transform="translate(64.59 229.62) rotate(-39)"/><rect class="cls-11" x="357.01" y="22.77" width="16.36" height="23.05" transform="translate(59.8 237.47) rotate(-39)"/><rect class="cls-11" x="439.69" y="124.83" width="9.67" height="14.87" transform="translate(15.83 309.24) rotate(-39)"/><polygon class="cls-11" points="447.87 138.17 482.5 180.94 482.83 177.8 449.6 136.76 447.87 138.17"/><line class="cls-12" x1="416.05" y1="118.96" x2="424.72" y2="111.94"/><line class="cls-12" x1="406.22" y1="106.82" x2="420.67" y2="95.12"/><line class="cls-12" x1="396.39" y1="94.68" x2="405.06" y2="87.66"/><line class="cls-12" x1="386.56" y1="82.55" x2="401.01" y2="70.85"/><line class="cls-12" x1="376.73" y1="70.41" x2="385.4" y2="63.39"/></svg>