<svg id="Layer_1" data-name="Layer 1" xmlns="http://www.w3.org/2000/svg" xmlns:xlink="http://www.w3.org/1999/xlink" viewBox="0 0 500 250"><defs><style>.cls-1{fill:none;}.cls-2,.cls-6{font-size:30.75px;}.cls-10,.cls-13,.cls-2,.cls-6,.cls-7{fill:#293d5e;}.cls-10,.cls-2,.cls-6{font-family:PrioriSansOT-Regular, Priori Sans OT;}.cls-2{letter-spacing:-0.06em;}.cls-3{letter-spacing:0em;}.cls-4{letter-spacing:-0.01em;}.cls-5{letter-spacing:0em;}.cls-7{font-size:82.59px;}.cls-7,.cls-9{font-family:PrioriSansOT-Bold, Priori Sans OT;font-weight:700;}.cls-8{letter-spacing:-0.02em;}.cls-9{font-size:100.17px;fill:#74accf;}.cls-10{font-size:23.72px;}.cls-11{letter-spacing:-0.05em;}.cls-12{clip-path:url(#clip-path);}</style><clipPath id="clip-path"><rect class="cls-1" width="500" height="250"/></clipPath></defs><title>PCG Infographics 16</title><text class="cls-2" transform="translate(224.38 52)">T<tspan class="cls-3" x="12.76" y="0">he Oa</tspan><tspan class="cls-4" x="75.62" y="0">k</tspan><tspan class="cls-5" x="86.17" y="0">es Museum </tspan></text><text class="cls-6" transform="translate(430.86 52)"> </text><text class="cls-6" transform="translate(205.92 76.98)">of Natural History hosts </text><text class="cls-7" transform="translate(196.42 137.08)">21<tspan class="cls-8" x="61.78" y="0">,</tspan><tspan x="80.78" y="0">000+ </tspan></text><text class="cls-9" transform="translate(199.04 207.72)">visitors</text><text class="cls-10" transform="translate(450.66 207.72)"> </text><text class="cls-10" transform="translate(286.25 231.97)">each yea<tspan class="cls-11" x="66.76" y="0">r</tspan><tspan x="71.27" y="0">.</tspan></text><g class="cls-12"><path class="cls-13" d="M50.1,180a40.37,40.37,0,0,1,2.32,3.9c2,4.84,3.88,9.72,5.9,14.55a56.77,56.77,0,0,1,3.57,11.43c.52,2.74,1.94,4.42,4.53,7-.32.38-.86.73-.93,1.15a34.39,34.39,0,0,0-.21,3.6,23.15,23.15,0,0,0,5,1.67c1.08.11,2.27-.85,3.41-1.33-2.9-7.34-5.05-14.53-9.06-20.79-4.29-6.71-5.11-14.69-8.63-21.64-.08-5.08-.64-10.16,1.86-15a99.42,99.42,0,0,0,6.39-16.11c1.29-4.1,3.79-7.82,5.79-11.77,2.4,0,4.52,0,6.64,0a32.86,32.86,0,0,0,8.93-1c5.77-1.66,5.87-1.33,12.65,1.61C97.11,148.18,99.81,159,99.47,170c-.2,6.33-2.33,11.78-4.44,17.54-2.34,6.39-6.35,11.81-8.94,18a16.36,16.36,0,0,1-3.78,6c-1.78,1.56-1.09,4-2.8,5.36.85,4-2.45,5.72-4.55,8.1,1,3.81,5,2.42,7.24,4,.17.12,1.71-1,1.8-1.65a45.21,45.21,0,0,0,.09-5.87A14,14,0,0,1,86.48,220a3.32,3.32,0,0,0,2.36-3.43C89,211.68,93.34,201,96,196.67c2.26-3.65,5.53-6.93,6-11.57,0-.16,1-.23,1.71-.39.5,5,.92,9.88,1.49,14.73.23,2,.83,4,1.13,6s-.57,4.19,1.14,6c.39.42.08,1.51.05,2.29-.14,3.65-.16,7.24,3,9.9a2,2,0,0,1,.47,1.53c-.14,1.65,0,3.65,1.65,3.9,2.64.4,5.77,1.52,8-1.92a6.05,6.05,0,0,0-1.22-1.67c-4.13-2.78-5.28-7.27-5.91-11.6-.91-6.29-1.58-12.69-2.72-18.89-1.39-7.54-.33-15-.95-22.41-.17-2,.39-4-.95-6.09-.9-1.43-.08-4.08.28-6.13a45.38,45.38,0,0,1,2.13-9.07,31,31,0,0,0,2.2-8.5c.28-2.65,1.65-5.15,2.39-7.78a48.36,48.36,0,0,1,4.58-10.38A25.67,25.67,0,0,0,124,111.35c0-3.12-.15-6.26.05-9.37a10.63,10.63,0,0,1,1.36-4.67,41.29,41.29,0,0,1,4.5-5.76c3.68-4.17,7.59-8.13,11.14-12.4,6.86-8.26,14.31-16,21.42-24,4-4.46,8.14-8.68,12.18-13A26.62,26.62,0,0,1,178.81,38c1.45-1,3.29-1.43,5.3-2.25,3.85,4.43,9.74,5.07,15,7A22.66,22.66,0,0,1,204,45.06c3.64,2.49,3.62,2.52,8.32,2.57,1.89-2,1.5-3.89,0-6-3.26-4.68-6.63-9.32-9.45-14.26-1.46-2.56-2.79-4.45-5.65-5.83-2-.95-2.58-4.39-4.37-6.13-1-.94-.09-3.68-2.71-2.95a9.75,9.75,0,0,0,.54-2.21A1.53,1.53,0,0,0,190,9a2.46,2.46,0,0,0-1.44.48c.79,3.49-2.39,3.83-4.16,5.24-.54.43-1.48.41-2,.88-1.51,1.52-2.86,2.35-4.93.71-.65-.51-2.05-.08-3.57-.08l2.59,5.2a70.33,70.33,0,0,0-15.33,9.46c-3.56,2.74-7.2,5.43-10.78,8.08-3.32,2.45-5.84,5.76-9.58,7.79-5,2.72-9.46,6.37-14.31,9.38-4.32,2.68-8.8,5.11-13.32,7.46-2.23,1.16-4.64,2.43-7.06,2.67-5,.48-8.49,3.46-12.09,6.18a21.77,21.77,0,0,0-5.62,6.37,17.34,17.34,0,0,1-7.23,6.31c-6,3-17.26,6.71-24.71,8.25-3.85.8-6.67,3.68-10,5.43-.81.42-1.45,1.26-2.29,1.54-4.92,1.61-7,6-9.06,10-2.82,5.57-2.47,5.74-6.26,8.43-3.27,2.31-6.44,2-9.6-.57-4.55-3.76-4.54-13.44,1.36-16.57a13.62,13.62,0,0,0,5.24-5c-3.74-1-6.61,0-7.23,2.79a7.41,7.41,0,0,1-1.84,3.37c-2.08,2.51-2.39,5.85-2.71,8.75-.24,2.13,1.62,4.75,3.08,6.77a33,33,0,0,0,5.75,5.82c3.53,2.93,7.73,2.58,11.82,1.66,3.26-.73,3-.8,4.92,2.14,2.86,4.45,3.71,9.47,4.64,14.49.4,2.18,1.15,4.37,1.09,6.54a71.2,71.2,0,0,1-1.14,10.64A38.66,38.66,0,0,1,41.67,169c-1.69,3.64-1.15,6.88.24,10.25.27.67,1,1.21,1.11,1.87a106.39,106.39,0,0,1,1.16,11.23c.17,8,.14,16,0,24a10.34,10.34,0,0,0,2.11,6.18c.42.62,1.37,1.16,1.38,1.74,0,1.45.18,2.94,1.54,3.42a10.67,10.67,0,0,0,4.52.35A13.63,13.63,0,0,0,57,227c-1.67-2-3.53-3.59-4.47-5.58-1.32-2.77-2.67-5.64-2.48-8.95a70.75,70.75,0,0,0,0-9.37c-.18-2.39,1.19-5-1-7.22-.21-.21,1-1.53,1-2.37.17-1.94.05-3.9.05-5.85Z"/></g></svg>