<svg id="Layer_1" data-name="Layer 1" xmlns="http://www.w3.org/2000/svg" xmlns:xlink="http://www.w3.org/1999/xlink" viewBox="0 0 500 250"><defs><style>.cls-1,.cls-17,.cls-18,.cls-20{fill:none;}.cls-2{font-size:30px;}.cls-19,.cls-2,.cls-4,.cls-5,.cls-6,.cls-7,.cls-8{fill:#293d5e;}.cls-14,.cls-2,.cls-5,.cls-6,.cls-8{font-family:PrioriSansOT-Regular, Priori Sans OT;}.cls-3,.cls-4{font-size:66px;}.cls-12,.cls-14,.cls-3{fill:#74accf;}.cls-12,.cls-3,.cls-4,.cls-7{font-family:PrioriSansOT-Bold, Priori Sans OT;font-weight:700;}.cls-5{font-size:36px;}.cls-6{font-size:28px;}.cls-7{font-size:35px;}.cls-8{font-size:38px;}.cls-9{letter-spacing:0em;}.cls-10{letter-spacing:0em;}.cls-11{letter-spacing:0em;}.cls-12{font-size:52px;}.cls-13{letter-spacing:0em;}.cls-14{font-size:32.5px;}.cls-15{letter-spacing:-0.02em;}.cls-16{clip-path:url(#clip-path);}.cls-17{stroke:#74accf;}.cls-17,.cls-18,.cls-20{stroke-linecap:round;}.cls-17,.cls-18{stroke-width:4px;}.cls-18,.cls-20{stroke:#293d5e;}.cls-20{stroke-linejoin:round;stroke-width:3.41px;}</style><clipPath id="clip-path"><rect class="cls-1" width="500" height="250"/></clipPath></defs><title>PCG Infographics 14</title><text class="cls-2" transform="translate(18 56.75)">Since 2009, </text><text class="cls-3" transform="translate(18 106.35)">3,800</text><text class="cls-4" transform="translate(162.34 106.35)"><tspan xml:space="preserve"> students</tspan></text><text class="cls-5" transform="translate(372.61 106.35)"> </text><text class="cls-6" transform="translate(18 141.95)">representing </text><text class="cls-7" transform="translate(137.7 141.95)">53 middle and high schools</text><text class="cls-6" transform="translate(473.73 141.95)"> </text><text class="cls-8" transform="translate(18 185.55)">have<tspan class="cls-9" x="56.43" y="0"> </tspan><tspan class="cls-10" x="63.19" y="0">participated</tspan><tspan class="cls-9" x="212.3" y="0"> </tspan><tspan class="cls-11" x="219.07" y="0">in </tspan></text><text class="cls-12" transform="translate(265.99 185.55)">History<tspan class="cls-13" x="134.57" y="0"> </tspan><tspan x="143.78" y="0">Day</tspan></text><text class="cls-8" transform="translate(482 185.55)"> </text><text class="cls-14" transform="translate(269 221.15)">at Messiah Col<tspan class="cls-15" x="158.95" y="0">l</tspan><tspan x="165.55" y="0">ege.</tspan></text><g class="cls-16"><path class="cls-17" d="M484,99S433.15,25.29,357.82,20.57"/><path class="cls-18" d="M452.77,56.53S458,25.37,407.21,14.79c-1.15-.24-.25,10.5-1.46,10.28s-4.39-11.36-5.59-11.54c-17.65-2.65-41.17-2.69-72.48,1.69,4.85,7.66,12.51,14.35,21.68,20.08,1.71,1.07,18.21-6.32,20-5.31s-11.24,10.31-9.44,11.21c2.59,1.29,5.25,2.53,8,3.7,1.6.69,13.16-9.82,14.79-9.17S374.87,47.45,376.47,48C403.23,57.93,428.93,64.91,439.9,64"/><path class="cls-19" d="M471.91,80.32h0v-7s4.68-.27,4.26-1.54-6.1-2.13-13.63-2.13-14.05,0-13.63,2.13c.26,1.32,1.64,1.16,4.26,1.54v7h0a21.7,21.7,0,0,0-12.39,19.59c0,.43.89,6,.92,6.39h41.61c0-.43.92-6,.92-6.39a21.7,21.7,0,0,0-12.39-19.59"/><path class="cls-20" d="M471.91,80.32h0v-7s4.68-.27,4.26-1.54-6.1-2.13-13.63-2.13-14.05,0-13.63,2.13c.26,1.32,1.64,1.16,4.26,1.54v7h0a21.7,21.7,0,0,0-12.39,19.59c0,.43.89,6,.92,6.39h41.61c0-.43.92-6,.92-6.39A21.7,21.7,0,0,0,471.91,80.32Z"/></g></svg>