<svg id="Layer_1" data-name="Layer 1" xmlns="http://www.w3.org/2000/svg" xmlns:xlink="http://www.w3.org/1999/xlink" viewBox="0 0 500 250"><defs><style>.cls-1{fill:none;}.cls-2{font-size:41.51px;letter-spacing:-0.06em;}.cls-11,.cls-13,.cls-2,.cls-6,.cls-8{fill:#293d5e;}.cls-11,.cls-2,.cls-6{font-family:PrioriSansOT-Regular, Priori Sans OT;}.cls-3{letter-spacing:0em;}.cls-4{letter-spacing:-0.02em;}.cls-5{letter-spacing:0em;}.cls-6{font-size:49.51px;}.cls-7,.cls-8{font-size:51px;}.cls-12,.cls-15,.cls-7{fill:#74accf;}.cls-12,.cls-13,.cls-7,.cls-8{font-family:PrioriSansOT-Bold, Priori Sans OT;font-weight:700;}.cls-9{letter-spacing:0em;}.cls-10{letter-spacing:0em;}.cls-11{font-size:39.51px;}.cls-12{font-size:57.51px;}.cls-13{font-size:67.51px;}.cls-14{clip-path:url(#clip-path);}</style><clipPath id="clip-path"><rect class="cls-1" width="500" height="250"/></clipPath></defs><title>PCG Infographics 27</title><text class="cls-2" transform="translate(18 45.14)">T<tspan class="cls-3" x="17.23" y="0">he energy savings from Messia</tspan><tspan class="cls-4" x="423.34" y="0">h</tspan><tspan class="cls-5" x="439.19" y="0">’s</tspan></text><text class="cls-6" transform="translate(479.99 45.14)"> </text><text class="cls-7" transform="translate(18 99.14)">100+</text><text class="cls-8" transform="translate(114.9 99.14)"><tspan class="cls-9"> </tspan><tspan x="9.13" y="0">campus</tspan><tspan class="cls-10" x="145.04" y="0"> </tspan><tspan x="154.17" y="0">solar</tspan><tspan class="cls-10" x="241.33" y="0"> </tspan><tspan x="250.46" y="0">panels </tspan></text><text class="cls-11" transform="translate(18 153.14)">equals planting </text><text class="cls-12" transform="translate(220.18 153.14)">3,600</text><text class="cls-13" transform="translate(348.49 153.14)"> </text><text class="cls-13" transform="translate(18.02 207.15)">trees per year</text><g class="cls-14"><path class="cls-15" d="M485.31,160.21a11.5,11.5,0,0,0-8.13-5.28c-.22,0-.33-.1-.38-.34a11.35,11.35,0,0,0-8.18-9.3,8,8,0,0,0-3.52-.39,11.43,11.43,0,0,0,.14-14.74,11.06,11.06,0,0,0-6.56-4A11.77,11.77,0,0,0,448.25,129c-2.25-5.81-6.4-8.56-12.66-8.1,0-.12-.09-.27-.13-.42A12.89,12.89,0,0,0,424,111.13a12.72,12.72,0,0,0-11.58,5.32.47.47,0,0,1-.65.19,10.36,10.36,0,0,0-5-.5c-6.4.9-10.56,6.94-9.8,12.38-4.44-3.23-9.14-3.92-13.85-.81-4.48,3-6,7.31-4.94,12.62a11.52,11.52,0,0,0-7.86,4.7,11.21,11.21,0,0,0-2.05,9,10.92,10.92,0,0,0,4,6.74,10.81,10.81,0,0,0,9.91,2.28c-.1.12-.16.19-.22.25a13.2,13.2,0,0,0-2.75,3.74,13.47,13.47,0,0,0-1.43,6.22c0,.28-.05.4-.37.46a11,11,0,0,0-5.07,2.27,11.2,11.2,0,0,0-4.33,10.81,10.94,10.94,0,0,0,4,7.13,11.23,11.23,0,0,0,8.69,2.58c.61-.07,1.21-.2,1.82-.31a1.49,1.49,0,0,1,.06.2A11.48,11.48,0,0,0,396,206a11.39,11.39,0,0,0,7.46-4.92.65.65,0,0,1,.86-.31,14.26,14.26,0,0,0,5.32.56,15.87,15.87,0,0,0,9.19-3.91c.83-.72,1.57-1.55,2.36-2.35,0,.18.05.38.07.59.15,1.4.29,2.81.45,4.21q.36,3.17.74,6.33c.3,2.46.6,4.92.91,7.38a20.92,20.92,0,0,1,0,6.34,10.6,10.6,0,0,1-2.74,5.68,13.6,13.6,0,0,1-5.73,3.38,58.68,58.68,0,0,1-8.1,1.75,16.89,16.89,0,0,0-4,1.08,2.51,2.51,0,0,0-1.56,3.4.5.5,0,0,0,.57.42h56.43c0-.15,0-.25,0-.34a2.48,2.48,0,0,0-1.73-2.17,26.12,26.12,0,0,0-3.31-.88c-1.95-.41-3.92-.68-5.85-1.13a10.43,10.43,0,0,1-5-2.62,10.25,10.25,0,0,1-2.93-7c-.11-1.58-.1-3.17-.12-4.75,0-3.1-.07-6.2-.11-9.31a.81.81,0,0,0-.13-.38l1-14.16c.23.2.45.41.7.61a15.25,15.25,0,0,0,17.61,1.13.92.92,0,0,1,.48-.11c.46,0,.92.06,1.45.1l.07.15a11.47,11.47,0,0,0,16.18,5,11.6,11.6,0,0,0,4.6-15,11.77,11.77,0,0,0-3.65-4.35.59.59,0,0,1-.25-.39c0-.7.06-1.4.08-2.1,0-.21.09-.29.3-.33A11.83,11.83,0,0,0,484,174a11.43,11.43,0,0,0,1.29-13.8"/></g></svg>