<svg xmlns="http://www.w3.org/2000/svg" xmlns:xlink="http://www.w3.org/1999/xlink" width="312" height="286" viewBox="0 0 312 286"><defs><path id="heqya" d="M683.95 5348.77c-2.71 1.07-.36-2.17-.48-2.6.06.25 2.07 1.98.48 2.6m-8 11.53c-1.02-.38-.06-1.34.61-1.27.28.63.07 1.05-.6 1.27M856.8 5312c.64.93-4.08 3.01-4.67 2.13-.85-1.25 3.76-3.42 4.67-2.12m-29.68 109.72c0-3.51 6.64-3.81 5.17-8.17 4.71.82 1.34-8.26 5.59-6.42 1.31.57 4.01 12.78 2.23 14.33-.2.18-1.57-1.82-1.68-1.46-2.45 7.9-4.04 15.8-6.99 23.87-1.52 4.16-2.75 8.23-4.82 12.02-1.94 3.54-3.7 4.7-8.15 3.83-5.71-1.11-8.4-10.56-6.12-15.58 1.11-2.44 3.05-2.93 4.16-5.53.9-2.11-.03-4.62-.03-6.77-.01-3.51-.2-5.5 3.06-8.28.93-.8 7.58-4.68 7.58-1.84zm11.87 4.85c-.63.16-1.84.54-.28-1.38.24-.3 1.4 1.1.28 1.38m21.85 16.36c-1.81 1.81-3.16-.69-2.13-2.06.85-1.13 1.92 1.7 2.13 2.06m5.64-4.13c.43.13 1.76-1.3 2.05-.54.66 1.69-1.96 3.9-2.05.54m-302.06-135.34c-.9.37-1.26-1.51-1.35-1.48 1.1-.42.82.96 1.35 1.48m.6-1.6c-.15.03-1.14.34-.71-.44.52-.94.68.44.7.43zm1.06-3.28c-.55 0-.89-.54-.96-1.03.59-.04 1.84 1.03.96 1.03m.28-3.16c-.02.58-.1.69-.63.44-.48-.99.24-.18.63-.44m-8.77-1.09c-.66.04-.81-.4-.23-.47 1.55-.16.68.45.23.47m41.64-43.12c-1.28.72-.45-2.67.88-2.25 1.37.44-.82 2.22-.88 2.25m1.75-3.66c-.95.02-1.07-.27-.37-.87.57.22 1.12.48 1.66.78-.44.35-.87.38-1.29.1m-6.54 3.8c-.71.69-1.2.54-1.47-.43.06-.28 2.54-.63 1.47.44m-5.84-.38c-.15-1 4.08-1.68 4.13-1.54.4.95-3.94 2.76-4.13 1.54m-3.1.8c.74-.09 1.7 1.21.52 1.46-.73.15-1.26-1.37-.52-1.46m.33-3.9c.45-.07.9 1.55.8 1.7-.79 1.09-2.2-1.46-.8-1.7m193.42-4.35c.22 1.69.02 7.96-.99 8.34-2.45.93-7.05-6.53-8.4-7.86-1.56 3.17 3.94 5.37 5.45 8.07 1.18 2.11.98 3.5 2.06 5.7 1.16 2.33 3.85 3.86 5.01 6.12.36.71.77 3.02.76 3.01 1.5 2.56 3.56 4.97 4.99 8.27 3.34 7.71 7.6 14.75 11.4 22.01 1.02 1.94 3.15 3.73 4.18 5.59.38.68 1.6 3.92 1.84 4.17 2.45 2.66 5.48 1.66 6.65 5.3.2.6-2.66 2.68-1.64 3.71.97.99 2.34-.77 3.15-.25-.2-.13 2.77 1 2.97 1.07.5.21 3.12 2 4.02 2.44 5.5 2.62 6.98.33 12.64-.96 2.85-.65 4.46-.64 7-1.66 1.44-.57 3.44-4.29 5.49-3.06 2.76 1.67-1.05 5.33-1.46 6.93-.29 1.14 1.5 1.53 1.17 2.44-.5 1.38-2.57.93-3.03 2.5-.18.63 1.38 1.1 1.02 2.3a27.93 27.93 0 0 1-2.3 5.66c-1.99 3.73-6.94 5.88-8.55 9.09.38.22.78.24 1.21.04-.22.16-4.51 8.38-5.97 9.3-2.28 1.46-4.98.9-7.22 2.24-2.3 1.37-5.2 5.38-7.1 7.32-2.23 2.27-2.59 4.9-4.47 7-1.24 1.38-2.82.8-4.26 2.23-1.1 1.08-2.27 4.12-2.97 5.6-2.6 5.49-2.98 10.77-2 16.83 1.16 7.19 7.8 13.63 4.19 21.9-.35.78-2.28 1.4-2.8 2.29.08-.15-1.53 4-1.53 4-.62.83-.47 2.03-1.43 2.94-.94.89-2.75.02-3.78.76-2.97 2.16-10.9 8.5-11.75 12.29-.78 3.5 2.03 5.81.96 9.62-.7 2.47-2.64 5.98-3.67 8.6.49-1.25-5.18 1.48-6.1 2.58-1.59 1.9-.43 3.94-1.38 6.26-.88 2.15-.88.08-2.25 2.5-4.6 8.13-7.8 17.03-15.85 22.86a41.4 41.4 0 0 1-9.45 5.05c-3.21 1.15-3.05-.31-6.13 0-1.72.17-2.13 1.19-4.14 1.62-2.05.45-3.9-.17-5.73-.03-1.9.15-5.2 2.13-6.41 2.16-2.75.07-5.25-.82-7.02-3.38-1.24-1.8.05-2.09-.25-2.66-.53-1.04-1.62-1.04-1.28-2.51.1-.47 1.78-2.31 1.78-2.09-.03-3.77-2.66-6.06-4.25-9.63-2.98-6.64-5.24-9.88-6.4-16.77-.54-3.28-1.2-6.24-1.5-9.76-.1-1.2.28-4.98-.42-6.28-.78-1.46-2.74-1.94-3.08-2.48-1.56-2.46-1.88-4.9-3.2-7.53-1.22-2.43-2.62-2.64-3.17-5.43-1.04-5.17 1.2-13.59 3.37-17.97 2.01-4.03 3.42-4.68 3.48-9 .05-3.11-.17-8.4-.71-11.46-.33-1.84-.63-2.55-1.02-4.05-.1-.35-2.3-5.39-2.13-5.13-.7-1.11-2.26-1.85-2.77-2.92-.17-.37-2.05-3.7-2.03-3.68-.35-.38-8.07-7.11-7.47-8.27 1.18-2.28.3-1.7-.93-4.28.04.09 2.44-.48 2.54-1.36.23-2.12-.93-4.14-.48-6.3.43-2.02 3.94-5.84 3.16-8.1-.26-.76-5.05-2.2-4.61-3.57.34-.25.66-.53.94-.85 0-.2-11.36 2.12-13.27.05-.74-.81-.95-6.57-1.38-6.15 0 0-4.22-1.88-4.6-1.94-2.59-.42-2.06-.22-4.98.53-2.32.6-4.58 1.94-6.86 2.91-2.8 1.2-6.4 3.93-9.3 4.13-3.18.23-7.83-1.68-11.55-1.5-4.65.23-6.93 3.11-10.46 2.68-1.75-.22-5.63-3.12-6.87-4.11-3.43-2.75-5.98-4.83-9.72-7.4-2.32-1.58-2.57-2.08-2.16-4.12.16-.8-4.22-5.66-4.7-6.2-2.28-2.57-4.7-2.24-3.84-5.63.1-.45-8.72-1.13-5.92-4.6-.57-.36-1.17-.67-1.79-.94l2.26-.46c-.02-.6-.3-1.05-.85-1.32l1.22-.94c-1.67-1.42-4.65-2.66-4.77-5.01-.08-1.6 2.42-1.52 2.85-2.42.7-1.46.66-2.95 1.13-4.43.19-.56 1.7-3.64 1.73-3.9.43-3.63-.41-2.98-1.03-6.2-.34-1.76-.68-4-1.21-6.02-1.07-4.08-1.13-2.35.9-6.66 1.38-2.96 2.47-4.19 4.07-6.9 2.52-4.3 4.89-9.54 9.26-13.58 4.56-4.2 11.33-3.68 12.77-10.41.46-2.14-.5-4.14.44-6.66 1.19-3.22 1.05-3.5 3.8-5.87 2.16-1.87 6.2-2.6 7.82-4.86.83-1.16.27-3.8 1.06-4.88.9-1.25 2.1-1.14 3.65-2.12-3.72 2.36 15.97 5.5 15.97 2.43 0-3.84 7.38-5.26 11.1-5.64 2.83-.28 5.77.88 8.7.74 2.6-.12 5.58-.93 8.44-.95 2.4-.01 12.08-3.04 13.18-.82.6 1.21-1.53 2.78-1.52 3.4.02 1.44 1.63 1.9 1.33 3.3-.22 1 .08 2.03-.45 2.92-.66 1.1-3.86.77-4.23 2.22.35-1.37 6.5 3.65 6.36 3.58 2.56 1.25 4.21.2 7.04.79-.38-.08 3.77 2.02 3.73 2 .82.55 2.32 0 3.19.62.4.3-.97 2.42-.16 2.97 1 .68 2.1.93 3.16 1.5 3.87 2.1 12.68 6.5 15.12 1.97 1.59-2.93-.87-4.98 1.09-6.74.73-.65 6.6-2.03 7.51-1.9 2.86.44 6.88 4.35 10.3 5.35 2.58.76 10.25 2.82 12.86 2.74 7.1-.2 21.63-6.91 23.63 5.02m-76.7-11.54zm131.35 110.5zm-17.24-25.71z"/></defs><g><g transform="translate(-557 -5213)"><use fill="#75accf" xlink:href="#heqya"/></g></g></svg>