<svg id="Layer_1" data-name="Layer 1" xmlns="http://www.w3.org/2000/svg" xmlns:xlink="http://www.w3.org/1999/xlink" viewBox="0 0 500 250"><defs><style>.cls-1{fill:none;}.cls-2,.cls-7{font-size:33px;}.cls-2,.cls-3,.cls-7{fill:#293d5e;}.cls-2,.cls-3{font-family:PrioriSansOT-Regular, Priori Sans OT;}.cls-3{font-size:37.51px;}.cls-4{font-size:107.51px;}.cls-12,.cls-4{fill:#74accf;}.cls-4,.cls-7{font-family:PrioriSansOT-Bold, Priori Sans OT;font-weight:700;}.cls-5{letter-spacing:-0.02em;}.cls-6{letter-spacing:0em;}.cls-8{letter-spacing:-0.03em;}.cls-9{letter-spacing:-0.02em;}.cls-10{letter-spacing:0em;}.cls-11{clip-path:url(#clip-path);}.cls-13{fill:#54647e;}.cls-14{fill:#fff;}</style><clipPath id="clip-path"><rect class="cls-1" width="500" height="250"/></clipPath></defs><title>PCG Infographics 19</title><text class="cls-2" transform="translate(18 81.48)">An </text><text class="cls-2" transform="translate(53.14 81.48)">estimated</text><text class="cls-3" transform="translate(160.16 81.48)"> </text><text class="cls-4" transform="translate(166.91 81.48)">99%</text><text class="cls-3" transform="translate(339.04 81.48)"> </text><text class="cls-2" transform="translate(345.79 81.48)">of Messia<tspan class="cls-5" x="103.39" y="0">h</tspan><tspan class="cls-6" x="115.99" y="0">’s </tspan></text><text class="cls-2" transform="translate(18 116.17)">student body </text><text class="cls-7" transform="translate(164.69 116.17)">participates in some form </text><text class="cls-7" transform="translate(18 150.85)">of community service</text><text class="cls-2" transform="translate(264.51 150.85)"><tspan xml:space="preserve"> through </tspan></text><text class="cls-2" transform="translate(18 185.53)">the Col<tspan class="cls-5" x="82.7" y="0">l</tspan><tspan x="89.36" y="0">eg</tspan><tspan class="cls-8" x="115.76" y="0">e</tspan><tspan x="128.33" y="0">’s Agape Center </tspan><tspan class="cls-9" x="308.81" y="0">f</tspan><tspan class="cls-10" x="316.36" y="0">or </tspan></text><text class="cls-2" transform="translate(18 220.22)">Service and Learning. </text><g class="cls-11"><path class="cls-12" d="M425,201.9a34.84,34.84,0,1,0-34.84-34.84A34.84,34.84,0,0,0,425,201.9"/><path class="cls-13" d="M387.19,189.75v-17.7a4.57,4.57,0,0,0-9.14,0v24.24a14,14,0,0,0,3.37,9.12l15.12,16c.65.62,3.49,5,7.31,6.54,4.93,1.93,11,.94,11,.94l0-7c0-2.65.22-6.19-3.1-9.66l-19.18-19.26a3.64,3.64,0,0,0-6.17,2.61,3.66,3.66,0,0,0,.87,2.37l9.25,9.91a10.78,10.78,0,0,1,2.12,3.65,8.66,8.66,0,0,1,.37,2.61h-3a5.89,5.89,0,0,0-.22-1.71,7.36,7.36,0,0,0-1.31-2.32l-9.39-10.31a6.15,6.15,0,0,1-1.83-4.35,6.38,6.38,0,0,1,3.88-5.78"/><path class="cls-13" d="M462.83,189.75v-17.7a4.57,4.57,0,0,1,9.14,0v24.24a14,14,0,0,1-3.37,9.12l-15.12,16c-.65.62-3.49,5-7.31,6.54-4.93,1.93-11,.94-11,.94l0-7c0-2.65-.22-6.19,3.1-9.66l19.18-19.26a3.64,3.64,0,0,1,6.17,2.61,3.66,3.66,0,0,1-.87,2.37L453.47,208a10.78,10.78,0,0,0-2.12,3.65,8.66,8.66,0,0,0-.37,2.61h3a5.89,5.89,0,0,1,.22-1.71,7.36,7.36,0,0,1,1.31-2.32l9.39-10.31a6.15,6.15,0,0,0,1.83-4.35,6.38,6.38,0,0,0-3.88-5.78"/><path class="cls-14" d="M428.74,148.21a4,4,0,1,0-4-4,4,4,0,0,0,4,4"/><path class="cls-14" d="M407.55,148.23a4,4,0,1,1,4-4,4,4,0,0,1-4,4"/><path class="cls-14" d="M448.14,157.68a2.81,2.81,0,1,1-2.81,2.81,2.81,2.81,0,0,1,2.81-2.81"/><path class="cls-14" d="M452.17,164.56h-7.41l-2.48-.22-3.1-10.83c-1.25-4.36-4.9-4.23-4.9-4.23h-10s-3.65-.13-4.9,4.23l-1.53,5.33-1.53-5.33c-1.26-4.36-4.9-4.23-4.9-4.23h-7.77s-3.65-.13-4.9,4.23l-3.13,10.91a1.58,1.58,0,0,0,1.15,2.05,1.61,1.61,0,0,0,2-1l3-10.64h1.48l-4.45,18.41h3.93v13.07a2,2,0,1,0,3.9,0V173.25h1.65v13.08a2,2,0,1,0,3.9,0V173.25h3.86l-4.4-18.41h1.48l3,10.52a1.47,1.47,0,0,0,.24.49,1.75,1.75,0,0,0,2.76,0,1.42,1.42,0,0,0,.26-.54l3-10.48h1.37v31.12a2.3,2.3,0,0,0,4.6,0v-17.7h1.7v17.7a2.3,2.3,0,0,0,4.61,0V154.83h1.48l2.92,10.64a1.51,1.51,0,0,0,1.12,1l.05,0c.46.11,2.61.71,4.18,1.16V187a1.61,1.61,0,0,0,3.23,0v-9.64H449V187a1.62,1.62,0,0,0,3.23,0v-18h1.24V175a1.21,1.21,0,0,0,1.2,1.21,1.19,1.19,0,0,0,1.19-1.21v-6.95a3.64,3.64,0,0,0-3.65-3.52"/></g></svg>