<svg id="Layer_1" data-name="Layer 1" xmlns="http://www.w3.org/2000/svg" xmlns:xlink="http://www.w3.org/1999/xlink" viewBox="0 0 500 250"><defs><style>.cls-1{fill:none;}.cls-2,.cls-4{font-size:116.54px;}.cls-11,.cls-2{fill:#74accf;}.cls-2,.cls-8{font-family:PrioriSansOT-Bold, Priori Sans OT;font-weight:700;}.cls-2{letter-spacing:-0.04em;}.cls-3{letter-spacing:0em;}.cls-4,.cls-6,.cls-8{fill:#293d5e;}.cls-4,.cls-6{font-family:PrioriSansOT-Regular, Priori Sans OT;}.cls-5{letter-spacing:-0.1em;}.cls-6,.cls-8{font-size:44px;}.cls-7{letter-spacing:-0.02em;}.cls-9{letter-spacing:-0.04em;}.cls-10{clip-path:url(#clip-path);}</style><clipPath id="clip-path"><rect class="cls-1" width="500" height="250"/></clipPath></defs><title>PCG Infographics 10</title><text class="cls-2" transform="translate(24.5 91.32)">20<tspan class="cls-3" x="105.11" y="0">%</tspan></text><text class="cls-4" transform="translate(195.46 91.32)"><tspan class="cls-5"> </tspan><tspan x="9.32" y="0"> </tspan></text><text class="cls-6" transform="translate(204.78 50.12)">of undergraduate </text><text class="cls-6" transform="translate(204.78 91.3)">students are </text><text class="cls-6" transform="translate(387.11 91.3)"> </text><text class="cls-6" transform="translate(27.99 132.49)"><tspan class="cls-7">f</tspan><tspan x="10.08" y="0">ederal </tspan></text><text class="cls-8" transform="translate(136.89 132.49)"><tspan class="cls-9">P</tspan><tspan x="19.32" y="0">ell Grant </tspan></text><text class="cls-8" transform="translate(303.03 132.49)"> </text><text class="cls-8" transform="translate(27.99 173.67)">recipients</text><text class="cls-6" transform="translate(181.77 173.67)">.</text><g class="cls-10"><path class="cls-11" d="M308.19,193H468.48a3.52,3.52,0,0,0,0-7H308.19a3.52,3.52,0,0,0,0,7"/><path class="cls-11" d="M468.48,205.48H308.19a3.52,3.52,0,0,0,0,7H468.48a3.52,3.52,0,0,0,0-7"/><path class="cls-11" d="M468.48,225H308.19a3.52,3.52,0,0,0,0,7H468.48a3.52,3.52,0,0,0,0-7"/><path class="cls-11" d="M339.07,136c2.84,0,5.14,1.81,5.14,4s-2.3,4-5.14,4-5.15-1.81-5.15-4,2.31-4,5.15-4m48.1,5.18c-9.15-1.85-14.8-4-14.8-8,0-3.85,5.3-6.76,13.54-7.46v-4.67h5.56v4.49a42,42,0,0,1,11.66,1.62l-2.24,3.05a38,38,0,0,0-11.3-1.57c-6.9,0-9.5,2.13-9.5,4,0,2.41,3.32,3.62,11.12,5.28,9.23,1.94,13.89,4.35,13.89,8.47,0,3.66-4.93,7.08-14.16,7.87v4.82h-5.65V154.4a45.65,45.65,0,0,1-13.72-2l2.15-3.1a41.33,41.33,0,0,0,12.91,2c6.37,0,10.67-1.9,10.67-4.54s-3.5-4.12-10.13-5.51M437.6,136c2.84,0,5.14,1.81,5.14,4s-2.3,4-5.14,4-5.15-1.81-5.15-4,2.3-4,5.15-4M305.66,171.28h165.4a.88.88,0,0,0,.88-.88.85.85,0,0,0-.17-.51L452,109.46a.87.87,0,0,0-.83-.61H325.47a.87.87,0,0,0-.83.61l-19.82,60.66a.88.88,0,0,0,.84,1.15"/></g></svg>