<svg id="Layer_1" data-name="Layer 1" xmlns="http://www.w3.org/2000/svg" xmlns:xlink="http://www.w3.org/1999/xlink" viewBox="0 0 500 250"><defs><style>.cls-1,.cls-21,.cls-22,.cls-24{fill:none;}.cls-2{font-size:54px;letter-spacing:-0.04em;}.cls-11,.cls-14,.cls-16,.cls-18,.cls-2,.cls-25,.cls-6,.cls-7,.cls-8{fill:#293d5e;}.cls-15,.cls-16,.cls-17,.cls-18,.cls-2,.cls-4,.cls-5,.cls-6,.cls-7{font-family:PrioriSansOT-Bold, Priori Sans OT;font-weight:700;}.cls-3{letter-spacing:0em;}.cls-4{font-size:49px;}.cls-15,.cls-17,.cls-4,.cls-5{fill:#74accf;}.cls-5,.cls-7{font-size:35px;}.cls-6{font-size:34px;}.cls-8{font-size:27px;}.cls-11,.cls-14,.cls-8{font-family:PrioriSansOT-Regular, Priori Sans OT;}.cls-9{letter-spacing:-0.02em;}.cls-10{letter-spacing:0em;}.cls-11{font-size:30px;}.cls-12{letter-spacing:-0.02em;}.cls-13{letter-spacing:0em;}.cls-14{font-size:28px;}.cls-15,.cls-16{font-size:50px;}.cls-17,.cls-18{font-size:42px;}.cls-19{letter-spacing:-0.02em;}.cls-20{letter-spacing:-0.04em;}.cls-21,.cls-22,.cls-24{stroke:#293d5e;stroke-width:3px;}.cls-21,.cls-22{stroke-linecap:round;}.cls-21{stroke-linejoin:round;}.cls-23{clip-path:url(#clip-path);}</style><clipPath id="clip-path"><rect class="cls-1" width="500" height="250"/></clipPath></defs><title>PCG Infographics 15</title><text class="cls-2" transform="translate(18 53.42)">P<tspan class="cls-3" x="23.71" y="0">oetry in Place: </tspan></text><text class="cls-4" transform="translate(18 95.02)">6–8</text><text class="cls-5" transform="translate(85.13 95.02)"> </text><text class="cls-6" transform="translate(91.43 95.02)">ﬁeld trips and </text><text class="cls-6" transform="translate(263.98 95.02)">poetry workshops</text><text class="cls-7" transform="translate(474.46 95.02)"> </text><text class="cls-8" transform="translate(18 126.62)">with Harrisburg midd<tspan class="cls-9" x="182.71" y="0">l</tspan><tspan class="cls-10" x="188.16" y="0">e </tspan></text><text class="cls-8" transform="translate(222.11 126.62)">and high schools each year—</text><text class="cls-11" transform="translate(18 168.22)">invo<tspan class="cls-12" x="40.41" y="0">l</tspan><tspan class="cls-13" x="46.5" y="0">ving</tspan></text><text class="cls-14" transform="translate(103.29 168.22)"> </text><text class="cls-15" transform="translate(108.33 168.22)">300 </text><text class="cls-16" transform="translate(190.53 168.22)">students</text><text class="cls-14" transform="translate(340.82 168.22)"> </text><text class="cls-14" transform="translate(345.86 168.22)"> </text><text class="cls-14" transform="translate(18.01 203.81)">and</text><text class="cls-11" transform="translate(51.04 203.82)"> </text><text class="cls-17" transform="translate(56.44 203.82)">25 </text><text class="cls-18" transform="translate(103.4 203.82)">teachers</text><text class="cls-11" transform="translate(228.05 203.82)"><tspan xml:space="preserve"> annual</tspan><tspan class="cls-19" x="69.27" y="0">l</tspan><tspan class="cls-20" x="75.33" y="0">y</tspan><tspan x="83.73" y="0">.</tspan></text><rect class="cls-21" x="336.4" y="177.56" width="132.07" height="35" transform="translate(-44.01 168.85) rotate(-22.5)"/><line class="cls-22" x1="346.68" y1="209.5" x2="452.93" y2="165.49"/><line class="cls-22" x1="353.19" y1="225.2" x2="459.43" y2="181.19"/><line class="cls-22" x1="349.94" y1="217.35" x2="456.18" y2="173.34"/><g class="cls-23"><path class="cls-24" d="M458.68,152.82l13.39,32.34,10-4.15c.8-.34,7.74-3.52,4.6-11.11l-6.89-16.63c-.34-.8-3.52-7.74-11.11-4.6Z"/></g><polygon class="cls-21" points="305.46 235.18 348.11 236.5 334.69 204.09 305.46 235.18"/><polygon class="cls-25" points="316.97 223.52 320.97 235.52 304.97 235.52 316.97 223.52"/></svg>