<svg id="Layer_1" data-name="Layer 1" xmlns="http://www.w3.org/2000/svg" xmlns:xlink="http://www.w3.org/1999/xlink" viewBox="0 0 500 250"><defs><style>.cls-1{fill:none;}.cls-2,.cls-3{font-size:33.51px;font-family:PrioriSansOT-Regular, Priori Sans OT;}.cls-10,.cls-11,.cls-2,.cls-3{fill:#293d5e;}.cls-3{letter-spacing:-0.02em;}.cls-4{letter-spacing:0em;}.cls-5{letter-spacing:0em;}.cls-6{font-size:87.95px;fill:#74accf;}.cls-10,.cls-6{font-family:PrioriSansOT-Bold, Priori Sans OT;font-weight:700;}.cls-7{letter-spacing:-0.02em;}.cls-8{letter-spacing:0em;}.cls-9{clip-path:url(#clip-path);}.cls-10{font-size:163.95px;}</style><clipPath id="clip-path"><rect class="cls-1" width="500" height="250"/></clipPath></defs><title>PCG Infographics 22</title><text class="cls-2" transform="translate(283.43 136.18)">reached through </text><text class="cls-3" transform="translate(283.43 173.17)">l<tspan class="cls-4" x="6.8" y="0">ocal A</tspan><tspan x="76" y="0">R</tspan><tspan class="cls-5" x="91.49" y="0">OMA </tspan></text><text class="cls-2" transform="translate(283.43 210.17)">sports camps</text><text class="cls-6" transform="translate(28 92.2)">1<tspan class="cls-7" x="24.27" y="0">,</tspan><tspan class="cls-8" x="44.5" y="0">000+ </tspan></text><g class="cls-9"><text class="cls-10" transform="translate(28 210.24)">kids</text><path class="cls-11" d="M390.68,81.45l-.21-.28c-5,2.82-5.14,2.9-5.42,4.72l5.63-4.44M397,65.19c-1.9,3.28-3.7,6.39-2.45,10.17,1.33-1.9,2.56-6.86,2.45-10.17M355.25,80.56l-.18.36a23.61,23.61,0,0,0,10,6.66,5.78,5.78,0,0,0-2.54-3c-2.12-1.12-4.15-2.42-6.23-3.62a6.82,6.82,0,0,0-1-.4M354,79.29a4,4,0,0,0,.57-1.2c.21-2.17.36-4.35.5-6.53a2.52,2.52,0,0,0-.25-1.06c-1.12-2.74-2.33-5.44-3.37-8.21-.45-1.19-1.1-1.41-2.29-1a23.23,23.23,0,0,0,4.84,18m36.56-28.16a2.48,2.48,0,0,0-.57-3.26,24.6,24.6,0,0,0-10.22-6c-1.43-.41-2.92-.64-4.56-1,.23,1.48.36,2.69.64,3.86a2.21,2.21,0,0,0,.84,1.27c2.56,1.62,5.17,3.18,7.77,4.75a2.23,2.23,0,0,0,1,.39c1.73,0,3.47,0,5.09,0m-17.31-10.3a24.32,24.32,0,0,0-14,4.28c-2.58,1.76-2.54,1.77-2.15,4.83.09.68.34.85,1,.86,2.33,0,4.67.09,7,.1a2.16,2.16,0,0,0,1.13-.32q3.58-2.34,7.1-4.76a1.16,1.16,0,0,0,.49-.85c-.14-1.36-.38-2.7-.6-4.14m-7.69,43.74c.72,1.19,1.38,2.34,2.11,3.44a1.63,1.63,0,0,0,1,.55,23.86,23.86,0,0,0,11.92-.86,2,2,0,0,0,1-.64c.59-.88,1.09-1.83,1.85-3.13-1.06-.93-2.16-1.93-3.3-2.86a1.89,1.89,0,0,0-1.08-.39c-2.85-.05-5.69-.07-8.54-.08a1.47,1.47,0,0,0-.92.25c-1.35,1.2-2.65,2.45-4,3.72m21.54-15c1.75-.2,3.29-.42,4.84-.54a1.4,1.4,0,0,0,1.33-.91c.92-2,1.87-3.94,2.88-5.87a1.48,1.48,0,0,0-.11-1.71,58.77,58.77,0,0,1-3.32-5.37c-.91-1.8-2.06-2.7-4.14-2.22a9.1,9.1,0,0,1-2.32.07.88.88,0,0,0-1,.72c-.78,2.58-1.62,5.15-2.37,7.73a2,2,0,0,0,.14,1.35c1.13,2.08,2.31,4.13,3.5,6.17a2.86,2.86,0,0,0,.61.6m-26-16.76c0-.06,0-.12,0-.17-1.11,0-2.22,0-3.33,0a1.32,1.32,0,0,0-1.42.75c-1.09,2-2.27,4-3.36,6a1.76,1.76,0,0,0-.11,1.31q1.71,4.27,3.56,8.49a1.42,1.42,0,0,0,1,.7c2.07.11,4.14.15,6.21.14a1.44,1.44,0,0,0,1-.55q2.14-3.37,4.17-6.81a1.42,1.42,0,0,0,.06-1.1c-1.08-2.71-2.18-5.42-3.34-8.1a1.32,1.32,0,0,0-1-.62c-1.18-.07-2.37,0-3.55,0M375.92,63c0,.1,0,.19,0,.29-1.44,0-2.89,0-4.33,0a1.62,1.62,0,0,0-1.12.63c-1.43,2.25-2.82,4.53-4.17,6.82a1.32,1.32,0,0,0-.05,1.08q1.58,3.12,3.29,6.17a1.4,1.4,0,0,0,1,.62c2.78.09,5.56.13,8.33.13a1.43,1.43,0,0,0,1-.47q2.58-3.41,5.07-6.89a1.21,1.21,0,0,0,.06-1.06q-1.86-3.42-3.83-6.76a1.45,1.45,0,0,0-1-.57c-1.4-.07-2.81,0-4.22,0M373,92a27.13,27.13,0,1,1,27.1-27.47A27.06,27.06,0,0,1,373,92"/><path class="cls-11" d="M326.12,76l.47,6.63.29.22,1.32-1.63c.49-.6,1-1.18,1.48-1.79a.88.88,0,0,0,.2-.59A4.12,4.12,0,0,0,326.12,76m-2,.62c-2.46,1.24-7.88,8.47-8.87,11.84A23.3,23.3,0,0,0,324,84.77a1,1,0,0,0,.36-.64,26.76,26.76,0,0,0-.25-7.52m10.08-16c-1.46,1.74-2.76,3.53-4.3,5.08s-3.38,3-5.14,4.47c.21.89.41,1.87.69,2.82a.88.88,0,0,0,.64.52,5,5,0,0,1,4.3,2.32c.28.36.55.74.88,1.19a24.19,24.19,0,0,0,2.93-16.4m-10,7.43c.87-.68,1.73-1.3,2.54-2a20.74,20.74,0,0,0,6.14-7.76,2.65,2.65,0,0,0,0-2.44c-.94-1.68-1.76-3.43-2.81-5a20.46,20.46,0,0,0-5.2-5.27l.48,1.27a17.92,17.92,0,0,1,1.55,7.44,9.46,9.46,0,0,1-4.23,7.33c-.43.31-.71.55-.46,1.16.69,1.71,1.33,3.44,2,5.29m-3-7.8a7.76,7.76,0,0,0,3.62-6.14c.2-3.78-1.44-7.05-3-10.33-.12-.26-.5-.41-.79-.56a23.61,23.61,0,0,0-9.52-2.39,47,47,0,0,0-5.07.27c7,4.85,11.09,11.74,14.76,19.15m-28.3,20.77c.36.4.58.67.84.92a24.31,24.31,0,0,0,16.92,7c1.48,0,2.46-.3,3-1.78a9.6,9.6,0,0,1,1-1.75c2.39-4,4.8-8,8.74-10.78a1,1,0,0,0,.34-.81c-.12-.82-.35-1.63-.56-2.53-9.33,5.59-19.07,9.46-30.18,9.76m26.6-19.73c-2.71-5.73-5.74-11.11-10.36-15.36a30,30,0,0,0-5.22-3.49,2.47,2.47,0,0,0-1.87,0,23.65,23.65,0,0,0-11.12,8.66c-.64.91-1.17,1.89-1.83,2.95a9.06,9.06,0,0,1,5.4.94c1.13.54,2.23,1.16,3.32,1.78,3.57,2,7,4.25,11,5.43a13.71,13.71,0,0,0,10.66-.89m.84,1.84-1,.42a15.13,15.13,0,0,1-9.77.88,32.52,32.52,0,0,1-8.56-3.6c-2.49-1.38-5-2.81-7.47-4.14a5.59,5.59,0,0,0-4.51-.5,1.82,1.82,0,0,0-1.32,1.32,24.25,24.25,0,0,0,2.62,20.27A2.14,2.14,0,0,0,292.44,79a75.11,75.11,0,0,0,7.73-.66,60.46,60.46,0,0,0,21.5-8.59c.31-.19.65-.78.57-1.06-.57-1.83-1.25-3.62-1.94-5.54m-9.56-25.41a27.12,27.12,0,1,1-27.31,27.42,27.08,27.08,0,0,1,27.31-27.42"/><path class="cls-11" d="M447.1,82.32,442,87.87a38,38,0,0,0,5.27-2.13.75.75,0,0,0,.33-.61c-.11-.9-.29-1.8-.46-2.82M414.77,52.61a23.5,23.5,0,0,0-3.32,11.75c1-.35,1.93-.6,2.77-1a1.05,1.05,0,0,0,.53-.78c0-3.31,0-6.63,0-10m34.79,31.56c8.19-5.57,10.95-16.27,9.54-22.5-.66,1.48-1.25,3-2,4.5a33.54,33.54,0,0,1-8.68,10.29c-.29.24-.66.72-.6,1,.52,2.23,1.14,4.43,1.74,6.71m-33-22,.42.17c1.7-1,3.4-2.06,5.11-3.07a1.85,1.85,0,0,0,1-1.59A33.7,33.7,0,0,1,427,44.17c.39-.69.81-1.37,1.33-2.24a24.68,24.68,0,0,0-8.47,4.64A5.4,5.4,0,0,0,417.63,50c-.39,2.74-.79,5.48-1.08,8.24a38.21,38.21,0,0,0,0,3.95m26,9.1C438,78.61,432.1,83.83,423.32,85.58l.51.3a23.7,23.7,0,0,0,12.82,2.94A2.8,2.8,0,0,0,438,88.3a31.29,31.29,0,0,0,8.05-8,1.38,1.38,0,0,0,.28-1,26,26,0,0,0-3.73-7.95m-31.35-4.94c.57,2.32,1.15,4.53,1.65,6.75.25,1.1.86,1.23,1.85,1.1a24,24,0,0,0,12.58-5.67c1.91-1.64,3.61-3.54,5.4-5.32l-.15-.49c-2.65-.78-5.3-1.58-8-2.33a1.38,1.38,0,0,0-1,.23,37.1,37.1,0,0,1-12.37,5.73m3.09,9.84a24.88,24.88,0,0,0,5.47,6.87,2.72,2.72,0,0,0,2.52.69c8.52-1.4,14.34-6.48,18.66-13.62a1,1,0,0,0,.05-.85A22.12,22.12,0,0,0,434.39,64c-5.19,6.6-11.45,11.28-20.08,12.26m40.95-10.72a22.59,22.59,0,0,0,2.67-8.34,2.45,2.45,0,0,0-.15-1.08c-3.6-10-15.17-16.76-25.71-15a1.27,1.27,0,0,0-.7.24A22.49,22.49,0,0,0,427,48.7c12.66.17,22.13,5.52,28.22,16.8m-8.34,9.65a32.9,32.9,0,0,0,6.71-7.07,1.34,1.34,0,0,0,0-1.18,46.54,46.54,0,0,0-3.84-6.09c-5.85-7-13.54-10.17-22.61-10.09-.34,0-.92.23-1,.45-.54,2.37-1,4.75-1.48,7.22,10.09,2.24,18,7,22.17,16.76M435.46,92a27.11,27.11,0,1,1,27.1-27,27.08,27.08,0,0,1-27.1,27"/></g></svg>