<svg id="Layer_1" data-name="Layer 1" xmlns="http://www.w3.org/2000/svg" xmlns:xlink="http://www.w3.org/1999/xlink" viewBox="0 0 500 250"><defs><style>.cls-1,.cls-10,.cls-11,.cls-9{fill:none;}.cls-2{font-size:115.45px;}.cls-2,.cls-4{fill:#74accf;}.cls-2,.cls-4,.cls-6{font-family:PrioriSansOT-Bold, Priori Sans OT;font-weight:700;}.cls-3{letter-spacing:-0.04em;}.cls-4{font-size:39.69px;}.cls-5,.cls-6{font-size:35.51px;}.cls-13,.cls-5,.cls-6{fill:#293d5e;}.cls-5{font-family:PrioriSansOT-Regular, Priori Sans OT;}.cls-7{letter-spacing:-0.02em;}.cls-8{fill:#fff;}.cls-10,.cls-9{stroke:#293d5e;}.cls-10{stroke-width:3.59px;}.cls-11{stroke:#7e8b9e;stroke-width:2.39px;}.cls-12{clip-path:url(#clip-path);}</style><clipPath id="clip-path"><rect class="cls-1" width="500" height="250"/></clipPath></defs><title>PCG Infographics 11</title><text class="cls-2" transform="translate(12.23 98.99)"><tspan class="cls-3">9</tspan><tspan x="55.07" y="0">8%</tspan></text><text class="cls-4" transform="translate(194.29 55.95)"> </text><text class="cls-4" transform="translate(194.29 98.98)"> </text><text class="cls-5" transform="translate(18 133.67)">of </text><text class="cls-6" transform="translate(48.9 133.67)">all undergraduate</text><text class="cls-5" transform="translate(269.71 133.67)"> </text><text class="cls-5" transform="translate(18 168.33)">students receive some </text><text class="cls-5" transform="translate(18 202.99)"><tspan class="cls-7">f</tspan><tspan x="8.13" y="0">orm of </tspan></text><text class="cls-6" transform="translate(109.87 202.99)">ﬁnancial aid</text><text class="cls-5" transform="translate(263.64 202.99)">.</text><polygon class="cls-8" points="285.3 222.79 310.23 18.01 482 18.01 457.08 232.89 285.3 222.79"/><polygon class="cls-9" points="285.3 222.79 310.23 18.01 482 18.01 457.08 232.89 285.3 222.79"/><line class="cls-10" x1="312.35" y1="70.31" x2="459.92" y2="78.86"/><line class="cls-11" x1="320.27" y1="92.63" x2="398.53" y2="102.36"/><line class="cls-11" x1="319.86" y1="100.84" x2="374.51" y2="106.8"/><line class="cls-11" x1="315.88" y1="124.95" x2="406.63" y2="134.68"/><line class="cls-11" x1="315.88" y1="133.05" x2="406.63" y2="142.77"/><line class="cls-11" x1="315.88" y1="141.13" x2="406.63" y2="150.86"/><line class="cls-11" x1="315.88" y1="149.21" x2="406.63" y2="158.94"/><line class="cls-11" x1="313.86" y1="157.82" x2="404.61" y2="167.55"/><line class="cls-11" x1="313.86" y1="165.91" x2="404.61" y2="175.63"/><line class="cls-11" x1="312.36" y1="173.58" x2="390.63" y2="183.31"/><line class="cls-11" x1="337.01" y1="187.05" x2="391.66" y2="193.02"/><line class="cls-11" x1="319.05" y1="108.93" x2="373.7" y2="114.88"/><g class="cls-12"><path class="cls-13" d="M401.27,52.68c-1-.09-1.32-.11-1.29-.51,0-.15.3-.84.35-1l3.06-7.32c.38-.94.42-1.05.61-1s.43.88.49,1.1l2,7.59a3.49,3.49,0,0,1,.21,1c0,.48-.36.5-1.27.45Zm-2.35,10.58c0-.59-.08-.6-1-.79s-1.63-.46-1.58-1.27a43.72,43.72,0,0,1,2.17-5.63c.33-.72.37-.72,3.19-.57.33,0,1.9.1,4.79.29.59,0,.81,0,.94.27a32.59,32.59,0,0,1,1.73,6.24c0,.85-.83,1-1.57,1.22-1.08.24-1.19.27-1.21.64l0,.59c0,.37,0,.56.41.58s1.14-.08,4.11.07c.91,0,2.77.29,3.1.31s.56-.16.58-.53l0-.59c0-.33,0-.52-.33-.65-.83-.34-1-.42-1.21-.77-.61-1-4.84-16.11-6.75-24.4-.09-.3-.2-.42-.38-.43s-1.71.32-2.08.37c-.59.12-.67.19-.84.59-1.2,3.38-7,16.6-9.14,21-.82,1.7-1,2-1.85,2.35s-1,.39-1,.65l0,.59a.48.48,0,0,0,.52.58c.44,0,.89-.1,3.45,0,1.83.1,2.74.29,3.32.32s.64-.26.65-.52ZM389.61,39.2a1,1,0,0,0-.28-1c-.6-.51-3.1-1.09-4.85-1.18-6.19-.32-8.3,3.71-8.45,6.48-.19,3.55,2.2,5.53,4.46,7.35,4.65,3.65,6,4.72,5.84,7-.15,2.85-3,3.92-5.19,3.81-.77,0-3.79-.5-4.15-2.7-.17-1-.24-1-.72-1l-.69,0c-.48,0-.53.31-.59.71l-.34,3a.75.75,0,0,0,.5.95,18.69,18.69,0,0,0,5.65,1.29c4.76.25,8.53-2.4,8.74-6.47a6.93,6.93,0,0,0-1.45-4.56c-.86-1.12-1.81-1.87-5.26-4.61-2.18-1.75-3.84-3-3.72-5.31.11-2.11,1.92-3.72,4.56-3.58a6.4,6.4,0,0,1,2.36.53,1.73,1.73,0,0,1,1.27,1.62c.21.83.21.9.61.92l.59,0c.51,0,.59-.08.7-.7Zm-27,12.48c.06-1.11.25-1.25,1.46-1.18,1,.05,5.85.46,6.94.51.59,0,.81,0,.91-.54l.3-1.54c.05-.33,0-.56-.41-.58-1.13-.06-6.52-.16-7.77-.22s-1.23-.43-1.17-1.54c0-.89.16-3.11.39-6,.07-1.26.16-1.59.49-1.72s.59-.15,3,0c3.88.2,4,.43,4.17,1.66s.19,1.23.67,1.26l.62,0c.51,0,.53-.34.55-.68l.2-3.8c0-.33,0-.55-.37-.58s-7-.18-7.69-.22c-3.77-.2-6.21-.51-6.61-.53s-.52.08-.54.45l0,.81c0,.33.12.49,1,.64,1.42.22,1.44,1.19,1.4,2.07-.06,1.15-.07,2.7-.27,6.62l-.27,5.17c-.18,3.44-.38,6.61-.44,7.06-.08.77-.14,1.25-1.47,1.41-.93.14-1.11.16-1.13.61l0,.81c0,.26,0,.52.49.55s2.1-.07,4,0c2.23.12,3.28.35,3.58.37s.66-.08.69-.48l0-.81c0-.41-.37-.54-1.28-.7-1.71-.31-1.7-1.2-1.62-2.61Zm-21.46-2.16c-1-.09-1.32-.11-1.29-.51,0-.15.3-.84.35-1l3.06-7.32c.38-.94.42-1.05.61-1s.43.87.49,1.1l2,7.59a3.45,3.45,0,0,1,.21,1c0,.48-.36.5-1.27.45Zm-2.35,10.58c0-.59-.08-.6-1-.79s-1.63-.46-1.59-1.27a43.72,43.72,0,0,1,2.17-5.63c.33-.72.37-.72,3.19-.57.33,0,1.9.1,4.79.29.59,0,.81,0,.94.27A32.65,32.65,0,0,1,349,58.64c0,.85-.83,1-1.57,1.22-1.08.24-1.19.27-1.21.64l0,.59c0,.37,0,.56.41.58s1.14-.08,4.11.07c.91,0,2.77.29,3.1.31s.56-.16.58-.52l0-.59c0-.33,0-.52-.33-.65-.83-.34-1-.42-1.21-.77-.61-1-4.84-16.11-6.76-24.4-.09-.3-.2-.42-.38-.43s-1.7.32-2.08.37c-.59.12-.67.19-.84.59-1.2,3.38-7,16.6-9.14,21-.82,1.7-1,2-1.85,2.35s-1,.39-1,.65l0,.59a.48.48,0,0,0,.52.58c.44,0,.89-.1,3.44,0,1.83.1,2.74.29,3.32.32s.64-.26.65-.52ZM321.55,49.53c.06-1.11.25-1.25,1.46-1.18,1,.05,5.85.45,6.94.51.59,0,.81,0,.91-.54l.3-1.54c.05-.33,0-.55-.41-.58-1.13-.06-6.52-.16-7.77-.22s-1.23-.44-1.17-1.54c0-.89.16-3.11.38-5.95.07-1.26.16-1.59.49-1.72s.6-.15,3,0c3.88.2,4,.43,4.17,1.66s.19,1.23.67,1.26l.62,0c.51,0,.53-.34.55-.68l.2-3.8c0-.33,0-.55-.37-.57s-7-.18-7.69-.22c-3.77-.2-6.21-.51-6.61-.53s-.52.08-.54.45l0,.81c0,.33.12.49,1,.64C319,36,319,37,319,37.87c-.06,1.15-.07,2.7-.27,6.62l-.27,5.17c-.18,3.44-.38,6.61-.44,7.05-.08.77-.14,1.25-1.47,1.41-.92.14-1.11.16-1.13.61l0,.81c0,.26,0,.52.48.54s2.1-.07,4,0c2.23.12,3.28.35,3.58.37s.66-.08.68-.48l0-.81c0-.41-.37-.54-1.28-.7-1.71-.31-1.7-1.2-1.62-2.6Z"/></g></svg>