<svg id="Layer_1" data-name="Layer 1" xmlns="http://www.w3.org/2000/svg" xmlns:xlink="http://www.w3.org/1999/xlink" viewBox="0 0 500 250"><defs><style>.cls-1,.cls-13,.cls-14{fill:none;}.cls-2{font-size:20px;}.cls-12,.cls-2,.cls-5,.cls-6,.cls-7{fill:#293d5e;}.cls-2,.cls-6{font-family:PrioriSansOT-Regular, Priori Sans OT;}.cls-3{font-size:42px;}.cls-10,.cls-3,.cls-8,.cls-9{fill:#74accf;}.cls-3,.cls-5,.cls-7,.cls-8,.cls-9{font-family:PrioriSansOT-Bold, Priori Sans OT;font-weight:700;}.cls-4{letter-spacing:-0.02em;}.cls-5,.cls-6{font-size:24px;}.cls-7,.cls-8{font-size:41px;}.cls-9{font-size:35px;}.cls-11{clip-path:url(#clip-path);}.cls-13,.cls-14{stroke:#293d5e;stroke-linecap:round;stroke-miterlimit:10;}.cls-13{stroke-width:3.82px;}.cls-14{stroke-width:15.3px;}</style><clipPath id="clip-path"><rect class="cls-1" width="500" height="250"/></clipPath></defs><title>PCG Infographics 5</title><text class="cls-2" transform="translate(18 36.6)">In 2017-2018,</text><text class="cls-3" transform="translate(18 68.6)">334 </text><text class="cls-2" transform="translate(82.81 68.6)">Messiah students comp<tspan class="cls-4" x="153.48" y="0">l</tspan><tspan x="157.52" y="0">eted </tspan></text><text class="cls-5" transform="translate(18 94.6)">student teaching, </text><text class="cls-5" transform="translate(169.92 94.6)"> </text><text class="cls-5" transform="translate(18 120.59)">internships</text><text class="cls-2" transform="translate(111.93 120.6)"><tspan xml:space="preserve"> or </tspan></text><text class="cls-2" transform="translate(132.87 120.6)"> </text><text class="cls-5" transform="translate(18 146.6)">pre-student teaching</text><text class="cls-6" transform="translate(194.02 146.6)"> </text><text class="cls-6" transform="translate(198.34 146.6)"> </text><text class="cls-2" transform="translate(18 172.6)">experiences</text><text class="cls-2" transform="translate(96.82 172.6)"> </text><text class="cls-2" transform="translate(100.42 172.6)">in </text><text class="cls-7" transform="translate(119.31 187)">30+</text><text class="cls-8" transform="translate(183.43 187)"> </text><text class="cls-9" transform="translate(187.53 187)">school </text><text class="cls-9" transform="translate(275.35 187)"> </text><text class="cls-9" transform="translate(164.75 213)">districts</text><text class="cls-2" transform="translate(264.04 213)">.</text><path class="cls-10" d="M383.4,23.37H290.74V138.64H383.4ZM375.75,131H298.39V31h77.37Z"/><g class="cls-11"><path class="cls-12" d="M472.8,65.86a15.2,15.2,0,1,1-15.2-15.2,15.2,15.2,0,0,1,15.2,15.2"/></g><line class="cls-13" x1="356.32" y1="70.76" x2="397.18" y2="112.17"/><g class="cls-11"><path class="cls-10" d="M288.19,235.46h47.95c1.77,0,.93-7.27.93-16.23v-11.5a16.23,16.23,0,0,0-16.23-16.23H299a16.23,16.23,0,0,0-16.23,16.23v11.5c0,9,0,16.23,5.37,16.23"/><path class="cls-10" d="M325.24,173.21A15.2,15.2,0,1,1,310,158a15.2,15.2,0,0,1,15.2,15.2"/><path class="cls-10" d="M361.69,235.46h47.95c1.77,0,.93-7.27.93-16.23v-11.5a16.23,16.23,0,0,0-16.23-16.23H372.55a16.23,16.23,0,0,0-16.23,16.23v11.5c0,9,0,16.23,5.37,16.23"/><path class="cls-10" d="M398.75,173.21a15.2,15.2,0,1,1-15.2-15.2,15.2,15.2,0,0,1,15.2,15.2"/><path class="cls-10" d="M432.76,235.46h47.95c1.77,0,.93-7.27.93-16.23v-11.5a16.23,16.23,0,0,0-16.23-16.23H443.62a16.23,16.23,0,0,0-16.23,16.23v11.5c0,9,0,16.23,5.37,16.23"/><path class="cls-10" d="M469.81,173.21a15.2,15.2,0,1,1-15.2-15.2,15.2,15.2,0,0,1,15.2,15.2"/><path class="cls-12" d="M436.31,140.87h47.4c1.75,0,.92-9.49.92-21.19v-15c0-11.7-7.18-21.19-16-21.19H447c-8.86,0-16,9.49-16,21.19v15c0,11.7,0,21.19,5.31,21.19"/></g><polyline class="cls-14" points="397.18 115.69 421.39 115.69 443 93"/></svg>