<svg id="Layer_1" data-name="Layer 1" xmlns="http://www.w3.org/2000/svg" xmlns:xlink="http://www.w3.org/1999/xlink" viewBox="0 0 500 250"><defs><style>.cls-1{fill:none;}.cls-2{font-size:36px;}.cls-2,.cls-5,.cls-9{fill:#293d5e;}.cls-2,.cls-8,.cls-9{font-family:PrioriSansOT-Regular, Priori Sans OT;}.cls-3{letter-spacing:-0.06em;}.cls-4{letter-spacing:-0.02em;}.cls-5{font-size:150px;}.cls-5,.cls-6,.cls-7{font-family:PrioriSansOT-Bold, Priori Sans OT;font-weight:700;}.cls-6{font-size:66px;}.cls-13,.cls-6,.cls-7,.cls-8{fill:#74accf;}.cls-7{font-size:48px;}.cls-8{font-size:25px;}.cls-9{font-size:42px;}.cls-10{letter-spacing:-0.06em;}.cls-11{clip-path:url(#clip-path);}.cls-12{fill:#75abcd;}</style><clipPath id="clip-path"><rect class="cls-1" width="500" height="250"/></clipPath></defs><title>PCG Infographics 17</title><text class="cls-2" transform="translate(18 47.14)"><tspan class="cls-3">T</tspan><tspan x="14.94" y="0">he Ca</tspan><tspan class="cls-4" x="84.35" y="0">l</tspan><tspan x="91.65" y="0">vin and Janet High Center hosts</tspan></text><text class="cls-5" transform="translate(18 149.54)">100+</text><text class="cls-6" transform="translate(302.99 149.54)"> </text><text class="cls-6" transform="translate(317.51 149.54)"> </text><text class="cls-7" transform="translate(18 187.54)">public cultural </text><text class="cls-7" transform="translate(18 225.56)">events</text><text class="cls-8" transform="translate(126.77 225.54)"> </text><text class="cls-9" transform="translate(131.27 225.54)">each yea<tspan class="cls-10" x="118.19" y="0">r</tspan><tspan x="126.17" y="0">.</tspan></text><g class="cls-11"><path class="cls-12" d="M421.59,161.35a10.62,10.62,0,0,0,2.09,2.31,4.35,4.35,0,0,0,4.55,1c9.21-3.73,18.38-7.55,26.28-13.78a60.42,60.42,0,0,0,17.29-22.35c2.4-5.12,3.87-10.58,5.69-15.91q3.58-10.51,7.1-21a11.74,11.74,0,0,0,.76-4.77c-.23-2.8-1.84-4.49-4.26-5.56-2.93-1.3-6.12-1.55-9.21-2.2C464,77.32,456,75.83,448.43,72.82c-4.9-2-9.51-4.53-14.22-6.86-2.62-1.3-5.3-2.37-8.26-1-.53.24-.87-.14-1.22-.45-1-.93-2-1.93-3.15-2.76-.87-.65-.62-1,.07-1.55,3-2.22,6.33-2.59,9.85-2.05,3,.45,5.47,2.07,8.11,3.34,4.92,2.35,9.66,5.07,14.83,6.87a121,121,0,0,0,18.42,4.51c2.93.53,5.85,1.08,8.77,1.67,6.16,1.25,12.6,8.7,9.67,17.31-4.44,13-8.32,26.29-13.55,39.06A60.06,60.06,0,0,1,466,149.13c-6.85,7.37-15.15,12.6-24.26,16.65-3.11,1.38-6.21,2.79-9.32,4.16-5,2.22-10.47,1.33-14-2.26-1.45-1.48-1.44-1.48-.07-3a33,33,0,0,1,3.21-3.38"/><path class="cls-12" d="M461.16,104.19c4.92,0,8.88,3,9.7,7a6,6,0,0,1-2.17,6c-1.84,1.56-3.87,2.7-6.51,1.8A74.47,74.47,0,0,1,452,114.42c-1.7-.87-1.95-2-1.07-3.71,2.22-4.47,6.18-6,10.23-6.52"/><path class="cls-12" d="M450,144.86a51.32,51.32,0,0,0-6-4,40.1,40.1,0,0,0-8.24-3.39c-1-.3-1.51-.73-1.06-1.82a12.24,12.24,0,0,0,.37-1.34c.13-.47.33-.66.9-.5a23,23,0,0,1,14,10.45,2.49,2.49,0,0,1,.11.61"/><path class="cls-12" d="M433.39,94.32a13,13,0,0,1,6.33,9.57,3.13,3.13,0,0,1-.55,2.12c-.48.76-1.07,1.68-1.94,1.6-.61-.05-.53-1.17-.71-1.82-1-3.7-2-7.4-3.13-11.47"/><path class="cls-12" d="M407.26,143.76c-9.11,3.46-17.24,1.18-24.81-4.5,14,1.32,25.88-4.2,37.66-11.31-2,7.42-5.65,13.08-12.84,15.81m-32.12-27.12c-2.55.6-4.76-.73-6.35-2.7-2.57-3.18-1.78-7.56,1.66-10a9.6,9.6,0,0,1,5.92-1.76c4.51.06,7.84,2.32,10.46,5.77a2.66,2.66,0,0,1-1.18,4.29c-3.47,1.57-6.81,3.55-10.52,4.43m24.71-15.21c1.27-4.67,6.31-8.73,10.83-8.72,4.83,0,8,3.41,7.4,7.89a8,8,0,0,1-6.21,6.1c-3,.47-6,.53-9,1.13-1.64.33-2.41-.27-3-1.85a7.45,7.45,0,0,1-.08-4.53m30.4,6.36c-1.71-7.53-3.88-14.95-5.89-22.41-1.44-5.35-2.8-10.71-4.33-16a10.77,10.77,0,0,0-10.71-8,12.73,12.73,0,0,0-4.65,1.26c-2.65,1.25-5.3,2.55-8,3.67a120.82,120.82,0,0,1-34.56,8.57c-2,.2-4.1.12-6.06.89-5,1.93-7.58,7.26-6.09,12.89,2.74,10.35,5.66,20.64,8.41,31a64.26,64.26,0,0,0,27.15,38.18c6,4,12.42,7,18.86,10.07a8.05,8.05,0,0,0,9.75-2.64c3.3-4.64,6.17-9.55,9-14.47a63.82,63.82,0,0,0,8.5-31.2,49.44,49.44,0,0,0-1.4-11.75"/><path class="cls-12" d="M331.31,162.75c.54.79,1,.73,1.73.35,3-1.59,6-3.17,9-4.71a20.68,20.68,0,0,1,9-2.28c1.15,0,1-.31.56-1.1a128.14,128.14,0,0,0-10.14-15c-2.07-2.81-4.27-5.53-6.45-8.26a22.09,22.09,0,0,0-8-5.95c-3.38-1.61-7.19.73-7.89,4.68-.42,2.37-.23,5.18,1,10,2,7.09,6.16,14.92,11.21,22.3m7.64,9.51c4,3.69,8.07,7.08,13.69,7.85a12.84,12.84,0,0,0,7.36-.9c1.92-.89,2.46-1.8,1.89-3.86-.86-3.1-2.25-6-3.37-9a2.66,2.66,0,0,0-2.72-1.62,23,23,0,0,0-5.32.64,33.8,33.8,0,0,0-11.37,5.92c-.37.28-.65.53-.16,1m35.24,7.66a2.55,2.55,0,0,0-1-.54c-.51-.08-1.27-.42-1.51.17s-.3,1.4.3,1.81c3.27,2.21,6.65,4.19,10.71,4.58l-8.54-6m-75.58-4.36c.65-2.4,2.3-4.49,3.82-6.8l.32,1c.7,2.24,1.5,4.43,3.42,6a4.57,4.57,0,0,0,4.16,1c1.87-.45,3-1.8,4.21-3.09,2.53-2.75,5.5-3.51,9-2.07,1.89.78,3.74,1.64,5.93,2.61-.29-.61-.47-.93-.61-1.26a57.17,57.17,0,0,0-16.12-21.81c-3.93-3.28-5.55-7.58-4.2-12.64a18.45,18.45,0,0,1,5.88-9.17c1.68-1.48,3.45-2.82,5.07-4.38a7.39,7.39,0,0,1,8-1.56,23,23,0,0,1,6.89,4.2c4.62,3.81,8.15,8.58,11.64,13.36a145.89,145.89,0,0,1,20.48,38.89c.5,1.46.88,3,2.33,4,3.11,2.22,6.06,4.65,9.15,6.9,1.58,1.14,3,2.58,4.82,3.31.32.13.66.52,1,.19s0-.62,0-.93c-.43-3.39-2.5-5.29-5.67-6.15a46.76,46.76,0,0,1-4.94-1.52c-3.07-1.2-4-3.13-3.1-6.3a18.94,18.94,0,0,1,.91-2.49c1.26-2.78,3.66-3.74,6.56-2.82a19.42,19.42,0,0,1,6.58,4.14c2.45,2.08,4.87,4.2,7.34,6.26,4.35,3.64,8.87,7,14.9,7.83a18.82,18.82,0,0,0-2.76,2.61c-1.59,2.29-3.85,2.4-6.15,1.22-2-1-4.09-1.9-6.31-2.92.31,2.73-1.12,4.23-3.1,5.18-3.74,1.79-7.52,2-11.18-.33-1.21-.78-2.4-1.62-3.62-2.37a10,10,0,0,0-2.74-1.56c.15,1.12.26,2.14.43,3.15a70.72,70.72,0,0,1,.86,17.93,10,10,0,0,1-1.1,4.29c-1.87,3.24-5.11,3.92-8.38,4.22-5.51.49-10.2-1.81-14.46-5-5.71-4.26-8.81-10.26-10.68-16.94C336,197.4,335,193,334,188.56a10,10,0,0,0-3.83-5.84,65.77,65.77,0,0,0-7.62-4.95,15.16,15.16,0,0,0-4.05-1.5,5.25,5.25,0,0,0-5.7,2,17.75,17.75,0,0,1-1.58,1.77,7.47,7.47,0,0,1-10,.62c-1.6-1.29-3.1-3.11-2.55-5.11"/></g><g class="cls-11"><path class="cls-13" d="M442.23,218.94l1.29-2.7,25-52.38a12,12,0,0,1,1.07-1.95c.21-.29.81-.62,1-.52a1.79,1.79,0,0,1,.75,1.06,2.29,2.29,0,0,1-.06,1.25c-2,6.5-1.22,12.85.64,19.27a80.87,80.87,0,0,1,2.93,13.66c.82,7.49-2.1,13.89-7.34,19.11a117,117,0,0,1-9.12,7.67,5.54,5.54,0,0,1-1.79.61l-.29-.57c.62-.6,1.22-1.23,1.86-1.8,3.75-3.3,7.61-6.47,10.32-10.76,5.35-8.45,3-21.73-4.94-27.68-.42-.31-.87-.58-1.52-1l-1.12,2.36c-6.22,13-12.57,26-18.62,39.17-2.7,5.86-7.24,8.17-13.3,8.27a17.12,17.12,0,0,1-8.87-2.17c-7-4-5.35-10-.77-13.71,5.71-4.58,15.56-4.16,21,.73a26,26,0,0,1,1.87,2.1"/></g></svg>