<svg id="Layer_1" data-name="Layer 1" xmlns="http://www.w3.org/2000/svg" xmlns:xlink="http://www.w3.org/1999/xlink" viewBox="0 0 500 250"><defs><style>.cls-1{fill:none;}.cls-2{font-size:20px;}.cls-11,.cls-15,.cls-2,.cls-7{fill:#293d5e;}.cls-11,.cls-2{font-family:PrioriSansOT-Regular, Priori Sans OT;}.cls-3{letter-spacing:-0.07em;}.cls-4{letter-spacing:-0.02em;}.cls-5{letter-spacing:0em;}.cls-6{letter-spacing:-0.02em;}.cls-7,.cls-8{font-size:86px;}.cls-10,.cls-7,.cls-8{font-family:PrioriSansOT-Bold, Priori Sans OT;font-weight:700;}.cls-10,.cls-16,.cls-8{fill:#74accf;}.cls-8{letter-spacing:-0.01em;}.cls-9{letter-spacing:0em;}.cls-10{font-size:60px;}.cls-11{font-size:28px;}.cls-12{letter-spacing:-0.04em;}.cls-13{letter-spacing:-0.02em;}.cls-14{clip-path:url(#clip-path);}</style><clipPath id="clip-path"><rect class="cls-1" width="500" height="250"/></clipPath></defs><title>PCG Infographics 4</title><text class="cls-2" transform="translate(20 30.6)">In 2016-201<tspan class="cls-3" x="77.6" y="0">7</tspan><tspan x="84.68" y="0">, Messiah Col</tspan><tspan class="cls-4" x="175.1" y="0">l</tspan><tspan class="cls-5" x="179.14" y="0">ege students comp</tspan><tspan class="cls-6" x="303.53" y="0">l</tspan><tspan x="307.57" y="0">eted </tspan></text><text class="cls-7" transform="translate(18 93)">661</text><text class="cls-8" transform="translate(130.66 93)"> <tspan class="cls-9" x="14.79" y="0">internships </tspan></text><text class="cls-10" transform="translate(18 137.4)">and practicums</text><text class="cls-11" transform="translate(339.11 137.4)"> </text><text class="cls-11" transform="translate(127.01 167.39)">across <tspan class="cls-12" x="61.91" y="0">P</tspan><tspan x="72.8" y="0">ennsy</tspan><tspan class="cls-13" x="124.23" y="0">l</tspan><tspan x="129.89" y="0">vania </tspan></text><text class="cls-11" transform="translate(307.02 167.39)"> </text><text class="cls-11" transform="translate(127.01 193.4)">and the U.S.</text><g class="cls-14"><path class="cls-15" d="M363.31,131.53a7.32,7.32,0,1,1-7.32,7.32,7.32,7.32,0,0,1,7.32-7.32"/><path class="cls-15" d="M395.93,157.29a3.27,3.27,0,0,0-4.12-1.68l-9.15,4-6.86-9.3c-1.07-1.37-3.51-3.2-5.64-3H355.23c-5,0-8.54,3.2-8.54,7v24.09c0,4.27,5.64,4.27,5.64,0V157.14h1.83v58.08a4,4,0,1,0,7.93,0V181.53h2v33.69a4,4,0,1,0,7.93,0V157.14h1.22l5.95,7.93a2.87,2.87,0,0,0,2.59,1.22,5.17,5.17,0,0,0,1.52-.15l11.13-4.73a3,3,0,0,0,1.53-4.12"/><path class="cls-16" d="M453.38,149.89a7.32,7.32,0,1,1-7.32,7.32,7.32,7.32,0,0,1,7.32-7.32"/><path class="cls-16" d="M420.76,175.65a3.27,3.27,0,0,1,4.12-1.68l9.15,4,6.86-9.3c1.07-1.37,3.51-3.2,5.64-3h14.94c5,0,8.54,3.2,8.54,7v24.09c0,4.27-5.64,4.27-5.64,0V175.5h-1.83v58.08a4,4,0,1,1-7.93,0V199.89h-2v33.69a4,4,0,1,1-7.93,0V175.5h-1.22l-5.95,7.93a2.87,2.87,0,0,1-2.59,1.22,5.17,5.17,0,0,1-1.52-.15l-11-4.73a3,3,0,0,1-1.68-4.12"/><path class="cls-16" d="M435.09,159.49c-2,1.22-4.57.46-5.95-.31a2.53,2.53,0,0,0-1.68.15c-.15.15-.46.15-.76.31A9.32,9.32,0,0,1,415,153.85a9.22,9.22,0,0,1,6.4-11.43,9,9,0,0,1,11,12.81c-.91,2.59,2.29,3.66,2.75,4,.3.15,0,.31,0,.31M443,150l-.76-3.51a1.19,1.19,0,0,0-1.37-.92l-2.74.61a12.4,12.4,0,0,0-3.2-4.57l1.52-2.44a1.39,1.39,0,0,0-.3-1.68l-2.9-2a1.39,1.39,0,0,0-1.68.31l-1.52,2.44a13.55,13.55,0,0,0-5.49-1.07l-.61-2.74a1.19,1.19,0,0,0-1.37-.92l-3.51.76a1.19,1.19,0,0,0-.91,1.37l.61,2.74a12.38,12.38,0,0,0-4.57,3.2l-2.29-1.52a1.39,1.39,0,0,0-1.68.31l-2,2.9a1.39,1.39,0,0,0,.3,1.68l2.29,1.53a16.71,16.71,0,0,0-1.07,5.49l-2.74.61a1.19,1.19,0,0,0-.91,1.37l.76,3.51a1.19,1.19,0,0,0,1.37.92l2.74-.61a12.39,12.39,0,0,0,3.2,4.57l-1.52,2.29a1.39,1.39,0,0,0,.3,1.68l2.9,2a1.39,1.39,0,0,0,1.68-.31l1.52-2.44a16.71,16.71,0,0,0,5.49,1.07l.61,2.74a1.19,1.19,0,0,0,1.37.92l3.51-.76a1.19,1.19,0,0,0,.91-1.37l-.61-2.74a12.39,12.39,0,0,0,4.57-3.2l2.44,1.52a1.39,1.39,0,0,0,1.68-.31l2-2.9a1.39,1.39,0,0,0-.3-1.68l-2.44-1.52a16.71,16.71,0,0,0,1.07-5.49l2.74-.61A1,1,0,0,0,443,150"/><path class="cls-15" d="M400.35,129.85a9.24,9.24,0,0,1-11.28,6.56c-.3,0-.46-.15-.76-.15a2.53,2.53,0,0,0-1.68-.15c-1.37.76-3.81,1.68-5.95.61,0,0-.31-.15,0-.31.46-.31,3.66-1.68,2.59-4.12a8.35,8.35,0,0,1-1.22-6.86,9.42,9.42,0,0,1,18.29,4.42m8.08-2.13-2.9-.3a13.39,13.39,0,0,0-1.52-5.49l2.29-1.68a1.21,1.21,0,0,0,.15-1.68l-2.13-2.9a1.21,1.21,0,0,0-1.68-.15l-2.13,1.68a14,14,0,0,0-4.88-2.74l.3-2.74a1.19,1.19,0,0,0-1.07-1.37l-3.51-.46a1.19,1.19,0,0,0-1.37,1.07l-.3,2.75a13.4,13.4,0,0,0-5.49,1.52l-1.68-2.29a1.19,1.19,0,0,0-1.68-.15l-2.74,2.13a1.21,1.21,0,0,0-.15,1.68l1.68,2.29a14,14,0,0,0-2.74,4.88l-2.74-.31a1.19,1.19,0,0,0-1.37,1.07l-.46,3.35a1.19,1.19,0,0,0,1.07,1.37l2.74.3a13.41,13.41,0,0,0,1.52,5.49l-2.29,1.68a1.19,1.19,0,0,0-.15,1.68l2.13,2.74a1.21,1.21,0,0,0,1.68.15l2.29-1.68a14,14,0,0,0,4.88,2.74l-.3,2.74a1.19,1.19,0,0,0,1.07,1.37l3.51.46a1.19,1.19,0,0,0,1.37-1.07l.3-2.9a12.11,12.11,0,0,0,5.34-1.52l1.68,2.29a1.21,1.21,0,0,0,1.68.15l2.74-2.14a1.21,1.21,0,0,0,.15-1.68L402,137.78a14,14,0,0,0,2.74-4.88l2.74.31a1.19,1.19,0,0,0,1.37-1.07l.46-3.51c.15-.31-.3-.92-.91-.92"/></g></svg>