<svg id="Layer_1" data-name="Layer 1" xmlns="http://www.w3.org/2000/svg" xmlns:xlink="http://www.w3.org/1999/xlink" viewBox="0 0 500 250"><defs><style>.cls-1{fill:none;}.cls-2{font-size:28px;}.cls-12,.cls-2,.cls-3,.cls-7{fill:#293d5e;}.cls-2,.cls-6,.cls-7{font-family:PrioriSansOT-Regular, Priori Sans OT;}.cls-3{font-size:78px;}.cls-3,.cls-4,.cls-5{font-family:PrioriSansOT-Bold, Priori Sans OT;font-weight:700;}.cls-4,.cls-6{font-size:46px;}.cls-4,.cls-5,.cls-6{fill:#74accf;}.cls-5{font-size:68px;}.cls-7{font-size:22px;}.cls-8{letter-spacing:-0.04em;}.cls-9{letter-spacing:-0.02em;}.cls-10{letter-spacing:0em;}.cls-11{clip-path:url(#clip-path);}</style><clipPath id="clip-path"><rect class="cls-1" width="500" height="250"/></clipPath></defs><title>PCG Infographics 7</title><text class="cls-2" transform="translate(18 50.42)">Messiah has placed </text><text class="cls-3" transform="translate(18 108.82)">67</text><text class="cls-4" transform="translate(91.63 108.82)"><tspan xml:space="preserve"> graduate </tspan></text><text class="cls-4" transform="translate(250.33 108.82)"> </text><text class="cls-4" transform="translate(17.98 143.23)">student nurses</text><text class="cls-5" transform="translate(252.59 143.22)"> </text><text class="cls-6" transform="translate(159.89 195.62)">at</text><text class="cls-4" transform="translate(188.41 195.62)"> </text><text class="cls-3" transform="translate(196.69 195.62)">46</text><text class="cls-4" transform="translate(273.44 195.62)"><tspan xml:space="preserve"> clini</tspan></text><text class="cls-4" transform="translate(353.2 195.62)">cal sites</text><text class="cls-7" transform="translate(482 195.62)"> </text><text class="cls-7" transform="translate(482 195.62)"> </text><text class="cls-2" transform="translate(237.17 221.22)">in <tspan class="cls-8" x="21.45" y="0">P</tspan><tspan x="32.34" y="0">A in the past </tspan><tspan class="cls-9" x="150.41" y="0">f</tspan><tspan class="cls-10" x="156.8" y="0">our years.</tspan></text><g class="cls-11"><path class="cls-12" d="M435.65,136.3a9.27,9.27,0,1,0-6.91,10.88c4.73-1.13,8-6.34,6.91-10.88m16.24-29.67c-.16,8.63-2.28,16.56-7.82,23.43-.65.8-.24,2.67,0,4a18.18,18.18,0,0,1-12.05,21.32c-8.33,2.83-17.6-1.31-21.78-9.72a17.69,17.69,0,0,1,6.6-22.54c6.82-4.27,13.73-3.8,20.76.72,4.1-5.42,6.17-11.32,4.91-18-1-5.09-5.09-7.83-10.51-5.85-6.45,2.36-13.17,5.13-18.41,9.4-9.44,7.69-17.74,16.78-26.76,25-7.26,6.62-14.27,13.81-22.49,19-16.44,10.43-31.76,5.44-39.94-12.22a107.31,107.31,0,0,1-6.33-18.24c-1.57-6.09-2.23-12.42-3.33-18.93-3.77.83-5.26-1.48-5.65-4.9-.33-2.86-2.18-4-4.57-5.24-12.34-6.5-24.77-12.88-36.67-20.13-4.76-2.9-8.25-7.9-12.31-11.94l-1.43-5.35c.48-11.77,8.06-19.23,16-26.57,2.88-2.67,6.48-4.37,8.28-8.56,1.88-4.38,7.06-3.91,9.57.25,3.76,6.23,2.41,8.92-5,10.06a3.3,3.3,0,0,0-1.79.69c-5.38,5.53-11.2,10.73-15.88,16.8-3.78,4.9-3.15,8.93,1.82,12.79a197.7,197.7,0,0,0,22.25,14.89c6.82,3.95,14.17,7,21.35,10.29,4.23,1.94,7.72,1,10.26-2.84,7-10.69,14-21.37,20.56-32.32,2.33-3.88,3.61-8.45,5-12.82A7.52,7.52,0,0,0,343,29.83c-8.57-5.21-17.68-8.31-28-7-2.12.27-6.18-.84-6.38-1.9a16.3,16.3,0,0,1,.93-9.61c.48-1,5.08-.36,7.71.06,1.72.28,3.2,1.76,4.92,2.29,7.37,2.28,15.19,3.55,22.11,6.77,10.66,5,13.41,12.9,9.69,24.27C350.13,56.59,343.4,67,336.54,77.36c-1.89,2.85-3.8,5.72-5.93,8.39-2.61,3.27-4.82,6.29-2.93,11,.47,1.18-1.84,3.47-3.45,5.06.83,13.13,2.54,26.44,9.56,38.32,6.14,10.38,14.08,12.5,24.7,6.73,8.8-4.78,15.85-11.65,22.53-19,10.49-11.48,21.29-22.62,34.79-30.66a50.76,50.76,0,0,1,10.29-4.89c11.3-3.62,17-1.73,24,7.44l1.84,6.88"/></g></svg>