<svg xmlns="http://www.w3.org/2000/svg" xmlns:xlink="http://www.w3.org/1999/xlink" width="1601" height="190" viewBox="0 0 1601 190"><defs><path id="xdppa" d="M703.72 2749.32l.86-31.95h9.97l9.8-99.11 11.7 99.1 11.35 1.21v5.15l50.9-.86 22.19 21.3 5.16 25.42v15.98"/><path id="xdppb" d="M722.47 2739.36v-12.37h8.25v12.37z"/><path id="xdppc" d="M718.68 2751.55h16.85v31.95"/><path id="xdppd" d="M755.31 2745.71l11.18.69v23.87H755.3z"/><path id="xdppe" d="M775.95 2745.71h11.18v21.99l-11.18.51z"/><path id="xdppf" d="M794.87 2745.71l11.18 1.03v20.44h-11.18z"/><path id="xdppg" d="M717.13 2748.63l6.7 8.59v31.09"/><path id="xdpph" d="M717.13 2796.38v-47.75l-33.53 1.55-8.77-4.47.17-10.48-5.85-.86-.17-1.37-39.9-8.76-3.95 3.95-19.95-2.92-2.24 4.12-4.99-.68s-17.02 7.55-17.54 12.7l-2.06 34.53s14.1 2.4 21.32 1.2l3.62 2.4 5.67.7v1.03l17.2 2.57 12.38-.68"/><path id="xdppi" d="M683.6 2750.18c-48.16 2.58-65.7 8.42-65.7 8.42l-.51 19.58h-3.44v.51h-.86v.69h-1.72v.52h-2.41"/><path id="xdppj" d="M668.98 2734.37v8.93"/><path id="xdppk" d="M628.74 2724.24l-.17 7.21-.69 24.74"/><path id="xdppl" d="M668.99 2738.84l-40.42-7.39-5.5 4.3"/><path id="xdppm" d="M623.07 2741.08l5.33-3.44 32.68 5.32"/><path id="xdppn" d="M661.07 2751.72v-9.96l2.06-.69 11.53 4.64"/><path id="xdppo" d="M623.07 2751.55l4.99-2.58 27 3.26"/><path id="xdppp" d="M622.89 2757.22l.17-26.97 1.72-2.06"/><path id="xdppq" d="M605.18 2725.27l-1.72 54.28"/><path id="xdppr" d="M602.94 2729.39l-1.2 2.4-1.72 45.87"/><path id="xdpps" d="M603.46 2735.23l1.38-1.37 5.33.52-1.2 36.07h-6.54z"/><path id="xdppt" d="M638.37 2783.15v-3.26l-11 .52v.51l-.87.17v1.03l-1.2.35v1.03"/><path id="xdppu" d="M597.78 2728.71l-2.06 48.78"/><path id="xdppv" d="M617.22 2778l21.15 1.55"/><path id="xdppw" d="M622.89 2778.34l.17-13.74 13.42-1.2v15.97"/><path id="xdppx" d="M627.02 2778.52v-10.14l5.16-.34v11.16"/><path id="xdppy" d="M663.14 2741.07l.17 10.48"/><path id="xdppz" d="M644.22 2763.4l6.36-.17v15.29l-6.36-.35z"/><path id="xdppA" d="M657.46 2762.9l7.57-.18v16.15h-7.57z"/><path id="xdppB" d="M674.66 2762.37l8.94-.17v17.18l-8.94-.35z"/><path id="xdppC" d="M693.92 2762.03l9.8-.52-.17 18.38-9.63-.34z"/><path id="xdppD" d="M590.4 2740.04l4.3-1.89-.35 6.18-4.13 1.55z"/><path id="xdppE" d="M582.65 2743.48l3.27-1.55-.17 5.67-3.27 1.37z"/><path id="xdppF" d="M589.87 2753.44l4.13-1.37-.17 6.53-4.3 1.03z"/><path id="xdppG" d="M581.96 2756.2l3.44-1.04-.34 5.84-3.44.69z"/><path id="xdppH" d="M589.36 2766.5l4.13-.52-.34 6.53h-4.13z"/><path id="xdppI" d="M581.45 2767.52l3.27-.34-.34 5.32-3.27.18z"/><path id="xdppJ" d="M892.55 2796.04c0 2.75-19.6 4.98-46.43 4.98s-43.51-2.23-43.51-4.98c0-2.75 16.17-3.61 43-3.61 26.82 0 46.94.86 46.94 3.6z"/><path id="xdppK" d="M803.98 2785.39s350.48 1.37 75.15 21.99l.52-2.07c218.92-19.4-75.67-19.92-75.67-19.92z"/><path id="xdppL" d="M1007.08 2783.67l-44.71-.34.34-40.88h-77.04l.52 40.36-38.7 1.89-10.66.69V2722l97.85-10.31 84.27 11.85 11.35-.34 12.38 3.43 19.78.35 9.8.86v9.61l176.1 3.27.34 34h302.85"/><path id="xdppM" d="M1007.08 2783.67l-.17-46.38"/><path id="xdppN" d="M847.49 2784.7v-49.81l159.42 2.4h6.88v46.04"/><path id="xdppO" d="M889.28 2782.12v-36.07h10.66v36.07h4.82v-36.07h10.32v36.07h4.12v-36.07h11.35v36.07h3.27v-36.07h10.83v36.07h3.44v-36.07h11.18v36.07l3.1 1.2"/><path id="xdppP" d="M1030.64 2782.81l-.34-59.6"/><path id="xdppQ" d="M1042.33 2737.3l.34-10.65"/><path id="xdppR" d="M1030.3 2737.3h31.81l.35-10.31"/><path id="xdppS" d="M1051.28 2781.95v-35.9l9.46.17 179.37 2.23v22.33h-42.65v3.95h-42.65v3.44"/><path id="xdppT" d="M1060.22 2781.61l.52-35.38"/><path id="xdppU" d="M1070.54 2781.78l.52-35.38"/><path id="xdppV" d="M1080.86 2780.58l.52-34.18"/><path id="xdppW" d="M1091.86 2780.58l.52-34.18"/><path id="xdppX" d="M1102.01 2780.06l.69-33.15"/><path id="xdppY" d="M1112.84 2779.72l.34-32.81"/><path id="xdppZ" d="M1123.16 2779.38l.69-32.29"/><path id="xdppaa" d="M1133.82 2779.03v-32.12"/><path id="xdppab" d="M1144.83 2778.52l.52-30.92"/><path id="xdppac" d="M1154.8 2774.74l.34-27.14"/><path id="xdppad" d="M1165.47 2774.74v-27.14"/><path id="xdppae" d="M1176.64 2774.74v-27.14"/><path id="xdppaf" d="M1187.3 2774.74l-1.03-27.14"/><path id="xdppag" d="M1197.45 2770.79l.17-23.19"/><path id="xdppah" d="M1207.94 2770.79v-22.33"/><path id="xdppai" d="M1218.26 2770.79v-22.33"/><path id="xdppaj" d="M1228.92 2770.79v-22.33"/><path id="xdppak" d="M556.51 2774.05l21.5 1.03"/><path id="xdppal" d="M545.33 2784.87l-.17-4.98h12.04v-65.96l6.19-12.02-40.59-6.01h-34.56l-47.98 8.41-36.29-20.61-37.49 19.24v10.65l-26.31 6.52-31.47 11.68v2.58l-6.7-.51-23.74 6.87v21.98"/><path id="xdppam" d="M354.96 2773.88l22.36-.17 38.69.86 12.73 3.43 19.77.52 5.5.51-.17 4.64 1.9 1.2"/><path id="xdppan" d="M300.79 2762.89v4.47l-12.9.68v5.67"/><path id="xdppao" d="M300.79 2767.35h54.17v-23.19s19.26-7.9 73.78-7.56v-7.21s79.45 1.03 87.01 13.57v32.8"/><path id="xdppap" d="M416.01 2736.78l12.73-7.39"/><path id="xdppaq" d="M428.74 2736.78s79.97 2.92 87.02 12.2"/><path id="xdppar" d="M515.75 2755.16c-38.69-17-160.79-4.47-160.79-4.47h61.05l12.73-3.6V2778"/><path id="xdppas" d="M416.01 2750.69v23.88"/><path id="xdppat" d="M363.56 2750.01v23.88"/><path id="xdppau" d="M440.26 2704.31l2.75 1.72 120.38-4.12"/><path id="xdppav" d="M443.01 2711.36v18.04"/><path id="xdppaw" d="M448 2746.23l-.86 32.3"/><path id="xdppax" d="M545.17 2779.9v-4.13l-88.91 2.06-.52 7.04"/><path id="xdppay" d="M447.31 2769.76h46.43v-20.44"/><path id="xdppaz" d="M499.07 2750.35v19.4h16.68"/><path id="xdppaA" d="M366.48 2702.94s36.29-20.44 76.53 3.1v5.32l114.19-4.3v6.88"/><path id="xdppaB" d="M366.48 2711.35s37.49-18.03 76.53 2.58"/><path id="xdppaC" d="M377.49 2707.58l-.86 31.95"/><path id="xdppaD" d="M380.93 2706.55l-.69 32.46"/><path id="xdppaE" d="M409.99 2704.32l-1.72 32.46"/><path id="xdppaF" d="M413.26 2704.66l-.86 32.12"/><path id="xdppaG" d="M323.32 2741.24s-34.05-4.8-45.06-.34"/><path id="xdppaH" d="M278.26 2744.51s39.9-.69 45.06 1.72"/><path id="xdppaI" d="M300.79 2762.89v-13.57l54.17-3.95"/><path id="xdppaJ" d="M512.14 2739.87v-4.64h12.04v7.56l-8.43.17"/><path id="xdppaK" d="M512.14 2720.29v-8.93h11.87v8.93z"/><path id="xdppaL" d="M483.94 2720.29v-7.9h11.87v7.9z"/><path id="xdppaM" d="M455.74 2720.63v-6.7h10.66v6.7z"/><path id="xdppaN" d="M287.21 2744.51v8.93h6.53v-8.93"/><path id="xdppaO" d="M285.14 2744.51v8.93H281v-8.93"/><path id="xdppaP" d="M385.06 2750.69l-.17 23.19"/><path id="xdppaQ" d="M354.96 2773.88v-6.53"/><path id="xdppaR" d="M310.42 2735.24l56.06-12.37"/><path id="xdppaS" d="M366.48 2713.59v27.31"/><path id="xdppaT" d="M456.26 2777.83l-2.24 1.2"/><path id="xdppaU" d="M308.7 2734.37l14.62 6.87v6.7"/><path id="xdppaV" d="M278.26 2759.97l-326.57-1.55"/></defs><g><g transform="translate(49 -2618)"><use fill="#fff" fill-opacity="0" stroke="#283d5d" stroke-miterlimit="50" xlink:href="#xdppa"/></g><g transform="translate(49 -2618)"><use fill="#fff" fill-opacity="0" stroke="#283d5d" stroke-miterlimit="50" xlink:href="#xdppb"/></g><g transform="translate(49 -2618)"><use fill="#fff" fill-opacity="0" stroke="#283d5d" stroke-miterlimit="50" xlink:href="#xdppc"/></g><g transform="translate(49 -2618)"><use fill="#fff" fill-opacity="0" stroke="#283d5d" stroke-miterlimit="50" xlink:href="#xdppd"/></g><g transform="translate(49 -2618)"><use fill="#fff" fill-opacity="0" stroke="#283d5d" stroke-miterlimit="50" xlink:href="#xdppe"/></g><g transform="translate(49 -2618)"><use fill="#fff" fill-opacity="0" stroke="#283d5d" stroke-miterlimit="50" xlink:href="#xdppf"/></g><g transform="translate(49 -2618)"><g><use fill="#fff" fill-opacity="0" stroke="#283d5d" stroke-miterlimit="50" xlink:href="#xdppg"/></g><g><use fill="#fff" fill-opacity="0" stroke="#283d5d" stroke-miterlimit="50" xlink:href="#xdpph"/></g><g><use fill="#fff" fill-opacity="0" stroke="#283d5d" stroke-miterlimit="50" xlink:href="#xdppi"/></g><g><use fill="#fff" fill-opacity="0" stroke="#283d5d" stroke-miterlimit="50" xlink:href="#xdppj"/></g><g><use fill="#fff" fill-opacity="0" stroke="#283d5d" stroke-miterlimit="50" xlink:href="#xdppk"/></g><g><use fill="#fff" fill-opacity="0" stroke="#283d5d" stroke-miterlimit="50" xlink:href="#xdppl"/></g><g><use fill="#fff" fill-opacity="0" stroke="#283d5d" stroke-miterlimit="50" xlink:href="#xdppm"/></g><g><use fill="#fff" fill-opacity="0" stroke="#283d5d" stroke-miterlimit="50" xlink:href="#xdppn"/></g><g><use fill="#fff" fill-opacity="0" stroke="#283d5d" stroke-miterlimit="50" xlink:href="#xdppo"/></g><g><use fill="#fff" fill-opacity="0" stroke="#283d5d" stroke-miterlimit="50" xlink:href="#xdppp"/></g><g><use fill="#fff" fill-opacity="0" stroke="#283d5d" stroke-miterlimit="50" xlink:href="#xdppq"/></g><g><use fill="#fff" fill-opacity="0" stroke="#283d5d" stroke-miterlimit="50" xlink:href="#xdppr"/></g><g><use fill="#fff" fill-opacity="0" stroke="#283d5d" stroke-miterlimit="50" xlink:href="#xdpps"/></g><g><use fill="#fff" fill-opacity="0" stroke="#283d5d" stroke-miterlimit="50" xlink:href="#xdppt"/></g><g><use fill="#fff" fill-opacity="0" stroke="#283d5d" stroke-miterlimit="50" xlink:href="#xdppu"/></g><g><use fill="#fff" fill-opacity="0" stroke="#283d5d" stroke-miterlimit="50" xlink:href="#xdppv"/></g><g><use fill="#fff" fill-opacity="0" stroke="#283d5d" stroke-miterlimit="50" xlink:href="#xdppw"/></g><g><use fill="#fff" fill-opacity="0" stroke="#283d5d" stroke-miterlimit="50" xlink:href="#xdppx"/></g><g><use fill="#fff" fill-opacity="0" stroke="#283d5d" stroke-miterlimit="50" xlink:href="#xdppy"/></g><g><use fill="#fff" fill-opacity="0" stroke="#283d5d" stroke-miterlimit="50" xlink:href="#xdppz"/></g><g><use fill="#fff" fill-opacity="0" stroke="#283d5d" stroke-miterlimit="50" xlink:href="#xdppA"/></g><g><use fill="#fff" fill-opacity="0" stroke="#283d5d" stroke-miterlimit="50" xlink:href="#xdppB"/></g><g><use fill="#fff" fill-opacity="0" stroke="#283d5d" stroke-miterlimit="50" xlink:href="#xdppC"/></g><g><use fill="#fff" fill-opacity="0" stroke="#283d5d" stroke-miterlimit="50" xlink:href="#xdppD"/></g><g><use fill="#fff" fill-opacity="0" stroke="#283d5d" stroke-miterlimit="50" xlink:href="#xdppE"/></g><g><use fill="#fff" fill-opacity="0" stroke="#283d5d" stroke-miterlimit="50" xlink:href="#xdppF"/></g><g><use fill="#fff" fill-opacity="0" stroke="#283d5d" stroke-miterlimit="50" xlink:href="#xdppG"/></g><g><use fill="#fff" fill-opacity="0" stroke="#283d5d" stroke-miterlimit="50" xlink:href="#xdppH"/></g><g><use fill="#fff" fill-opacity="0" stroke="#283d5d" stroke-miterlimit="50" xlink:href="#xdppI"/></g></g><g transform="translate(49 -2618)"><use fill="#fff" fill-opacity="0" stroke="#283d5d" stroke-miterlimit="50" xlink:href="#xdppJ"/></g><g transform="translate(49 -2618)"><use fill="#fff" fill-opacity="0" stroke="#283d5d" stroke-miterlimit="50" xlink:href="#xdppK"/></g><g transform="translate(49 -2618)"><use fill="#fff" fill-opacity="0" stroke="#283d5d" stroke-miterlimit="50" xlink:href="#xdppL"/></g><g transform="translate(49 -2618)"><use fill="#fff" fill-opacity="0" stroke="#283d5d" stroke-miterlimit="50" xlink:href="#xdppM"/></g><g transform="translate(49 -2618)"><use fill="#fff" fill-opacity="0" stroke="#283d5d" stroke-miterlimit="50" xlink:href="#xdppN"/></g><g transform="translate(49 -2618)"><use fill="#fff" fill-opacity="0" stroke="#283d5d" stroke-miterlimit="50" xlink:href="#xdppO"/></g><g transform="translate(49 -2618)"><use fill="#fff" fill-opacity="0" stroke="#283d5d" stroke-miterlimit="50" xlink:href="#xdppP"/></g><g transform="translate(49 -2618)"><use fill="#fff" fill-opacity="0" stroke="#283d5d" stroke-miterlimit="50" xlink:href="#xdppQ"/></g><g transform="translate(49 -2618)"><use fill="#fff" fill-opacity="0" stroke="#283d5d" stroke-miterlimit="50" xlink:href="#xdppR"/></g><g transform="translate(49 -2618)"><use fill="#fff" fill-opacity="0" stroke="#283d5d" stroke-miterlimit="50" xlink:href="#xdppS"/></g><g transform="translate(49 -2618)"><use fill="#fff" fill-opacity="0" stroke="#283d5d" stroke-miterlimit="50" xlink:href="#xdppT"/></g><g transform="translate(49 -2618)"><use fill="#fff" fill-opacity="0" stroke="#283d5d" stroke-miterlimit="50" xlink:href="#xdppU"/></g><g transform="translate(49 -2618)"><use fill="#fff" fill-opacity="0" stroke="#283d5d" stroke-miterlimit="50" xlink:href="#xdppV"/></g><g transform="translate(49 -2618)"><use fill="#fff" fill-opacity="0" stroke="#283d5d" stroke-miterlimit="50" xlink:href="#xdppW"/></g><g transform="translate(49 -2618)"><use fill="#fff" fill-opacity="0" stroke="#283d5d" stroke-miterlimit="50" xlink:href="#xdppX"/></g><g transform="translate(49 -2618)"><use fill="#fff" fill-opacity="0" stroke="#283d5d" stroke-miterlimit="50" xlink:href="#xdppY"/></g><g transform="translate(49 -2618)"><use fill="#fff" fill-opacity="0" stroke="#283d5d" stroke-miterlimit="50" xlink:href="#xdppZ"/></g><g transform="translate(49 -2618)"><use fill="#fff" fill-opacity="0" stroke="#283d5d" stroke-miterlimit="50" xlink:href="#xdppaa"/></g><g transform="translate(49 -2618)"><use fill="#fff" fill-opacity="0" stroke="#283d5d" stroke-miterlimit="50" xlink:href="#xdppab"/></g><g transform="translate(49 -2618)"><use fill="#fff" fill-opacity="0" stroke="#283d5d" stroke-miterlimit="50" xlink:href="#xdppac"/></g><g transform="translate(49 -2618)"><use fill="#fff" fill-opacity="0" stroke="#283d5d" stroke-miterlimit="50" xlink:href="#xdppad"/></g><g transform="translate(49 -2618)"><use fill="#fff" fill-opacity="0" stroke="#283d5d" stroke-miterlimit="50" xlink:href="#xdppae"/></g><g transform="translate(49 -2618)"><use fill="#fff" fill-opacity="0" stroke="#283d5d" stroke-miterlimit="50" xlink:href="#xdppaf"/></g><g transform="translate(49 -2618)"><use fill="#fff" fill-opacity="0" stroke="#283d5d" stroke-miterlimit="50" xlink:href="#xdppag"/></g><g transform="translate(49 -2618)"><use fill="#fff" fill-opacity="0" stroke="#283d5d" stroke-miterlimit="50" xlink:href="#xdppah"/></g><g transform="translate(49 -2618)"><use fill="#fff" fill-opacity="0" stroke="#283d5d" stroke-miterlimit="50" xlink:href="#xdppai"/></g><g transform="translate(49 -2618)"><use fill="#fff" fill-opacity="0" stroke="#283d5d" stroke-miterlimit="50" xlink:href="#xdppaj"/></g><g transform="translate(49 -2618)"><g><use fill="#fff" fill-opacity="0" stroke="#283d5d" stroke-miterlimit="50" xlink:href="#xdppak"/></g><g><use fill="#fff" fill-opacity="0" stroke="#283d5d" stroke-miterlimit="50" xlink:href="#xdppal"/></g><g><use fill="#fff" fill-opacity="0" stroke="#283d5d" stroke-miterlimit="50" xlink:href="#xdppam"/></g><g><use fill="#fff" fill-opacity="0" stroke="#283d5d" stroke-miterlimit="50" xlink:href="#xdppan"/></g><g><use fill="#fff" fill-opacity="0" stroke="#283d5d" stroke-miterlimit="50" xlink:href="#xdppao"/></g><g><use fill="#fff" fill-opacity="0" stroke="#283d5d" stroke-miterlimit="50" xlink:href="#xdppap"/></g><g><use fill="#fff" fill-opacity="0" stroke="#283d5d" stroke-miterlimit="50" xlink:href="#xdppaq"/></g><g><use fill="#fff" fill-opacity="0" stroke="#283d5d" stroke-miterlimit="50" xlink:href="#xdppar"/></g><g><use fill="#fff" fill-opacity="0" stroke="#283d5d" stroke-miterlimit="50" xlink:href="#xdppas"/></g><g><use fill="#fff" fill-opacity="0" stroke="#283d5d" stroke-miterlimit="50" xlink:href="#xdppat"/></g><g><use fill="#fff" fill-opacity="0" stroke="#283d5d" stroke-miterlimit="50" xlink:href="#xdppau"/></g><g><use fill="#fff" fill-opacity="0" stroke="#283d5d" stroke-miterlimit="50" xlink:href="#xdppav"/></g><g><use fill="#fff" fill-opacity="0" stroke="#283d5d" stroke-miterlimit="50" xlink:href="#xdppaw"/></g><g><use fill="#fff" fill-opacity="0" stroke="#283d5d" stroke-miterlimit="50" xlink:href="#xdppax"/></g><g><use fill="#fff" fill-opacity="0" stroke="#283d5d" stroke-miterlimit="50" xlink:href="#xdppay"/></g><g><use fill="#fff" fill-opacity="0" stroke="#283d5d" stroke-miterlimit="50" xlink:href="#xdppaz"/></g><g><use fill="#fff" fill-opacity="0" stroke="#283d5d" stroke-miterlimit="50" xlink:href="#xdppaA"/></g><g><use fill="#fff" fill-opacity="0" stroke="#283d5d" stroke-miterlimit="50" xlink:href="#xdppaB"/></g><g><use fill="#fff" fill-opacity="0" stroke="#283d5d" stroke-miterlimit="50" xlink:href="#xdppaC"/></g><g><use fill="#fff" fill-opacity="0" stroke="#283d5d" stroke-miterlimit="50" xlink:href="#xdppaD"/></g><g><use fill="#fff" fill-opacity="0" stroke="#283d5d" stroke-miterlimit="50" xlink:href="#xdppaE"/></g><g><use fill="#fff" fill-opacity="0" stroke="#283d5d" stroke-miterlimit="50" xlink:href="#xdppaF"/></g><g><use fill="#fff" fill-opacity="0" stroke="#283d5d" stroke-miterlimit="50" xlink:href="#xdppaG"/></g><g><use fill="#fff" fill-opacity="0" stroke="#283d5d" stroke-miterlimit="50" xlink:href="#xdppaH"/></g><g><use fill="#fff" fill-opacity="0" stroke="#283d5d" stroke-miterlimit="50" xlink:href="#xdppaI"/></g><g><use fill="#fff" fill-opacity="0" stroke="#283d5d" stroke-miterlimit="50" xlink:href="#xdppaJ"/></g><g><use fill="#fff" fill-opacity="0" stroke="#283d5d" stroke-miterlimit="50" xlink:href="#xdppaK"/></g><g><use fill="#fff" fill-opacity="0" stroke="#283d5d" stroke-miterlimit="50" xlink:href="#xdppaL"/></g><g><use fill="#fff" fill-opacity="0" stroke="#283d5d" stroke-miterlimit="50" xlink:href="#xdppaM"/></g><g><use fill="#fff" fill-opacity="0" stroke="#283d5d" stroke-miterlimit="50" xlink:href="#xdppaN"/></g><g><use fill="#fff" fill-opacity="0" stroke="#283d5d" stroke-miterlimit="50" xlink:href="#xdppaO"/></g><g><use fill="#fff" fill-opacity="0" stroke="#283d5d" stroke-miterlimit="50" xlink:href="#xdppaP"/></g><g><use fill="#fff" fill-opacity="0" stroke="#283d5d" stroke-miterlimit="50" xlink:href="#xdppaQ"/></g><g><use fill="#fff" fill-opacity="0" stroke="#283d5d" stroke-miterlimit="50" xlink:href="#xdppaR"/></g><g><use fill="#fff" fill-opacity="0" stroke="#283d5d" stroke-miterlimit="50" xlink:href="#xdppaS"/></g><g><use fill="#fff" fill-opacity="0" stroke="#283d5d" stroke-miterlimit="50" xlink:href="#xdppaT"/></g><g><use fill="#fff" fill-opacity="0" stroke="#283d5d" stroke-miterlimit="50" xlink:href="#xdppaU"/></g></g><g transform="translate(49 -2618)"><use fill="#fff" fill-opacity="0" stroke="#283d5d" stroke-miterlimit="50" xlink:href="#xdppaV"/></g></g></svg>