<?xml version="1.0" encoding="utf-8"?>
<!-- Generator: Adobe Illustrator 19.1.0, SVG Export Plug-In . SVG Version: 6.00 Build 0)  -->
<svg version="1.1" id="Layer_1" xmlns="http://www.w3.org/2000/svg" xmlns:xlink="http://www.w3.org/1999/xlink" x="0px" y="0px"
	 viewBox="0 0 256 256" style="enable-background:new 0 0 256 256;" xml:space="preserve">
<style type="text/css">
	.st0{fill:#172A53;}
	.st1{fill:#FFFFFF;}
</style>
<path class="st0" d="M201.3,156.9c13-16.2,20.8-36.7,20.8-59.1c0-52-42.2-94.2-94.2-94.2c-52,0-94.2,42.2-94.2,94.2
	c0,22.4,7.8,42.9,20.9,59.1L128,254L201.3,156.9z"/>
<g>
	<path class="st1" d="M99,93.7v6.6c6-3.7,16.8-6.2,29.1-6.2c12.3,0,23.1,2.5,29.1,6.2v-6.6c-6-3.7-16.8-6.2-29.1-6.2
		C115.8,87.5,105,89.9,99,93.7z"/>
	<path class="st1" d="M102,101.6v6.3c6.2-2.8,15.6-4.6,26.1-4.6c10.5,0,19.9,1.8,26.1,4.6v-6.3c-6.2-2.8-15.6-4.6-26.1-4.6
		C117.6,97,108.2,98.8,102,101.6z"/>
	<path class="st1" d="M160.9,34.6H95.1c-3.9,0-7.1,3.2-7.1,7.1v110c0,3.9,3.2,7.1,7.1,7.1h65.7c3.9,0,7.1-3.2,7.1-7.1v-110
		C168,37.8,164.8,34.6,160.9,34.6z M160.9,155.4h-0.7H153h-0.7c-2,0-3.7-1.7-3.7-3.7v-3.5c0,0,0,0,0,0c0-10.3,0-32.9,0-34.7
		c0-1.7,1.9-2.9,3-3.4V110c-5.3-1.9-12.2-3.2-19.8-3.5L128,113l-3.7-6.5c-7.6,0.3-14.4,1.6-19.7,3.5v0.1c1,0.4,3,1.7,3,3.4
		c0,0.8,0,5.6,0,11.6c0,8.2,0,18.7,0,24.2v2.3c0,2-1.7,3.7-3.7,3.7h-0.7h-7.5h-0.7c-2,0-3.7-1.7-3.7-3.7v-2.3v-21.9V41.7
		c0-2,1.7-3.7,3.7-3.7h38.5C117.9,43.9,114,54.7,114.7,63c0.5,6.3,7,11.3,10.8,18.2c-1-7,2.6-15.2,2.6-15.2
		c4.7,11.3,2.3,17.6,0.8,20c8.1-7.3,10.6-15.3,9.3-21.3c-2.4-10.9-12.8-17.4-3.8-26.7h26.5c2,0,3.7,1.7,3.7,3.7v87.4h0
		c0,6.8,0,14.3,0,19.1c0,0,0,0,0,0v3.5C164.6,153.8,162.9,155.4,160.9,155.4z M141,120.1v31.5c0,2.2-1.7,3.4-3.8,3.6
		c0,0-0.1,0-0.1,0c0,0,0,0-0.1,0c-0.1,0-0.2,0-0.3,0c-2.4,0-4.3-1.3-4.3-3.6V122h0v-5.9c0-2.4,1.9-3.6,4.3-3.6c0.1,0,0.2,0,0.3,0
		c0,0,0,0,0,0c0,0,0,0,0,0c2.2,0.1,4,1.4,4,3.6L141,120.1C141,120.1,141,120.1,141,120.1z M115.3,147.7v-31.5c0-2.2,1.7-3.4,3.8-3.6
		c0,0,0.1,0,0.1,0c0,0,0,0,0.1,0c0.1,0,0.2,0,0.3,0c2.4,0,4.3,1.3,4.3,3.6v29.7h0v5.9c0,2.4-1.9,3.6-4.3,3.6c-0.1,0-0.2,0-0.3,0
		c0,0,0,0,0,0c0,0,0,0,0,0c-2.2-0.1-4-1.4-4-3.6L115.3,147.7C115.3,147.7,115.3,147.7,115.3,147.7z"/>
</g>
</svg>
