<?xml version="1.0" standalone="no"?>
<!DOCTYPE svg PUBLIC "-//W3C//DTD SVG 1.1//EN" "http://www.w3.org/Graphics/SVG/1.1/DTD/svg11.dtd" >
<svg xmlns="http://www.w3.org/2000/svg">
<metadata></metadata>
<defs>
<font id="tempestregular" horiz-adv-x="911" >
<font-face units-per-em="2048" ascent="1638" descent="-410" />
<missing-glyph horiz-adv-x="364" />
<glyph horiz-adv-x="2048" />
<glyph horiz-adv-x="2048" />
<glyph unicode="&#xd;" horiz-adv-x="2048" />
<glyph unicode=" "  horiz-adv-x="364" />
<glyph unicode="&#x09;" horiz-adv-x="364" />
<glyph unicode="&#xa0;" horiz-adv-x="364" />
<glyph unicode="!" horiz-adv-x="614" d="M195 131l34 -102l76 -25l74 25l39 102l-39 105l-74 24l-76 -24zM217 1165l33 -741h115l32 741v334h-180v-334z" />
<glyph unicode="&#x22;" horiz-adv-x="784" d="M164 1288l37 -272h127l34 272v248h-198v-248zM459 1288l39 -272h123l38 272v248h-200v-248z" />
<glyph unicode="#" horiz-adv-x="1239" d="M123 401l164 5l-66 -402h176l64 402h170l-66 -402h178l64 402l180 10l53 209h-198l43 266h198l47 229l-210 -10l63 408h-174l-66 -408h-170l66 408h-176l-66 -408l-188 -4l-43 -215h196l-43 -266h-153zM485 625l43 266h170l-45 -266h-168z" />
<glyph unicode="$" horiz-adv-x="915" d="M53 463q10 -186 57.5 -282.5t108 -139.5t158.5 -64v-178h137v178q129 18 219 136q96 129 96 325q0 135 -50 235.5t-150 157.5q-31 16 -115 46v413q39 -27 61.5 -79t34.5 -140l197 37q-25 219 -119 322q-68 74 -174 92v88h-137v-88q-121 -20 -191 -97 q-53 -66 -80.5 -145.5t-27.5 -181.5q0 -117 37 -206t108 -142q39 -29 76 -48.5t78 -31.5v-467q-43 18 -80 80v-2q-16 29 -29.5 84t-25.5 143zM270 1110q0 66 28 114t79 70v-370q-59 31 -83 77t-24 109zM514 203v422q63 -31 88 -72q31 -49 31 -125q0 -84 -33 -143.5 t-86 -81.5z" />
<glyph unicode="%" horiz-adv-x="1523" d="M158 1098q0 -106 20.5 -184t56 -130.5t85 -78t104.5 -25.5q117 0 194.5 105.5t77.5 301.5q0 201 -75.5 303.5t-196.5 102.5q-129 0 -201 -121q-65 -110 -65 -274zM340 1079q0 125 24.5 171t63.5 46t63.5 -45t24.5 -157q0 -125 -24.5 -172.5t-63.5 -47.5t-63.5 46.5 t-24.5 158.5zM375 -49h184l641 1542h-180zM879 367q0 -209 74.5 -312.5t191.5 -103.5t195.5 104.5t78.5 300.5q0 201 -78.5 303.5t-195.5 102.5q-129 0 -201 -121q-65 -114 -65 -274zM1061 348q0 125 24.5 172t63.5 47t63.5 -46t24.5 -159q0 -125 -24.5 -172t-63.5 -47 t-63.5 47.5t-24.5 157.5z" />
<glyph unicode="&#x26;" horiz-adv-x="1024" d="M66 422q0 -158 88 -289q104 -154 292 -153q180 0 312 163q88 -112 176 -186l131 190q-109 98 -180 211q55 117 98 328l-203 55q-8 -51 -16 -91t-19 -75l-143 232q193 145 193 350q0 135 -82 236q-80 100 -205 100q-131 0 -217 -102q-86 -104 -86 -248q0 -33 4 -63.5 t16.5 -65.5t33 -75t50.5 -89q-244 -160 -243 -428zM274 434q0 53 31 111.5t117 128.5l213 -338q-35 -59 -88.5 -95t-100.5 -36q-84 0 -127 76q-45 76 -45 153zM406 1161q0 47 27.5 81t68.5 34q39 0 65.5 -35t26.5 -88q0 -45 -21 -90q-10 -16 -29.5 -39t-51.5 -47l-43 65 q-23 33 -33 61.5t-10 57.5z" />
<glyph unicode="'" horiz-adv-x="448" d="M164 1141l29 -269h104l31 269v252h-164v-252z" />
<glyph unicode="(" horiz-adv-x="653" d="M86 549q0 -266 72 -518q70 -242 176 -428l22 -13h140q-229 504 -230 959q0 92 7.5 178t21.5 172q20 133 65 270q14 43 46 127t86 213h-150q-72 -133 -123 -260t-80 -250q-29 -109 -41 -221t-12 -229z" />
<glyph unicode=")" horiz-adv-x="743" d="M186 -410h156q113 203 182 441h-2q74 252 74 518q0 117 -12.5 229.5t-40.5 220.5q-31 123 -81 249t-120 261h-152q53 -131 85 -216t49 -126q37 -125 61 -272q31 -176 31 -346q0 -455 -230 -959z" />
<glyph unicode="*" horiz-adv-x="643" d="M37 1069q31 -10 73 -23.5t83 -23.5q-20 -27 -45 -64.5t-58 -87.5l129 -118q23 37 45.5 77.5t44.5 88.5q23 -45 45.5 -87.5t44.5 -78.5l133 118q-33 47 -57 84t-45 66q68 16 152 49l-50 199q-43 -20 -81.5 -37t-69.5 -35q4 49 6 98t4 97h-162q0 -39 2 -88.5t7 -108.5 q-55 31 -148 74z" />
<glyph unicode="+" horiz-adv-x="917" d="M86 590h291v-371h186v371h295v229h-295v369h-186v-369h-291v-229z" />
<glyph unicode="," horiz-adv-x="409" d="M111 -133l53 -127q70 43 100.5 113.5t30.5 177.5v211h-166v-246h55q-6 -47 -22.5 -78t-50.5 -51z" />
<glyph unicode="-" horiz-adv-x="806" d="M119 539h586v180h-586v-180z" />
<glyph unicode="." horiz-adv-x="473" d="M158 0h209v260h-209v-260z" />
<glyph unicode="/" horiz-adv-x="589" d="M57 4h160l311 1514h-157z" />
<glyph unicode="0" horiz-adv-x="884" d="M63 725q0 -410 113 -590q94 -156 270 -155q193 6 287 185t94 560q0 106 -7 189t-19.5 149.5t-29.5 120t-40 96.5q-47 94 -118.5 144.5t-168.5 50.5q-193 -10 -287 -189.5t-94 -560.5zM258 725q0 328 66 449l-2 -3q45 82 122 82q76 0 129 -96q57 -104 58 -432 q0 -328 -58 -436q-51 -94 -127 -94q-80 0 -131 94q-57 104 -57 436z" />
<glyph unicode="1" horiz-adv-x="698" d="M133 860q90 45 174 111q20 16 40 33.5t36 33.5v-1042h182v1472h-129q-35 -98 -114.5 -194t-188.5 -168v-246z" />
<glyph unicode="2" horiz-adv-x="894" d="M45 0h776v240h-502q4 6 9.5 13t11.5 15q18 27 55 70t94 102q72 78 123.5 139.5t83.5 108.5q68 96 95.5 182t27.5 179q0 180 -100 299q-100 125 -266 125q-168 0 -268.5 -121t-116.5 -355l198 -26q2 135 51.5 208.5t131.5 73.5q78 0 126 -59t48 -143q0 -41 -14.5 -86 t-41.5 -97q-31 -53 -89 -123.5t-146 -162.5q-59 -61 -102.5 -115.5t-76 -104t-54 -96.5t-36.5 -96l3 2q-10 -29 -15.5 -59.5t-5.5 -61.5v-51z" />
<glyph unicode="3" horiz-adv-x="894" d="M61 438q16 -223 121 -344q104 -117 256 -117q168 0 281 138v-2q113 133 112 336q0 127 -41.5 216t-119.5 136q53 51 80.5 120.5t27.5 151.5v10q0 76 -26.5 146.5t-72.5 125t-108.5 87.5t-132.5 33h-6q-141 0 -236.5 -112t-123.5 -323l194 -41q12 129 57.5 192.5 t110.5 63.5q66 0 107 -50t41 -128q0 -96 -54 -143q-63 -51 -137 -51q-4 0 -11 1t-36 7l-27 -246q92 33 132 33q78 0 129 -65.5t51 -168.5q0 -104 -56 -178q-53 -72 -135 -71q-68 0 -116 65.5t-72 212.5z" />
<glyph unicode="4" horiz-adv-x="886" d="M20 332h469v-332h195v332h147v235h-147v899h-156l-508 -929v-205zM236 567l253 465v-465h-253z" />
<glyph unicode="5" horiz-adv-x="890" d="M61 438q6 -104 37 -189t80 -144.5t114.5 -92t145.5 -32.5q199 0 310 182v-2q92 143 92 350q0 215 -107 352q-109 137 -260 137q-84 0 -160 -49l41 256h434v242h-593l-115 -786l178 -27q29 59 77 97t103 38q90 0 145.5 -72.5t55.5 -201.5q0 -139 -59 -222 q-55 -80 -142 -79q-66 0 -115 65.5t-65 198.5z" />
<glyph unicode="6" horiz-adv-x="884" d="M57 690q0 -377 111 -543q113 -168 295 -167q106 0 188 63q86 66 133 185.5t47 260.5q0 213 -104 353q-102 137 -246 137q-131 0 -229 -113q10 143 41 223t80 128q39 37 94 36q66 0 111 -57q25 -39 49 -162l190 21q-20 199 -111.5 309.5t-232.5 110.5q-184 0 -295 -175 q-61 -96 -91 -248.5t-30 -361.5zM270 475v14q0 113 54 191q51 72 131 72q78 0 129 -72t51 -201q0 -66 -12.5 -120t-40.5 -91q-27 -37 -55.5 -55t-65.5 -18h-8q-37 0 -70 23.5t-57.5 61t-40 89t-15.5 106.5z" />
<glyph unicode="7" horiz-adv-x="892" d="M70 1206h495q-41 -68 -78.5 -143.5t-74.5 -163.5q-88 -211 -138 -455q-51 -242 -53 -444h197q14 246 49 412v-2q55 246 154 471q49 115 101 207t109 169v191h-761v-242z" />
<glyph unicode="8" horiz-adv-x="899" d="M61 440q0 -199 106.5 -329.5t278.5 -130.5q174 0 279 131q55 66 82 147.5t27 177.5q0 121 -41 213t-121 146q119 94 119 276q0 168 -97 287v-2q-98 119 -248 119q-156 0 -247 -115q-94 -113 -95 -285q0 -186 117 -278q-160 -103 -160 -357zM258 430v10q0 106 51 172 q55 68 135 68q82 0 140 -70q53 -70 53 -176q0 -104 -53.5 -171.5t-134.5 -67.5h-11q-37 0 -69.5 19t-57 52t-39 75t-14.5 89zM299 1081q0 72 42 122t105 50t105.5 -51t42.5 -131q0 -72 -41 -123t-104 -51q-66 0 -108 51t-42 133z" />
<glyph unicode="9" horiz-adv-x="903" d="M63 965q0 -223 101 -357q104 -137 250 -137q66 0 123 29.5t102 83.5q-6 -82 -23.5 -156t-40.5 -121q-23 -51 -62.5 -81.5t-92.5 -30.5q-59 0 -98 53t-56 170l-186 -23q18 -199 107 -307t229 -108q131 0 227 88q47 43 83 105.5t59.5 146t36 194.5t12.5 250 q0 258 -49.5 405.5t-143.5 226.5t-209 79q-154 0 -264 -144q-104 -141 -105 -366zM260 958q0 135 57 218q59 78 132 77q72 0 122 -75q56 -74 56 -205q0 -129 -51.5 -202t-129.5 -73q-82 0 -131 72q-55 76 -55 188z" />
<glyph unicode=":" horiz-adv-x="569" d="M190 311l39 -112l80 -27l82 27l41 112l-41 111l-82 27l-80 -27zM205 1004l39 -111l80 -27l82 27l40 111l-40 112l-82 27l-80 -27z" />
<glyph unicode=";" horiz-adv-x="573" d="M205 1112l39 -113l80 -26l82 26l40 113l-40 111l-82 26l-80 -26zM209 682l27 -100l67 -47q-6 -51 -22.5 -86t-51.5 -58l54 -139q70 47 100.5 125t30.5 196l43 117l-43 115l-84 35l-82 -35z" />
<glyph unicode="&#x3c;" d="M84 606l776 -418v248l-520 271l520 266v248l-776 -412v-203z" />
<glyph unicode="=" horiz-adv-x="880" d="M86 369h772v221h-772v-221zM86 760h772v221h-772v-221z" />
<glyph unicode="&#x3e;" horiz-adv-x="907" d="M84 188l776 418v203l-776 412v-248l516 -266l-516 -271v-248z" />
<glyph unicode="?" horiz-adv-x="909" d="M63 1077l195 -28q18 147 67.5 216.5t120.5 69.5q41 0 71 -16t58 -47q51 -66 52 -148q0 -43 -17 -82q-10 -23 -29.5 -51t-54.5 -65q-35 -41 -59.5 -71t-38.5 -52q-37 -61 -57 -123q-12 -39 -17.5 -86t-5.5 -100v-91h187q2 66 4 111t6 66v-2q10 43 24 69q23 41 82 105 q49 55 83 104t50 90q39 86 39 189q0 176 -106 297h2q-100 121 -273 120q-162 0 -261 -120.5t-122 -354.5zM336 131l39 -113l80 -26l82 26l41 113l-41 111l-82 26l-80 -26z" />
<glyph unicode="@" horiz-adv-x="1519" d="M145 514q0 -176 54 -334q33 -90 88 -164.5t131 -127t170 -81t198 -28.5h17q80 0 145.5 11t120.5 38q111 51 193 143q41 43 74.5 100.5t60.5 121.5h-168q-27 -49 -68 -92.5t-95 -75t-119.5 -50t-145.5 -18.5q-143 0 -271 63q-119 63 -181 192.5t-62 311.5q0 90 16 172 t49 158q63 152 178 233.5t254 81.5q127 0 224 -65q100 -63 149 -170t49 -227q0 -53 -10 -105.5t-28.5 -99.5t-45 -87t-59.5 -69v2q-51 -43 -74 -43q-6 0 -11 6t-5 15q0 4 5 31.5t13 82.5l96 564h-163l-15 -80q-37 53 -82 77.5t-94 24.5q-78 0 -160 -68q-80 -66 -137 -198 q-29 -68 -41 -134.5t-12 -129.5q0 -104 37 -201q37 -96 95 -139t120 -43q45 0 90 25.5t86 68.5q0 -4 1 -8t3 -6q33 -80 133 -80q145 0 266 168v-2q135 182 136 426q0 164 -64 309q-76 168 -205 251t-290 83q-209 0 -354.5 -117t-225.5 -342q-35 -90 -50.5 -183.5 t-15.5 -191.5zM551 485q0 63 18.5 138t48.5 127q31 51 61 73.5t60 22.5q51 0 86 -51.5t35 -141.5q0 -76 -19.5 -148.5t-54.5 -119.5q-66 -94 -129 -94q-43 0 -74.5 52t-31.5 142z" />
<glyph unicode="A" horiz-adv-x="1191" d="M37 0h217l123 422h420l129 -422h233l-477 1466h-203zM442 647l107 357q10 33 18 65.5t17 65.5q10 -37 20 -75t23 -81l100 -332h-285z" />
<glyph unicode="B" horiz-adv-x="1077" d="M111 0h448q111 0 187.5 24.5t125.5 73.5q53 51 89 142.5t36 201.5q0 117 -43 205t-123 139q55 55 84 130t29 157q0 111 -47 203v-2q-47 98 -128 145t-216 47h-442v-1466zM317 240v401h222q102 0 151 -20q45 -18 70.5 -65.5t25.5 -113.5q0 -90 -37.5 -136t-97.5 -60 q-25 -6 -92 -6h-242zM317 883v342h187q115 0 158 -19q41 -14 60 -57t19 -100q0 -117 -90 -152h2q-18 -6 -51 -10t-80 -4h-205z" />
<glyph unicode="C" horiz-adv-x="1191" d="M78 743q0 -102 14 -198t45 -189q63 -186 182 -281t308 -95q184 0 312 133t181 395l-207 65q-33 -180 -109.5 -271t-191.5 -91q-88 0 -170 59q-78 59 -115.5 182t-37.5 293q0 137 33 256v-2q33 117 109.5 187.5t195.5 70.5q100 0 166.5 -70.5t105.5 -223.5l203 59 q-51 225 -173 348t-300 123h-13q-113 0 -211 -51t-170.5 -145.5t-114.5 -227.5t-42 -299v-27z" />
<glyph unicode="D" horiz-adv-x="1183" d="M119 0h426q207 0 323 98q43 37 83 94.5t70 137.5t48 182t18 229q0 197 -45 346.5t-137 249.5q-72 74 -174 109q-74 20 -203 20h-409v-1466zM326 240v985h198q121 0 178 -27q74 -35 124.5 -142.5t50.5 -312.5q0 -150 -27 -253t-74 -162q-33 -41 -88 -64.5t-160 -23.5h-202 z" />
<glyph unicode="E" horiz-adv-x="1062" d="M119 0h876v240h-669v397h604v240h-604v348h645v241h-852v-1466z" />
<glyph unicode="F" horiz-adv-x="983" d="M125 0h203v631h510v241h-510v353h587v241h-790v-1466z" />
<glyph unicode="G" horiz-adv-x="1251" d="M82 727q0 -209 70 -389q74 -176 213 -267t313 -91q258 0 489 233v573h-530v-239h326v-203q-23 -20 -52.5 -40.5t-68.5 -39.5q-43 -23 -85 -34t-87 -11q-104 0 -193 57q-182 117 -182 461q0 137 41 267q16 51 44 97t67.5 81t94 55t126.5 20q80 0 139 -32q61 -33 96 -96.5 t62 -180.5l192 66q-39 182 -96 278q-59 96 -162.5 148.5t-230.5 52.5q-86 0 -163 -23.5t-143 -66.5q-137 -88 -210 -281q-70 -186 -70 -395z" />
<glyph unicode="H" horiz-adv-x="1128" d="M123 0h207v653h508v-653h206v1466h-206v-569h-508v569h-207v-1466z" />
<glyph unicode="I" horiz-adv-x="401" d="M106 0h193v1466h-193v-1466z" />
<glyph unicode="J" horiz-adv-x="780" d="M43 416q0 -219 82 -327.5t233 -108.5q109 0 181 51q39 29 66.5 67.5t46 92t26.5 125t8 165.5v987h-199v-997q0 -111 -12 -160q-10 -43 -43 -68.5t-74 -25.5q-29 0 -52 14.5t-39.5 47t-27 87t-12.5 136.5l-184 -35v-51z" />
<glyph unicode="K" horiz-adv-x="1146" d="M111 0h208v504l144 176l381 -680h268l-502 862l496 604h-285l-502 -635v635h-208v-1466z" />
<glyph unicode="L" horiz-adv-x="894" d="M111 0h733v240h-531v1226h-202v-1466z" />
<glyph unicode="M" horiz-adv-x="1314" d="M115 0h204v985l267 -985h176l268 971v-971h203v1466h-250l-272 -991q-10 -31 -16.5 -59.5t-12.5 -53.5q-8 39 -25 95l-268 1009h-274v-1466z" />
<glyph unicode="N" horiz-adv-x="1122" d="M117 0h198v1001l529 -1001h196v1466h-200v-1001l-529 1001h-194v-1466z" />
<glyph unicode="O" horiz-adv-x="1243" d="M74 717q0 -98 17.5 -188.5t49.5 -178.5q70 -174 199 -272t295 -98q156 0 285 86q133 92 204.5 268t71.5 399v19q0 158 -42 294t-115.5 235t-175 156.5t-220.5 57.5h-8q-242 0 -402 -209q-159 -207 -159 -569zM289 713q0 297 100 422v-2q105 124 246 124h2h4 q74 0 136.5 -35.5t108.5 -102t71.5 -160t25.5 -207.5v-19q0 -252 -98.5 -387t-249.5 -135q-147 0 -250 133h2q-98 138 -98 369z" />
<glyph unicode="P" horiz-adv-x="1058" d="M119 0h205v565h247q250 0 344 133q47 66 73 148t26 180q-4 176 -78 291t-205 135h2q-55 14 -172 14h-442v-1466zM324 805v420h247q94 0 129 -11q45 -16 74 -68t29 -126q0 -102 -51.5 -158.5t-176.5 -56.5h-251z" />
<glyph unicode="Q" horiz-adv-x="1269" d="M68 713q0 -158 42 -292t115.5 -232.5t174 -153.5t216.5 -55h11q150 0 270 75q59 -55 114.5 -107t123.5 -87l67 200q-98 47 -162 134q150 210 150 542v19q0 160 -42 295t-116 235t-175 156.5t-220 56.5h-8q-160 0 -291 -96q-66 -47 -116 -116.5t-84 -156t-52 -186.5 t-18 -207v-24zM281 737q0 264 98 393q98 131 250 132h4q74 0 137.5 -37t109.5 -102.5t71.5 -160t25.5 -206.5v-19q0 -129 -26.5 -227t-78.5 -168q-76 76 -176 141l-114 -184q74 -57 116 -80q-35 -6 -69 -6q-147 0 -248 131q-100 137 -100 393z" />
<glyph unicode="R" horiz-adv-x="1216" d="M121 0h207v616h139q55 0 74 -6q23 -6 43 -21.5t45.5 -47t58.5 -88t80 -146.5l154 -307h258l-222 438q-31 57 -61.5 104.5t-65.5 88.5q-12 10 -22 22q129 45 192.5 147.5t63.5 248.5q0 123 -51 229v-2q-51 109 -140 149q-78 41 -233 41h-520v-1466zM328 854v381h319 q104 0 153.5 -53.5t51.5 -130.5q-4 -86 -51 -141.5t-168 -55.5h-305z" />
<glyph unicode="S" horiz-adv-x="1067" d="M68 520q4 -121 36.5 -220t94 -171t148.5 -110.5t198 -38.5h39q92 0 168.5 35.5t132 97t87.5 141.5t32 170v8q0 123 -50.5 217t-154.5 158q-37 23 -99.5 44t-150.5 46v-2q-168 51 -207 94h2q-31 37 -31 92q0 72 51.5 122t167.5 50q115 0 172.5 -68.5t67.5 -203.5l199 20 q-4 113 -36 203t-89.5 154.5t-138 99.5t-181.5 35h-16q-86 0 -158.5 -33t-126 -88t-84 -130t-30.5 -159v-12q0 -221 172 -338q66 -47 219 -92q145 -43 188 -66q59 -29 85 -68.5t26 -90.5v-8q0 -76 -61.5 -132.5t-170.5 -56.5h-8q-88 0 -155 37q-68 35 -100 104.5t-42 184.5z " />
<glyph unicode="T" horiz-adv-x="1054" d="M74 1225h362v-1225h205v1225h363v241h-930v-241z" />
<glyph unicode="U" horiz-adv-x="1103" d="M121 625q0 -233 43 -365q90 -280 420 -280h2q162 0 270 79q53 41 89 93.5t58.5 120t31.5 154.5t9 198v843h-206v-841q0 -246 -64 -328q-55 -80 -203 -80q-84 0 -143 41q-55 39 -80 115l2 -2q-24 77 -24 241v13v841h-205v-843z" />
<glyph unicode="V" horiz-adv-x="1175" d="M35 1466l452 -1466h193l457 1466h-215l-308 -1034q-8 -25 -15 -51.5t-15 -54.5q-6 27 -13.5 52t-15.5 54l-295 1034h-225z" />
<glyph unicode="W" horiz-adv-x="1601" d="M41 1466l313 -1466h201l246 1085q0 4 4 17q0 -10 2 -17l244 -1085h190l326 1466h-213l-183 -921q-6 -29 -12 -57.5t-12 -55.5q-10 72 -26.5 147.5t-33.5 155.5l-167 731h-228l-219 -968q-4 -8 -7 -28.5t-9 -55.5q-6 29 -11.5 57.5t-11.5 56.5l-176 938h-217z" />
<glyph unicode="X" horiz-adv-x="1200" d="M29 4h254l286 500q4 6 11.5 20.5t17.5 34.5q6 -12 10 -22.5t10 -20.5l289 -512h258l-440 772l412 694h-236l-233 -385q-16 -29 -31.5 -54t-30.5 -54q-12 27 -28.5 55.5t-36.5 65.5l-209 372h-250l397 -704z" />
<glyph unicode="Y" horiz-adv-x="1208" d="M35 1466l452 -854v-612h209v616l467 850h-243l-226 -426q-27 -53 -50 -100t-42 -90q-23 45 -44 90t-44 90l-227 436h-252z" />
<glyph unicode="Z" horiz-adv-x="1019" d="M43 0h928v240h-666l23 34l622 973v219h-844v-241h574q-18 -25 -35.5 -51.5t-34.5 -53.5v2l-567 -897v-225z" />
<glyph unicode="[" horiz-adv-x="616" d="M135 -258h318v223h-144v1428h144v221h-318v-1872z" />
<glyph unicode="\" horiz-adv-x="595" d="M47 1497l313 -1513h158l-311 1513h-160z" />
<glyph unicode="]" horiz-adv-x="653" d="M150 -18v-224h317v1872h-317v-221h143v-1427h-143z" />
<glyph unicode="^" horiz-adv-x="700" d="M25 627h200l156 479l158 -479h198l-284 800h-146z" />
<glyph unicode="_" horiz-adv-x="907" d="M-20 -119v-131h950v131h-950z" />
<glyph unicode="`" horiz-adv-x="448" d="M29 1204l196 -280h150l-115 280h-231z" />
<glyph unicode="a" horiz-adv-x="882" d="M53 322q0 -141 78 -230.5t221 -89.5q72 0 136.5 24.5t129.5 86.5q6 -23 28 -70t32 -70l203 68q-3 -2 -6 -2q-15 1 -39 53q-29 64 -33 92q-4 33 -6 104.5t-2 186.5v223q0 121 -7 164q-8 53 -28.5 99.5t-59 79t-97 51t-142.5 18.5h-16q-158 0 -261 -117l117 -159 q-20 -25 18.5 18t120.5 43q90 0 135 -47h-2q27 -29 27 -117v-14q-72 -25 -211 -47q-72 -12 -123 -27q-86 -31 -149.5 -110.5t-63.5 -210.5zM258 326q0 33 12 61v-2q14 29 44 42t104 28q57 10 102 21t80 26v-6q0 -105 -18 -154v2q-23 -63 -76 -100t-123 -37q-61 0 -93 33.5 t-32 85.5z" />
<glyph unicode="b" horiz-adv-x="880" d="M98 0h185v63q73 -83 183 -83h3q152 0 260 151q106 152 107 426v6q0 117 -26 217.5t-72 172t-111.5 112.5t-147.5 41h-6q-106 0 -182 -82v444h-193v-1468zM281 549q0 170 55 256q55 84 127 84q74 0 125 -84t51 -262q0 -174 -54.5 -260t-127.5 -86q-92 0 -144 112v-2 q-32 68 -32 242z" />
<glyph unicode="c" horiz-adv-x="817" d="M59 528q0 -268 104.5 -408t280.5 -140q139 0 236.5 113.5t124.5 318.5l-193 32q-14 -129 -59 -190t-111 -61q-86 0 -137 79.5t-51 262.5q0 176 54 257.5t143 81.5q55 0 96 -52t57 -154l187 37q-27 186 -116 284t-231 98h-8q-80 0 -149.5 -36.5t-119.5 -106.5t-79 -168 t-29 -221v-27z" />
<glyph unicode="d" horiz-adv-x="856" d="M51 524q0 -121 29 -220t78 -172t114.5 -112.5t141.5 -39.5h2q115 0 188 79v-59h184v1468h-192v-442q-80 80 -184 80h-15q-76 0 -139 -42t-109.5 -114.5t-72 -172t-25.5 -216.5v-37zM250 541q0 180 49 264t125 84q78 0 131 -87t53 -276q0 -168 -52 -248.5t-126 -80.5 t-127 85t-53 259z" />
<glyph unicode="e" horiz-adv-x="897" d="M55 524q0 -262 108.5 -403t297.5 -141q147 0 244.5 100t121.5 221l-196 31q-18 -43 -63.5 -91t-106.5 -48q-82 0 -136.5 65.5t-68.5 212.5h578q4 43 5 58.5t1 23.5q0 244 -107 387q-111 147 -280 147q-176 0 -287 -149q-57 -74 -84 -177.5t-27 -236.5zM264 666 q14 96 65.5 151t125.5 55q88 0 141 -84q27 -39 39 -122h-371z" />
<glyph unicode="f" horiz-adv-x="624" d="M61 791h115v-791h182v791h146v210h-146v136q0 70 18.5 94t61.5 24q16 0 39 -3t58 -9l30 223q-92 25 -153 25q-94 0 -147.5 -47t-74.5 -127q-14 -49 -14 -164v-152h-115v-210z" />
<glyph unicode="g" horiz-adv-x="921" d="M78 549q0 -227 94 -383q100 -166 274 -166q106 0 187 80q-2 -41 -9.5 -120t-9.5 -95v2q-14 -72 -58 -112t-122 -40q-127 8 -182 99l-148 -138q127 -170 330 -178q125 0 213 60q88 63 131 174q18 51 40 164q15 74 15 173q0 50 -4 105v926h-184v-82q-84 90 -196 90h-13 q-82 0 -147.5 -44t-112.5 -119t-72.5 -175t-25.5 -213v-8zM276 561q0 162 53.5 246t127.5 84q78 0 132 -85t54 -251q0 -174 -52 -255t-130 -81q-80 0 -132.5 81t-52.5 261z" />
<glyph unicode="h" horiz-adv-x="886" d="M98 0h193v590q0 55 5 97t13 73l-2 -2q20 59 63.5 92t94.5 33q63 0 98 -48.5t35 -156.5v-678h193v678q0 154 -31 240q-31 90 -101.5 139t-164.5 49q-117 0 -203 -88v448h-193v-1466z" />
<glyph unicode="i" horiz-adv-x="393" d="M92 1370l35 -98l72 -25l71 25l37 98l-37 98l-71 25l-72 -25zM117 -8h180v540v543h-100h-80v-1083z" />
<glyph unicode="j" horiz-adv-x="364" d="M-68 -381q39 -16 71 -22.5t56 -6.5q113 0 166 111q18 41 28.5 111.5t10.5 173.5v1112h-176v-1108q0 -131 -10 -152q-12 -18 -33 -18q-23 0 -76 22zM41 1389l39 -111l80 -27l82 27l41 111l-41 112l-82 27l-80 -27z" />
<glyph unicode="k" horiz-adv-x="858" d="M98 0h193v422l57 72l246 -494h237l-346 666l332 417h-256l-270 -354v737h-193v-1466z" />
<glyph unicode="l" horiz-adv-x="331" d="M72 0h186v1466h-186v-1466z" />
<glyph unicode="m" horiz-adv-x="1316" d="M102 0h199v584q0 80 12.5 132t36 85t54 46t67.5 17q109 -2 109 -184v-680h198v610q0 135 47 194.5t119 59.5q35 0 66 -20q27 -20 36 -58t9 -124v-662h198v717q0 190 -71.5 279t-208.5 89q-145 0 -240 -139q-35 66 -92 102.5t-141 36.5q-66 0 -119 -25.5t-94 -68.5v74 h-185v-1065z" />
<glyph unicode="n" horiz-adv-x="862" d="M98 0h193v578q0 174 49 227q25 31 57.5 45t69.5 14q41 0 76 -24q31 -25 42 -68t11 -135v-637h192v645q0 63 -2 105.5t-4 64.5v-4q-12 123 -88 197.5t-200 76.5q-131 0 -218 -96v76h-178v-1065z" />
<glyph unicode="o" horiz-adv-x="890" d="M49 532q0 -266 110.5 -409t286.5 -143q113 0 205 61q96 66 145.5 183.5t49.5 322.5q0 248 -113 395q-111 145 -287 145q-154 0 -264 -118q-133 -146 -133 -437zM250 532q0 174 55 257t141 83q88 0 145.5 -83.5t57.5 -249.5q0 -176 -57 -261t-146 -85q-86 0 -141 83.5 t-55 255.5z" />
<glyph unicode="p" horiz-adv-x="894" d="M100 -465h191v516q37 -35 80 -53t96 -18q98 0 186 69q92 72 138.5 204t46.5 296v10q0 113 -25 212t-71 174t-110.5 118t-144.5 43h-12q-117 0 -194 -90v69h-181v-1550zM281 537q0 180 57 268q55 90 125 90q74 0 126 -85t52 -259q0 -182 -53 -268t-131 -86q-72 0 -124 83 t-52 257z" />
<glyph unicode="q" horiz-adv-x="862" d="M53 551q0 -131 25.5 -236.5t81.5 -183.5q108 -151 260 -151h2q49 0 93 19t81 54v-518h192v1550h-178v-71q-84 92 -196 92h-13q-74 0 -137 -40t-110.5 -110.5t-74 -170t-26.5 -216.5v-18zM250 545q0 180 50 265t124 85q68 0 127 -90q59 -94 59 -275q0 -170 -53 -251.5 t-125 -81.5q-76 0 -129 87t-53 261z" />
<glyph unicode="r" horiz-adv-x="600" d="M94 0h182v555q0 100 19 184q10 47 36.5 72t57.5 25q18 0 45 -13.5t62 -42.5l65 230q-89 75 -162 75h-2q-37 0 -68.5 -17t-64.5 -67v64h-170v-1065z" />
<glyph unicode="s" horiz-adv-x="802" d="M43 313q23 -143 109 -238t251 -95h11q72 0 133 27.5t105 73.5t68.5 108.5t24.5 129.5v9q0 100 -34 164q-16 37 -41 61.5t-60 42.5q-29 16 -78 35.5t-122 42.5q-47 16 -75 27.5t-38 15.5h2q-31 16 -37 31q-10 14 -10 36q0 35 30.5 62.5t108.5 27.5q63 0 93 -20t40 -98 l187 32q-6 127 -90 211t-242 88q-63 0 -121.5 -22.5t-93.5 -52.5q-45 -41 -73 -105.5t-28 -142.5q0 -88 33 -153.5t99 -106.5q51 -31 206 -82q49 -16 81 -29.5t44 -23.5q25 -23 25 -58q0 -47 -36 -82.5t-112 -35.5q-78 0 -118.5 26.5t-51.5 128.5z" />
<glyph unicode="t" horiz-adv-x="651" d="M102 864h123v-594q-4 -32 -4 -60q0 -65 23 -101q18 -59 60 -94t120 -35q25 0 56.5 5t72.5 17l-27 227q-66 -14 -80 -14q-20 0 -28 6l4 -2q-10 10 -14 17q-4 16 -5 79v549h150v211h-150v381l-178 -149v-232h-123v-211z" />
<glyph unicode="u" horiz-adv-x="903" d="M121 414q0 -57 2 -98.5t6 -65.5q12 -80 47 -139.5t100.5 -95t139.5 -35.5q125 0 219 100v-80h174v1065h-188v-567q0 -59 -5.5 -105.5t-15.5 -77.5q-18 -55 -62 -85.5t-94 -30.5q-49 0 -81.5 29.5t-43.5 82.5l3 -2q-4 23 -6.5 65t-2.5 103v588h-192v-651z" />
<glyph unicode="v" horiz-adv-x="880" d="M33 1063l319 -1063h168l318 1063h-201l-180 -627q-6 -18 -12.5 -36.5t-10.5 -34.5q-4 23 -9 42t-11 39l-178 617h-203z" />
<glyph unicode="w" horiz-adv-x="1253" d="M41 1063l264 -1063h189l137 635l2 -14l137 -621h188l269 1063h-197l-143 -598l-17 -62l-12 60l-127 600h-186l-133 -606q-4 -18 -7.5 -34.5t-7.5 -33.5l-16 76l-133 598h-207z" />
<glyph unicode="x" horiz-adv-x="886" d="M14 0h238l188 358l19 -34l170 -324h239l-315 559l295 504h-234l-141 -250l-22 -39q-4 -6 -7.5 -11t-5.5 -9q-6 14 -13 28.5t-17 30.5l-129 250h-242l287 -512z" />
<glyph unicode="y" horiz-adv-x="884" d="M33 1055l309 -987q-4 -6 -5 -14.5t-3 -12.5l-1 -1t-1 -3l2 2l-141 -500l198 2q111 410 135 498l312 1016h-197l-176 -555q-6 -23 -13.5 -48.5t-13.5 -52.5q-8 29 -14 55.5t-12 49.5l-170 551h-209z" />
<glyph unicode="z" horiz-adv-x="813" d="M29 0h753v221h-393q-23 0 -46.5 -1t-49.5 -3l35 45l430 637v164h-699v-213h347h38q23 0 43 2l-458 -666v-186z" />
<glyph unicode="{" horiz-adv-x="677" d="M41 432q68 -4 96 -35q14 -16 22.5 -34.5t12.5 -47.5q12 -66 12 -229q0 -88 2 -151.5t7 -100.5q12 -88 46.5 -144.5t86.5 -84.5q16 -10 43.5 -12.5t64.5 -2.5h70v228h-51q-49 0 -66.5 17.5t-21.5 64.5q-2 18 -3.5 71.5t-1.5 145.5q0 215 -36 313q-14 37 -34 65.5t-44 53.5 q35 31 59 74q16 33 27.5 76.5t21.5 99.5q2 33 4 113.5t2 209.5q0 111 16.5 133.5t76.5 22.5h51v231h-70q-61 0 -92 -12q-66 -27 -104.5 -89t-47.5 -196q-6 -53 -6 -217q0 -150 -12 -217q-8 -53 -34.5 -81.5t-67.5 -30.5l-29 -39v-195z" />
<glyph unicode="|" horiz-adv-x="407" d="M133 -410h125v2114h-125v-2114z" />
<glyph unicode="}" horiz-adv-x="741" d="M168 -182v-228h68q68 0 94 11q66 27 103.5 89t49.5 195q0 27 1 81t1 134q4 156 15 215l-2 -2q10 53 42.5 84t90.5 33v234q-72 4 -99 32q-27 31 -32 82q-6 35 -9.5 91.5t-5.5 140.5q0 90 -2 153.5t-6 100.5q-10 86 -45 143t-88 84q-37 18 -108 18h-68v-231h51 q49 0 66.5 -16.5t21.5 -61.5q2 -18 3 -72.5t1 -146.5q0 -213 35 -311q25 -72 80 -121q-47 -41 -73.5 -104.5t-37.5 -159.5q-4 -33 -4 -111v-199q0 -106 -18 -135q-16 -23 -74 -22h-51z" />
<glyph unicode="~" horiz-adv-x="886" d="M63 401q45 45 78 75t59.5 47.5t47 23.5t41.5 6q53 0 133 -39q47 -23 80 -35t51 -18q43 -14 94 -15q66 0 122 27t114 86v266q-59 -72 -120 -116.5t-101 -44.5q-23 0 -46.5 6t-70.5 28q-47 20 -81 36t-63 22q-29 8 -53 12t-49 4q-137 0 -236 -119v-252z" />
<glyph unicode="&#xa1;" horiz-adv-x="399" d="M135 -35v-346h180v346l-34 772h-113zM141 811h168v272h-168v-272z" />
<glyph unicode="&#xa2;" horiz-adv-x="837" d="M78 543q0 -184 51 -313.5t137 -190.5l-88 -385l139 -53l89 379q14 -2 27 -3.5t28 -1.5q68 0 128 31t108 89.5t81 142.5t47 190l-192 27q-12 -125 -60.5 -193.5t-113.5 -68.5h-6l135 622q10 -27 19.5 -57.5t17.5 -71.5l188 39q-20 125 -59 207t-109 129l86 377l-141 55 l-84 -377q-14 4 -27 4h-24q-98 0 -189 -65q-94 -68 -141 -198t-47 -314zM274 551v27q0 154 52.5 239.5t128.5 85.5h4l-137 -618q-48 90 -48 266z" />
<glyph unicode="&#xa3;" horiz-adv-x="845" d="M10 193l76 -236q61 47 124.5 75.5t115.5 28.5q29 0 63 -6q16 -4 39 -12t57 -23q39 -14 63.5 -22t35.5 -12q31 -6 69 -6q39 0 84 13t135 62l-63 230q-115 -68 -162 -68q-23 0 -64.5 10.5t-101.5 26.5q-41 14 -77.5 20.5t-67.5 6.5q-8 0 -15.5 -1t-13.5 -1q84 156 84 305 q0 10 -1 21t-1 22h199v219h-242q-16 72 -24.5 130t-8.5 105q0 80 45 136.5t117 56.5q66 0 112 -66.5t56 -183.5l197 37q-23 205 -119 318.5t-246 113.5q-133 0 -239 -96q-125 -125 -125 -340q0 -27 1 -51.5t5 -49.5q2 -18 6 -45.5t14 -64.5h-106v-219h153q2 -18 4 -38t2 -40 q0 -123 -52 -213t-128 -143z" />
<glyph unicode="&#xa4;" horiz-adv-x="839" d="M43 365l125 -162l108 133q76 -57 170 -57t172 57l107 -133l129 162l-109 131q45 96 46 211q0 55 -11.5 109t-34.5 104l109 131l-129 163l-107 -135q-80 57 -172 58q-90 0 -172 -58l-106 135l-125 -163l104 -131q-43 -98 -43 -213q0 -113 43 -211zM285 707q0 84 47 143 t114 59q68 0 115 -59q47 -55 47 -143q0 -86 -47 -142q-49 -59 -115 -59t-114 59q-47 60 -47 142z" />
<glyph unicode="&#xa5;" horiz-adv-x="847" d="M-20 1466l301 -673h-236v-220h311v-55h-311v-209h311v-309h197v309h305v209h-305v55h305v220h-233l303 673h-232l-211 -499q-10 -23 -18 -43.5t-18 -38.5l-29 73l-227 508h-213z" />
<glyph unicode="&#xa6;" horiz-adv-x="278" d="M98 -410h125v834h-125v-834zM98 672h125v837h-125v-837z" />
<glyph unicode="&#xa7;" horiz-adv-x="839" d="M61 655q0 -84 29 -155q16 -37 34.5 -69t43.5 -60q49 -55 156 -142q102 -80 162.5 -136t82.5 -87q16 -27 17 -65q0 -49 -34 -88t-95 -39q-66 0 -104 51t-60 180l-191 -37q18 -199 109.5 -308.5t245.5 -109.5h14q63 0 119.5 28t98.5 74t66.5 107.5t24.5 130.5v13 q0 141 -92 256q51 33 82 71q61 90 61 215q0 82 -26.5 149.5t-85.5 131.5q-20 23 -61.5 57.5t-100.5 81.5q-182 145 -217 203q-20 29 -21 68q0 41 34 76.5t87 35.5t85 -46t48 -167l201 27q-23 199 -107.5 303t-236.5 104q-135 0 -217 -100q-84 -106 -84 -242 q0 -63 17.5 -114.5t54.5 -108.5q-68 -41 -104 -118.5t-36 -170.5zM242 676q0 39 17 71.5t58 67.5q47 -49 138 -119q123 -98 157 -153q33 -53 33 -90q0 -72 -76 -136q-33 31 -72.5 64t-82.5 68q-59 43 -95 77.5t-53 59.5q-25 39 -24 90z" />
<glyph unicode="&#xa8;" horiz-adv-x="477" d="M43 907h188v205h-188v-205zM303 907h189v205h-189v-205z" />
<glyph unicode="&#xa9;" horiz-adv-x="1144" d="M2 735q0 -195 80 -375q84 -184 223 -278q72 -47 145.5 -72.5t155.5 -25.5q154 0 299 98q143 96 225 278h-2q41 92 60.5 185.5t19.5 189.5q0 100 -19.5 194.5t-60.5 184.5q-41 92 -98 163t-129 118h2q-145 96 -297 96t-297 -96h2q-145 -96 -227 -281q-82 -178 -82 -379z M160 735q0 141 61 281h-2q31 68 74 120t93 88t106.5 54t113.5 18q111 0 219.5 -73.5t165.5 -206.5q61 -139 62 -281q0 -139 -62 -274q-57 -133 -162 -207q-115 -76 -223 -76q-111 0 -223 76q-106 80 -164 207q-31 66 -45 134.5t-14 139.5zM274 735q0 -104 25 -187t69 -141.5 t105.5 -89t134.5 -30.5q115 0 199 89t113 238l-154 56q-16 -92 -60 -142.5t-104 -50.5q-72 0 -117 63.5t-45 192.5q0 127 48.5 194.5t121.5 67.5q49 0 89 -40t65 -111l147 43q-33 135 -109.5 213t-187.5 78q-154 0 -247 -116t-93 -327z" />
<glyph unicode="&#xaa;" horiz-adv-x="540" d="M33 905q0 -104 54 -168.5t151 -64.5q80 0 163 67q4 -12 7.5 -24.5t9.5 -26.5h186q-61 94 -61 203v272q0 123 -60 189q-55 66 -184 65q-115 0 -176.5 -70.5t-73.5 -181.5l133 -41q-10 -2 -26 -10h2q-63 -25 -94 -78t-31 -131zM199 905q0 23 10 31q14 18 67 25 q31 6 56.5 12t46.5 10q0 -23 -4 -35q-8 -41 -40 -67.5t-73 -26.5q-31 0 -47 14.5t-16 36.5zM207 1130q12 109 92 109q37 0 53 -14q12 -8 18.5 -19.5t10.5 -40.5h-8q-8 -4 -16.5 -5t-20.5 -5h2l-105 -18q-16 -2 -26 -7z" />
<glyph unicode="&#xab;" horiz-adv-x="831" d="M92 522l254 -456h172l-207 456l209 455h-174zM379 522l248 -456h178l-211 456l211 455h-178z" />
<glyph unicode="&#xac;" horiz-adv-x="880" d="M86 760h586v-387h186v606h-772v-219z" />
<glyph unicode="&#xad;" horiz-adv-x="806" d="M119 539h586v180h-586v-180z" />
<glyph unicode="&#xae;" horiz-adv-x="1144" d="M2 735q0 -195 80 -375q84 -184 223 -278q72 -47 145.5 -72.5t155.5 -25.5q154 0 299 98q143 96 225 278h-2q41 92 60.5 185.5t19.5 189.5q0 100 -19.5 194.5t-60.5 184.5q-41 92 -98 163t-129 118h2q-145 96 -297 96t-297 -96h2q-145 -96 -227 -281q-82 -178 -82 -379z M160 735q0 141 61 281h-2q31 68 74 120t93 88t106.5 54t113.5 18q111 0 219.5 -73.5t165.5 -206.5q61 -139 62 -281q0 -139 -62 -274q-33 -76 -76 -129l-92 180q-25 51 -48 89t-44 67q59 29 94 93t35 142t-35 135l2 -2q-16 31 -39.5 54.5t-54.5 35.5q-47 23 -166 23h-243 v-844q-33 33 -58.5 71t-46.5 85q-31 66 -45 134.5t-14 139.5zM324 303h161v326h27q39 0 59 -17q16 -18 41 -60t56 -110l65 -139h156q-16 -16 -30 -27.5t-30 -21.5q-115 -76 -223 -76q-111 0 -223 76q-16 10 -29.5 22.5t-29.5 26.5zM485 813v156h82q66 0 86 -11 q39 -18 39 -67q0 -35 -23.5 -56.5t-93.5 -21.5h-90z" />
<glyph unicode="&#xaf;" horiz-adv-x="845" d="M-20 958h950v129h-950v-129z" />
<glyph unicode="&#xb0;" horiz-adv-x="569" d="M90 1094q0 -115 64 -199q70 -80 157 -80q92 0 156 82q35 41 50 91t15 106q0 117 -65 194q-63 82 -156 82q-90 0 -157 -82q-64 -77 -64 -194zM223 1094q0 47 25.5 78.5t62.5 31.5q35 0 61.5 -31.5t26.5 -78.5q0 -45 -26.5 -79t-61.5 -34q-37 0 -62.5 34t-25.5 79z" />
<glyph unicode="&#xb1;" horiz-adv-x="829" d="M57 0h774v233h-774v-233zM57 623h295v-379h185v379h294v231h-294v375h-185v-375h-295v-231z" />
<glyph unicode="&#xb2;" horiz-adv-x="481" d="M18 702l27 -40h471v182h-223q4 4 10 9t12 11q57 53 95.5 93t54.5 67q47 80 47 168q0 92 -55.5 156.5t-177.5 64.5q-109 0 -167.5 -64.5t-86.5 -199.5l163 -25q14 63 33 85t53 22q35 0 52.5 -16.5t17.5 -45.5q0 -27 -18 -51h2q-10 -10 -39 -38.5t-80 -75.5 q-106 -96 -154 -183q-35 -59 -37 -119z" />
<glyph unicode="&#xb3;" horiz-adv-x="481" d="M18 911q18 -129 79 -197.5t173 -68.5q57 0 102.5 20.5t76 54.5t47 79t16.5 94q0 53 -18.5 98t-59.5 76q53 51 53 141q0 88 -52 147.5t-169 59.5q-49 0 -86 -12t-64.5 -40t-50 -73t-42.5 -112l161 -33q16 53 34 74.5t48 21.5q25 0 40.5 -12t15.5 -31q0 -25 -26 -40 t-81 -15l-27 -174h35q18 0 23 2h-2q10 2 20 2q45 0 63.5 -17.5t18.5 -46.5q0 -35 -22.5 -59.5t-59.5 -24.5q-31 0 -55 21q-14 14 -33 86z" />
<glyph unicode="&#xb4;" horiz-adv-x="446" d="M129 924h154l188 280h-229z" />
<glyph unicode="&#xb5;" horiz-adv-x="862" d="M117 -385h190v426q14 -18 33 -29q53 -33 123 -32q78 0 131 40v-2q8 6 15 13.5t18 17.5v-49h176v1083h-189v-469q0 -111 -4 -180t-14 -102q-16 -53 -54 -89t-87 -36q-47 0 -80 33q-37 33 -51 90v-2q-8 33 -12.5 104.5t-4.5 185.5v465h-190v-1468z" />
<glyph unicode="&#xb6;" horiz-adv-x="819" d="M0 1040q0 -86 20.5 -160.5t59.5 -130t94 -91t127 -44.5v-1003h184v1628h105v-1628h188v1628h109v244h-504q-188 0 -285.5 -120t-97.5 -323z" />
<glyph unicode="&#xb7;" horiz-adv-x="186" d="M61 315h132v205h-132v-205z" />
<glyph unicode="&#xb8;" horiz-adv-x="458" d="M70 -338q33 -8 63.5 -12t63.5 -4q55 0 96 16t69.5 43t43 62.5t14.5 72.5q0 53 -27.5 94t-83.5 60l25 94h-148l-51 -215q78 -2 96.5 -8t18.5 -15q0 -8 -8 -14h2q-20 -16 -74 -16h-14t-21 2q-6 0 -25.5 1t-27.5 1z" />
<glyph unicode="&#xb9;" horiz-adv-x="446" d="M70 1047q43 16 79.5 36.5t67.5 42.5v-464h148v751h-111q-33 -59 -86 -109.5t-98 -70.5v-186z" />
<glyph unicode="&#xba;" horiz-adv-x="530" d="M33 1038q0 -174 72.5 -272t189.5 -98q115 0 188.5 100t73.5 274q0 176 -72.5 276.5t-189.5 100.5q-119 0 -190.5 -100t-71.5 -281zM195 1042q0 98 27.5 140.5t72.5 42.5q43 0 70.5 -43t27.5 -135q0 -98 -27.5 -142.5t-70.5 -44.5t-71.5 44t-28.5 138z" />
<glyph unicode="&#xbb;" horiz-adv-x="831" d="M80 66h178l248 456l-248 455h-178l211 -455zM367 66h174l254 456l-254 455h-174l206 -455z" />
<glyph unicode="&#xbc;" horiz-adv-x="1298" d="M80 1102q102 35 172 84v-490h172v793h-127q-39 -61 -101.5 -114.5t-115.5 -76.5v-196zM162 -53h196l883 1546h-197zM797 117h288v-144h175v144h77v180h-77v465h-140l-323 -475v-170zM1012 297l73 109v-109h-73z" />
<glyph unicode="&#xbd;" horiz-adv-x="1298" d="M80 1102q94 33 172 84v-490h170v793h-125q-39 -61 -101.5 -114.5t-115.5 -76.5v-196zM143 -53h197l883 1546h-197zM799 16l30 -43h502v191h-237q16 12 24 20q127 115 162 172q51 76 51 172q0 98 -60.5 166t-193.5 68q-115 0 -177 -67.5t-95 -211.5l176 -24q16 68 35.5 89 t58.5 21q74 0 74 -63q0 -29 -21 -55q-8 -12 -39.5 -43t-84.5 -80q-115 -100 -164 -191v2q-39 -66 -41 -123z" />
<glyph unicode="&#xbe;" horiz-adv-x="1300" d="M18 956q20 -135 86 -206.5t187 -71.5q63 0 112.5 21.5t82 56.5t50 82t17.5 100q0 119 -84 182q59 55 59 150q0 92 -57 155.5t-184 63.5q-104 0 -161.5 -56.5t-100.5 -195.5l174 -35q18 57 37.5 79t50.5 22q59 0 59 -46q0 -25 -26.5 -41t-86.5 -16l-30 -182h6q8 0 17.5 1 t17.5 1h10h16t19 2q45 -2 64.5 -20.5t19.5 -47.5q0 -35 -23.5 -60.5t-64.5 -25.5q-37 0 -60 21q-8 6 -17 29.5t-20 60.5zM162 -53h196l883 1546h-194zM799 117h291v-144h174v144h75v180h-75v465h-142l-323 -475v-170zM1014 297l76 109v-109h-76z" />
<glyph unicode="&#xbf;" horiz-adv-x="921" d="M117 14q0 -174 100 -297q109 -121 277 -120q162 0 262 121.5t123 351.5l-197 24q-18 -141 -68.5 -210.5t-121.5 -69.5q-78 0 -127 63q-51 59 -52 148q0 23 2 42t13 37q18 41 84 115q72 82 100 125q18 29 32.5 59.5t24.5 61.5q25 76 25 188v23q0 14 -2 31l-31 34h-155 q0 -133 -13 -176q-6 -39 -24 -65q-10 -16 -28.5 -43t-49.5 -64q-53 -57 -86 -105t-51 -89q-20 -43 -28.5 -89.5t-8.5 -95.5zM389 811h211v274h-211v-274z" />
<glyph unicode="&#xc0;" horiz-adv-x="1093" d="M37 0h217l123 422h420l129 -422h233l-477 1466h-203zM316 1566l196 -280h150l-115 280h-231zM442 647l107 357q10 33 18 65.5t17 65.5q10 -37 20 -75t23 -81l100 -332h-285z" />
<glyph unicode="&#xc1;" horiz-adv-x="1093" d="M37 0h217l123 422h420l129 -422h233l-477 1466h-203zM385 1286h154l188 280h-229zM442 647l107 357q10 33 18 65.5t17 65.5q10 -37 20 -75t23 -81l100 -332h-285z" />
<glyph unicode="&#xc2;" horiz-adv-x="1093" d="M37 0h217l123 422h420l129 -422h233l-477 1466h-203zM244 1286h221l63 104l64 -104h219l-207 280h-164zM442 647l107 357q10 33 18 65.5t17 65.5q10 -37 20 -75t23 -81l100 -332h-285z" />
<glyph unicode="&#xc3;" horiz-adv-x="1093" d="M37 0h217l123 422h420l129 -422h233l-477 1466h-203zM278 1268l29 -31h125q0 57 10 64q2 8 14 8q14 0 56 -25q80 -43 133 -43q72 0 120 55.5t50 171.5h-146q-6 -37 -12 -50t-16 -13q-20 0 -54 18q-86 45 -133 45q-78 0 -127 -57q-49 -55 -49 -143zM442 647l107 357 q10 33 18 65.5t17 65.5q10 -37 20 -75t23 -81l100 -332h-285z" />
<glyph unicode="&#xc4;" horiz-adv-x="1093" d="M37 0h217l123 422h420l129 -422h233l-477 1466h-203zM297 1194h188v205h-188v-205zM442 647l107 357q10 33 18 65.5t17 65.5q10 -37 20 -75t23 -81l100 -332h-285zM557 1194h189v205h-189v-205z" />
<glyph unicode="&#xc5;" horiz-adv-x="1093" d="M37 0h217l123 422h420l129 -422h233l-477 1466h-203zM360 1388q0 -78 43 -132t103 -54q59 0 101 53.5t42 128.5q0 76 -42 130.5t-101 54.5t-102.5 -53.5t-43.5 -127.5zM442 647l107 357q10 33 18 65.5t17 65.5q10 -37 20 -75t23 -81l100 -332h-285zM465 1388 q0 23 12 38.5t29 15.5q18 0 30.5 -16.5t12.5 -39.5t-12.5 -39t-30.5 -16q-16 0 -28.5 16t-12.5 41z" />
<glyph unicode="&#xc6;" horiz-adv-x="1570" d="M-20 0h233l154 401h383v-401h798v240h-585v395h526v239h-526v351h565v241h-975zM461 641l227 584h62v-584h-289z" />
<glyph unicode="&#xc7;" horiz-adv-x="1183" d="M78 743q0 -102 14 -198t45 -189q63 -186 182 -281t308 -95q184 0 312 133t181 395l-207 65q-33 -180 -109.5 -271t-191.5 -91q-88 0 -170 59q-78 59 -115.5 182t-37.5 293q0 137 33 256v-2q33 117 109.5 187.5t195.5 70.5q100 0 166.5 -70.5t105.5 -223.5l203 59 q-51 225 -173 348t-300 123h-13q-113 0 -211 -51t-170.5 -145.5t-114.5 -227.5t-42 -299v-27zM394 -338q33 -8 63.5 -12t63.5 -4q55 0 96 16t69.5 43t43 62.5t14.5 72.5q0 53 -27.5 94t-83.5 60l25 94h-148l-51 -215q78 -2 96.5 -8t18.5 -15q0 -8 -8 -14h2q-20 -16 -74 -16 h-14t-21 2q-6 0 -25.5 1t-27.5 1z" />
<glyph unicode="&#xc8;" horiz-adv-x="1093" d="M119 0h876v240h-669v397h604v240h-604v348h645v241h-852v-1466zM336 1566l196 -280h150l-115 280h-231z" />
<glyph unicode="&#xc9;" horiz-adv-x="1093" d="M119 0h876v240h-669v397h604v240h-604v348h645v241h-852v-1466zM401 1286h154l188 280h-229z" />
<glyph unicode="&#xca;" horiz-adv-x="1093" d="M119 0h876v240h-669v397h604v240h-604v348h645v241h-852v-1466zM279 1286h221l63 104l64 -104h219l-207 280h-164z" />
<glyph unicode="&#xcb;" horiz-adv-x="1093" d="M119 0h876v240h-669v397h604v240h-604v348h645v241h-852v-1466zM334 1194h188v205h-188v-205zM594 1194h189v205h-189v-205z" />
<glyph unicode="&#xcc;" horiz-adv-x="454" d="M2 1566l196 -280h150l-115 280h-231zM106 0h193v1466h-193v-1466z" />
<glyph unicode="&#xcd;" horiz-adv-x="454" d="M66 1286h154l188 280h-229zM106 0h193v1466h-193v-1466z" />
<glyph unicode="&#xce;" horiz-adv-x="454" d="M-55 1286h221l63 104l64 -104h219l-207 280h-164zM106 0h193v1466h-193v-1466z" />
<glyph unicode="&#xcf;" horiz-adv-x="454" d="M0 1194h188v205h-188v-205zM106 0h193v1466h-193v-1466zM260 1194h189v205h-189v-205z" />
<glyph unicode="&#xd0;" horiz-adv-x="1116" d="M0 633h119v-633h430q113 0 168 16q106 31 184 107q80 74 137.5 233.5t57.5 384.5q0 197 -45 346.5t-140 249.5q-68 74 -176 109q-74 20 -203 20h-413v-632h-119v-201zM328 240v393h305v201h-305v391h200q113 0 168 -23q45 -14 90 -72q43 -53 70 -143t27 -244t-27 -256 t-74 -161q-33 -39 -88 -62.5t-159 -23.5h-207z" />
<glyph unicode="&#xd1;" horiz-adv-x="1183" d="M117 0h198v1001l529 -1001h196v1466h-200v-1001l-529 1001h-194v-1466zM344 1268l29 -31h125q0 57 10 64q2 8 14 8q14 0 56 -25q80 -43 133 -43q72 0 120 55.5t50 171.5h-146q-6 -37 -12 -50t-16 -13q-20 0 -54 18q-86 45 -133 45q-78 0 -127 -57q-49 -55 -49 -143z" />
<glyph unicode="&#xd2;" horiz-adv-x="1273" d="M74 717q0 -98 17.5 -188.5t49.5 -178.5q70 -174 199 -272t295 -98q156 0 285 86q133 92 204.5 268t71.5 399v19q0 158 -42 294t-115.5 235t-175 156.5t-220.5 57.5h-8q-242 0 -402 -209q-159 -207 -159 -569zM289 713q0 297 100 422v-2q106 125 248 124h4 q74 0 136.5 -35.5t108.5 -102t71.5 -160t25.5 -207.5v-19q0 -252 -98.5 -387t-249.5 -135q-147 0 -250 133h2q-98 138 -98 369zM389 1566l196 -280h150l-115 280h-231z" />
<glyph unicode="&#xd3;" horiz-adv-x="1273" d="M74 717q0 -98 17.5 -188.5t49.5 -178.5q70 -174 199 -272t295 -98q156 0 285 86q133 92 204.5 268t71.5 399v19q0 158 -42 294t-115.5 235t-175 156.5t-220.5 57.5h-8q-242 0 -402 -209q-159 -207 -159 -569zM289 713q0 297 100 422v-2q106 125 248 124h4 q74 0 136.5 -35.5t108.5 -102t71.5 -160t25.5 -207.5v-19q0 -252 -98.5 -387t-249.5 -135q-147 0 -250 133h2q-98 138 -98 369zM494 1286h154l188 280h-229z" />
<glyph unicode="&#xd4;" horiz-adv-x="1273" d="M74 717q0 -98 17.5 -188.5t49.5 -178.5q70 -174 199 -272t295 -98q156 0 285 86q133 92 204.5 268t71.5 399v19q0 158 -42 294t-115.5 235t-175 156.5t-220.5 57.5h-8q-242 0 -402 -209q-159 -207 -159 -569zM289 713q0 297 100 422v-2q106 125 248 124h4 q74 0 136.5 -35.5t108.5 -102t71.5 -160t25.5 -207.5v-19q0 -252 -98.5 -387t-249.5 -135q-147 0 -250 133h2q-98 138 -98 369zM353 1286h221l63 104l64 -104h219l-207 280h-164z" />
<glyph unicode="&#xd5;" horiz-adv-x="1273" d="M74 717q0 -98 17.5 -188.5t49.5 -178.5q70 -174 199 -272t295 -98q156 0 285 86q133 92 204.5 268t71.5 399v19q0 158 -42 294t-115.5 235t-175 156.5t-220.5 57.5h-8q-242 0 -402 -209q-159 -207 -159 -569zM289 713q0 297 100 422v-2q106 125 248 124h4 q74 0 136.5 -35.5t108.5 -102t71.5 -160t25.5 -207.5v-19q0 -252 -98.5 -387t-249.5 -135q-147 0 -250 133h2q-98 138 -98 369zM371 1268l29 -31h125q0 57 10 64q2 8 14 8q14 0 56 -25q80 -43 133 -43q72 0 120 55.5t50 171.5h-146q-6 -37 -12 -50t-16 -13q-20 0 -54 18 q-86 45 -133 45q-78 0 -127 -57q-49 -55 -49 -143z" />
<glyph unicode="&#xd6;" horiz-adv-x="1273" d="M74 717q0 -98 17.5 -188.5t49.5 -178.5q70 -174 199 -272t295 -98q156 0 285 86q133 92 204.5 268t71.5 399v19q0 158 -42 294t-115.5 235t-175 156.5t-220.5 57.5h-8q-242 0 -402 -209q-159 -207 -159 -569zM289 713q0 297 100 422v-2q106 125 248 124h4 q74 0 136.5 -35.5t108.5 -102t71.5 -160t25.5 -207.5v-19q0 -252 -98.5 -387t-249.5 -135q-147 0 -250 133h2q-98 138 -98 369zM408 1194h188v205h-188v-205zM668 1194h189v205h-189v-205z" />
<glyph unicode="&#xd7;" horiz-adv-x="874" d="M106 412l130 -162l231 285l229 -285l131 164l-229 286l227 287l-129 162l-229 -287l-229 287l-132 -162l230 -287z" />
<glyph unicode="&#xd8;" horiz-adv-x="1206" d="M51 59l121 -127l127 177q76 -68 139 -93q47 -20 96.5 -28t102.5 -8q152 0 278 86q135 92 207 268t72 399q0 158 -33 281q-18 92 -76 196l138 197l-121 131l-131 -180q-84 76 -159 106.5t-177 30.5h-14q-115 0 -215.5 -53t-174 -151.5t-116.5 -234.5t-43 -302v-23 q0 -72 5 -135.5t21 -116.5q25 -102 88 -227zM285 735q0 268 100 393q98 131 252 132q57 0 102 -18.5t101 -72.5l-510 -716q-23 59 -29 96q-8 39 -12 85t-4 101zM430 293l508 715q43 -123 43 -279q0 -246 -100 -383q-94 -133 -248 -133q-72 0 -129 29q-18 10 -35.5 21 t-38.5 30z" />
<glyph unicode="&#xd9;" horiz-adv-x="1183" d="M121 625q0 -233 43 -365q90 -281 422 -280q162 0 270 79q53 41 89 93.5t58.5 120t31.5 154.5t9 198v843h-206v-841q0 -246 -64 -328q-55 -80 -203 -80q-84 0 -143 41q-55 39 -80 115l2 -2q-25 80 -24 254v841h-205v-843zM340 1566l196 -280h150l-115 280h-231z" />
<glyph unicode="&#xda;" horiz-adv-x="1183" d="M121 625q0 -233 43 -365q90 -281 422 -280q162 0 270 79q53 41 89 93.5t58.5 120t31.5 154.5t9 198v843h-206v-841q0 -246 -64 -328q-55 -80 -203 -80q-84 0 -143 41q-55 39 -80 115l2 -2q-25 80 -24 254v841h-205v-843zM442 1286h154l188 280h-229z" />
<glyph unicode="&#xdb;" horiz-adv-x="1183" d="M121 625q0 -233 43 -365q90 -281 422 -280q162 0 270 79q53 41 89 93.5t58.5 120t31.5 154.5t9 198v843h-206v-841q0 -246 -64 -328q-55 -80 -203 -80q-84 0 -143 41q-55 39 -80 115l2 -2q-25 80 -24 254v841h-205v-843zM301 1286h221l63 104l64 -104h219l-207 280h-164z " />
<glyph unicode="&#xdc;" horiz-adv-x="1183" d="M121 625q0 -233 43 -365q90 -281 422 -280q162 0 270 79q53 41 89 93.5t58.5 120t31.5 154.5t9 198v843h-206v-841q0 -246 -64 -328q-55 -80 -203 -80q-84 0 -143 41q-55 39 -80 115l2 -2q-25 80 -24 254v841h-205v-843zM358 1194h188v205h-188v-205zM618 1194h189v205 h-189v-205z" />
<glyph unicode="&#xdd;" horiz-adv-x="1093" d="M35 1466l452 -854v-612h209v616l467 850h-243l-226 -426q-27 -53 -50 -100t-42 -90q-23 45 -44 90t-44 90l-227 436h-252zM395 1286h154l188 280h-229z" />
<glyph unicode="&#xde;" horiz-adv-x="1019" d="M119 0h205v283h247q248 0 344 135q98 133 99 325q-2 174 -77 290t-204 136q-55 14 -172 15h-237v282h-205v-1466zM324 524v418h247q92 0 129 -10q47 -16 75 -69.5t28 -125.5q0 -102 -51.5 -157.5t-176.5 -55.5h-251z" />
<glyph unicode="&#xdf;" horiz-adv-x="927" d="M113 0h194v979q0 193 41 244q43 51 109 51q53 0 85.5 -33t32.5 -78q0 -27 -11 -63.5t-46 -114.5q-23 -43 -35 -75.5t-18 -55.5q-10 -47 -10 -86q0 -72 32 -135q33 -55 164 -170q59 -51 74 -76q18 -31 18 -65q0 -51 -31.5 -89t-74.5 -38q-33 0 -64.5 35.5t-72.5 131.5 l-168 -100q43 -127 124 -204.5t183 -77.5q129 0 217 100q84 102 84 254q0 113 -55 198q-20 29 -53 66t-87 78q-37 29 -56 49t-25 31h2q-14 29 -15 39q0 16 9.5 42.5t39.5 96.5q37 82 51.5 138t14.5 110q0 125 -84 219q-86 92 -221 92q-106 0 -189 -61l2 2q-43 -29 -73.5 -68 t-50 -92t-28.5 -124t-9 -163v-987z" />
<glyph unicode="&#xe0;" d="M53 322q0 -141 78 -230.5t221 -89.5q72 0 136.5 24.5t129.5 86.5q6 -23 28 -70t32 -70l203 68q-16 -14 -45 50.5t-33 92.5q-4 33 -6 104.5t-2 186.5v223q0 121 -7 164q-8 53 -28.5 99.5t-59 79t-97 51t-142.5 18.5q-168 6 -277 -117l117 -159q-20 -25 18.5 18t120.5 43 q90 0 135 -47h-2q27 -29 27 -117v-14q-72 -25 -211 -47q-72 -12 -123 -27q-86 -31 -149.5 -110.5t-63.5 -210.5zM230 1204l196 -280h150l-115 280h-231zM258 326q0 33 12 61v-2q14 29 44 42t104 28q57 10 102 21t80 26v-6q0 -105 -18 -154v2q-23 -63 -76 -100t-123 -37 q-61 0 -93 33.5t-32 85.5z" />
<glyph unicode="&#xe1;" d="M53 322q0 -141 78 -230.5t221 -89.5q72 0 136.5 24.5t129.5 86.5q6 -23 28 -70t32 -70l203 68q-16 -14 -45 50.5t-33 92.5q-4 33 -6 104.5t-2 186.5v223q0 121 -7 164q-8 53 -28.5 99.5t-59 79t-97 51t-142.5 18.5q-168 6 -277 -117l117 -159q-20 -25 18.5 18t120.5 43 q90 0 135 -47h-2q27 -29 27 -117v-14q-72 -25 -211 -47q-72 -12 -123 -27q-86 -31 -149.5 -110.5t-63.5 -210.5zM258 326q0 33 12 61v-2q14 29 44 42t104 28q57 10 102 21t80 26v-6q0 -105 -18 -154v2q-23 -63 -76 -100t-123 -37q-61 0 -93 33.5t-32 85.5zM322 924h154 l188 280h-229z" />
<glyph unicode="&#xe2;" d="M53 322q0 -141 78 -230.5t221 -89.5q72 0 136.5 24.5t129.5 86.5q6 -23 28 -70t32 -70l203 68q-16 -14 -45 50.5t-33 92.5q-4 33 -6 104.5t-2 186.5v223q0 121 -7 164q-8 53 -28.5 99.5t-59 79t-97 51t-142.5 18.5q-168 6 -277 -117l117 -159q-20 -25 18.5 18t120.5 43 q90 0 135 -47h-2q27 -29 27 -117v-14q-72 -25 -211 -47q-72 -12 -123 -27q-86 -31 -149.5 -110.5t-63.5 -210.5zM164 924h221l63 104l64 -104h219l-207 280h-164zM258 326q0 33 12 61v-2q14 29 44 42t104 28q57 10 102 21t80 26v-6q0 -105 -18 -154v2q-23 -63 -76 -100 t-123 -37q-61 0 -93 33.5t-32 85.5z" />
<glyph unicode="&#xe3;" d="M53 322q0 -141 78 -230.5t221 -89.5q72 0 136.5 24.5t129.5 86.5q6 -23 28 -70t32 -70l203 68q-16 -14 -45 50.5t-33 92.5q-4 33 -6 104.5t-2 186.5v223q0 121 -7 164q-8 53 -28.5 99.5t-59 79t-97 51t-142.5 18.5q-168 6 -277 -117l117 -159q-20 -25 18.5 18t120.5 43 q90 0 135 -47h-2q27 -29 27 -117v-14q-72 -25 -211 -47q-72 -12 -123 -27q-86 -31 -149.5 -110.5t-63.5 -210.5zM180 930l29 -31h125q0 57 10 64q2 8 14 8q14 0 56 -25q80 -43 133 -43q72 0 120 55.5t50 171.5h-146q-6 -37 -12 -50t-16 -13q-20 0 -54 18q-86 45 -133 45 q-78 0 -127 -57q-49 -55 -49 -143zM258 326q0 33 12 61v-2q14 29 44 42t104 28q57 10 102 21t80 26v-6q0 -105 -18 -154v2q-23 -63 -76 -100t-123 -37q-61 0 -93 33.5t-32 85.5z" />
<glyph unicode="&#xe4;" d="M53 322q0 -141 78 -230.5t221 -89.5q72 0 136.5 24.5t129.5 86.5q6 -23 28 -70t32 -70l203 68q-16 -14 -45 50.5t-33 92.5q-4 33 -6 104.5t-2 186.5v223q0 121 -7 164q-8 53 -28.5 99.5t-59 79t-97 51t-142.5 18.5q-168 6 -277 -117l117 -159q-20 -25 18.5 18t120.5 43 q90 0 135 -47h-2q27 -29 27 -117v-14q-72 -25 -211 -47q-72 -12 -123 -27q-86 -31 -149.5 -110.5t-63.5 -210.5zM219 907h188v205h-188v-205zM258 326q0 33 12 61v-2q14 29 44 42t104 28q57 10 102 21t80 26v-6q0 -105 -18 -154v2q-23 -63 -76 -100t-123 -37q-61 0 -93 33.5 t-32 85.5zM479 907h189v205h-189v-205z" />
<glyph unicode="&#xe5;" d="M53 322q0 -141 78 -230.5t221 -89.5q72 0 136.5 24.5t129.5 86.5q6 -23 28 -70t32 -70l203 68q-16 -14 -45 50.5t-33 92.5q-4 33 -6 104.5t-2 186.5v223q0 121 -7 164q-8 53 -28.5 99.5t-59 79t-97 51t-142.5 18.5q-168 6 -277 -117l117 -159q-20 -25 18.5 18t120.5 43 q90 0 135 -47h-2q27 -29 27 -117v-14q-72 -25 -211 -47q-72 -12 -123 -27q-86 -31 -149.5 -110.5t-63.5 -210.5zM258 326q0 33 12 61v-2q14 29 44 42t104 28q57 10 102 21t80 26v-6q0 -105 -18 -154v2q-23 -63 -76 -100t-123 -37q-61 0 -93 33.5t-32 85.5zM280 1126 q0 -78 43 -132t103 -54q59 0 101 53.5t42 128.5q0 76 -42 130.5t-101 54.5t-102.5 -53.5t-43.5 -127.5zM385 1126q0 23 12 38.5t29 15.5q18 0 30.5 -16.5t12.5 -39.5t-12.5 -39t-30.5 -16q-16 0 -28.5 16t-12.5 41z" />
<glyph unicode="&#xe6;" horiz-adv-x="1388" d="M51 299q0 -135 82 -229q78 -90 225 -90q94 0 175 38.5t159 124.5q61 -86 133 -124.5t170 -38.5q147 0 246.5 90t142.5 260l-28 49l-170 24q-20 -100 -67.5 -155t-114.5 -55q-57 0 -109 34q-47 31 -72 86q-10 23 -14 56.5t-8 83.5h585q2 18 3 51v43q0 127 -39 250 q-41 133 -130.5 211.5t-224.5 78.5q-82 0 -143 -27.5t-111 -84.5q-16 20 -32.5 36.5t-32.5 26.5q-43 23 -97.5 36t-123.5 13q-170 -6 -262.5 -95t-126.5 -285l200 -29q8 57 22.5 94t37 58.5t54.5 30.5t75 11q82 0 114.5 -39.5t32.5 -132.5v-10q-63 -18 -164 -37 q-76 -10 -131 -26.5t-92 -36.5q-78 -41 -121 -120t-43 -171zM258 305q0 51 33 84q33 27 104 41q68 12 120 24.5t89 26.5q-2 -53 -4 -86t-6 -49q-16 -70 -72.5 -115t-134.5 -45q-63 0 -96 33t-33 86zM805 666q14 98 64 152t126 54q74 0 121 -49t64 -157h-375z" />
<glyph unicode="&#xe7;" horiz-adv-x="819" d="M59 528q0 -268 104.5 -408t280.5 -140q139 0 236.5 113.5t124.5 318.5l-193 32q-14 -129 -59 -190t-111 -61q-86 0 -137 79.5t-51 262.5q0 176 54 257.5t143 81.5q55 0 96 -52t57 -154l187 37q-27 186 -116 284t-231 98h-8q-80 0 -149.5 -36.5t-119.5 -106.5t-79 -168 t-29 -221v-27zM226 -318q33 -8 63.5 -12t63.5 -4q55 0 96 16t69.5 43t43 62.5t14.5 72.5q0 53 -27.5 94t-83.5 60l25 94h-148l-51 -215q78 -2 96.5 -8t18.5 -15q0 -8 -8 -14h2q-20 -16 -74 -16h-14t-21 2q-6 0 -25.5 1t-27.5 1z" />
<glyph unicode="&#xe8;" d="M55 524q0 -262 108.5 -403t297.5 -141q147 0 244.5 100t121.5 221l-196 31q-18 -43 -63.5 -91t-106.5 -48q-82 0 -136.5 65.5t-68.5 212.5h578q4 43 5 58.5t1 23.5q0 244 -107 387q-111 147 -280 147q-176 0 -287 -149q-57 -74 -84 -177.5t-27 -236.5zM205 1204l196 -280 h150l-115 280h-231zM264 666q14 96 65.5 151t125.5 55q88 0 141 -84q27 -39 39 -122h-371z" />
<glyph unicode="&#xe9;" d="M55 524q0 -262 108.5 -403t297.5 -141q147 0 244.5 100t121.5 221l-196 31q-18 -43 -63.5 -91t-106.5 -48q-82 0 -136.5 65.5t-68.5 212.5h578q4 43 5 58.5t1 23.5q0 244 -107 387q-111 147 -280 147q-176 0 -287 -149q-57 -74 -84 -177.5t-27 -236.5zM264 666 q14 96 65.5 151t125.5 55q88 0 141 -84q27 -39 39 -122h-371zM324 924h154l188 280h-229z" />
<glyph unicode="&#xea;" d="M55 524q0 -262 108.5 -403t297.5 -141q147 0 244.5 100t121.5 221l-196 31q-18 -43 -63.5 -91t-106.5 -48q-82 0 -136.5 65.5t-68.5 212.5h578q4 43 5 58.5t1 23.5q0 244 -107 387q-111 147 -280 147q-176 0 -287 -149q-57 -74 -84 -177.5t-27 -236.5zM166 924h221 l63 104l64 -104h219l-207 280h-164zM264 666q14 96 65.5 151t125.5 55q88 0 141 -84q27 -39 39 -122h-371z" />
<glyph unicode="&#xeb;" d="M55 524q0 -262 108.5 -403t297.5 -141q147 0 244.5 100t121.5 221l-196 31q-18 -43 -63.5 -91t-106.5 -48q-82 0 -136.5 65.5t-68.5 212.5h578q4 43 5 58.5t1 23.5q0 244 -107 387q-111 147 -280 147q-176 0 -287 -149q-57 -74 -84 -177.5t-27 -236.5zM221 907h188v205 h-188v-205zM264 666q14 96 65.5 151t125.5 55q88 0 141 -84q27 -39 39 -122h-371zM481 907h189v205h-189v-205z" />
<glyph unicode="&#xec;" horiz-adv-x="454" d="M-12 1204l196 -280h150l-115 280h-231zM111 0h143v1063h-143v-1063z" />
<glyph unicode="&#xed;" horiz-adv-x="454" d="M104 924h154l188 280h-229zM111 0h143v1063h-143v-1063z" />
<glyph unicode="&#xee;" horiz-adv-x="454" d="M-45 924h221l63 104l64 -104h219l-207 280h-164zM111 0h143v1063h-143v-1063z" />
<glyph unicode="&#xef;" horiz-adv-x="454" d="M4 907h188v205h-188v-205zM111 0h143v1063h-143v-1063zM264 907h189v205h-189v-205z" />
<glyph unicode="&#xf0;" horiz-adv-x="839" d="M53 528q0 -221 74 -352q119 -197 319 -196q172 0 283 149q111 147 111 403q0 365 -217 707l118 74l-57 168l-170 -103q-18 20 -40.5 44t-45.5 46h-266q119 -106 192 -186l-159 -94l53 -158q-49 -33 -90 -94q-104 -145 -105 -408zM250 524q0 180 54 265t138 85 t142.5 -84.5t58.5 -248.5q0 -174 -59 -262q-59 -84 -138 -84q-86 0 -141 81.5t-55 247.5zM346 1077l117 68q14 -23 23.5 -39.5t17.5 -30.5v-4q-35 14 -86 14q-41 0 -72 -8z" />
<glyph unicode="&#xf1;" d="M98 0h193v578q0 174 49 227q25 31 57.5 45t69.5 14q41 0 76 -24q31 -25 42 -68t11 -135v-637h192v645q0 63 -2 105.5t-4 64.5v-4q-12 123 -88 197.5t-200 76.5q-131 0 -218 -96v76h-178v-1065zM209 930l29 -31h125q0 57 10 64q2 8 14 8q14 0 56 -25q80 -43 133 -43 q72 0 120 55.5t50 171.5h-146q-6 -37 -12 -50t-16 -13q-20 0 -54 18q-86 45 -133 45q-78 0 -127 -57q-49 -55 -49 -143z" />
<glyph unicode="&#xf2;" d="M49 532q0 -266 110.5 -409t286.5 -143q113 0 205 61q96 66 145.5 183.5t49.5 322.5q0 248 -113 395q-111 145 -287 145q-154 0 -264 -118q-133 -146 -133 -437zM205 1204l196 -280h150l-115 280h-231zM250 532q0 174 55 257t141 83q88 0 145.5 -83.5t57.5 -249.5 q0 -176 -57 -261t-146 -85q-86 0 -141 83.5t-55 255.5z" />
<glyph unicode="&#xf3;" d="M49 532q0 -266 110.5 -409t286.5 -143q113 0 205 61q96 66 145.5 183.5t49.5 322.5q0 248 -113 395q-111 145 -287 145q-154 0 -264 -118q-133 -146 -133 -437zM250 532q0 174 55 257t141 83q88 0 145.5 -83.5t57.5 -249.5q0 -176 -57 -261t-146 -85q-86 0 -141 83.5 t-55 255.5zM324 924h154l188 280h-229z" />
<glyph unicode="&#xf4;" d="M49 532q0 -266 110.5 -409t286.5 -143q113 0 205 61q96 66 145.5 183.5t49.5 322.5q0 248 -113 395q-111 145 -287 145q-154 0 -264 -118q-133 -146 -133 -437zM166 924h221l63 104l64 -104h219l-207 280h-164zM250 532q0 174 55 257t141 83q88 0 145.5 -83.5 t57.5 -249.5q0 -176 -57 -261t-146 -85q-86 0 -141 83.5t-55 255.5z" />
<glyph unicode="&#xf5;" d="M49 532q0 -266 110.5 -409t286.5 -143q113 0 205 61q96 66 145.5 183.5t49.5 322.5q0 248 -113 395q-111 145 -287 145q-154 0 -264 -118q-133 -146 -133 -437zM182 930l29 -31h125q0 57 10 64q2 8 14 8q14 0 56 -25q80 -43 133 -43q72 0 120 55.5t50 171.5h-146 q-6 -37 -12 -50t-16 -13q-20 0 -54 18q-86 45 -133 45q-78 0 -127 -57q-49 -55 -49 -143zM250 532q0 174 55 257t141 83q88 0 145.5 -83.5t57.5 -249.5q0 -176 -57 -261t-146 -85q-86 0 -141 83.5t-55 255.5z" />
<glyph unicode="&#xf6;" d="M49 532q0 -266 110.5 -409t286.5 -143q113 0 205 61q96 66 145.5 183.5t49.5 322.5q0 248 -113 395q-111 145 -287 145q-154 0 -264 -118q-133 -146 -133 -437zM221 907h188v205h-188v-205zM250 532q0 174 55 257t141 83q88 0 145.5 -83.5t57.5 -249.5q0 -176 -57 -261 t-146 -85q-86 0 -141 83.5t-55 255.5zM481 907h189v205h-189v-205z" />
<glyph unicode="&#xf7;" horiz-adv-x="829" d="M57 580h774v227h-774v-227zM340 291h211v260h-211v-260zM340 838h211v260h-211v-260z" />
<glyph unicode="&#xf8;" horiz-adv-x="925" d="M94 25l119 -113l78 127q90 -59 201 -59q154 0 262 110q137 143 137 445q0 66 -5 123t-20 108q-16 61 -55 131l86 139l-121 111l-76 -125q-53 35 -103.5 53.5t-109.5 18.5q-156 0 -274 -138h2q-121 -137 -121 -434q0 -70 8.5 -131t24.5 -115q12 -53 51 -112zM291 535 q0 174 58.5 259t144.5 85q47 0 96 -39l-283 -463q-6 35 -11 74t-5 84zM403 223l279 457q4 -17 4 -27q4 -29 6 -56.5t2 -59.5q0 -174 -57 -258t-150 -84q-49 0 -84 28z" />
<glyph unicode="&#xf9;" d="M121 414q0 -57 2 -98.5t6 -65.5q12 -80 47 -139.5t100.5 -95t139.5 -35.5q125 0 219 100v-80h174v1065h-188v-567q0 -59 -5.5 -105.5t-15.5 -77.5q-18 -55 -62 -85.5t-94 -30.5q-49 0 -81.5 29.5t-43.5 82.5l3 -2q-4 23 -6.5 65t-2.5 103v588h-192v-651zM238 1204 l196 -280h150l-115 280h-231z" />
<glyph unicode="&#xfa;" d="M121 414q0 -57 2 -98.5t6 -65.5q12 -80 47 -139.5t100.5 -95t139.5 -35.5q125 0 219 100v-80h174v1065h-188v-567q0 -59 -5.5 -105.5t-15.5 -77.5q-18 -55 -62 -85.5t-94 -30.5q-49 0 -81.5 29.5t-43.5 82.5l3 -2q-4 23 -6.5 65t-2.5 103v588h-192v-651zM313 924h154 l188 280h-229z" />
<glyph unicode="&#xfb;" d="M121 414q0 -57 2 -98.5t6 -65.5q12 -80 47 -139.5t100.5 -95t139.5 -35.5q125 0 219 100v-80h174v1065h-188v-567q0 -59 -5.5 -105.5t-15.5 -77.5q-18 -55 -62 -85.5t-94 -30.5q-49 0 -81.5 29.5t-43.5 82.5l3 -2q-4 23 -6.5 65t-2.5 103v588h-192v-651zM164 924h221 l63 104l64 -104h219l-207 280h-164z" />
<glyph unicode="&#xfc;" d="M121 414q0 -57 2 -98.5t6 -65.5q12 -80 47 -139.5t100.5 -95t139.5 -35.5q125 0 219 100v-80h174v1065h-188v-567q0 -59 -5.5 -105.5t-15.5 -77.5q-18 -55 -62 -85.5t-94 -30.5q-49 0 -81.5 29.5t-43.5 82.5l3 -2q-4 23 -6.5 65t-2.5 103v588h-192v-651zM219 907h188v205 h-188v-205zM479 907h189v205h-189v-205z" />
<glyph unicode="&#xfd;" horiz-adv-x="819" d="M33 1055l309 -987q-4 -6 -5 -14.5t-3 -12.5l-1 -1t-1 -3l2 2l-141 -500l198 2q111 410 135 498l312 1016h-197l-176 -555q-6 -23 -13.5 -48.5t-13.5 -52.5q-8 29 -14 55.5t-12 49.5l-170 551h-209zM289 924h154l188 280h-229z" />
<glyph unicode="&#xfe;" horiz-adv-x="837" d="M100 -389h191v442q12 -14 24.5 -23.5t24.5 -17.5q59 -35 129 -35q94 0 184 72q92 72 138.5 205t46.5 301v10q0 113 -25 214.5t-71 176t-110.5 118.5t-144.5 44h-12q-78 0 -133 -35q-27 -16 -51 -41v441h-191v-1872zM281 541q0 184 57 274t125 90q74 0 126 -86t52 -262 q0 -186 -53 -272t-131 -86q-72 0 -124 83t-52 259z" />
<glyph unicode="&#xff;" horiz-adv-x="819" d="M33 1055l309 -987q-4 -6 -5 -14.5t-3 -12.5l-1 -1t-1 -3l2 2l-141 -500l198 2q111 410 135 498l312 1016h-197l-176 -555q-6 -23 -13.5 -48.5t-13.5 -52.5q-8 29 -14 55.5t-12 49.5l-170 551h-209zM188 907h188v205h-188v-205zM448 907h189v205h-189v-205z" />
<glyph unicode="&#x152;" horiz-adv-x="1568" d="M98 737q0 -317 109 -524q129 -233 377 -233q172 0 274 141v-121h723v242h-520v397h459v242h-459v346h498v241h-701v-112q-104 137 -274 137q-254 0 -373 -225q-113 -213 -113 -531zM315 723q0 197 35 317q35 115 99.5 170.5t134.5 55.5q51 0 98 -31t84 -90 q84 -123 84 -400q0 -299 -82 -423q-78 -119 -184 -119q-111 0 -187 119q-82 133 -82 401z" />
<glyph unicode="&#x153;" horiz-adv-x="1478" d="M61 520q0 -252 115 -397q117 -143 301 -143q178 0 301 159q53 -76 133.5 -117.5t180.5 -41.5q150 0 249 100t138 289l-197 34q-25 -106 -74 -158t-114 -52q-88 0 -148 77q-53 68 -61 181h598v49q0 289 -111 434v-2q-55 78 -130 116.5t-165 38.5q-92 0 -167.5 -44 t-129.5 -117q-47 72 -124.5 116.5t-176.5 44.5q-121 0 -221 -67q-98 -68 -147.5 -201t-49.5 -299zM266 535v12q0 70 15.5 129t42 103t62.5 68.5t77 24.5h10q86 0 147.5 -85t61.5 -250q0 -86 -16.5 -149.5t-47.5 -111.5q-61 -84 -145 -83q-96 0 -158 100q-49 80 -49 242z M893 664q16 98 67 153t125 55q70 0 119 -52t66 -156h-377z" />
<glyph unicode="&#x178;" horiz-adv-x="1093" d="M35 1466l452 -854v-612h209v616l467 850h-243l-226 -426q-27 -53 -50 -100t-42 -90q-23 45 -44 90t-44 90l-227 436h-252zM311 1194h188v205h-188v-205zM571 1194h189v205h-189v-205z" />
<glyph unicode="&#x2c6;" horiz-adv-x="483" d="M-12 924h221l63 104l64 -104h219l-207 280h-164z" />
<glyph unicode="&#x2dc;" horiz-adv-x="487" d="M4 930l29 -31h125q0 57 10 64q2 8 14 8q14 0 56 -25q80 -43 133 -43q72 0 120 55.5t50 171.5h-146q-6 -37 -12 -50t-16 -13q-20 0 -54 18q-86 45 -133 45q-78 0 -127 -57q-49 -55 -49 -143z" />
<glyph unicode="&#x2000;" horiz-adv-x="852" />
<glyph unicode="&#x2001;" horiz-adv-x="1704" />
<glyph unicode="&#x2002;" horiz-adv-x="852" />
<glyph unicode="&#x2003;" horiz-adv-x="1704" />
<glyph unicode="&#x2004;" horiz-adv-x="568" />
<glyph unicode="&#x2005;" horiz-adv-x="426" />
<glyph unicode="&#x2006;" horiz-adv-x="284" />
<glyph unicode="&#x2007;" horiz-adv-x="284" />
<glyph unicode="&#x2008;" horiz-adv-x="213" />
<glyph unicode="&#x2009;" horiz-adv-x="340" />
<glyph unicode="&#x200a;" horiz-adv-x="94" />
<glyph unicode="&#x2010;" horiz-adv-x="806" d="M119 539h586v180h-586v-180z" />
<glyph unicode="&#x2011;" horiz-adv-x="806" d="M119 539h586v180h-586v-180z" />
<glyph unicode="&#x2012;" horiz-adv-x="806" d="M119 539h586v180h-586v-180z" />
<glyph unicode="&#x2013;" horiz-adv-x="849" d="M-2 293h909v143h-909v-143z" />
<glyph unicode="&#x2014;" horiz-adv-x="1576" d="M0 293h1638v143h-1638v-143z" />
<glyph unicode="&#x2018;" horiz-adv-x="260" d="M74 864h159v248h-55q4 43 22.5 71.5t51.5 49.5l-51 119q-80 -55 -107 -131q-10 -29 -15 -74t-5 -109v-174z" />
<glyph unicode="&#x2019;" horiz-adv-x="260" d="M53 965l49 -119q78 53 107 131q20 55 20 182v176h-157v-250h51q-12 -82 -70 -120z" />
<glyph unicode="&#x201a;" horiz-adv-x="260" d="M53 -119l49 -119q78 51 107 132q20 55 20 178v176h-157v-248h51q-12 -80 -70 -119z" />
<glyph unicode="&#x201c;" horiz-adv-x="471" d="M57 864h191v248h-64q12 82 90 121l-63 119q-96 -55 -129 -131q-10 -29 -17.5 -74t-7.5 -109v-174zM272 864h189v248h-62q12 82 88 121l-63 119q-96 -53 -127 -131l2 2q-14 -29 -20.5 -76t-6.5 -109v-174z" />
<glyph unicode="&#x201d;" horiz-adv-x="471" d="M37 965l59 -119q94 51 129 131q25 57 25 182v176h-191v-250h62q-12 -82 -84 -120zM250 965l61 -119q94 53 129 131q23 61 23 182v176h-189v-250h62q-14 -82 -86 -120z" />
<glyph unicode="&#x201e;" horiz-adv-x="471" d="M37 -119l59 -119q94 49 129 132q25 57 25 178v176h-191v-248h62q-12 -80 -84 -119zM250 -119l61 -119q96 55 129 132q23 61 23 178v176h-189v-248h62q-14 -80 -86 -119z" />
<glyph unicode="&#x2022;" horiz-adv-x="493" d="M76 653q0 -106 59 -178q61 -76 144 -76q82 0 143 76q59 72 59 178t-59 178q-61 74 -143 74t-144 -74q-59 -72 -59 -178z" />
<glyph unicode="&#x2026;" horiz-adv-x="1556" d="M182 0h217v205h-217v-205zM700 0h220v205h-220v-205zM1219 0h219v205h-219v-205z" />
<glyph unicode="&#x202f;" horiz-adv-x="340" />
<glyph unicode="&#x2039;" horiz-adv-x="462" d="M57 520l234 -454h162l-195 454l195 457h-162z" />
<glyph unicode="&#x203a;" horiz-adv-x="462" d="M41 977l197 -453l-195 -458h164l223 464l-223 447h-166z" />
<glyph unicode="&#x205f;" horiz-adv-x="426" />
<glyph unicode="&#x20ac;" horiz-adv-x="849" d="M-29 508h127q8 -43 18.5 -81t20.5 -71q125 -377 484 -376q123 0 235 65v313q-121 -147 -248 -147q-94 0 -170 61q-96 72 -129 236h432l33 205h-489v47h497l33 205h-508q4 27 14.5 51t22.5 53q20 37 39.5 66.5t42.5 50.5q82 71 195 71q106 0 227 -127l45 263 q-123 100 -268 100q-154 0 -283 -88q-199 -139 -250 -440h-88l-33 -205h107v-47h-74z" />
<glyph unicode="&#x2122;" horiz-adv-x="1556" d="M172 1223h201v-631h164v631h202v184h-567v-184zM745 592h160v424l109 -424h143l105 409v-409h157v815h-205l-129 -504l-133 504h-207v-815z" />
<glyph unicode="&#x25fc;" horiz-adv-x="1064" d="M0 0v1065h1065v-1065h-1065z" />
</font>
</defs>
</svg>
