<?xml version="1.0" encoding="utf-8"?>
<!-- Generator: Adobe Illustrator 19.1.0, SVG Export Plug-In . SVG Version: 6.00 Build 0)  -->
<svg version="1.1" xmlns="http://www.w3.org/2000/svg" xmlns:xlink="http://www.w3.org/1999/xlink" x="0px" y="0px"
	 viewBox="0 0 964.5 163.4" style="enable-background:new 0 0 964.5 163.4;" xml:space="preserve">
<style type="text/css">
	.st0{display:none;}
	.st1{display:inline;fill:#22466B;stroke:#22466B;stroke-miterlimit:10;}
	.st2{display:inline;fill:#A7A9AC;}
	.st3{display:inline;fill:none;stroke:#22466B;stroke-miterlimit:10;}
	.st4{display:inline;fill:none;stroke:#22466B;stroke-width:0.5;stroke-miterlimit:10;}
	.st5{display:inline;}
	.st6{fill:#22466B;}
	.st7{fill:none;stroke:#FFFFFF;stroke-width:0.5;stroke-miterlimit:10;}
</style>
<g id="Layer_6" class="st0">
	<path class="st1" d="M654.1,160.4c0,0-19.3-67-27.3-60.3c-1.2,1-6,2.4-13.3,3.9V59.8L572,73.7v36.7c-7.3,0.9-15.1,1.8-23.1,2.7
		l-3.7-14.7L533,85.9l-29.6,0.5v-3h-6.6l-1.2-12.8l-5.5-41.3l-5.2,41.3l-0.7,12.8h-4.9v18.7h-13.1V80l-31.4-2.1l-15.5-5l-10.9,12.6
		c-7.4,2.3-22.7,7.8-22.7,15c0,4.2-0.1,8.4-0.2,12.1c-3.8-0.4-8-0.7-12.6-1.1l0-13.5l-1.5-12.6l-17.5-19.5L335,78l-71.1,1.5
		l10.7,18.8l-0.1,11.2c-13.6,1.4-27.9,5.9-39.1,10.2h-7.3v3c-8.7,3.7-14.3,6.7-14.3,6.7l-4,14l18.3,0.7v99.3h385.3v-84.5
		L654.1,160.4z"/>
</g>
<g id="Layer_2" class="st0">
	<rect x="285.3" y="87.4" class="st2" width="45.1" height="22.7"/>
	<polygon class="st2" points="355.9,112 337.5,112 337.5,86.6 353.1,79.1 359.8,86.6 355.9,90.6 	"/>
	<line class="st3" x1="282.6" y1="93.2" x2="332.6" y2="93.2"/>
	<line class="st3" x1="282.6" y1="102.8" x2="332.6" y2="102.8"/>
	<line class="st3" x1="333.7" y1="94.7" x2="359.5" y2="94.7"/>
	<line class="st3" x1="333.7" y1="105" x2="359.5" y2="105"/>
	<line class="st4" x1="296.9" y1="85.3" x2="296.9" y2="111.4"/>
	<line class="st4" x1="308.7" y1="85.3" x2="308.7" y2="111.4"/>
	<line class="st4" x1="320.6" y1="85.3" x2="320.6" y2="111.4"/>
	<line class="st4" x1="343.9" y1="80.4" x2="343.9" y2="111.4"/>
	<line class="st4" x1="353.1" y1="77.2" x2="353.1" y2="111.4"/>
	<polygon class="st2" points="427.9,118.9 417.4,118.9 417.4,84.7 421.4,80.5 427.9,83.9 	"/>
	<polygon class="st2" points="408.7,94.5 405.8,95.5 405.8,90.6 408.8,89.6 	"/>
	<polygon class="st2" points="403.9,95.8 401.2,96.6 401.2,92.1 403.9,91 	"/>
	<polygon class="st2" points="399.5,97.1 396.9,97.8 397,93.7 399.3,92.9 	"/>
	<polygon class="st2" points="395.4,98 393.5,98.6 393.4,95.3 395.4,94.4 	"/>
	<polygon class="st2" points="392,99.2 390.2,99.8 390.2,96.7 392,95.8 	"/>
	<polygon class="st2" points="389.1,100.3 387.8,101.1 387.7,98.3 389,97.3 	"/>
	<polygon class="st2" points="408.7,100.9 405.8,101.9 405.8,97 408.8,96 	"/>
	<polygon class="st2" points="403.9,102.2 401.2,103 401.2,98.4 403.9,97.4 	"/>
	<polygon class="st2" points="399.5,103.1 396.9,103.7 397,99.6 399.3,98.9 	"/>
	<polygon class="st2" points="395.6,103.8 393.7,104.4 393.6,101.1 395.7,100.2 	"/>
	<polygon class="st2" points="392,104.6 390.2,105.3 390.2,102.2 392,101.3 	"/>
	<polygon class="st2" points="389.1,105.3 387.8,106.1 387.7,103.3 389,102.3 	"/>
	<polygon class="st2" points="408.7,107.4 405.8,108.3 405.8,103.4 408.8,102.5 	"/>
	<polygon class="st2" points="403.9,108.4 401.2,109.3 401.2,104.7 403.9,103.7 	"/>
	<polygon class="st2" points="399.5,109.3 396.9,110 397,105.9 399.3,105.2 	"/>
	<polygon class="st2" points="395.6,109.6 393.7,110.2 393.6,106.9 395.7,106 	"/>
	<polygon class="st2" points="392,110.4 390.2,111 390.2,108 392,107 	"/>
	<polygon class="st2" points="389.1,110.7 387.8,111.5 387.7,108.7 389,107.7 	"/>
	<g class="st5">
		<g>
			<path class="st6" d="M385.9,104.6c7.7-4.5,16.6-6.5,25.2-8.5c0.9-0.2,1.2-2.9,2.1-3.1c-8.6,2-17.5,4-25.2,8.5
				C387,102.1,386.9,104,385.9,104.6L385.9,104.6z"/>
		</g>
	</g>
	<g class="st5">
		<g>
			<path class="st6" d="M385.7,108.9c8.7-1.6,17.1-4.2,25.5-6.9c1-0.3,1.2-2.8,2.1-3.1c-8.4,2.7-16.8,5.3-25.5,6.9
				C386.9,105.9,386.5,108.7,385.7,108.9L385.7,108.9z"/>
		</g>
	</g>
	<line class="st4" x1="421.6" y1="79.6" x2="421.6" y2="119.6"/>
	<rect x="439.6" y="101.9" class="st2" width="15" height="13.3"/>
	<polygon class="st2" points="514.5,113.6 508,113.6 508,99.3 514.5,99.6 	"/>
	<polygon class="st2" points="526.5,112 520,112 520,99.3 526.5,99.5 	"/>
	<polygon class="st2" points="537.5,111.7 531,111.7 531,99.3 537.5,99.8 	"/>
	<rect x="486.4" y="101" class="st2" width="9.8" height="14.5"/>
	<rect x="488.9" y="88.3" class="st2" width="4.8" height="7.2"/>
	<rect x="433.2" y="101.9" class="st2" width="3.3" height="13.3"/>
	<rect x="457.2" y="101.9" class="st2" width="3.3" height="13.3"/>
	<polygon class="st2" points="590.9,96.9 581.6,98.9 581.6,79.3 590.9,76.4 	"/>
	<polygon class="st2" points="609.4,93.5 600.1,95.1 600.1,74.6 609.4,71.8 	"/>
	<polygon class="st2" points="579.9,99.1 578.7,99.4 578.7,82.4 579.9,81.8 	"/>
	<polygon class="st2" points="577.5,99.7 576.3,100.1 576.3,83.5 577.5,82.8 	"/>
	<polygon class="st2" points="575,100.5 573.9,100.8 573.9,84.2 575,83.9 	"/>
	<polygon class="st2" points="598.6,95.5 597.4,95.7 597.4,78.2 598.6,78 	"/>
	<polygon class="st2" points="596.3,95.7 595.1,95.9 595.1,79 596.3,78.6 	"/>
	<polygon class="st2" points="593.8,96 592.6,96.3 592.6,79.7 593.8,79.4 	"/>
	<polygon class="st2" points="613.4,61.7 572.8,75 572.8,79.2 613.4,67.1 	"/>
	<polygon class="st2" points="593.3,111.6 579.3,111.6 579.3,101 593,98.3 	"/>
</g>
<g id="Layer_3">
	<g>
		<g>
			<polyline class="st7" points="458.7,97 459.2,78.4 465,78.4 470.7,20.7 477.5,78.4 484.1,79.1 484.1,82.1 513.7,81.6 526.6,94 
				529.6,108.8 529.6,118.1 			"/>
			<rect x="469.6" y="84" class="st7" width="4.8" height="7.2"/>
			<polyline class="st7" points="467.4,98.3 477.2,98.3 477.2,116.9 			"/>
			<polygon class="st7" points="488.7,94.9 495.2,95.3 495.2,109.2 488.7,109.2 			"/>
			<polygon class="st7" points="500.7,94.9 507.2,94.9 507.2,107.7 500.7,108 			"/>
			<polygon class="st7" points="511.7,94.9 518.2,95.5 518.2,107.4 511.7,107.4 			"/>
		</g>
		<g>
			<path class="st7" d="M466.5,121.4"/>
			<polyline class="st7" points="466.5,96.6 470.4,101.6 470.4,119.7 			"/>
			<path class="st7" d="M466.5,124.4V96.6L447,97.5l-5.1-2.6l0.1-6.1l-3.4-0.5l-0.1-0.8l-23.2-5.1l-2.3,2.3L401.4,83l-1.3,2.4
				l-2.9-0.4c0,0-9.9,4.4-10.2,7.4l-1.2,20.1c0,0,8.2,1.4,12.4,0.7l2.1,1.4l3.3,0.4v0.6l10,1.5l7.2-0.4"/>
			<path class="st7" d="M447,97.5c-28,1.5-38.2,4.9-38.2,4.9l-0.3,11.4h-2v0.3h-0.5v0.4H405v0.3h-1.4"/>
			<line class="st7" x1="438.5" y1="88.3" x2="438.5" y2="93.5"/>
			<polyline class="st7" points="415.1,82.4 415,86.6 414.6,101 			"/>
			<polyline class="st7" points="438.5,90.9 415,86.6 411.8,89.1 			"/>
			<polyline class="st7" points="411.8,92.2 414.9,90.2 433.9,93.3 			"/>
			<polyline class="st7" points="433.9,98.4 433.9,92.6 435.1,92.2 441.8,94.9 			"/>
			<polyline class="st7" points="411.8,98.3 414.7,96.8 430.4,98.7 			"/>
			<polyline class="st7" points="411.7,101.6 411.8,85.9 412.8,84.7 			"/>
			<line class="st7" x1="401.4" y1="83" x2="400.4" y2="114.6"/>
			<polyline class="st7" points="400.1,85.4 399.4,86.8 398.4,113.5 			"/>
			<polygon class="st7" points="400.4,88.8 401.2,88 404.3,88.3 403.6,109.3 400.4,109.3 399.8,109.3 			"/>
			<polyline class="st7" points="420.7,116.7 420.7,114.8 414.3,115.1 414.3,115.4 413.8,115.5 413.8,116.1 413.1,116.3 
				413.1,116.9 			"/>
			<line class="st7" x1="397.1" y1="85" x2="395.9" y2="113.4"/>
			<line class="st7" x1="408.4" y1="113.7" x2="420.7" y2="114.6"/>
			<polyline class="st7" points="411.7,113.9 411.8,105.9 419.6,105.2 419.6,114.5 			"/>
			<polyline class="st7" points="414.1,114 414.1,108.1 417.1,107.9 417.1,114.4 			"/>
			<line class="st7" x1="435.1" y1="92.2" x2="435.2" y2="98.3"/>
			<polygon class="st7" points="424.1,105.2 427.8,105.1 427.8,114 424.1,113.8 			"/>
			<polygon class="st7" points="431.8,104.9 436.2,104.8 436.2,114.2 431.8,114.2 			"/>
			<polygon class="st7" points="441.8,104.6 447,104.5 447,114.5 441.8,114.3 			"/>
			<polygon class="st7" points="453,104.4 458.7,104.1 458.6,114.8 453,114.6 			"/>
			<polygon class="st7" points="392.8,91.6 395.3,90.5 395.1,94.1 392.7,95 			"/>
			<polygon class="st7" points="388.3,93.6 390.2,92.7 390.1,96 388.2,96.8 			"/>
			<polygon class="st7" points="392.5,99.4 394.9,98.6 394.8,102.4 392.3,103 			"/>
			<polygon class="st7" points="387.9,101 389.9,100.4 389.7,103.8 387.7,104.2 			"/>
			<polygon class="st7" points="392.2,107 394.6,106.7 394.4,110.5 392,110.5 			"/>
			<polygon class="st7" points="387.6,107.6 389.5,107.4 389.3,110.5 387.4,110.6 			"/>
		</g>
		<g>
			<path class="st7" d="M568.5,124.2c0,1.6-11.4,2.9-27,2.9s-25.3-1.3-25.3-2.9c0-1.6,9.4-2.1,25-2.1S568.5,122.6,568.5,124.2z"/>
			<path class="st7" d="M517,118c0,0,203.8,0.8,43.7,12.8l0.3-1.2C688.3,118.3,517,118,517,118z"/>
			<polyline class="st7" points="635.1,117 609.1,116.8 609.3,93 564.5,93 564.8,116.5 542.3,117.6 536.1,118 536.1,81.1 593,75.1 
				642,82 648.6,81.8 655.8,83.8 667.3,84 673,84.5 673,90.1 775.4,92 775.6,111.8 951.7,111.8 			"/>
			<line class="st7" x1="635.1" y1="117" x2="635" y2="90"/>
			<polyline class="st7" points="542.3,117.6 542.3,88.6 635,90 639,90 639,116.8 			"/>
			<polyline class="st7" points="566.6,116.1 566.6,95.1 572.8,95.1 572.8,116.1 575.6,116.1 575.6,95.1 581.6,95.1 581.6,116.1 
				584,116.1 584,95.1 590.6,95.1 590.6,116.1 592.5,116.1 592.5,95.1 598.8,95.1 598.8,116.1 600.8,116.1 600.8,95.1 607.3,95.1 
				607.3,116.1 609.1,116.8 			"/>
			<line class="st7" x1="648.8" y1="116.5" x2="648.6" y2="81.8"/>
			<line class="st7" x1="655.6" y1="90" x2="655.8" y2="83.8"/>
			<polyline class="st7" points="648.6,90 667.1,90 667.3,84 			"/>
			<polyline class="st7" points="660.8,116 660.8,95.1 666.3,95.2 770.6,96.5 770.6,109.5 745.8,109.5 745.8,111.8 721,111.8 
				721,113.8 			"/>
			<line class="st7" x1="666" y1="115.8" x2="666.3" y2="95.2"/>
			<line class="st7" x1="672" y1="115.9" x2="672.3" y2="95.3"/>
			<line class="st7" x1="678" y1="115.2" x2="678.3" y2="95.3"/>
			<line class="st7" x1="684.4" y1="115.2" x2="684.7" y2="95.3"/>
			<line class="st7" x1="690.3" y1="114.9" x2="690.7" y2="95.6"/>
			<line class="st7" x1="696.6" y1="114.7" x2="696.8" y2="95.6"/>
			<line class="st7" x1="702.6" y1="114.5" x2="703" y2="95.7"/>
			<line class="st7" x1="708.8" y1="114.3" x2="708.8" y2="95.6"/>
			<line class="st7" x1="715.2" y1="114" x2="715.5" y2="96"/>
			<line class="st7" x1="721" y1="111.8" x2="721.2" y2="96"/>
			<line class="st7" x1="727.2" y1="111.8" x2="727.2" y2="96"/>
			<line class="st7" x1="733.7" y1="111.8" x2="733.7" y2="96"/>
			<line class="st7" x1="739.9" y1="111.8" x2="739.3" y2="96"/>
			<line class="st7" x1="745.8" y1="109.5" x2="745.9" y2="96"/>
			<line class="st7" x1="751.9" y1="109.5" x2="751.9" y2="96.5"/>
			<line class="st7" x1="757.9" y1="109.5" x2="757.9" y2="96.5"/>
			<line class="st7" x1="764.1" y1="109.5" x2="764.1" y2="96.5"/>
		</g>
		<g>
			<line class="st7" x1="373.1" y1="111.4" x2="385.6" y2="112"/>
			<polyline class="st7" points="366.6,117.7 366.5,114.8 373.5,114.8 373.5,76.4 377.1,69.4 353.5,65.9 333.4,65.9 305.5,70.8 
				284.4,58.8 262.6,70 262.6,76.2 247.3,80 229,86.8 229,88.3 225.1,88 211.3,92 211.3,104.8 			"/>
			<polyline class="st7" points="255.9,111.3 268.9,111.2 291.4,111.7 298.8,113.7 310.3,114 313.5,114.3 313.4,117 314.5,117.7 			
				"/>
			<polyline class="st7" points="224.4,104.9 224.4,107.5 216.9,107.9 216.9,111.2 			"/>
			<path class="st7" d="M224.4,107.5h31.5V94c0,0,11.2-4.6,42.9-4.4v-4.2c0,0,46.2,0.6,50.6,7.9v19.1"/>
			<line class="st7" x1="291.4" y1="89.7" x2="298.8" y2="85.4"/>
			<path class="st7" d="M298.8,89.7c0,0,46.5,1.7,50.6,7.1"/>
			<path class="st7" d="M349.4,100.4c-22.5-9.9-93.5-2.6-93.5-2.6l15.6,0h19.9l7.4-2.1v18"/>
			<line class="st7" x1="291.4" y1="97.8" x2="291.4" y2="111.7"/>
			<line class="st7" x1="260.9" y1="97.4" x2="260.9" y2="111.3"/>
			<polyline class="st7" points="305.5,70.8 307.1,71.8 377.1,69.4 			"/>
			<line class="st7" x1="307.1" y1="74.9" x2="307.1" y2="85.4"/>
			<line class="st7" x1="310" y1="95.2" x2="309.5" y2="114"/>
			<polyline class="st7" points="366.5,114.8 366.5,112.4 314.8,113.6 314.5,117.7 			"/>
			<polyline class="st7" points="309.6,108.9 336.6,108.9 336.6,97 			"/>
			<polyline class="st7" points="339.7,97.6 339.7,108.9 349.4,108.9 			"/>
			<path class="st7" d="M262.6,70c0,0,21.1-11.9,44.5,1.8v3.1l66.4-2.5v4"/>
			<path class="st7" d="M262.6,74.9c0,0,21.8-10.5,44.5,1.5"/>
			<line class="st7" x1="269" y1="72.7" x2="268.5" y2="91.3"/>
			<line class="st7" x1="271" y1="72.1" x2="270.6" y2="91"/>
			<line class="st7" x1="287.9" y1="70.8" x2="286.9" y2="89.7"/>
			<line class="st7" x1="289.8" y1="71" x2="289.3" y2="89.7"/>
			<path class="st7" d="M237.5,92.3c0,0-19.8-2.8-26.2-0.2"/>
			<path class="st7" d="M211.3,94.2c0,0,23.2-0.4,26.2,1"/>
			<polyline class="st7" points="224.4,104.9 224.4,97 255.9,94.7 			"/>
			<polyline class="st7" points="347.3,91.5 347.3,88.8 354.3,88.8 354.3,93.2 349.4,93.3 			"/>
			<rect x="347.3" y="74.9" class="st7" width="6.9" height="5.2"/>
			<rect x="330.9" y="75.5" class="st7" width="6.9" height="4.6"/>
			<rect x="314.5" y="76.4" class="st7" width="6.2" height="3.9"/>
			<polyline class="st7" points="216.5,94.2 216.5,99.4 220.3,99.4 220.3,94.2 			"/>
			<polyline class="st7" points="215.3,94.2 215.3,99.4 212.9,99.4 212.9,94.2 			"/>
			<line class="st7" x1="273.4" y1="97.8" x2="273.3" y2="111.3"/>
			<line class="st7" x1="255.9" y1="111.3" x2="255.9" y2="107.5"/>
			<line class="st7" x1="230" y1="88.8" x2="262.6" y2="81.6"/>
			<line class="st7" x1="262.6" y1="76.2" x2="262.6" y2="92.1"/>
			<line class="st7" x1="314.8" y1="113.6" x2="313.5" y2="114.3"/>
			<polyline class="st7" points="229,88.3 237.5,92.3 237.5,96.2 			"/>
		</g>
		<line class="st7" x1="211.3" y1="103.2" x2="21.4" y2="102.3"/>
	</g>
</g>
</svg>
