<?xml version="1.0" encoding="UTF-8"?>
<svg width="846px" height="200px" viewBox="0 0 846 200" version="1.1" xmlns="http://www.w3.org/2000/svg" xmlns:xlink="http://www.w3.org/1999/xlink">
    <!-- Generator: Sketch 43 (38999) - http://www.bohemiancoding.com/sketch -->
    <title>iPad Portrait</title>
    <desc>Created with Sketch.</desc>
    <defs></defs>
    <g id="Page-1" stroke="none" stroke-width="1" fill="none" fill-rule="evenodd">
        <g id="iPad-Portrait" stroke-width="0.5" stroke="#FFFFFF">
            <g id="MessiahCollege2017" transform="translate(-283.000000, 5.000000)">
                <g id="Layer_3">
                    <g id="Group">
                        <g transform="translate(653.956543, 0.000000)">
                            <polyline id="Shape" points="0.00391707352 114.120088 0.750958952 86.3012904 9.41664474 86.3012904 17.9329221 0.00319397731 28.0926917 86.3012904 37.9536445 87.3482344 37.9536445 91.8351371 82.1785237 91.08732 101.452204 109.633185 105.934455 131.768572 105.934455 145.67797"></polyline>
                            <rect id="Rectangle-path" x="16.28943" y="94.6768422" width="7.17160203" height="10.7685666"></rect>
                            <polyline id="Shape" points="13.0024458 116.064412 27.6444666 116.064412 27.6444666 143.883209"></polyline>
                            <polygon id="Shape" points="44.8264298 110.979256 54.5379742 111.577509 54.5379742 132.366825 44.8264298 132.366825"></polygon>
                            <polygon id="Shape" points="62.7554348 110.979256 72.4669792 110.979256 72.4669792 130.123374 62.7554348 130.572064"></polygon>
                            <polygon id="Shape" points="79.1903561 110.979256 88.9019006 111.876636 88.9019006 129.674684 79.1903561 129.674684"></polygon>
                        </g>
                        <g transform="translate(545.041498, 91.685574)" id="Shape">
                            <polyline points="120.572816 21.8362601 126.399742 29.3144314 126.399742 56.3854113"></polyline>
                            <path d="M120.572816,63.4148923 L120.572816,21.8362601 L91.4381826,23.1823309 L83.8183554,19.2936819 L83.9677638,10.1703129 L78.887879,9.4224958 L78.7384707,8.22598839 L44.0757275,0.598253701 L40.6393349,4.03821248 L23.3079633,1.49563425 L21.3656544,5.08515646 L17.0328115,4.48690276 C17.0328115,4.48690276 2.24138235,11.0676935 1.79315722,15.5545962 L0.000256715422,45.6168447 C0.000256715422,45.6168447 12.2517435,47.7107327 18.5268953,46.6637887 L21.6644712,48.7576767 L26.5949476,49.3559304 L26.5949476,50.2533109 L41.5357851,52.4967623 L52.2931882,51.8985086"></path>
                            <path d="M91.4381826,23.1823309 C49.6038374,25.4257823 34.3641831,30.5109388 34.3641831,30.5109388 L33.915958,47.5611693 L30.9277905,47.5611693 L30.9277905,48.0098595 L30.1807486,48.0098595 L30.1807486,48.6081132 L28.6866648,48.6081132 L28.6866648,49.0568035 L26.5949476,49.0568035"></path>
                            <path d="M78.7384707,9.4224958 L78.7384707,17.1997939"></path>
                            <polyline points="43.7769108 0.598253701 43.6275024 6.87991757 43.0298689 28.4170508"></polyline>
                            <polyline points="78.7384707 13.3111449 43.6275024 6.87991757 38.8464344 10.6190032"></polyline>
                            <polyline points="38.8464344 15.2554694 43.478094 12.2642009 71.8656854 16.9006671"></polyline>
                            <polyline points="71.8656854 24.5284018 71.8656854 15.8537231 73.6585859 15.2554694 83.6689471 19.2936819"></polyline>
                            <polyline points="38.8464344 24.3788383 43.1792773 22.1353869 66.6363922 24.977092"></polyline>
                            <polyline points="38.697026 29.3144314 38.8464344 5.83297359 40.3405181 4.03821248"></polyline>
                            <path d="M23.3079633,1.49563425 L21.8138796,48.7576767"></path>
                            <polyline points="21.3656544 5.08515646 20.3197958 7.17904442 18.825712 47.112479"></polyline>
                            <polygon points="21.8138796 10.1703129 23.0091466 8.97380552 27.6408062 9.4224958 26.5949476 40.8308151 21.8138796 40.8308151 20.9174293 40.8308151"></polygon>
                            <polyline points="52.1437798 51.8985086 52.1437798 49.0568035 42.5816438 49.5054938 42.5816438 49.9541841 41.8346019 50.1037475 41.8346019 51.001128 40.7887433 51.3002549 40.7887433 52.1976354"></polyline>
                            <path d="M16.8834032,4.48690276 L15.0905027,46.9629156"></path>
                            <path d="M33.7665496,47.4116058 L52.1437798,48.7576767"></path>
                            <polyline points="38.697026 47.7107327 38.8464344 35.7456587 50.5002877 34.6987147 50.5002877 48.6081132"></polyline>
                            <polyline points="42.282827 47.8602961 42.282827 39.036054 46.7650783 38.7369272 46.7650783 48.4585498"></polyline>
                            <path d="M73.6585859,15.2554694 L73.8079943,24.3788383"></path>
                            <polygon points="57.2236646 34.6987147 62.7517745 34.5491513 62.7517745 47.8602961 57.2236646 47.5611693"></polygon>
                            <polygon points="68.7281095 34.2500244 75.302078 34.100461 75.302078 48.159423 68.7281095 48.159423"></polygon>
                            <polygon points="83.6689471 33.8013341 91.4381826 33.6517707 91.4381826 48.6081132 83.6689471 48.3089864"></polygon>
                            <polygon points="100.402685 33.5022073 108.918963 33.053517 108.769554 49.0568035 100.402685 48.7576767"></polygon>
                            <polygon points="10.458843 14.3580888 14.1940524 12.7128912 13.8952356 18.0971745 10.3094346 19.4432453"></polygon>
                            <polygon points="3.73546611 17.3493573 6.57422524 16.0032865 6.42481687 20.9388795 3.58605773 22.1353869"></polygon>
                            <polygon points="10.0106179 26.024036 13.5964189 24.8275286 13.4470105 30.5109388 9.71180113 31.4083193"></polygon>
                            <polygon points="3.1378326 28.4170508 6.12600012 27.5196703 5.82718336 32.6048267 2.83901585 33.2030804"></polygon>
                            <polygon points="9.56239275 37.3908563 13.1481938 36.9421661 12.849377 42.6255762 9.263576 42.6255762"></polygon>
                            <polygon points="2.68960748 38.2882369 5.52836661 37.98911 5.22954986 42.6255762 2.39079073 42.7751396"></polygon>
                        </g>
                        <g transform="translate(739.571459, 81.216134)" id="Shape">
                            <path d="M78.4393972,73.5852053 C78.4393972,75.9782201 61.4068424,77.9225446 38.0991358,77.9225446 C14.7914292,77.9225446 0.298816751,75.9782201 0.298816751,73.5852053 C0.298816751,71.1921905 14.3432041,70.4443733 37.6509107,70.4443733 C60.9586173,70.4443733 78.4393972,71.1921905 78.4393972,73.5852053 Z"></path>
                            <path d="M1.49408376,64.3122729 C1.49408376,64.3122729 305.988353,65.5087803 66.7855439,83.4563913 L67.233769,81.6616302 C257.430631,64.7609632 1.49408376,64.3122729 1.49408376,64.3122729 Z"></path>
                            <polyline points="177.945375 62.8166386 139.099198 62.5175118 139.398014 26.9214166 72.4630622 26.9214166 72.9112873 62.0688215 39.2944028 63.7140192 30.0310835 64.3122729 30.0310835 9.12336895 115.044449 0.149563425 188.254553 10.4694398 198.115506 10.1703129 208.872909 13.1615814 226.054872 13.4607083 234.57115 14.2085254 234.57115 22.5840772 387.565326 25.4257823 387.864143 55.0393405 650.972293 55.0393405"></polyline>
                            <path d="M177.945375,62.8166386 L177.795967,22.4345138"></path>
                            <polyline points="39.2944028 63.7140192 39.2944028 20.3406258 177.795967 22.4345138 183.772302 22.4345138 183.772302 62.5175118"></polyline>
                            <polyline points="75.6006381 61.4705678 75.6006381 30.0622485 84.8639573 30.0622485 84.8639573 61.4705678 89.0473919 61.4705678 89.0473919 30.0622485 98.0118944 30.0622485 98.0118944 61.4705678 101.597695 61.4705678 101.597695 30.0622485 111.458648 30.0622485 111.458648 61.4705678 114.297407 61.4705678 114.297407 30.0622485 123.710135 30.0622485 123.710135 61.4705678 126.698303 61.4705678 126.698303 30.0622485 136.409847 30.0622485 136.409847 61.4705678 139.099198 62.5175118"></polyline>
                            <path d="M198.414323,62.0688215 L198.115506,10.1703129"></path>
                            <path d="M208.574092,22.4345138 L208.872909,13.1615814"></path>
                            <polyline points="198.115506 22.4345138 225.756056 22.4345138 226.054872 13.4607083"></polyline>
                            <polyline points="216.343328 61.3210044 216.343328 30.0622485 224.560789 30.2118119 380.393724 32.1561364 380.393724 51.5993817 343.340447 51.5993817 343.340447 55.0393405 306.28717 55.0393405 306.28717 58.030609"></polyline>
                            <path d="M224.112563,61.0218775 L224.560789,30.2118119"></path>
                            <path d="M233.077066,61.171441 L233.525291,30.3613753"></path>
                            <path d="M242.041568,60.124497 L242.489794,30.3613753"></path>
                            <path d="M251.603705,60.124497 L252.05193,30.3613753"></path>
                            <path d="M260.418799,59.6758067 L261.016432,30.8100656"></path>
                            <path d="M269.831526,59.3766799 L270.130343,30.8100656"></path>
                            <path d="M278.796029,59.077553 L279.393662,30.959629"></path>
                            <path d="M288.059348,58.7784262 L288.059348,30.8100656"></path>
                            <path d="M297.621484,58.3297359 L298.069709,31.4083193"></path>
                            <path d="M306.28717,55.0393405 L306.585987,31.4083193"></path>
                            <path d="M315.550489,55.0393405 L315.550489,31.4083193"></path>
                            <path d="M325.262034,55.0393405 L325.262034,31.4083193"></path>
                            <path d="M334.525353,55.0393405 L333.628903,31.4083193"></path>
                            <path d="M343.340447,51.5993817 L343.489856,31.4083193"></path>
                            <path d="M352.454358,51.5993817 L352.454358,32.1561364"></path>
                            <path d="M361.418861,51.5993817 L361.418861,32.1561364"></path>
                            <path d="M370.68218,51.5993817 L370.68218,32.1561364"></path>
                        </g>
                        <g transform="translate(283.875914, 56.986936)">
                            <path d="M242.190977,78.6702843 L260.867024,79.5676649" id="Shape"></path>
                            <polyline id="Shape" points="232.479432 88.0927801 232.330024 83.7554408 242.78861 83.7554408 242.78861 26.3230854 248.167312 15.8536457 212.906935 10.6189258 182.875852 10.6189258 141.190915 17.9475336 109.665748 -7.74187902e-05 77.0947218 16.7510262 77.0947218 26.0239586 54.2352403 31.7073688 26.8935076 41.8776817 26.8935076 44.1211331 21.066581 43.6724428 0.448225127 49.6549798 0.448225127 68.7990982"></polyline>
                            <polyline id="Shape" points="67.0843607 78.5207209 86.5074495 78.3711575 120.124334 79.1189746 131.180554 82.1102431 148.362517 82.5589334 153.143585 83.0076236 152.994177 87.0458361 154.637669 88.0927801"></polyline>
                            <polyline id="Shape" points="20.0207223 68.9486617 20.0207223 72.8373107 8.81509416 73.4355644 8.81509416 78.3711575"></polyline>
                            <path d="M20.0207223,72.8373107 L67.0843607,72.8373107 L67.0843607,52.6462483 C67.0843607,52.6462483 83.8180987,45.7663307 131.180554,46.0654576 L131.180554,39.7837937 C131.180554,39.7837937 200.207223,40.6811743 206.781192,51.5993043 L206.781192,80.1659186" id="Shape"></path>
                            <path d="M120.124334,46.215021 L131.180554,39.7837937" id="Shape"></path>
                            <path d="M131.180554,46.215021 C131.180554,46.215021 200.655448,48.7575992 206.781192,56.8340242" id="Shape"></path>
                            <path d="M206.781192,62.2183075 C173.164307,47.4115284 67.0843607,58.3296585 67.0843607,58.3296585 L90.3920672,58.3296585 L120.124334,58.3296585 L131.180554,55.1888265 L131.180554,82.1102431" id="Shape"></path>
                            <path d="M120.124334,58.3296585 L120.124334,79.1189746" id="Shape"></path>
                            <path d="M74.5547794,57.7314048 L74.5547794,78.5207209" id="Shape"></path>
                            <polyline id="Shape" points="141.190915 17.9475336 143.581449 19.4431679 248.167312 15.8536457"></polyline>
                            <path d="M143.581449,24.0796341 L143.581449,39.7837937" id="Shape"></path>
                            <path d="M147.914292,54.4410094 L147.16725,82.5589334" id="Shape"></path>
                            <polyline id="Shape" points="232.330024 83.7554408 232.330024 80.1659186 155.085894 81.9606797 154.637669 88.0927801"></polyline>
                            <polyline id="Shape" points="147.316658 74.9311987 187.65692 74.9311987 187.65692 57.1331511"></polyline>
                            <polyline id="Shape" points="192.288579 58.0305316 192.288579 74.9311987 206.781192 74.9311987"></polyline>
                            <path d="M77.0947218,16.7510262 C77.0947218,16.7510262 108.619889,-1.0470214 143.581449,19.4431679 L143.581449,24.0796341 L242.78861,20.3405484 L242.78861,26.3230854" id="Shape"></path>
                            <path d="M77.0947218,24.0796341 C77.0947218,24.0796341 109.665748,8.3754744 143.581449,26.3230854" id="Shape"></path>
                            <path d="M86.6568579,20.7892387 L85.909816,48.6080358" id="Shape"></path>
                            <path d="M89.6450254,19.8918582 L89.0473919,48.1593455" id="Shape"></path>
                            <path d="M114.895041,17.9475336 L113.400957,46.215021" id="Shape"></path>
                            <path d="M117.7338,18.2466605 L116.986758,46.215021" id="Shape"></path>
                            <path d="M39.5932195,50.1036701 C39.5932195,50.1036701 10.0103612,45.9158942 0.448225127,49.8045432" id="Shape"></path>
                            <path d="M0.448225127,52.9453751 C0.448225127,52.9453751 35.1109683,52.3471214 39.5932195,54.4410094" id="Shape"></path>
                            <polyline id="Shape" points="20.0207223 68.9486617 20.0207223 57.1331511 67.0843607 53.6931923"></polyline>
                            <polyline id="Shape" points="203.643616 48.9071627 203.643616 44.8689502 214.102202 44.8689502 214.102202 51.4497409 206.781192 51.5993043"></polyline>
                            <rect id="Rectangle-path" x="203.643616" y="24.0796341" width="10.3091779" height="7.77729812"></rect>
                            <rect id="Rectangle-path" x="179.140642" y="24.9770146" width="10.3091779" height="6.87991757"></rect>
                            <rect id="Rectangle-path" x="154.637669" y="26.3230854" width="9.26331929" height="5.83297359"></rect>
                            <polyline id="Shape" points="8.21746066 52.9453751 8.21746066 60.7226733 13.8949789 60.7226733 13.8949789 52.9453751"></polyline>
                            <polyline id="Shape" points="6.42456015 52.9453751 6.42456015 60.7226733 2.83875914 60.7226733 2.83875914 52.9453751"></polyline>
                            <path d="M93.2308264,58.3296585 L93.081418,78.5207209" id="Shape"></path>
                            <path d="M67.0843607,78.5207209 L67.0843607,72.8373107" id="Shape"></path>
                            <path d="M28.3875914,44.8689502 L77.0947218,34.1003836" id="Shape"></path>
                            <path d="M77.0947218,26.0239586 L77.0947218,49.8045432" id="Shape"></path>
                            <path d="M155.085894,81.9606797 L153.143585,83.0076236" id="Shape"></path>
                            <polyline id="Shape" points="26.8935076 44.1211331 39.5932195 50.1036701 39.5932195 55.9366437"></polyline>
                        </g>
                        <path d="M284.324139,123.39302 L0.597633502,122.046949" id="Shape"></path>
                    </g>
                </g>
            </g>
        </g>
    </g>
</svg>