<?xml version="1.0" encoding="UTF-8"?>
<svg width="38px" height="38px" viewBox="0 0 38 38" version="1.1" xmlns="http://www.w3.org/2000/svg" xmlns:xlink="http://www.w3.org/1999/xlink">
    <!-- Generator: Sketch 44.1 (41455) - http://www.bohemiancoding.com/sketch -->
    <title>iconmonstr-info-7</title>
    <desc>Created with Sketch.</desc>
    <defs></defs>
    <g id="Career-Outcomes" stroke="none" stroke-width="1" fill="none" fill-rule="evenodd">
        <g id="Final---closed" transform="translate(-1267.000000, -3546.000000)" fill-rule="nonzero" fill="#273D5E">
            <g id="iconmonstr-info-7" transform="translate(1267.000000, 3546.000000)">
                <path d="M19,0 C8.50725,0 0,8.50725 0,19 C0,29.49275 8.50725,38 19,38 C29.49275,38 38,29.49275 38,19 C38,8.50725 29.49275,0 19,0 Z M15.7810833,25.3491667 C16.6740833,22.5165833 18.3650833,19.1235 18.6643333,18.2653333 C19.0965833,17.01925 18.33025,16.4666667 15.9093333,18.59625 L15.371,17.5829167 C18.1323333,14.5793333 23.8180833,13.9000833 21.88325,18.5535 C20.6751667,21.4589167 19.8106667,23.4206667 19.3166667,24.9343333 C18.59625,27.1399167 20.4155,26.2453333 22.19675,24.60025 C22.439,24.9960833 22.5181667,25.1243333 22.7604167,25.5803333 C18.80525,29.3455 14.4146667,29.678 15.7810833,25.3491667 L15.7810833,25.3491667 Z M23.28925,12.4149167 C22.4469167,13.1321667 21.19925,13.1163333 20.501,12.3800833 C19.80275,11.6438333 19.9199167,10.4674167 20.7606667,9.75016667 C21.603,9.03291667 22.8506667,9.05033333 23.5489167,9.785 C24.244,10.5228333 24.13,11.69925 23.28925,12.4149167 Z" id="Shape"></path>
            </g>
        </g>
    </g>
</svg>