<svg id="Layer_1" data-name="Layer 1" xmlns="http://www.w3.org/2000/svg" xmlns:xlink="http://www.w3.org/1999/xlink" viewBox="0 0 500 250"><defs><style>.cls-1{fill:none;}.cls-2{clip-path:url(#clip-path);}.cls-3{font-size:158.15px;}.cls-3,.cls-8{fill:#74accf;}.cls-3,.cls-5,.cls-6{font-family:PrioriSansOT-Bold, Priori Sans OT;font-weight:700;}.cls-4,.cls-5{font-size:53px;}.cls-10,.cls-4,.cls-5,.cls-6,.cls-7{fill:#293d5e;}.cls-4,.cls-7{font-family:PrioriSansOT-Regular, Priori Sans OT;}.cls-6,.cls-7{font-size:49.51px;}.cls-9{fill:#f1f7fa;}.cls-11{fill:#eaecef;}</style><clipPath id="clip-path"><rect class="cls-1" width="500" height="250"/></clipPath></defs><title>PCG Infographics 18</title><g class="cls-2"><text class="cls-3" transform="translate(14.84 109.37)">79%</text></g><text class="cls-4" transform="translate(282.26 56.69)">of </text><text class="cls-5" transform="translate(328.37 56.69)">Messiah </text><text class="cls-5" transform="translate(282.26 109.37)">employees</text><text class="cls-4" transform="translate(481.6 109.37)"> </text><text class="cls-6" transform="translate(18 162.04)">volunteer or serve</text><text class="cls-7" transform="translate(329.39 162.04)"> </text><text class="cls-7" transform="translate(338.29 162.04)"> </text><text class="cls-7" transform="translate(18 214.72)">in their communities.</text><g class="cls-2"><path class="cls-8" d="M437.72,225.14,432,230.88a4.14,4.14,0,0,0,4.57-.77,4.35,4.35,0,0,0,1.15-5m-16.93,1c.13,2.52.94,4,2.71,4.81a4.33,4.33,0,0,0,5.13-.92c2.53-2.44,5-4.94,7.47-7.46a4.58,4.58,0,1,0-6.48-6.46c-2.49,2.42-5,4.84-7.34,7.39a11.14,11.14,0,0,0-1.5,2.65M400,205.43a8.59,8.59,0,0,0,2.54-1.29c2.85-2.67,5.61-5.44,8.3-8.27a4.55,4.55,0,0,0-6.42-6.43q-4.3,4.08-8.38,8.39a4.19,4.19,0,0,0-.72,4.91c.79,1.7,2.18,2.57,4.69,2.69m17.34,17.32a7.83,7.83,0,0,0,2.46-1.22q5.31-5.07,10.39-10.36A4.49,4.49,0,0,0,430,205a4.39,4.39,0,0,0-6.22-.33q-5.36,5.11-10.48,10.48a4.21,4.21,0,0,0-.68,4.93c.79,1.7,2.19,2.57,4.67,2.64m-13.83-13.93c.12,2.59,1,4,2.75,4.85a4.45,4.45,0,0,0,5.24-1.09q5.27-5.21,10.48-10.49a4.52,4.52,0,0,0,.12-6.67,4.56,4.56,0,0,0-6.57.17c-3.52,3.47-7,6.94-10.46,10.51a11.07,11.07,0,0,0-1.56,2.71M463,194.18c3.3-3.19,6.46-5.85,9.15-8.93a27.34,27.34,0,0,0,6.36-25.44c-2.56-10.75-9.33-18-19.94-21.11-10.91-3.19-20.63-.51-28.74,7.45s-16,16-24,24c-2.55,2.56-2.49,5,.16,7.62s5,2.57,7.52.07l15-14.95c1.73-1.74,1.93-1.74,3.64,0q15,15,30,30a7.06,7.06,0,0,1,.88,1.35M433,212c5.58,1.06,7.39,3.59,6.82,9.51a1.35,1.35,0,0,0,.31.88,4.7,4.7,0,0,0,5.07,1.37,4.6,4.6,0,0,0,3-4.27,5,5,0,0,0-1.73-3.74q-9-9-17.94-18c-1.19-1.19-1.18-1.94,0-3.12s1.62.15,2.16.69q9,9.12,18,18.32a4.7,4.7,0,0,0,4.76,1.58c3.59-.92,4.62-5.15,1.89-7.9q-8.85-8.91-17.75-17.77c-.31-.31-.82-.6-.87-1-.1-.64-.15-1.55.21-1.91s1.26-.26,1.91-.18c.31,0,.57.5.85.78q8.15,8.15,16.3,16.31a4.72,4.72,0,0,0,4.2,1.62,4.34,4.34,0,0,0,3.73-3.12,4.62,4.62,0,0,0-1.37-4.94Q446.77,181.43,431,165.68c-.26-.26-.57-.47-1-.85-.4.49-.7.94-1.08,1.32q-6.79,6.81-13.6,13.61a7.8,7.8,0,0,1-4.42,2.4c-3.86.59-6.95-1.92-8.75-5.2-1.57-2.87-.8-6.05,1.82-8.67q10.95-11,21.92-21.91a9.71,9.71,0,0,1,1.26-.92,5,5,0,0,0-.45-.64c-.36-.33-.73-.65-1.11-1a27.67,27.67,0,0,0-21.46-6c-11.07,1.51-19.05,7.54-23.18,17.93s-2.54,20.46,4.68,29.16c2.88,3.47,6.54,6.3,10.07,9.64a5.32,5.32,0,0,1,.7-1c2-2,4-4.08,6-6a7.17,7.17,0,0,1,11.83,3.17c.18.6.27,1.22.43,1.92,2.94-1.64,5.79-1.8,8.48.2s3.33,4.77,2.69,7.93c6.57.09,9.72,5.71,7.13,11.11m26.1-4c1.68,5.8-2.17,10.55-8.27,10,.23,2.71-.38,5.15-2.55,7s-4.68,2-7.39,1.22c-.08.56-.15,1-.23,1.5a7.21,7.21,0,0,1-10.2,5.57,2.17,2.17,0,0,0-1.57-.06c-5.46,2.5-10.77-1-10.65-7,0-.24,0-.48,0-.87a7.76,7.76,0,0,1-6.61-2.09,7.54,7.54,0,0,1-2-6.63c-5.74.42-8.31-2.08-8.87-8.54a20,20,0,0,1-2.88-.2,7.13,7.13,0,0,1-5-10,1.48,1.48,0,0,0-.39-2c-3-3-6.15-5.8-8.81-9-7.75-9.42-9.69-20.12-5.36-31.5s12.74-18,24.69-19.88c9.76-1.54,18.39,1.27,25.94,7.84.5-.41,1-.84,1.53-1.25,9.47-7.41,20-9.31,31.2-5s18,12.71,19.87,24.56c1.63,10.07-1.28,19-8.28,26.47-2.57,2.75-5.36,5.3-8.1,8,1.73,2.59,2.17,5.24.77,8s-3.79,3.83-6.86,4"/><path class="cls-9" d="M433,212c2.59-5.39-.57-11-7.13-11.11.65-3.16,0-5.95-2.69-7.93s-5.54-1.85-8.48-.21c-.16-.71-.25-1.33-.43-1.92a7.17,7.17,0,0,0-11.83-3.17c-2.09,1.92-4,4-6,6a5.32,5.32,0,0,0-.7,1c-3.53-3.33-7.18-6.17-10.07-9.64-7.22-8.7-8.85-18.67-4.68-29.16s12.11-16.42,23.18-17.93a27.67,27.67,0,0,1,21.46,6c.38.3.75.63,1.11,1a5.07,5.07,0,0,1,.45.64,9.55,9.55,0,0,0-1.26.92q-11,10.94-21.92,21.91c-2.61,2.62-3.39,5.81-1.81,8.67,1.8,3.28,4.89,5.79,8.75,5.2a7.8,7.8,0,0,0,4.42-2.4l13.6-13.61c.38-.38.68-.83,1.08-1.32.47.38.78.59,1,.85q15.74,15.73,31.48,31.46a4.63,4.63,0,0,1,1.36,4.94,4.34,4.34,0,0,1-3.73,3.12,4.73,4.73,0,0,1-4.2-1.62q-8.14-8.17-16.3-16.31c-.28-.28-.54-.74-.85-.78-.64-.08-1.55-.17-1.91.18s-.3,1.27-.21,1.91c.05.35.56.64.87,1q8.88,8.88,17.75,17.77c2.72,2.74,1.69,7-1.89,7.9a4.7,4.7,0,0,1-4.76-1.58q-9-9.19-18-18.32c-.54-.54-1-1.9-2.16-.69s-1.14,1.92,0,3.12q9,9,17.94,18a5,5,0,0,1,1.73,3.74,4.6,4.6,0,0,1-3,4.27,4.7,4.7,0,0,1-5.07-1.37,1.35,1.35,0,0,1-.31-.88c.57-5.92-1.24-8.45-6.82-9.51"/><path class="cls-10" d="M463,194.18a7.07,7.07,0,0,0-.88-1.35q-15-15-30-30c-1.7-1.7-1.9-1.7-3.64,0l-15,14.95c-2.5,2.5-5,2.46-7.52-.07s-2.71-5.06-.16-7.62c8-8,15.92-16.05,24-24s17.83-10.64,28.74-7.45c10.61,3.1,17.38,10.36,19.94,21.11a27.35,27.35,0,0,1-6.36,25.44c-2.69,3.07-5.85,5.73-9.15,8.93"/><path class="cls-10" d="M403.47,208.82a11,11,0,0,1,1.56-2.71c3.41-3.57,6.94-7,10.46-10.51a4.58,4.58,0,1,1,6.45,6.5q-5.21,5.27-10.48,10.49a4.45,4.45,0,0,1-5.24,1.09c-1.77-.82-2.63-2.26-2.75-4.85"/><path class="cls-10" d="M417.3,222.75c-2.48-.07-3.88-.94-4.67-2.64a4.21,4.21,0,0,1,.68-4.93q5.13-5.35,10.48-10.47A4.4,4.4,0,0,1,430,205a4.48,4.48,0,0,1,.14,6.14q-5.09,5.28-10.39,10.36a7.81,7.81,0,0,1-2.46,1.22"/><path class="cls-10" d="M400,205.43c-2.52-.11-3.9-1-4.69-2.69a4.19,4.19,0,0,1,.72-4.91q4.07-4.31,8.38-8.39a4.55,4.55,0,0,1,6.42,6.43c-2.69,2.83-5.45,5.6-8.3,8.27a8.59,8.59,0,0,1-2.54,1.29"/><path class="cls-10" d="M420.79,226.16a11.16,11.16,0,0,1,1.5-2.65c2.36-2.54,4.85-5,7.34-7.39a4.58,4.58,0,1,1,6.48,6.46c-2.46,2.52-4.94,5-7.47,7.46a4.33,4.33,0,0,1-5.13.92c-1.77-.82-2.59-2.29-2.71-4.81"/><path class="cls-11" d="M437.72,225.14a4.35,4.35,0,0,1-1.16,5,4.14,4.14,0,0,1-4.57.77l5.72-5.75"/></g></svg>