<?xml version="1.0" encoding="UTF-8"?>
<svg width="245px" height="102px" viewBox="0 0 245 102" version="1.1" xmlns="http://www.w3.org/2000/svg" xmlns:xlink="http://www.w3.org/1999/xlink">
    <!-- Generator: Sketch 41.2 (35397) - http://www.bohemiancoding.com/sketch -->
    <title>new-vector</title>
    <desc>Created with Sketch.</desc>
    <defs/>
    <g id="main-website-logo" stroke="none" stroke-width="1" fill="none" fill-rule="evenodd">
        <g id="new-vector">
            <g id="MC-site-logo">
                <polygon id="Fill-1" fill="#273D5E" points="0 105 245 105 245 0 0 0"/>
                <path d="M96.15,37.766 C95.768,38.787 95.596,39.164 95.127,39.164 C94.699,39.164 94.445,38.829 94.145,38.109 L85.699,17.567 L85.614,17.567 C85.315,22.309 85.018,27.176 85.018,31.577 C85.018,38.279 85.401,38.494 87.534,38.536 C88.516,38.536 89.198,38.578 89.198,39.164 C89.198,39.793 88.429,39.793 87.96,39.793 C87.363,39.793 85.954,39.636 84.147,39.636 C82.651,39.636 80.988,39.793 80.306,39.793 C80.007,39.793 79.581,39.708 79.581,39.248 C79.581,38.747 80.007,38.663 81.202,38.494 C82.611,38.279 83.25,38.023 83.336,35.033 C83.336,34.736 84.233,22.137 84.233,16.5 C84.233,14.406 84.147,14.406 82.227,14.363 C80.775,14.323 80.519,14.068 80.519,13.597 C80.519,13.255 80.818,13.04 81.459,13.042 C81.927,13.042 84.274,13.188 85.401,13.188 C86.936,13.188 87.834,13.042 88.344,13.04 C88.771,13.04 89.112,13.04 89.539,14.068 L96.746,31.875 L103.529,14.535 C104.085,13.126 104.555,13.04 105.236,13.042 C106.17,13.042 107.827,13.188 108.766,13.188 C109.703,13.188 110.855,13.042 111.324,13.04 C111.794,13.04 112.392,13.04 112.392,13.597 C112.392,14.151 112.007,14.151 110.812,14.236 C108.807,14.363 108.721,14.92 108.807,17.184 L109.404,35.333 C109.447,37.981 109.531,38.578 111.408,38.578 C112.306,38.578 112.733,38.747 112.733,39.205 C112.733,39.793 112.049,39.793 111.622,39.793 C110.982,39.793 108.721,39.636 107.149,39.636 C105.022,39.636 102.719,39.793 101.867,39.793 C101.569,39.793 101.098,39.749 101.098,39.248 C101.098,38.663 101.481,38.62 102.762,38.536 C104.724,38.366 104.767,37.296 104.724,35.289 L104.383,16.842 L104.297,16.842 L96.15,37.766" id="Fill-2" fill="#FFFFFF"/>
                <path d="M116.07,20.024 C116.07,18.479 116.07,17.46 114.188,17.346 C113.359,17.308 112.832,17.273 112.832,16.707 C112.832,16.179 113.321,16.179 113.585,16.179 C113.66,16.179 113.698,16.216 114.526,16.26 C115.357,16.296 116.976,16.334 120.181,16.334 L121.987,16.334 C125.864,16.334 127.788,16.296 128.808,16.254 C129.782,16.216 129.823,16.179 129.931,16.179 C130.387,16.179 130.387,16.479 130.387,17.346 L130.387,20.817 C130.387,21.006 130.387,21.457 130.007,21.457 C129.594,21.457 129.519,21.305 128.842,19.914 C128.391,18.935 127.488,17.506 122.139,17.506 C120.255,17.506 120.103,17.767 120.103,19.649 L120.103,25.109 C120.103,26.315 120.103,26.613 122.29,26.613 C126.469,26.613 126.808,25.786 127.488,23.791 C127.674,23.302 127.862,23.227 128.05,23.227 C128.277,23.227 128.465,23.339 128.465,23.754 C128.465,24.279 128.203,28.16 128.203,28.986 C128.203,29.25 128.315,30.565 128.315,30.867 C128.315,31.092 128.315,31.618 127.862,31.618 C127.562,31.618 127.337,31.431 127.147,30.715 C126.357,27.821 125.301,27.783 122.213,27.783 C120.405,27.783 120.103,27.783 120.103,28.912 L120.103,35.379 C120.103,38.049 120.896,38.46 124.059,38.46 C125.716,38.46 128.05,38.46 129.707,35.265 C130.387,33.951 130.463,33.798 130.798,33.798 C131.137,33.798 131.253,34.137 131.253,34.364 C131.253,34.853 130.838,37.259 130.724,38.65 C130.687,39.37 130.311,39.787 129.218,39.787 C127.296,39.787 124.663,39.749 122.477,39.708 C120.33,39.673 118.558,39.636 118.333,39.636 L117.88,39.636 C116.337,39.636 115.394,39.673 114.79,39.712 C114.188,39.749 113.887,39.787 113.623,39.787 C113.321,39.787 112.832,39.787 112.832,39.219 C112.832,38.687 113.397,38.65 114.188,38.574 C116.07,38.46 116.07,37.447 116.07,35.903 L116.07,20.024" id="Fill-3" fill="#FFFFFF"/>
                <path d="M138.87,40.026 C135.93,40.026 133.56,39.008 132.881,38.517 C132.465,38.219 132.428,37.69 132.428,36.748 C132.428,36.596 132.428,34.712 132.543,33.357 C132.543,33.205 132.577,32.674 133.031,32.674 C133.37,32.674 133.482,32.977 133.56,33.317 C134.275,36.671 136.837,39.047 139.507,39.047 C141.089,39.047 143.989,37.915 143.989,34.863 C143.989,31.924 141.429,30.49 138.718,29.246 C135.666,27.889 132.691,26.419 132.691,22.423 C132.691,18.952 135.329,15.938 140.108,15.938 C142.295,15.938 144.518,16.54 145.044,16.806 C145.497,17.067 145.497,17.407 145.497,20.724 C145.497,21.556 145.497,21.856 144.969,21.856 C144.592,21.856 144.441,21.631 144.067,20.463 C143.613,18.989 142.935,16.842 139.809,16.842 C136.72,16.842 135.705,18.989 135.705,20.463 C135.705,23.139 137.889,24.081 140.901,25.325 C143.011,26.229 146.968,28.076 146.968,32.336 C146.968,36.52 143.877,40.026 138.87,40.026" id="Fill-4" fill="#FFFFFF"/>
                <path d="M155.438,40.026 C152.503,40.026 150.129,39.008 149.45,38.517 C149.036,38.219 148.997,37.69 148.997,36.748 C148.997,36.596 148.997,34.712 149.113,33.357 C149.113,33.205 149.15,32.674 149.601,32.674 C149.941,32.674 150.053,32.977 150.129,33.317 C150.844,36.671 153.408,39.047 156.08,39.047 C157.661,39.047 160.56,37.915 160.56,34.863 C160.56,31.924 158,30.49 155.289,29.246 C152.237,27.889 149.262,26.419 149.262,22.423 C149.262,18.952 151.898,15.938 156.683,15.938 C158.867,15.938 161.085,16.54 161.612,16.806 C162.068,17.067 162.068,17.407 162.068,20.724 C162.068,21.556 162.068,21.856 161.541,21.856 C161.163,21.856 161.012,21.631 160.636,20.463 C160.184,18.989 159.506,16.842 156.382,16.842 C153.291,16.842 152.276,18.989 152.276,20.463 C152.276,23.139 154.462,24.081 157.471,25.325 C159.582,26.229 163.537,28.076 163.537,32.336 C163.537,36.52 160.448,40.026 155.438,40.026" id="Fill-5" fill="#FFFFFF"/>
                <path d="M171.272,35.908 C171.272,37.488 171.272,38.504 173.153,38.619 C173.983,38.656 174.508,38.694 174.508,39.261 C174.508,39.787 174.02,39.787 173.717,39.787 C172.926,39.787 171.684,39.638 169.198,39.638 C167.051,39.638 165.167,39.787 164.789,39.787 C164.489,39.787 163.999,39.787 163.999,39.223 C163.999,38.694 164.562,38.656 165.353,38.619 C167.239,38.467 167.239,37.488 167.239,35.944 L167.239,20.056 C167.239,18.473 167.239,17.492 165.353,17.342 C164.524,17.304 163.999,17.268 163.999,16.703 C163.999,16.174 164.489,16.174 164.789,16.174 C165.582,16.174 166.934,16.332 169.237,16.332 C171.948,16.332 173.153,16.174 173.717,16.174 C174.02,16.174 174.508,16.174 174.508,16.74 C174.508,17.268 173.942,17.304 173.153,17.342 C171.272,17.492 171.272,18.473 171.272,19.941 L171.272,35.908" id="Fill-6" fill="#FFFFFF"/>
                <path d="M185.348,31 C186.365,31 186.478,31 186.893,32.132 L188.511,36.66 C188.588,36.81 188.776,37.377 188.776,37.755 C188.776,38.32 188.435,38.509 187.456,38.584 C186.705,38.66 186.102,38.773 186.102,39.263 C186.102,39.793 186.59,39.793 186.966,39.793 C187.081,39.793 189.038,39.636 191.336,39.636 C191.974,39.636 195.103,39.793 195.743,39.793 C195.97,39.793 196.609,39.793 196.609,39.301 C196.609,38.81 196.194,38.737 195.555,38.66 C194.008,38.434 193.634,37.604 192.427,34.697 L186.553,20.4 C186.251,19.687 185.836,18.635 185.458,17.585 C184.897,16.045 184.782,15.782 184.369,15.782 C183.991,15.782 183.991,15.821 182.6,19.461 C180.114,25.957 176.8,34.774 175.593,37.113 C174.88,38.434 174.541,38.47 173.296,38.584 C172.696,38.66 172.169,38.737 172.169,39.225 C172.169,39.793 172.657,39.793 172.882,39.793 C173.372,39.793 175.593,39.636 176.007,39.636 C177.1,39.636 179.323,39.793 179.697,39.793 C180.563,39.793 181.017,39.793 181.017,39.263 C181.017,38.81 180.563,38.698 179.587,38.66 C178.721,38.623 177.779,38.547 177.779,37.604 C177.779,37.152 178.116,36.133 178.116,36.019 L179.397,31.979 C179.697,31 179.697,31 180.829,31 L185.348,31 Z M181.207,29.634 C180.526,29.634 180.302,29.634 180.302,29.26 C180.302,28.996 180.412,28.621 180.453,28.545 L182.786,22.202 L185.426,28.659 C185.536,28.882 185.65,29.182 185.65,29.37 C185.65,29.484 185.65,29.634 184.782,29.634 L181.207,29.634 L181.207,29.634 Z" id="Fill-7" fill="#FFFFFF"/>
                <path d="M201.89,25.327 C201.89,26.458 201.89,26.458 203.092,26.458 L211.215,26.458 C212.455,26.458 212.567,26.458 212.567,25.289 L212.567,20.021 C212.567,18.477 212.567,17.46 210.722,17.346 C209.895,17.271 209.37,17.233 209.37,16.707 C209.37,16.179 209.895,16.179 210.238,16.179 C211.441,16.179 212.602,16.327 214.565,16.327 C216.375,16.327 217.656,16.179 219.013,16.179 C219.313,16.179 219.803,16.179 219.803,16.707 C219.803,17.233 219.24,17.271 218.486,17.346 C216.6,17.46 216.6,18.439 216.6,19.979 L216.6,35.91 C216.6,37.49 216.6,38.504 218.486,38.619 C219.274,38.656 219.803,38.694 219.803,39.261 C219.803,39.787 219.313,39.787 219.013,39.787 C218.367,39.787 217.205,39.638 214.602,39.638 C212.338,39.638 210.649,39.787 210.16,39.787 C209.86,39.787 209.37,39.787 209.37,39.223 C209.37,38.694 209.934,38.656 210.722,38.619 C212.567,38.467 212.567,37.49 212.567,35.983 L212.567,28.685 C212.567,27.745 212.377,27.745 211.325,27.745 L203.318,27.745 C202.003,27.745 201.89,27.745 201.89,28.609 L201.89,35.91 C201.89,37.49 201.89,38.504 203.731,38.619 C204.558,38.656 205.083,38.694 205.083,39.261 C205.083,39.787 204.597,39.787 204.295,39.787 C203.731,39.787 202.718,39.638 199.892,39.638 C197.594,39.638 196.162,39.787 195.447,39.787 C195.144,39.787 194.65,39.787 194.65,39.223 C194.65,38.694 195.181,38.656 195.974,38.619 C197.859,38.467 197.859,37.49 197.859,35.983 L197.859,20.021 C197.859,18.477 197.859,17.46 195.974,17.346 C195.181,17.271 194.65,17.233 194.65,16.707 C194.65,16.179 195.071,16.179 195.522,16.179 C196.65,16.179 198.043,16.327 199.892,16.327 C201.774,16.327 203.206,16.179 204.295,16.179 C204.597,16.179 205.083,16.179 205.083,16.707 C205.083,17.233 204.522,17.271 203.731,17.346 C201.89,17.46 201.89,18.439 201.89,19.979 L201.89,25.327" id="Fill-8" fill="#FFFFFF"/>
                <path d="M99.237,49.05 C99.237,49.427 99.237,49.689 98.783,49.689 C98.521,49.689 98.295,49.612 97.879,49.012 C96.525,46.976 95.131,45.204 91.666,45.204 C85.488,45.204 82.626,51.234 82.626,56.06 C82.626,61.336 85.715,67.368 91.403,67.368 C94.868,67.368 96.525,65.258 98.105,62.355 C98.182,62.205 98.483,61.64 98.858,61.64 C99.423,61.64 99.423,61.977 99.423,62.243 L99.123,65.447 C99.085,65.974 99.01,66.314 98.217,66.766 C97.617,67.145 95.092,68.312 91.289,68.312 C81.759,68.312 77.573,60.998 77.573,56.209 C77.573,50.969 82.099,44.225 91.929,44.225 C93.662,44.225 94.302,44.339 96.864,44.752 C98.557,45.052 98.745,45.391 98.896,46.409 L99.237,49.05" id="Fill-9" fill="#FFFFFF"/>
                <path d="M125.339,55.87 C125.339,49.388 119.659,44.225 112.619,44.225 C105.319,44.225 99.64,49.427 99.64,56.209 C99.64,63.41 105.922,68.312 112.508,68.312 C118.904,68.312 125.339,63.184 125.339,55.87 Z M120.825,56.021 C120.825,61.487 118.077,67.331 112.809,67.331 C107.726,67.331 104.152,61.526 104.152,55.42 C104.152,50.066 106.897,45.204 112.168,45.204 C118.15,45.204 120.825,51.537 120.825,56.021 L120.825,56.021 Z" id="Fill-10" fill="#FFFFFF"/>
                <path d="M127.737,48.304 C127.737,46.759 127.737,45.745 125.818,45.633 C125.029,45.593 124.501,45.555 124.501,44.989 C124.501,44.46 124.991,44.46 125.291,44.46 C125.933,44.46 127.927,44.61 129.888,44.61 C132.262,44.61 133.578,44.46 134.295,44.46 C134.598,44.46 135.088,44.46 135.088,44.989 C135.088,45.555 134.522,45.593 133.769,45.633 C131.848,45.745 131.774,46.759 131.774,48.193 L131.774,63.211 C131.774,65.583 132.45,66.864 134.786,66.864 C136.594,66.864 139.267,66.487 141.302,62.72 C141.452,62.423 141.603,62.271 141.828,62.271 C142.206,62.271 142.316,62.572 142.316,62.872 C142.316,63.174 141.828,66.524 141.789,67.163 C141.715,67.884 141.527,68.072 140.851,68.072 C140.51,68.072 140.547,67.922 131.999,67.922 C125.629,67.922 125.629,68.072 125.251,68.072 C124.991,68.072 124.501,68.072 124.501,67.542 C124.501,67.012 125.062,66.975 125.818,66.901 C127.737,66.789 127.737,65.77 127.737,64.189 L127.737,48.304" id="Fill-11" fill="#FFFFFF"/>
                <path d="M145.591,48.304 C145.591,46.759 145.591,45.745 143.669,45.633 C142.878,45.593 142.351,45.555 142.351,44.989 C142.351,44.46 142.841,44.46 143.144,44.46 C143.783,44.46 145.778,44.61 147.74,44.61 C150.114,44.61 151.432,44.46 152.147,44.46 C152.447,44.46 152.938,44.46 152.938,44.989 C152.938,45.555 152.374,45.593 151.62,45.633 C149.7,45.745 149.624,46.759 149.624,48.193 L149.624,63.211 C149.624,65.583 150.302,66.864 152.637,66.864 C154.445,66.864 157.12,66.487 159.152,62.72 C159.302,62.423 159.453,62.271 159.68,62.271 C160.056,62.271 160.17,62.572 160.17,62.872 C160.17,63.174 159.68,66.524 159.643,67.163 C159.565,67.884 159.379,68.072 158.699,68.072 C158.362,68.072 158.399,67.922 149.849,67.922 C143.481,67.922 143.481,68.072 143.103,68.072 C142.841,68.072 142.351,68.072 142.351,67.542 C142.351,67.012 142.918,66.975 143.669,66.901 C145.591,66.789 145.591,65.77 145.591,64.189 L145.591,48.304" id="Fill-12" fill="#FFFFFF"/>
                <path d="M162.842,48.307 C162.842,46.764 162.842,45.745 160.961,45.633 C160.131,45.593 159.606,45.555 159.606,44.989 C159.606,44.46 160.094,44.46 160.358,44.46 C160.436,44.46 160.47,44.499 161.3,44.543 C162.129,44.581 163.749,44.618 166.955,44.618 L168.763,44.618 C172.643,44.618 174.561,44.581 175.576,44.539 C176.559,44.499 176.596,44.46 176.71,44.46 C177.162,44.46 177.162,44.764 177.162,45.633 L177.162,49.101 C177.162,49.288 177.162,49.742 176.782,49.742 C176.369,49.742 176.298,49.59 175.615,48.197 C175.164,47.218 174.258,45.789 168.912,45.789 C167.03,45.789 166.877,46.052 166.877,47.933 L166.877,53.393 C166.877,54.595 166.877,54.899 169.063,54.899 C173.243,54.899 173.582,54.069 174.258,52.075 C174.449,51.585 174.634,51.509 174.825,51.509 C175.049,51.509 175.237,51.624 175.237,52.038 C175.237,52.563 174.976,56.443 174.976,57.27 C174.976,57.533 175.088,58.848 175.088,59.152 C175.088,59.375 175.088,59.903 174.634,59.903 C174.336,59.903 174.109,59.713 173.919,59 C173.131,56.106 172.075,56.066 168.988,56.066 C167.177,56.066 166.877,56.066 166.877,57.194 L166.877,63.66 C166.877,66.33 167.67,66.745 170.832,66.745 C172.489,66.745 174.825,66.745 176.479,63.549 C177.162,62.233 177.235,62.083 177.574,62.083 C177.911,62.083 178.028,62.423 178.028,62.648 C178.028,63.135 177.613,65.541 177.495,66.935 C177.462,67.653 177.082,68.072 175.991,68.072 C174.073,68.072 171.437,68.032 169.249,67.994 C167.106,67.955 165.331,67.918 165.106,67.918 L164.654,67.918 C163.11,67.918 162.166,67.955 161.563,67.996 C160.961,68.032 160.66,68.072 160.397,68.072 C160.094,68.072 159.606,68.072 159.606,67.503 C159.606,66.975 160.17,66.935 160.961,66.858 C162.842,66.745 162.842,65.729 162.842,64.189 L162.842,48.307" id="Fill-13" fill="#FFFFFF"/>
                <path d="M196.008,59.745 C196.008,57.857 195.293,57.519 193.636,57.481 C192.472,57.442 192.17,57.293 192.17,56.916 C192.17,56.425 192.356,56.425 193.863,56.425 C194.503,56.425 195.559,56.578 198.072,56.578 C198.673,56.578 202.28,56.425 202.846,56.425 C202.998,56.425 203.445,56.425 203.445,56.878 C203.445,57.293 203.071,57.404 202.056,57.481 C200.25,57.592 200.172,58.199 200.172,59.82 L200.172,60.2 C200.172,60.577 200.284,61.86 200.284,64.009 C200.284,65.709 200.284,65.82 199.198,66.387 C195.786,68.312 192.206,68.312 191.228,68.312 C180.688,68.312 178.238,60.121 178.238,56.462 C178.238,50.926 182.872,44.225 192.885,44.225 C196.384,44.225 198.597,45.128 198.858,45.391 C199.308,45.844 199.649,48.856 199.649,49.194 C199.649,49.685 199.424,49.874 199.198,49.874 C198.858,49.874 198.56,49.535 198.299,49.007 C197.694,47.876 196.233,45.204 192.094,45.204 C186.298,45.204 182.984,51.53 182.984,56.612 C182.984,62.123 186.447,67.368 192.094,67.368 C195.559,67.368 196.008,66.16 196.008,63.028 L196.008,59.745" id="Fill-14" fill="#FFFFFF"/>
                <path d="M204.836,48.307 C204.836,46.764 204.836,45.745 202.955,45.633 C202.125,45.593 201.596,45.555 201.596,44.989 C201.596,44.46 202.088,44.46 202.35,44.46 C202.428,44.46 202.464,44.499 203.29,44.543 C204.119,44.581 205.741,44.618 208.945,44.618 L210.751,44.618 C214.633,44.618 216.553,44.581 217.57,44.539 C218.547,44.499 218.586,44.46 218.7,44.46 C219.15,44.46 219.15,44.764 219.15,45.633 L219.15,49.101 C219.15,49.288 219.15,49.742 218.774,49.742 C218.359,49.742 218.283,49.59 217.607,48.197 C217.156,47.218 216.253,45.789 210.902,45.789 C209.02,45.789 208.869,46.052 208.869,47.933 L208.869,53.393 C208.869,54.595 208.869,54.899 211.055,54.899 C215.235,54.899 215.574,54.069 216.253,52.075 C216.436,51.585 216.627,51.509 216.817,51.509 C217.043,51.509 217.227,51.624 217.227,52.038 C217.227,52.563 216.97,56.443 216.97,57.27 C216.97,57.533 217.078,58.848 217.078,59.152 C217.078,59.375 217.078,59.903 216.627,59.903 C216.328,59.903 216.099,59.713 215.911,59 C215.123,56.106 214.067,56.066 210.978,56.066 C209.169,56.066 208.869,56.066 208.869,57.194 L208.869,63.66 C208.869,66.33 209.66,66.745 212.824,66.745 C214.481,66.745 216.817,66.745 218.475,63.549 C219.15,62.233 219.227,62.083 219.564,62.083 C219.904,62.083 220.016,62.423 220.016,62.648 C220.016,63.135 219.603,65.541 219.491,66.935 C219.454,67.653 219.072,68.072 217.985,68.072 C216.063,68.072 213.423,68.032 211.243,67.994 C209.094,67.955 207.325,67.918 207.098,67.918 L206.644,67.918 C205.1,67.918 204.16,67.955 203.555,67.996 C202.955,68.032 202.652,68.072 202.389,68.072 C202.088,68.072 201.596,68.072 201.596,67.503 C201.596,66.975 202.162,66.935 202.955,66.858 C204.836,66.745 204.836,65.729 204.836,64.189 L204.836,48.307" id="Fill-15" fill="#FFFFFF"/>
                <path d="M37.313,39.25 L37.313,42.145 C39.945,40.504 44.696,39.413 50.12,39.413 C55.543,39.413 60.292,40.504 62.924,42.145 L62.924,39.25 C60.292,37.604 55.543,36.516 50.12,36.516 C44.696,36.516 39.945,37.604 37.313,39.25" id="Fill-16" fill="#FFFFFF"/>
                <path d="M38.624,42.76 L38.624,45.513 C41.371,44.267 45.502,43.474 50.12,43.474 C54.737,43.474 58.866,44.267 61.615,45.513 L61.615,42.76 C58.866,41.515 54.737,40.721 50.12,40.721 C45.502,40.721 41.371,41.515 38.624,42.76" id="Fill-17" fill="#FFFFFF"/>
                <path d="M44.49,63.002 L44.49,49.122 C44.49,48.149 45.23,47.605 46.177,47.535 C46.19,47.531 46.201,47.526 46.215,47.521 C46.225,47.524 46.233,47.528 46.242,47.531 C46.289,47.529 46.334,47.521 46.381,47.521 C47.425,47.521 48.273,48.079 48.273,49.122 L48.273,62.188 L48.272,62.188 L48.272,64.779 C48.272,65.822 47.427,66.379 46.381,66.379 C46.339,66.379 46.299,66.373 46.258,66.371 C46.256,66.372 46.254,66.373 46.252,66.373 C46.249,66.372 46.247,66.371 46.243,66.37 C45.263,66.322 44.491,65.775 44.491,64.779 L44.491,63.017 C44.491,63.012 44.49,63.008 44.49,63.002 Z M55.792,50.899 L55.792,64.779 C55.792,65.752 55.052,66.296 54.105,66.366 C54.092,66.37 54.081,66.375 54.067,66.379 C54.057,66.377 54.049,66.373 54.04,66.37 C53.993,66.372 53.948,66.379 53.901,66.379 C52.857,66.379 52.009,65.822 52.009,64.779 L52.01,49.122 C52.01,48.079 52.855,47.521 53.901,47.521 C53.944,47.521 53.983,47.528 54.024,47.53 C54.026,47.529 54.028,47.528 54.031,47.528 C54.034,47.529 54.036,47.53 54.039,47.531 C55.019,47.579 55.792,48.126 55.792,49.122 L55.792,50.884 L55.792,50.899 Z M64.545,66.418 L60.789,66.418 C59.891,66.418 59.165,65.691 59.165,64.796 L59.165,63.271 C59.165,63.268 59.164,63.265 59.164,63.262 L59.164,48.003 C59.164,47.256 60.011,46.706 60.473,46.509 L60.473,46.445 C58.147,45.608 55.116,45.049 51.753,44.912 L50.088,47.766 L48.458,44.916 C45.123,45.058 42.117,45.615 39.811,46.445 L39.811,46.509 C40.269,46.706 41.118,47.256 41.118,48.003 L41.118,53.099 L41.118,63.767 L41.118,64.796 C41.118,65.691 40.391,66.418 39.495,66.418 L35.627,66.418 C34.731,66.418 34.004,65.691 34.004,64.796 L34.004,16.393 C34.004,15.496 34.731,14.767 35.627,14.767 L52.568,14.767 C45.663,17.369 43.936,22.113 44.239,25.742 C44.473,28.533 47.304,30.693 48.995,33.759 C48.54,30.671 50.12,27.07 50.12,27.07 C52.19,32.046 51.118,34.826 50.481,35.878 C54.066,32.656 55.148,29.156 54.572,26.511 C53.531,21.731 48.931,18.843 52.88,14.767 L64.545,14.767 C65.442,14.767 66.169,15.496 66.169,16.393 L66.169,54.864 L66.17,54.864 L66.17,63.262 C66.17,63.265 66.169,63.268 66.169,63.271 L66.169,64.796 C66.169,65.691 65.442,66.418 64.545,66.418 Z M64.545,13.252 L35.627,13.252 C33.895,13.252 32.486,14.661 32.486,16.393 L32.486,64.796 C32.486,66.527 33.895,67.934 35.627,67.934 L64.545,67.934 C66.277,67.934 67.686,66.527 67.686,64.796 L67.686,16.393 C67.686,14.661 66.277,13.252 64.545,13.252 L64.545,13.252 Z" id="Fill-18" fill="#FFFFFF"/>
                <path d="M222.359,65.523 L222.472,65.523 C222.688,65.523 222.85,65.483 222.957,65.401 C223.063,65.32 223.117,65.198 223.117,65.035 C223.117,64.905 223.072,64.808 222.982,64.743 C222.892,64.678 222.757,64.646 222.577,64.646 L222.359,64.646 L222.359,65.523 Z M221.99,66.846 L221.99,64.397 L222.765,64.397 C223.013,64.397 223.199,64.447 223.321,64.547 C223.445,64.648 223.507,64.798 223.507,64.998 C223.507,65.146 223.472,65.279 223.4,65.398 C223.328,65.517 223.221,65.62 223.078,65.707 L223.824,66.846 L223.363,66.846 L222.696,65.827 L222.381,65.827 L222.381,66.846 L221.99,66.846 Z M222.707,67.561 C223.34,67.561 223.845,67.328 224.219,66.863 C224.525,66.484 224.678,66.067 224.678,65.613 C224.678,65.163 224.525,64.748 224.219,64.369 C223.845,63.903 223.35,63.671 222.732,63.671 C222.115,63.671 221.62,63.903 221.246,64.369 C220.94,64.748 220.787,65.164 220.787,65.616 C220.787,66.145 220.977,66.602 221.354,66.985 C221.733,67.369 222.186,67.561 222.707,67.561 Z M222.707,67.886 C222.093,67.886 221.565,67.663 221.124,67.216 C220.683,66.769 220.462,66.235 220.462,65.616 C220.462,64.989 220.685,64.454 221.128,64.01 C221.573,63.567 222.107,63.346 222.732,63.346 C223.358,63.346 223.892,63.567 224.337,64.01 C224.78,64.454 225.003,64.987 225.003,65.61 C225.003,66.245 224.78,66.783 224.335,67.224 C223.89,67.665 223.347,67.886 222.707,67.886 L222.707,67.886 Z" id="Fill-19" fill="#FFFFFF"/>
                <path d="M146.975,89.759 C145.631,89.759 144.791,89.375 144.263,89.183 L144.263,87.047 C144.647,87.215 145.967,87.816 146.927,87.816 C147.623,87.816 147.984,87.576 147.984,87.215 C147.984,86.952 147.791,86.736 147.119,86.399 C145.895,85.775 144.191,85.055 144.191,83.399 C144.191,81.671 145.631,80.759 147.311,80.759 C148.463,80.759 149.591,81.191 149.951,81.359 L149.951,83.351 C149.543,83.159 148.44,82.679 147.431,82.679 C146.759,82.679 146.399,82.919 146.399,83.255 C146.399,83.567 146.663,83.759 147.215,84.023 C148.608,84.695 150.215,85.343 150.215,87.095 C150.215,88.896 148.608,89.759 146.975,89.759" id="Fill-20" fill="#FFFFFF"/>
                <path d="M156.119,82.631 C155.112,82.631 154.415,83.423 154.247,84.383 L157.703,84.383 C157.703,83.567 157.152,82.631 156.119,82.631 Z M154.175,85.895 C154.44,86.904 155.4,87.839 156.743,87.839 C158.28,87.839 159.384,87.263 159.743,87.12 L159.743,89.015 C159.48,89.16 158.568,89.759 156.503,89.759 C154.152,89.759 151.775,88.08 151.775,85.271 C151.775,82.751 153.767,80.759 156.095,80.759 C158.28,80.759 159.864,82.414 159.864,84.767 L159.864,85.895 L154.175,85.895 L154.175,85.895 Z" id="Fill-21" fill="#FFFFFF"/>
                <path d="M166.055,82.631 C165.047,82.631 164.351,83.423 164.183,84.383 L167.639,84.383 C167.639,83.567 167.087,82.631 166.055,82.631 Z M164.111,85.895 C164.375,86.904 165.335,87.839 166.679,87.839 C168.215,87.839 169.32,87.263 169.679,87.12 L169.679,89.015 C169.415,89.16 168.503,89.759 166.439,89.759 C164.087,89.759 161.71,88.08 161.71,85.271 C161.71,82.751 163.702,80.759 166.031,80.759 C168.215,80.759 169.799,82.414 169.799,84.767 L169.799,85.895 L164.111,85.895 L164.111,85.895 Z" id="Fill-22" fill="#FFFFFF"/>
                <path d="M180.982,85.583 L179.758,85.704 C178.942,85.799 178.39,86.303 178.39,86.927 C178.39,87.551 178.99,87.912 179.493,87.912 C180.117,87.912 180.79,87.503 180.982,87.335 L180.982,85.583 Z M181.246,89.496 L181.126,88.896 C180.741,89.28 179.997,89.736 178.894,89.736 C177.31,89.736 176.085,88.559 176.085,87.047 C176.085,85.127 177.789,84.311 179.661,84.167 L180.982,84.071 L180.982,82.847 L176.589,82.847 L176.949,81.023 L183.31,81.023 L183.31,89.496 L181.246,89.496 L181.246,89.496 Z" id="Fill-23" fill="#FFFFFF"/>
                <path d="M191.734,89.496 L191.734,84.311 C191.734,83.303 191.134,82.823 190.293,82.823 C189.526,82.823 188.686,83.447 188.35,83.759 L188.35,89.496 L185.949,89.496 L185.949,81.023 L188.253,81.023 L188.373,81.743 C188.686,81.455 189.573,80.759 191.014,80.759 C192.814,80.759 194.134,81.911 194.134,84.383 L194.134,89.496 L191.734,89.496" id="Fill-24" fill="#FFFFFF"/>
                <path d="M200.517,82.631 C199.509,82.631 198.813,83.423 198.645,84.383 L202.101,84.383 C202.101,83.567 201.549,82.631 200.517,82.631 Z M198.573,85.895 C198.837,86.904 199.797,87.839 201.141,87.839 C202.677,87.839 203.781,87.263 204.141,87.12 L204.141,89.015 C203.877,89.16 202.965,89.759 200.901,89.759 C198.549,89.759 196.172,88.08 196.172,85.271 C196.172,82.751 198.164,80.759 200.492,80.759 C202.677,80.759 204.261,82.414 204.261,84.767 L204.261,85.895 L198.573,85.895 L198.573,85.895 Z" id="Fill-25" fill="#FFFFFF"/>
                <polyline id="Fill-26" fill="#FFFFFF" points="209.876 85.679 211.34 81.023 213.116 81.023 214.58 85.679 214.821 86.496 215.061 85.679 216.597 81.023 218.949 81.023 215.901 89.496 213.908 89.496 212.229 84.719 210.548 89.496 208.556 89.496 205.508 81.023 207.861 81.023 209.397 85.679 209.636 86.496 209.876 85.679"/>
                <path d="M12.907,67.763 C12.409,67.979 12.168,68.287 12.168,68.85 C12.169,69.177 12.182,69.51 12.141,69.837 C12.113,70.059 12.065,70.279 11.955,70.489 C11.929,71.165 11.931,71.843 11.866,72.515 C11.825,72.94 11.904,73.295 12.156,73.632 C13.026,74.8 13.897,75.974 14.773,77.154 L14.773,66.892 C14.159,67.199 13.536,67.49 12.907,67.763" id="Fill-28" fill="#4E7AB0"/>
                <path d="M12.791,0 L12.647,0 C12.648,0.004 12.65,0.007 12.651,0.01 C12.698,0.007 12.744,0.003 12.791,0" id="Fill-29" fill="#4099BB"/>
                <path d="M12.609,0.016 C12.613,0.01 12.618,0.006 12.621,0 L11.338,0 C11.707,0.098 12.124,0.113 12.609,0.016" id="Fill-30" fill="#4099BB"/>
                <path d="M12.651,0.01 C12.65,0.007 12.648,0.004 12.647,0 L12.621,0 C12.618,0.006 12.613,0.01 12.609,0.016 C12.624,0.013 12.637,0.013 12.651,0.01" id="Fill-31" fill="#4099BB"/>
                <path d="M14.159,0.246 C13.732,0.394 13.296,0.432 12.856,0.444 C12.424,0.455 11.989,0.44 11.559,0.476 C11.138,0.511 10.801,0.555 10.72,1.098 C10.517,2.473 10.264,3.84 10.027,5.21 C9.944,5.686 10.082,5.918 10.616,5.995 C12.004,6.194 13.389,6.419 14.773,6.649 L14.773,0.233 C14.568,0.237 14.364,0.24 14.159,0.246" id="Fill-32" fill="#4489BC"/>
                <path d="M0.767,41.917 C0.511,41.828 0.257,41.731 0,41.642 L0,50.016 C0.12,49.986 0.239,49.95 0.361,49.926 C0.867,49.828 1.104,49.6 1.126,49.058 C1.21,46.991 1.317,44.924 1.449,42.86 C1.484,42.31 1.241,42.08 0.767,41.917" id="Fill-33" fill="#3799B5"/>
                <path d="M8.248,7.555 C8.239,7.533 8.222,7.519 8.211,7.499 C8.171,7.539 8.129,7.571 8.089,7.615 C8.131,7.645 8.17,7.649 8.211,7.668 C8.225,7.63 8.232,7.593 8.248,7.555" id="Fill-34" fill="#45A1B6"/>
                <path d="M11.976,6.658 C10.514,6.296 9.272,6.44 8.211,7.499 C8.222,7.519 8.239,7.533 8.248,7.555 C8.232,7.593 8.225,7.63 8.211,7.668 C8.17,7.649 8.131,7.645 8.089,7.615 L7.854,7.881 C7.069,8.589 7.066,8.589 7.448,9.558 C8.219,11.517 9.004,13.47 9.757,15.436 C9.952,15.944 10.197,16.364 10.73,16.557 C10.891,16.516 11.047,16.46 11.206,16.415 C12.419,16.075 13.598,15.639 14.773,15.191 L14.773,7.156 C13.831,7.028 12.893,6.885 11.976,6.658" id="Fill-35" fill="#45A1B6"/>
                <path d="M2.364,18.807 C4.577,18.019 6.795,17.244 9.014,16.472 C9.434,16.326 9.556,16.125 9.372,15.671 C8.505,13.53 7.671,11.376 6.831,9.224 C6.669,8.808 6.401,8.57 5.938,8.579 C5.301,8.592 4.663,8.622 4.027,8.603 C3.367,8.582 2.921,8.853 2.524,9.383 C1.7,10.483 0.85,11.564 0,12.645 L0,17.856 C0.413,18.126 0.829,18.396 1.236,18.667 C1.6,18.907 1.949,18.954 2.364,18.807" id="Fill-36" fill="#3667A1"/>
                <path d="M6.012,40.899 C4.148,40.366 4.161,40.379 2.635,41.608 C2.168,41.984 1.903,42.377 1.882,42.999 C1.819,44.786 1.692,46.571 1.606,48.357 C1.539,49.765 1.549,49.765 2.826,50.34 C3.331,50.363 3.834,50.352 4.336,50.326 C5.693,50.257 7.043,50.066 8.401,50.027 C8.75,50.017 8.989,49.894 9.064,49.496 C9.497,47.213 10.095,44.961 10.406,42.653 C10.428,42.489 10.461,42.327 10.48,42.163 C8.99,41.742 7.5,41.324 6.012,40.899" id="Fill-37" fill="#43A4CC"/>
                <path d="M1.219,7.493 C0.813,7.192 0.406,6.891 0,6.589 L0,11.872 C0.858,10.769 1.723,9.657 2.607,8.521 C2.102,8.148 1.66,7.821 1.219,7.493" id="Fill-38" fill="#3878B0"/>
                <path d="M11.596,22.248 C10.205,23.432 8.857,24.579 7.509,25.726 C7.464,25.765 7.418,25.804 7.372,25.843 C7.003,26.198 6.658,26.584 6.257,26.898 C5.786,27.268 5.632,27.614 5.965,28.189 C6.459,29.044 6.901,29.933 7.299,30.838 C7.534,31.375 7.897,31.607 8.444,31.723 C9.293,31.903 10.129,32.148 10.971,32.366 C10.983,32.34 10.999,32.322 11.012,32.299 C11.02,32.32 11.027,32.342 11.035,32.365 C12.14,32.404 13.037,31.783 14.01,31.403 C14.303,31.289 14.402,31.015 14.511,30.763 C14.6,30.558 14.686,30.353 14.773,30.148 L14.773,25.105 C13.715,24.157 12.661,23.208 11.596,22.248" id="Fill-39" fill="#48B6BE"/>
                <path d="M11.012,32.299 C10.999,32.322 10.983,32.34 10.971,32.366 C10.993,32.367 11.013,32.364 11.035,32.365 C11.027,32.342 11.02,32.32 11.012,32.299" id="Fill-40" fill="#48B6BE"/>
                <path d="M11.185,20.637 C11.018,19.702 10.916,18.755 10.789,17.813 C10.748,17.817 10.711,17.827 10.663,17.823 C10.702,17.785 10.73,17.744 10.776,17.707 C10.413,16.721 10.156,16.565 9.205,16.891 C7.054,17.628 4.921,18.416 2.766,19.137 C2.143,19.346 2.005,19.707 2.035,20.299 C2.093,21.415 2.072,22.535 2.119,23.652 C2.242,26.569 1.675,25.789 4.548,26.892 C5.066,27.091 5.44,27.056 5.842,26.673 C6.243,26.291 6.702,25.967 7.135,25.618 C7.176,25.573 7.221,25.532 7.262,25.487 C8.242,24.425 9.368,23.519 10.474,22.6 C11.145,22.043 11.33,21.451 11.185,20.637" id="Fill-41" fill="#4391A2"/>
                <path d="M10.789,17.813 C10.785,17.778 10.781,17.742 10.776,17.707 C10.73,17.744 10.702,17.785 10.663,17.823 C10.711,17.827 10.748,17.817 10.789,17.813" id="Fill-42" fill="#4391A2"/>
                <path d="M13.794,32.007 C13.253,32.265 12.688,32.474 12.129,32.695 C12.06,32.722 11.991,32.749 11.923,32.776 C11.878,32.927 11.794,33.078 11.794,33.229 C11.782,35.776 11.79,38.323 11.768,40.87 C11.763,41.468 12.047,41.61 12.576,41.604 C13.308,41.597 14.04,41.61 14.773,41.618 L14.773,32.096 C14.466,31.86 14.176,31.825 13.794,32.007" id="Fill-43" fill="#4BAAD3"/>
                <path d="M11.145,51.891 L10.98,51.722 L10.868,51.688 C10.866,51.686 10.864,51.685 10.863,51.683 C9.609,50.299 7.994,50.448 6.375,50.63 C5.774,50.697 5.178,50.816 4.57,50.753 C4.543,50.75 4.516,50.752 4.489,50.748 C4.187,50.767 3.884,50.786 3.581,50.804 C3.556,50.921 3.5,51.04 3.511,51.153 C3.519,51.24 3.528,51.328 3.536,51.415 C3.782,54.061 4.034,56.706 4.287,59.351 C4.306,59.551 4.357,59.725 4.553,59.847 C5.138,60.209 6.273,60.225 6.808,59.818 C8.488,58.541 10.155,57.247 11.828,55.961 C12.119,55.737 12.344,55.49 12.385,55.091 C12.517,53.809 12.67,52.53 11.145,51.891" id="Fill-44" fill="#67A9D1"/>
                <path d="M3.769,58.517 C3.743,58.16 3.675,57.806 3.649,57.449 C3.502,55.458 3.159,53.485 3.099,51.486 C3.097,51.412 3.089,51.339 3.088,51.265 C2.528,50.3 1.602,50.253 0.652,50.322 C0.431,50.339 0.216,50.404 0,50.464 L0,59.929 C0.426,60.153 0.853,60.375 1.277,60.601 C1.74,60.848 2.124,60.886 2.613,60.623 C3.857,59.954 3.875,59.981 3.769,58.517" id="Fill-45" fill="#5AA7D0"/>
                <path d="M12.388,41.979 C11.873,41.982 11.36,42.004 10.955,42.393 C10.935,42.498 10.916,42.604 10.896,42.709 C10.507,44.731 10.171,46.766 9.678,48.762 C9.499,49.486 9.543,50.014 9.906,50.435 C10.108,50.541 10.296,50.688 10.46,50.871 C10.477,50.88 10.49,50.89 10.507,50.9 C10.724,51.016 10.905,51.199 11.091,51.373 C11.136,51.415 11.181,51.458 11.227,51.498 C11.555,51.718 11.899,51.918 12.207,52.163 C12.579,52.459 12.971,52.563 13.43,52.434 C13.877,52.309 14.325,52.188 14.773,52.063 L14.773,41.978 C13.978,41.974 13.183,41.975 12.388,41.979" id="Fill-46" fill="#65B1D7"/>
                <path d="M10.46,50.871 C10.296,50.688 10.108,50.541 9.906,50.435 C10.043,50.594 10.224,50.739 10.46,50.871" id="Fill-47" fill="#65B1D7"/>
                <path d="M1.709,25.461 C1.649,23.666 1.612,21.87 1.573,20.075 C1.565,19.698 1.488,19.374 1.141,19.15 C0.759,18.905 0.38,18.655 0,18.406 L0,26.704 C0.366,26.651 0.729,26.466 1.093,26.351 C1.528,26.214 1.725,25.938 1.709,25.461" id="Fill-48" fill="#338AB8"/>
                <path d="M10.116,0 L3.706,0 C4.294,2.157 4.876,4.317 5.347,6.5 C5.731,8.282 6.1,8.741 7.823,7.389 C7.871,7.344 7.917,7.296 7.965,7.25 C8.17,7.047 8.37,6.837 8.601,6.67 C9.214,6.23 9.546,5.694 9.626,4.906 C9.745,3.729 10.006,2.566 10.221,1.4 C10.313,0.902 10.286,0.444 10.116,0" id="Fill-49" fill="#4095C5"/>
                <path d="M11.212,32.81 C11.145,32.808 11.077,32.805 11.011,32.799 C10.962,32.794 10.914,32.785 10.866,32.776 C10.719,32.748 10.58,32.696 10.459,32.585 C9.733,32.574 9.057,32.316 8.362,32.152 C7.862,32.035 7.463,32.059 7.092,32.513 C6.285,33.498 5.42,34.438 4.574,35.391 C4.328,35.669 4.162,35.962 4.182,36.353 C4.233,37.348 4.276,38.343 4.302,39.339 C4.313,39.758 4.492,39.984 4.899,40.099 C6.698,40.605 8.485,41.153 10.29,41.64 C11.152,41.872 11.358,41.692 11.363,40.79 C11.377,38.36 11.367,35.93 11.367,33.5 C11.367,33.257 11.339,33.023 11.212,32.81" id="Fill-50" fill="#50B2C4"/>
                <g id="Group-56">
                    <path d="M3.675,8.167 C3.877,8.154 4.036,8.145 4.195,8.134 C5.288,8.061 5.295,8.059 5.016,6.96 C4.426,4.639 3.83,2.319 3.233,0 L0,0 L0,6.025 C0.797,6.615 1.593,7.206 2.386,7.801 C2.794,8.108 3.215,8.259 3.675,8.167" id="Fill-51" fill="#4587BB"/>
                    <path d="M0.449,28.029 C0.361,29.46 0.274,30.89 0.187,32.321 C0.158,34.614 -0.29,34.032 1.91,34.863 C2.319,35.017 2.752,35.116 3.146,35.3 C3.62,35.522 3.953,35.441 4.291,35.04 C5.113,34.066 5.957,33.11 6.816,32.169 C7.136,31.818 7.154,31.518 6.934,31.105 C6.41,30.122 5.933,29.114 5.432,28.119 C5.307,27.871 5.179,27.619 4.889,27.515 C4.028,27.207 3.184,26.832 2.301,26.61 C1.333,26.366 0.509,27.054 0.449,28.029" id="Fill-53" fill="#3B9AB6"/>
                    <path d="M2.039,41.508 C3.114,40.696 4.345,39.973 3.803,38.278 L3.801,38.16 L3.748,38.16 C3.748,37.682 3.72,37.203 3.755,36.729 C3.798,36.138 3.49,35.873 2.978,35.707 C2.147,35.438 1.328,35.131 0.501,34.851 C0.329,34.793 0.163,34.762 0,34.745 L0,41.177 C0.379,41.315 0.76,41.449 1.14,41.587 C1.456,41.702 1.747,41.729 2.039,41.508" id="Fill-54" fill="#4AA5BD"/>
                    <path d="M10.776,17.707 C10.781,17.742 10.785,17.778 10.789,17.813 C10.916,18.755 11.018,19.702 11.185,20.637 C11.33,21.451 11.145,22.043 10.474,22.6 C9.368,23.519 8.242,24.425 7.262,25.487 C7.221,25.532 7.176,25.573 7.135,25.618 C6.702,25.967 6.243,26.291 5.842,26.673 C5.44,27.056 5.066,27.091 4.548,26.892 C1.675,25.789 2.242,26.569 2.119,23.652 C2.072,22.535 2.093,21.415 2.035,20.299 C2.005,19.707 2.143,19.346 2.766,19.137 C4.921,18.416 7.054,17.628 9.205,16.891 C10.156,16.565 10.413,16.721 10.776,17.707 Z M6.934,31.105 C7.154,31.518 7.136,31.818 6.816,32.169 C5.957,33.11 5.113,34.066 4.291,35.04 C3.953,35.441 3.62,35.522 3.146,35.3 C2.752,35.116 2.319,35.017 1.91,34.863 C-0.29,34.032 0.158,34.614 0.187,32.321 C0.274,30.89 0.361,29.46 0.449,28.029 C0.509,27.054 1.333,26.366 2.301,26.61 C3.184,26.832 4.028,27.207 4.889,27.515 C5.179,27.619 5.307,27.871 5.432,28.119 C5.933,29.114 6.41,30.122 6.934,31.105 Z M8.362,32.152 C9.057,32.316 9.733,32.574 10.459,32.585 C10.58,32.696 10.719,32.748 10.866,32.776 C10.914,32.785 10.962,32.794 11.011,32.799 C11.077,32.805 11.145,32.808 11.212,32.81 C11.339,33.023 11.367,33.257 11.367,33.5 C11.367,35.93 11.377,38.36 11.363,40.79 C11.358,41.692 11.152,41.872 10.29,41.64 C8.485,41.153 6.698,40.605 4.899,40.099 C4.492,39.984 4.313,39.758 4.302,39.339 C4.276,38.343 4.233,37.348 4.182,36.353 C4.162,35.962 4.328,35.669 4.574,35.391 C5.42,34.438 6.285,33.498 7.092,32.513 C7.463,32.059 7.862,32.035 8.362,32.152 Z M10.406,42.653 C10.095,44.961 9.497,47.213 9.064,49.496 C8.989,49.894 8.75,50.017 8.401,50.027 C7.043,50.066 5.693,50.257 4.336,50.326 C3.834,50.352 3.331,50.363 2.826,50.34 C1.549,49.765 1.539,49.765 1.606,48.357 C1.692,46.571 1.819,44.786 1.882,42.999 C1.903,42.377 2.168,41.984 2.635,41.608 C4.161,40.379 4.148,40.366 6.012,40.899 C7.5,41.324 8.99,41.742 10.48,42.163 C10.461,42.327 10.428,42.489 10.406,42.653 Z M10.863,51.683 C10.864,51.685 10.866,51.686 10.868,51.688 L10.98,51.722 L11.145,51.891 C12.67,52.53 12.517,53.809 12.385,55.091 C12.344,55.49 12.119,55.737 11.828,55.961 C10.155,57.247 8.488,58.541 6.808,59.818 C6.273,60.225 5.138,60.209 4.553,59.847 C4.357,59.725 4.306,59.551 4.287,59.351 C4.034,56.706 3.782,54.061 3.536,51.415 C3.528,51.328 3.519,51.24 3.511,51.153 C3.5,51.04 3.556,50.921 3.581,50.804 C3.884,50.786 4.187,50.767 4.489,50.748 C4.516,50.752 4.543,50.75 4.57,50.753 C5.178,50.816 5.774,50.697 6.375,50.63 C7.994,50.448 9.609,50.299 10.863,51.683 Z M6.816,61.565 C8.087,63.532 9.479,65.421 10.943,67.516 C8.233,67.87 5.707,68.157 3.197,68.547 C2.085,68.721 1.415,68.037 0.629,67.536 C0.342,67.352 0.409,67.048 0.493,66.777 C0.998,65.145 1.494,63.511 2.026,61.888 C2.263,61.164 3.687,60.289 4.512,60.359 C5.433,60.437 6.235,60.665 6.816,61.565 Z M11.144,67.988 C11.582,67.986 11.793,68.188 11.745,68.656 C11.712,68.985 11.727,69.319 11.726,69.652 C11.726,69.676 11.727,69.7 11.726,69.725 C11.633,70.594 11.511,71.461 11.459,72.332 C11.43,72.82 11.267,73.133 10.825,73.371 C8.797,74.462 6.789,75.592 4.76,76.682 C3.97,77.107 3.818,77.032 3.27,76.197 C3.267,76.122 3.259,76.049 3.256,75.975 C3.175,74.344 2.919,72.731 2.699,71.117 C2.417,69.034 2.391,69.029 4.409,68.788 C6.379,68.553 8.345,68.29 10.313,68.044 C10.588,68.01 10.867,67.99 11.144,67.988 Z M7.992,84.744 C10.142,85.506 10.147,85.488 10.803,87.747 C11.047,88.588 11.251,89.444 11.559,90.26 C11.803,90.906 11.634,91.319 11.099,91.68 C10.803,91.88 10.521,92.111 10.273,92.367 C9.558,93.107 8.737,93.488 7.936,93.243 C6.424,93.133 5.155,93.024 3.883,92.955 C3.344,92.926 3.108,92.708 3.079,92.159 C3.005,90.768 2.905,89.378 2.787,87.99 C2.741,87.458 2.863,87.095 3.366,86.814 C4.477,86.193 5.561,85.521 6.644,84.849 C7.089,84.572 7.491,84.566 7.992,84.744 Z M10.72,1.098 C10.801,0.555 11.138,0.511 11.559,0.476 C11.989,0.44 12.424,0.455 12.856,0.444 C13.296,0.432 13.732,0.394 14.159,0.246 C14.364,0.24 14.568,0.237 14.773,0.233 L14.773,0 L12.791,0 C12.744,0.003 12.698,0.007 12.651,0.01 C12.637,0.013 12.624,0.013 12.609,0.016 C12.124,0.113 11.707,0.098 11.338,0 L10.116,0 C10.286,0.444 10.313,0.902 10.221,1.4 C10.006,2.566 9.745,3.729 9.626,4.906 C9.546,5.694 9.214,6.23 8.601,6.67 C8.37,6.837 8.17,7.047 7.965,7.25 C7.917,7.296 7.871,7.344 7.823,7.389 C6.1,8.741 5.731,8.282 5.347,6.5 C4.876,4.317 4.294,2.157 3.706,0 L3.233,0 C3.83,2.319 4.426,4.639 5.016,6.96 C5.295,8.059 5.288,8.061 4.195,8.134 C4.036,8.145 3.877,8.154 3.675,8.167 C3.215,8.259 2.794,8.108 2.386,7.801 C1.593,7.206 0.797,6.615 0,6.025 L0,6.589 C0.406,6.891 0.813,7.192 1.219,7.493 C1.66,7.821 2.102,8.148 2.607,8.521 C1.723,9.657 0.858,10.769 0,11.872 L0,12.645 C0.85,11.564 1.7,10.483 2.524,9.383 C2.921,8.853 3.367,8.582 4.027,8.603 C4.663,8.622 5.301,8.592 5.938,8.579 C6.401,8.57 6.669,8.808 6.831,9.224 C7.671,11.376 8.505,13.53 9.372,15.671 C9.556,16.125 9.434,16.326 9.014,16.472 C6.795,17.244 4.577,18.019 2.364,18.807 C1.949,18.954 1.6,18.907 1.236,18.667 C0.829,18.396 0.413,18.126 0,17.856 L0,18.406 C0.38,18.655 0.759,18.905 1.141,19.15 C1.488,19.374 1.565,19.698 1.573,20.075 C1.612,21.87 1.649,23.666 1.709,25.461 C1.725,25.938 1.528,26.214 1.093,26.351 C0.729,26.466 0.366,26.651 0,26.704 L0,34.745 C0.163,34.762 0.329,34.793 0.501,34.851 C1.328,35.131 2.147,35.438 2.978,35.707 C3.49,35.873 3.798,36.138 3.755,36.729 C3.72,37.203 3.748,37.682 3.748,38.16 L3.801,38.16 L3.803,38.278 C4.345,39.973 3.114,40.696 2.039,41.508 C1.747,41.729 1.456,41.702 1.14,41.587 C0.76,41.449 0.379,41.315 0,41.177 L0,41.642 C0.257,41.731 0.511,41.828 0.767,41.917 C1.241,42.08 1.484,42.31 1.449,42.86 C1.317,44.924 1.21,46.991 1.126,49.058 C1.104,49.6 0.867,49.828 0.361,49.926 C0.239,49.95 0.12,49.986 0,50.016 L0,50.464 C0.216,50.404 0.431,50.339 0.652,50.322 C1.602,50.253 2.528,50.3 3.088,51.265 C3.089,51.339 3.097,51.412 3.099,51.486 C3.159,53.485 3.502,55.458 3.649,57.449 C3.675,57.806 3.743,58.16 3.769,58.517 C3.875,59.981 3.857,59.954 2.613,60.623 C2.124,60.886 1.74,60.848 1.277,60.601 C0.853,60.375 0.426,60.153 0,59.929 L0,60.455 C0.317,60.607 0.635,60.759 0.95,60.913 C1.492,61.18 1.717,61.457 1.485,62.116 C0.986,63.542 0.578,65 0.154,66.451 C0.111,66.595 0.061,66.72 0,66.831 L0,67.855 C0.59,68.014 1.125,68.37 1.648,68.782 C1.875,68.961 2.054,69.161 2.074,69.462 C2.224,71.667 2.703,73.838 2.779,76.05 C2.786,76.257 2.81,76.461 2.809,76.668 C1.873,76.887 0.936,77.106 0,77.324 L0,77.796 C0.868,77.579 1.736,77.365 2.61,77.175 C3.438,76.994 3.861,77.236 4.226,78.031 C5.058,79.838 5.843,81.666 6.684,83.468 C6.921,83.977 6.834,84.242 6.351,84.514 C5.242,85.139 4.162,85.814 3.071,86.471 C2.795,86.637 2.507,86.824 2.18,86.755 C1.451,86.601 0.726,86.428 0,86.258 L0,86.645 C0.442,86.753 0.971,86.925 1.664,87.153 C2.126,87.305 2.299,87.528 2.327,87.984 C2.401,89.215 2.503,90.444 2.611,91.896 C2.877,92.696 2.421,93.408 1.696,94.086 C1.101,94.643 0.544,95.243 0,95.854 L0,96.548 C0.856,95.643 1.703,94.73 2.568,93.835 C3.023,93.364 3.043,93.384 4.637,93.454 C5.681,93.53 6.91,93.643 8.141,93.7 C8.756,93.728 8.877,93.989 8.751,94.538 C8.377,96.164 8.005,97.792 7.684,99.43 C7.581,99.954 7.338,100.272 6.89,100.529 C5.82,101.142 4.754,101.766 3.721,102.438 C3.189,102.785 2.765,102.784 2.188,102.504 C1.307,102.075 0.734,101.476 0.423,100.542 C0.299,100.17 0.151,99.807 0,99.444 L0,100.686 C0.092,100.899 0.181,101.114 0.276,101.326 C0.464,101.745 0.355,101.979 0,102.213 L0,102.747 C0.036,102.722 0.072,102.698 0.108,102.674 C0.6,102.334 0.985,102.344 1.518,102.602 C2.394,103.026 2.995,103.604 3.301,104.548 C3.35,104.701 3.418,104.849 3.475,105 L3.966,105 C3.798,104.603 3.631,104.206 3.454,103.813 C3.265,103.392 3.358,103.162 3.737,102.941 C4.907,102.258 6.066,101.557 7.223,100.853 C7.545,100.657 7.876,100.566 8.251,100.606 C10.123,100.983 11.996,101.36 13.868,101.737 C14.17,101.798 14.471,101.86 14.773,101.921 L14.773,101.466 C12.735,101.049 10.698,100.624 8.657,100.224 C8.212,100.137 8.032,99.96 8.132,99.506 C8.524,97.721 8.918,95.936 9.288,94.146 C9.397,93.618 9.787,93.344 10.159,93.06 C10.818,92.559 11.336,91.689 12.144,91.618 C12.893,91.553 13.571,92.234 14.295,92.557 C14.458,92.63 14.615,92.721 14.773,92.809 L14.773,92.281 C13.911,91.864 13.056,91.433 12.261,90.889 C12.154,90.816 12.135,90.605 12.09,90.453 C11.659,89.005 11.238,87.553 10.796,86.108 C10.66,85.662 10.789,85.359 11.14,85.071 C12.359,84.07 13.569,83.056 14.773,82.037 L14.773,81.459 C13.444,82.565 12.115,83.67 10.79,84.78 C10.489,85.033 10.19,85.128 9.805,84.966 C9.181,84.703 8.547,84.461 7.91,84.232 C7.492,84.083 7.298,83.763 7.13,83.387 C6.337,81.601 5.55,79.813 4.722,78.044 C4.485,77.537 4.553,77.284 5.059,77.015 C7.031,75.968 8.982,74.882 10.935,73.798 C11.288,73.603 11.553,73.525 11.843,73.925 C12.811,75.257 13.794,76.578 14.773,77.902 L14.773,77.154 C13.897,75.974 13.026,74.8 12.156,73.632 C11.904,73.295 11.825,72.94 11.866,72.515 C11.931,71.843 11.929,71.165 11.955,70.489 C12.065,70.279 12.113,70.059 12.141,69.837 C12.182,69.51 12.169,69.177 12.168,68.85 C12.168,68.287 12.409,67.979 12.907,67.763 C13.536,67.49 14.159,67.199 14.773,66.892 L14.773,66.401 C14.057,66.738 13.343,67.08 12.619,67.396 C11.828,67.742 11.629,67.691 11.119,66.975 C9.736,65.03 8.374,63.069 7.004,61.114 C6.799,60.82 6.553,60.566 7.003,60.227 C8.805,58.869 10.587,57.483 12.457,56.046 C13.256,57.505 14.017,58.894 14.773,60.275 L14.773,59.328 C14.207,58.288 13.645,57.257 13.087,56.227 C12.57,55.272 12.949,54.271 12.97,53.291 C12.977,53.003 13.256,52.947 13.487,52.873 C13.915,52.736 14.343,52.605 14.773,52.483 L14.773,52.063 C14.325,52.188 13.877,52.309 13.43,52.434 C12.971,52.563 12.579,52.459 12.207,52.163 C11.899,51.918 11.555,51.718 11.227,51.498 C11.181,51.458 11.136,51.415 11.091,51.373 C10.905,51.199 10.724,51.016 10.507,50.9 C10.49,50.89 10.477,50.88 10.46,50.871 C10.224,50.739 10.043,50.594 9.906,50.435 C9.543,50.014 9.499,49.486 9.678,48.762 C10.171,46.766 10.507,44.731 10.896,42.709 C10.916,42.604 10.935,42.498 10.955,42.393 C11.36,42.004 11.873,41.982 12.388,41.979 C13.183,41.975 13.978,41.974 14.773,41.978 L14.773,41.618 C14.04,41.61 13.308,41.597 12.576,41.604 C12.047,41.61 11.763,41.468 11.768,40.87 C11.79,38.323 11.782,35.776 11.794,33.229 C11.794,33.078 11.878,32.927 11.923,32.776 C11.991,32.749 12.06,32.722 12.129,32.695 C12.688,32.474 13.253,32.265 13.794,32.007 C14.176,31.825 14.466,31.86 14.773,32.096 L14.773,30.148 C14.686,30.353 14.6,30.558 14.511,30.763 C14.402,31.015 14.303,31.289 14.01,31.403 C13.037,31.783 12.14,32.404 11.035,32.365 C11.013,32.364 10.993,32.367 10.971,32.366 C10.129,32.148 9.293,31.903 8.444,31.723 C7.897,31.607 7.534,31.375 7.299,30.838 C6.901,29.933 6.459,29.044 5.965,28.189 C5.632,27.614 5.786,27.268 6.257,26.898 C6.658,26.584 7.003,26.198 7.372,25.843 C7.418,25.804 7.464,25.765 7.509,25.726 C8.857,24.579 10.205,23.432 11.596,22.248 C12.661,23.208 13.715,24.157 14.773,25.105 L14.773,24.48 C14.061,23.794 13.31,23.143 12.559,22.497 C12.018,22.031 11.699,21.528 11.643,20.778 C11.562,19.693 11.293,18.626 11.228,17.536 C11.217,17.352 11.199,17.17 11.202,16.985 L11.207,16.98 C11.276,16.955 11.344,16.931 11.413,16.906 C12.533,16.497 13.654,16.091 14.773,15.678 L14.773,15.191 C13.598,15.639 12.419,16.075 11.206,16.415 C11.047,16.46 10.891,16.516 10.73,16.557 C10.197,16.364 9.952,15.944 9.757,15.436 C9.004,13.47 8.219,11.517 7.448,9.558 C7.066,8.589 7.069,8.589 7.854,7.881 L8.089,7.615 C8.129,7.571 8.171,7.539 8.211,7.499 C9.272,6.44 10.514,6.296 11.976,6.658 C12.893,6.885 13.831,7.028 14.773,7.156 L14.773,6.649 C13.389,6.419 12.004,6.194 10.616,5.995 C10.082,5.918 9.944,5.686 10.027,5.21 C10.264,3.84 10.517,2.473 10.72,1.098 L10.72,1.098 Z" id="Fill-55" fill="#191D21"/>
                </g>
                <path d="M10.796,86.108 C11.238,87.553 11.659,89.005 12.09,90.453 C12.135,90.605 12.154,90.816 12.261,90.889 C13.056,91.433 13.911,91.864 14.773,92.281 L14.773,82.037 C13.569,83.056 12.359,84.07 11.14,85.071 C10.789,85.359 10.66,85.662 10.796,86.108" id="Fill-57" fill="#41A0B1"/>
                <path d="M8.251,100.606 C7.876,100.566 7.545,100.657 7.223,100.853 C6.066,101.557 4.907,102.258 3.737,102.941 C3.358,103.162 3.265,103.392 3.454,103.813 C3.631,104.206 3.798,104.603 3.966,105 L14.364,105 C14.5,104.799 14.637,104.598 14.773,104.396 L14.773,101.921 C14.471,101.86 14.17,101.798 13.868,101.737 C11.996,101.36 10.123,100.983 8.251,100.606" id="Fill-58" fill="#53B684"/>
                <path d="M0.276,101.326 C0.181,101.114 0.092,100.899 0,100.686 L0,102.213 C0.355,101.979 0.464,101.745 0.276,101.326" id="Fill-59" fill="#239685"/>
                <path d="M10.935,73.798 C8.982,74.882 7.031,75.968 5.059,77.015 C4.553,77.284 4.485,77.537 4.722,78.044 C5.55,79.813 6.337,81.601 7.13,83.387 C7.298,83.763 7.492,84.083 7.91,84.232 C8.547,84.461 9.181,84.703 9.805,84.966 C10.19,85.128 10.489,85.033 10.79,84.78 C12.115,83.67 13.444,82.565 14.773,81.459 L14.773,77.902 C13.794,76.578 12.811,75.257 11.843,73.925 C11.553,73.525 11.288,73.603 10.935,73.798" id="Fill-60" fill="#3886BB"/>
                <path d="M3.071,86.471 C4.162,85.814 5.242,85.139 6.351,84.514 C6.834,84.242 6.921,83.977 6.684,83.468 C5.843,81.666 5.058,79.838 4.226,78.031 C3.861,77.236 3.438,76.994 2.61,77.175 C1.736,77.365 0.868,77.579 0,77.796 L0,86.258 C0.726,86.428 1.451,86.601 2.18,86.755 C2.507,86.824 2.795,86.637 3.071,86.471" id="Fill-62" fill="#3D84A4"/>
                <path d="M12.144,91.618 C11.336,91.689 10.818,92.559 10.159,93.06 C9.787,93.344 9.397,93.618 9.288,94.146 C8.918,95.936 8.524,97.721 8.132,99.506 C8.032,99.96 8.212,100.137 8.657,100.224 C10.698,100.624 12.735,101.049 14.773,101.466 L14.773,92.809 C14.615,92.721 14.458,92.63 14.295,92.557 C13.571,92.234 12.893,91.553 12.144,91.618" id="Fill-63" fill="#39A69A"/>
                <path d="M2.188,102.504 C2.765,102.784 3.189,102.785 3.721,102.438 C4.754,101.766 5.82,101.142 6.89,100.529 C7.338,100.272 7.581,99.954 7.684,99.43 C8.005,97.792 8.377,96.164 8.751,94.538 C8.877,93.989 8.756,93.728 8.141,93.7 C6.91,93.643 5.681,93.53 4.637,93.454 C3.043,93.384 3.023,93.364 2.568,93.835 C1.703,94.73 0.856,95.643 0,96.548 L0,99.444 C0.151,99.807 0.299,100.17 0.423,100.542 C0.734,101.476 1.307,102.075 2.188,102.504" id="Fill-64" fill="#3D9C9F"/>
                <path d="M2.779,76.05 C2.703,73.838 2.224,71.667 2.074,69.462 C2.054,69.161 1.875,68.961 1.648,68.782 C1.125,68.37 0.59,68.014 0,67.855 L0,77.324 C0.936,77.106 1.873,76.887 2.809,76.668 C2.81,76.461 2.786,76.257 2.779,76.05" id="Fill-65" fill="#3880B2"/>
                <path d="M2.611,91.896 C2.503,90.444 2.401,89.215 2.327,87.984 C2.299,87.528 2.126,87.305 1.664,87.153 C0.971,86.925 0.442,86.753 0,86.645 L0,95.854 C0.544,95.243 1.101,94.643 1.696,94.086 C2.421,93.408 2.877,92.696 2.611,91.896" id="Fill-66" fill="#308FA0"/>
                <path d="M3.366,86.814 C2.863,87.095 2.741,87.458 2.787,87.99 C2.905,89.378 3.005,90.768 3.079,92.159 C3.108,92.708 3.344,92.926 3.883,92.955 C5.155,93.024 6.424,93.133 7.936,93.243 C8.737,93.488 9.558,93.107 10.273,92.367 C10.521,92.111 10.803,91.88 11.099,91.68 C11.634,91.319 11.803,90.906 11.559,90.26 C11.251,89.444 11.047,88.588 10.803,87.747 C10.147,85.488 10.142,85.506 7.992,84.744 C7.491,84.566 7.089,84.572 6.644,84.849 C5.561,85.521 4.477,86.193 3.366,86.814" id="Fill-67" fill="#3D86A0"/>
                <path d="M11.726,69.652 C11.727,69.319 11.712,68.985 11.745,68.656 C11.793,68.188 11.582,67.986 11.144,67.988 C10.867,67.99 10.588,68.01 10.313,68.044 C8.345,68.29 6.379,68.553 4.409,68.788 C2.391,69.029 2.417,69.034 2.699,71.117 C2.919,72.731 3.175,74.344 3.256,75.975 C3.288,75.976 3.319,75.971 3.351,75.975 C3.399,75.999 3.445,76.005 3.492,76.024 C3.428,76.085 3.365,76.148 3.27,76.197 C3.818,77.032 3.97,77.107 4.76,76.682 C6.789,75.592 8.797,74.462 10.825,73.371 C11.267,73.133 11.43,72.82 11.459,72.332 C11.511,71.461 11.633,70.594 11.726,69.725 C11.714,69.708 11.701,69.696 11.688,69.679 C11.702,69.67 11.712,69.66 11.726,69.652" id="Fill-68" fill="#6483B5"/>
                <path d="M3.492,76.024 C3.445,76.005 3.399,75.999 3.351,75.975 C3.319,75.971 3.288,75.976 3.256,75.975 C3.259,76.049 3.267,76.122 3.27,76.197 C3.365,76.148 3.428,76.085 3.492,76.024" id="Fill-69" fill="#6483B5"/>
                <path d="M11.726,69.725 C11.727,69.7 11.726,69.676 11.726,69.652 C11.712,69.66 11.702,69.67 11.688,69.679 C11.701,69.696 11.714,69.708 11.726,69.725" id="Fill-70" fill="#6483B5"/>
                <path d="M0.95,60.913 C0.635,60.759 0.317,60.607 0,60.455 L0,66.831 C0.061,66.72 0.111,66.595 0.154,66.451 C0.578,65 0.986,63.542 1.485,62.116 C1.717,61.457 1.492,61.18 0.95,60.913" id="Fill-71" fill="#4D93C3"/>
                <path d="M11.408,17.101 C11.341,17.067 11.274,17.031 11.207,16.98 L11.202,16.985 C11.28,17.036 11.345,17.093 11.406,17.152 C11.41,17.135 11.405,17.118 11.408,17.101" id="Fill-72" fill="#4EBAC9"/>
                <path d="M11.413,16.906 C11.344,16.931 11.276,16.955 11.207,16.98 C11.274,17.031 11.341,17.067 11.408,17.101 C11.405,17.118 11.41,17.135 11.406,17.152 C11.345,17.093 11.28,17.036 11.202,16.985 C11.199,17.17 11.217,17.352 11.228,17.536 C11.293,18.626 11.562,19.693 11.643,20.778 C11.699,21.528 12.018,22.031 12.559,22.497 C13.31,23.143 14.061,23.794 14.773,24.48 L14.773,15.678 C13.654,16.091 12.533,16.497 11.413,16.906" id="Fill-73" fill="#4EBAC9"/>
                <path d="M7.003,60.227 C6.553,60.566 6.799,60.82 7.004,61.114 C8.374,63.069 9.736,65.03 11.119,66.975 C11.629,67.691 11.828,67.742 12.619,67.396 C13.343,67.08 14.057,66.738 14.773,66.401 L14.773,60.275 C14.017,58.894 13.256,57.505 12.457,56.046 C10.587,57.483 8.805,58.869 7.003,60.227" id="Fill-74" fill="#5C9CC8"/>
                <path d="M12.97,53.291 C12.949,54.271 12.57,55.272 13.087,56.227 C13.645,57.257 14.207,58.288 14.773,59.328 L14.773,52.483 C14.343,52.605 13.915,52.736 13.487,52.873 C13.256,52.947 12.977,53.003 12.97,53.291" id="Fill-75" fill="#61B5DA"/>
                <path d="M4.512,60.359 C3.687,60.289 2.263,61.164 2.026,61.888 C1.494,63.511 0.998,65.145 0.493,66.777 C0.409,67.048 0.342,67.352 0.629,67.536 C1.415,68.037 2.085,68.721 3.197,68.547 C5.707,68.157 8.233,67.87 10.943,67.516 C9.479,65.421 8.087,63.532 6.816,61.565 C6.235,60.665 5.433,60.437 4.512,60.359" id="Fill-76" fill="#6685B6"/>
            </g>
        </g>
    </g>
</svg>