<svg xmlns="http://www.w3.org/2000/svg" xmlns:xlink="http://www.w3.org/1999/xlink" width="282" height="314" viewBox="0 0 282 314"><defs><path id="zhtta" d="M660.85 5202.62c.04-.02.03 0-.01.01v-.01m0 .01c-.3.46-.73.78-1.26.97-1.04 0 .96-.82 1.26-.97zm2.5-1.94c.61-3.65 2.32.2 2.49 0-.57.71-1.85.18-2.5 0m4.14-1.75c-.16.2 1.22-2.54 1.22-.48 0 1.05-.95.14-1.22.48m16.53-.48c-.18-1.43-.56-2.4-1.43-4.22.4.81 3.95-3.25 5.5 1.25.39 1.1-1.13 6.37-.6 6.46-.65-.11-3.75-.18-2.65 1.1-1.34-1.55-1.72-2.54-.82-4.59m-1.43-4.22zm3.45-3.82c-.49 1.45-1.52-3.36-1.22-4.31-.05.16 2.04-2.31 1.3-2.31 1.53 0 1.4 5.95-.08 6.62m-1.22-4.31zm23.7 22.38c-1.3 4.3 1.27 3.01-1.82 3.47-1.69.24-8.48-2.22-7.67-4.19.17-.4 10.96-3.26 9.48.72m-.06 7.76c.19.41.19.83 0 1.25-1 .16-1.25-1.21-1.5-1.25h1.5m-62.51-73.66c-.08 1.86-4.94.3-5.8.06-3.54-.99-2.13-.12-2.1-2.15-.03 2.43 2.35-4.97 1.6-3.35 0 0-1.31-.93-.93-1.7 1.58-3.08 3.96.31 5.63-.8-.67.45.02-4.64-.1-5.04-.48-1.5-3.08-.09-1.86-4.14-.36 1.2-3.43 1.5-4.22 1.13-1.9-.88.07-1.55-.46-2.46.22.37-.32-3.27-.3-3.23-.26-1.42-2.12 1.4-2.33 1.23-.77-.62.74-4.07 1.38-5.58-.54.53-1.65-.77-1.71-1.38-.06-.53.37-1.4.43-1.89.2-1.57.58-2.74 1.23-4.26.95-2.24.1-2.5 1.95-3.41.9-.44 4.04.05 4.3 1 .55 1.97-2.33 3-2.54 4.92 2.06-1.88 6.98-.8 6.99 1.7 0 .85-4.1 5.18-4.73 4.54.78.8.91.99 1.35 1.77-.38-.5-.8-.44-1.26.15 4.73 1.06 4.54 3.68 6.73 6.65 1.9 2.57 3.14 4.42 4.85 6.87.6.85-.27 2.05.4 2.55.45.34 1.9.2 1.57-.12 1.3 1.24 4.52-1 3.92 4.08-.11.92-2.24 1.27-2.2 2.08-.04-.88-.92 1.68-1.04 1.9.13.38 3.35-.4 2.97.27-1.9 3.31-5.07 3.1-8.58 3.7-1.02.18-8.7.16-9.1.86-1.33 2.33-.08.68-2.95 1.81-.8.32-4.1 1.36-4.13 1.38 1.17-.9 4.71-6.32 5.3-6.42 1.85-.3 5.62.35 5.74-2.72m-11.04 9.14zm1.8-35.84zm1 8.25zm-4.07-4.06c.64-.03.05 1.56-.41 1.69-.05.01-.05-1-.4-.5-.05.06.86-1.32.81-1.2m1.32-.74c.4.14-.43 1.44-.55 1.27-.13-.2.27-1.37.55-1.27m1.38 2.62c.23-.6.5.96.5.99-.1.4-.72-.4-.5-.99m-2.53-4.52c-1.54-.3 2.51-.43.9.7-1.18.82-1.09-.74-.9-.7m-1-4.97c-1.6-.34.4-.8.61-1.21.25.6 1.13 2.36 1.13 2.28.03.56-1.65-1-1.74-1.07m.61-1.21c-.06-.15-.08-.22-.05-.2.07.06.08.13.05.2zm-1.89-1.68c.31-1.76 1.3-.96 2.36-2.6-.7 1.09-2.65 4.05-2.36 2.6m-.8 1.1c.05.11.12 1.36-.32.72-.43-.47-.32-.71.32-.72m-.56 2.54c.6-.3.4 1.53.1 1.2-.1-.1-.22-1.14-.1-1.2m12.3-9.6c.62-.43.77.75.85 1.02-.06-.2-1.68-.46-.85-1.03m.85 1.03zm-17 22.58c1.22-.64.52-4.31 4.79-2.5 3.5 1.47 4.13 2.98 3.44 6.75-.08.42-2.13 7.66-2.27 7.76-1.53 1.04-5.53-.33-7.18.88-1.94 1.43.28 4.05-2.84 3.4-5.46-1.11-.49-4.97.85-6.66.24-.31-2.84-1.91-3.2-2 4.3-2.3-1.31-3.5.02-6.13.06-.1 5.6-1.1 6.39-1.5m-37.31-53.65c-2.9-2.17-2.03.74-4.1-.17 1.13.5-5.66-2.21-2.26-3.2.8-.22 3.46.72 3.78-1 .5-2.66-2.98-1.93-4.15-3.14-.4-.4-.73-.71-1-.94.49 0 1.12-.24 1.77-1.05.43-.53 2.5-.46 2.23-2.03-.59-3.38-9.37 2.44-5.07-3.57-.14.2 6.74-3 5.26-3.47 2.77.87 1.19 8.07 1.64 8.3.84.43 5.05-5.49 5.16-5.64-2.86 4.16 3.3 1.09 1.28.52 1.97.56 2.07-2.87 3.56 1.6.01.03 6.23-3.98 7.33-2.16-.66-1.1 3.71-.45 4.32-.1-.93-.54 3.09 5.75 3.09 4.34 0 1.94-2.9 6.43-4.03 7.48-.64.6-9.08 5.42-9.58 3.48 1.14 4.43-7.23 1.17-9.23.75m-7.73-8.45c-1.12-.01-1.53-1.3 0 0zm107.4 59.99c-1.26 2.08-2.38-3.36-1.81-2.56.15.2 3.05.48 1.8 2.56m1.79.51c.25-.2 2.67.16 2.91.66.49.97-4.54.68-2.91-.66m1.64-1.64c0 1.2-1.49-1.8-1.5-1.88-.12-.62.91-2.34 1.15-1.73.2.52-.06 1.6.91 1.5-1.04.12 2.25-4.34 1.89.02-.01.1-1 3.04-1.13 3.07-.7.09-1.14-.24-1.32-.98m5.87 2.99c.11.27.21.53.3.8-.42-.25-1.46 1.02-.3-.8m.47 1.28l-.16-.47c.1.06.16.2.16.47zm4.13-3.47c-.63-.8-.59-1.35.14-1.63 1.15.36 1.48 2.82-.14 1.63m12.73-14.07c-.04.03-.06 4.02-1.83 3.94-.43-.02-.16-3.55 1.83-3.94m2.68-1.32c0 1.01-.85.38-1.29.5.14-.16.11-.42-.08-.78.48-.02.94.07 1.37.28m-1.46.62a.3.3 0 0 1 .17-.12.46.46 0 0 1-.17.12zm12.29-5.18c.27.4-2.87 2.87-3.2 3.06-.79-1.84 1.77-5.2 3.2-3.06m-1.38-1.5c-.4.04-.8.04-1.2 0-.14-.54.02-.96.51-1.25 1.43 0 .76 1.32.69 1.25m-10.18-8c-.04-.58-1.35-.14-1.26-.38.97-2.63 2.28-.43 2.42.94-.55.38-.94.19-1.16-.56m-16.74-53.47c-.18.23-1.89 1.62-2.18 1.55-1.53-.32.96-4.34.98-4.3.06.61.15 1.22.26 1.82.34.08 1.43-1.75 1.63-1.5.77.96-.38 1.75-.7 2.43m-4.69 1.56c-.2-.54 0-.05.8-.86-.7.7-.48.69-.4.66l-.4.2m.82-.87h-.01zm-.41.67c.05-.02.03-.01 0 0zm-1.37 1.25c.06.14-.81.77-1.09.65-.37-.15.45-2.1 1.09-.65m-2.91 1.2c.56-.24.26-.08-.14.19 0-.08.03-.15.14-.2m-.14.2c.02.36.9.98-.45.88-.72-.05-.06-.55.45-.88zm5.35-6.04c.04-.08.9-.82.87-.66-.06.24-.66 1.84-1.01 1.84-.03 0-1.2-.48-1.41-.57-.77-.3 2.1-1.81 1.55-.6zm1.3-1.78c-.25.3 1.26-2.88 1.66-2.08.67 1.33-2.36 2.96-1.67 2.08m3.57-2.4c.63-.31 1.37-2.05 1.6-1.83 2.4 2.29-3.2 2.63-1.6 1.83m-.81 2.22c.04-.44 1.85-.32.87.83-.36.42-.87-.82-.87-.83m6.5-6.6c2.25-.77.5.71.83 1.1-.22-.2-.93-1.06-.82-1.1m.87 1.14a.34.34 0 0 0 0 0zm-1.5-1.92c-.2-.33.93-.94 1.08-1.01.02-.01-.6 1.84-1.08 1.01m2.88-1.68c.65-.19 1.36 1.36 1.44 1.71.26 1.19-3.05-1.26-1.44-1.71m2.07.64c.78-1.25 1.14 1.42.94 1.28-.36-.26-1.32-.67-.94-1.28m6.23-2.18c.1-.02 2.01.47.56 1.13-.06.03-1.5-.94-.56-1.13m-.66-1.34c.01-.34-.2-.48-.45-.5 1.09-.3 2.8-.76 3.17-1.04-.44.57-2.78 2.94-2.72 1.54m2.72-1.54c.04-.06.07-.1.06-.12.02.04 0 .08-.06.12zm-4.1 1.32c.16-.15.59-.3.93-.28-.52.14-.9.25-.93.28zm3.2.76c1.8-1.47.69.61.3 1.08a.97.97 0 0 1-.3-1.08m7.67-5.48h-.02c.12-.08.16-.1.02 0m-.02 0c-.44.28-2.02 1.27-1.33.12l1.33-.12zm70.26 7.9c.79-2.19 8.22 2.56 4.82 3.7a1.49 1.49 0 0 1-.33-.56c-.81 2.45-7.1 4.09-4.5-3.13m33.58-7.43c1.95-.05.16 3 .6 3.04-2.51-.26-2-1.8-4.26-3.46-.68-.5 0 2.06-.82 1.31-.93-.86-.97-1.68-2.14-2.86-.34-.33 1.44-.1 2.01-.01.05-.17-1.37-1.55-1.24-1.75 1.53-2.35 4.91 3.76 5.85 3.73m-.99 5.63c-.13.5-2.71-1.24-1.73-1.78.47-.26 1.8 1.55 1.73 1.78m-3.19-2.59c.47.15.67.47.6.98-.64-.02-.84-.35-.6-.98m-7.3-6.12c-1.46 2.7-1.44-.42-2.87-.5-.69-.03-2.37 1.01-2.31 1.4-.96-.65-5.82-3.6-6.63-4.07.55.01 2.84-1.02 1.05-2.04-1.75-1-4.04-2.36-4.04.62 0-.2-4.17-2.63-4.52-3.77-.72-2.33.61-.99.8-2.04.14-.68.2-1.48.53-2.41.15-.45 2.31-1.52 2.32-1.54.16-1.65-2.3-2.21-2.27-2.77.05-.68.3-3.06.4-3.98.15-1.18 1.61-4 3.11-5-5.88 2.96-.27-2.97-.12-3.62.2-.9-2.18-10.05-2.52-10.22.91.45 6-2.47 6.07-2.12-.93-4.18 2.78-8.42 6.22-10.39 4.92-2.81 7.5-2.15 10.77-6.87 1.76-2.53 7.34-7.2 9.06-.98.82 2.96-2.33 5.11-4.18 6.69-2 1.7-3.4 3.1-5.41 4.9-1.83 1.63-3.67 1.5-5.2 3.85-1.18 1.8-1.29 4.13-2.16 6-1.05 2.27-4.19 5.32-4.76 7.88-.5 2.26.02 5.3-.25 7.76a30.29 30.29 0 0 0 1.88 14.88c.93 2.25 6.89 4.9 5.03 8.34m-17.07-39.94zm5.14 36.71l.12.06c-.08 0-.12-.02-.12-.06zm6.9 4.27c-.1-.03-.15-.07-.15-.13.13.09.19.14.15.13zm-112.44-63.78c-4.37.19-2.32 12.35-2.63 15-.05.44-2.1 7.21-1.63 7.13-3.11.54-2.95-4.2-2.95-5.6 0-.68-2.64 1.41-2.93.22.13-.5.38-.93.78-1.27a5.92 5.92 0 0 0-2.83-2.32c.01.1-.62-2.46-1.06-2.79 1.18-.16 6.22.8 4.65-2.14-.85-1.6-4.65.42-5.58-1.56-.87-1.82 7.23-4.27 7.21-5.33-.03-2.96-9.33 2.65-9.1 2.72-2.46-.8-3.37-5.78-4.26-7.6.48-1 .45-2-.08-2.97-.88-.6-1.8-1.11-2.8-1.52-.26-1.6 1.22-3.5 2.55-4.23 4.94-2.7 2.4.99 3.28 1.88.88.88-.03 1.74 2.48 3-1.04-.52-1.56-6.39 2.74-1.92.01.02 1.1 7.34 3.02 5.42 1.23-1.23-4.42-9.37-2.39-10.91.56-.43 16.39 14.58 11.53 14.79M688.67 4966c-.13.02-.22.05-.24.1.07-.14.15-.16.24-.1zm17.13-9.62c2.68-4.28 2.37 4.46.15 2.14-1.26-1.3-3.45-1.81-.15-2.14m2.28 5.37c.86-1.16-1.93-2.68 1.89-3.2 2.06-.27.42 1.3 1.34 2.08 1.74 1.47 3.9 2.94 1.35 6.23.18-.25-4.67 1.6-4.58 1.65-2.35-1.2-2.2-3.75-2.13-5.75.7-.36 1.4-.7 2.13-1m1.23-15.76c-.1.68-3.55 2-5.21 1.78.84.1-3.3-2.71-4.58-3.3 1.16-.35 4.98-2.27 4.73-2.48-1.51-1.26-4.5 1.1-6.09-1.2-.53-.78-.08-5.18 1.25-5.18.97 0 7.68 4.53 6.54 5.17 1.64-.92.09-4.28 1.58-5.53-.47.4 5.56 1.85 5.81 2.01 2.26 1.43 3.73 4.25 3.13 6.63-.63 2.48-8.11 8.26-7.16 2.1m-9.79-1.52c-.18.06-.3.08-.32.04-.13-.19.01-.18.32-.04zm17.38 8.15c3.17.69.97 2.74 1.26 2.87-1.3-.55-1.17-2.1-1.26-2.87m-36.02 9.25c.29-.36-2.82-5.4-3.38-6.18.13.18 5.72 3.28 3.38 6.18zm85.71-37.33c-1.1 1.79-7.76-2.08-5.02 4.63-9.33-.82-1.15-9.28 3.64-6.43.01.17-.03.28-.14.34.58-.01 1.86.9 1.52 1.46m-1.19 1.94c1.63.85 2.77-5.46 5.1-4.87 3.08.77.7 1.96.35 3.5-.08.31-1.3.44-1.5.74-.55.76 1.2.8 1 1.63-.28 1.1-2.03.03-2.37 1.5.14-.62.99 5.03-.33 4.27-.1-.16-.18-.32-.26-.48.35 2.13-6.16-4.62-3.79-4 .74.59 1.4.59 1.98 0-.03-.34-2.69-2.72-1.93-2.92l1.75.63m5.89 3.63c.91.26 1.1.85.56 1.75-.88 1.09-1.66-2.39-1.69-2.68.03.23.69 1.11 1.13.93m-1.13-.94zm3.63 1.35c.16-.34 1.2 2.91 1.36 2.94-2.61-.4-1.7-.02-1.36-1.4zm-4.95-12.42c-1-.34.37-1.82.58-1.4.17.34 1.04 1.94-.58 1.4m10.8 11.75c-1.46 1.95-1.72-2.01-1.81-2.11-.05-.06 3.03.5 1.81 2.11m3.26-3c-1.58-.2 2.88-.36.97.78-1.7 1.02-.76-.75-.97-.78m-1.41.56c.26.46.27.89.04 1.3-.18-.52-.77-2.02-.04-1.3m0 1.36l.04-.06c.06.18.07.24-.04.06zm-2.78-3.51v-.01m-.26-1.24c.18.39.26.8.26 1.24-.01-.21-.72-.46-.26-1.24zm9.2 2.22c-.16 2.39-2.87 3.33-2.28.94.17-.72 2.43-3.03 2.29-.94m-2.63-1.55c.38.63-1.4.84-1.71-.26.6-.21 1.18-.12 1.71.26m-3.65.3c.41-.47 1.43.73.3 1.25-.5.23-.18-1.4-.3-1.25m-.73-.97c-.04.2-.6 2.12-.88.29.17-.86.46-.96.88-.3m9.51 4.03c-1.61.23-4.2-7.17 2.03-3.38-1.06-.64-2.06 3.38-2.03 3.38m3.26 1.17c-.48-2 .77-1.14 1.78-1.88 1.83-1.33-.7 2.08-1.7 2.8.3.06.44.26.4.6-.52.3-1.7-.55-1.08-.59l.3-.03c0-.16.1-.45.3-.9m.22-6.12c-3.55-2.61 1.15-8.06 2.16-7.45 2.99 1.8-.56 1.9-.42 2.79.18 1.17 2.14 2.45 2.14 3.21 0 .72-3.23 1.94-3.88 1.45m.18-7.14c-3.47 1.82-1.4-1.64-1.88-2.15-.37-.4 5.1.47 1.88 2.15m3.82-1.78c.89-1.64-.1-9.23 2.88-3.64 1.14 2.14.6 1.5-.25 3.27-1.2 2.49-3.57 2.11-2.63.37m-12.47 7.57c-.4.16-2.46 2-2.15-.54.25-1.93 2.23.57 2.15.54m-4.96-.75c-.65-.22-1 .2-1.7-.3-1.56-1.1 3.71.06 3.76.08.08.03-2.42 1.94-2.06.22m7.56.65c.35.57.25.87-.3.9-1.35-.13.3-1.09.3-.9m-3.53-1.78c-.54-1.39-5.7-.74-5.85-3 0-.06 8.23.74 8 2.61-.1.78-1.81 1.25-2.15.4m-1.32-3.86c-.9-.11 2.05-.18 3.57 1 .49.4-2.89-.9-3.57-1m-2.6-.77c-.75-.65 3.01-2.1.5-2.32-.51-.05 3.83-2.52 3.55-.88-.16.9-2.9 4.2-4.05 3.2m1.88-4.66c-1.17-1.91 1.72-2.5 2.17-1.29.16.45-1.25 2.79-2.17 1.29m1.04-3.85c-2-2.56-.1-.1-.1-2.4-.01-1.83 1.75 4.5.1 2.4m2.7 2.38c.87 1.03.89 1.68.05 1.96-.26-.28-.87-2.55-.06-1.96m-.8 5.03a.08.08 0 0 1-.03-.01c-.05-.06-.03-.05.03.01zm3.22.97c-.08 1.24-2.16 1.06-1.79.23-.1.21-1.17-.93-1.43-1.2.35.13 3.25.48 3.22.97zm-.13 2.28c2.36-1.18-2.68 2.99-1.14.89.9-1.24.08-.36 1.14-.89m-97.7 191.53c0 .26-.12-.45.07-.37a1.4 1.4 0 0 0-.07.37m117.65 81.73c-2.82 1.01-5.4 2.47-8.36.42 2.64-1.04 1.94-4.43 1.44-6.2-.62-2.18-.95-2.27-4.27-4.13-2.48-1.39-4.17-3.46-6.41-4.89-.85-.53-7.08-1.16-6.9-3.46 0 .07 2.22-.74 2.74-1.38-.26.2.26-3.12 1.06-3.65a13.3 13.3 0 0 1-1.68-1.02c.66-.45 2.02.42 2.41-.4.13-.29-.55-1.76-.7-1.72.27-.06 2.82-1.65 2.7-1.69-2.72-.67-15.75 3.18-15.47 6.5.2 2.47 8.07 3.58 8.02 1.9.06 2.24-5.87 3.37-7.17 3.51-2.51.28-2 1.42-5.33-.24-.09-.05 2.1-1.6 2.07-1.7-.3-.9-3.57-.58-3.57-2.24 0 .64 2.53-1.54 2.44-1.5-5.37-1.84-5.8-5.18-9.84.26-2.34 3.16-5.24 5.69-6.47 8.2.04-.07.27 2.58.16 2.97-.2.76-1.6.67-1.88 1.32-.59 1.38-1.64 4.04-1.33 5.24.16.61 4.86 4.83 4.68 5.84.03-.59-5.86 2.11-7.72 3.13-.03-.65-1.52-1.95-1.99-2.1-3.14-1-3.11.81-4.21.84-.98.03-.83-.83-.81-1.49-.2 1.08-2.4 1.5-2.55 2.27.03-.13 2.5 2.81.63 2.81-.77 0-1.5.28-2.3.42-.46.09-.92-3.18-1.6-3.54-2.77-1.48 2.15 7.6 1.96 7.31.3.45 1.94 6.21 2.44 6.38-1.94-.65-2.78-.73-3.23.03-.83 1.37 1.1 3.62.62 4.37-.42.66-5.1-.77-5.61-1.3-.2-.2.06-3.64-.66-4.82 1.47.24 3.54.74 3.37-.28.02.14-5.82-1.88-6.26-2.25-1.74-1.48-.47-2.5-2.2-4.43-.66-.75-2.9-2.04-3-2.2-1.42-2.35.07-4.01-.22-5.42-2.19-10.9-16.85-9.7-18.3-19.4-.08-.45-2.24 3.45-3.27 1.87-1.81-2.8 1-1.8 1-3.06 0 1.2-10.24-.87-6.19 6 .92 1.57 3.67 2.6 4.87 3.9 1.32 1.43 1.91 3.63 3.45 4.88 1.52 1.25 3.32.35 4.91 1.7 1.64 1.4 1.02 2.54 2.6 3.78 1.32 1.02 3.58.92 5 2.28.15.15 3.88 4.25 1.75 3.77-2.09-.48-2.4-2.6-3.83-1.76-2.45 1.45.39 5.17-.85 7.9-1.19 2.65-3.02 4.31-3.82 2.06-.69-1.95 1.11-4.16.2-6.63-1.92-5.13-8.47-6.69-12.34-9.44-4.44-3.15-6.26-9.97-11-11.77-2.92-1.1-5.21.03-7.63 1.54-.9.56-1.87 2.96-3.03 3.3-3.26.91-2.4-.95-5.2-1.26-3.12-.35-5.01-.66-6.64 2.38-.65 1.22.65 3.8-.34 5.55-1.48 2.66-5.48 1.95-7.36 3.86-.48.5-2.3 4.62-2.5 5.66-.7 3.62.78 4.08-1.94 7.56-1.85 2.38-2.82 1.55-6.1 3.97-.23.18 1.78 1.05 1.78 1.29 0 1.29-9.11-.05-9.32.05-.71.35 1.35 1.6.62 1.95-4.55 2.13-9.93-1.65-13.78-3.38-4.05-1.81-2.02-3.97-4-7.5-4.06-.73.5-5.96 1-8.7.68-3.8-.64-8.5.81-11.88.54-.05 1 .11 1.38.5-.4-5.51 16.47-.57 19.75-.93 4.36-.46 2.67.16 4.8-3.63-.17.3 2.07-4.67 2-4.07.15-1.3-3.62-10.13-5.35-8.76.48-.39 1.2-1.15 1.65-1.49-1.92-.67-2.64-1.29-4.25-1.96-1.02-.42-2.73.14-3.8-.66.03.06-.57-.12-.01 0-.55-.4-1.34-4.64-1.5-4.68 1.55.36 4.18-.08 5.27-.12 1.4-.06 2.32.8 3.97.11 4.77-2-1.48-2.26.11-4.7-.47.72 6.43 1.4 7.57.94-.1.04 3.97-2.89 4.9-3.81 1.08-1.07-.2-1.77 1-3.09 1.02-1.1 2.76-1.24 3.66-2.15 1.87-1.88 1.95-1.45 3.12-4.23.54-1.31.5-3.33 2.56-4.77.79-.55 6-1.54 6.65-.9a25.1 25.1 0 0 0-.43-1.94c.53-.27 2.9.8 3.7.66.36-.05 4.98-1.47 4.63-.83.88-1.62-3.95-3.9-4.23-4.67-.17-.48.19-2.33-.3-3.5l2.06-.37c-1.19-2.01-1.6-3.66-1.74-5.66.14 2.02 5.1-4.17 1.18-4.01 1.3-.05 4.8-.05 5.89-1.69a47.28 47.28 0 0 1-1.94 3.48c.16.85 4.18 2.8 3.56 4.03.55-1.09-6.45.47-5.6 1.44 1.75 1.95 2.78 6.82 5.37 8.15 3.52 1.8 5.6-.97 9.72.26 1.54.46.5 2.65 3.08 2.44-.36.03 3.75-3.03 4.43-3.39 1.7-.9 11.43-5.34 11.43-1.84 0 4.07 9.84-4.05 11.54-.66-.15-.31.05-2.82.42-2.27-2.35-3.52-5.67-.64-6.5-5.4-.4-2.25.63-6.71 3.08-7.97 3.94-2.02 3.28 4.43 6.14 2.3.35-.26 1.63-5.35 1.6-5.44-.35-.92-4.14-.84-4.12-1.4.12-3.46-1.67-6.4 5.3-6.98 1.9-.16 7.93-1.23 8.53 1.46.28 1.29-2.28 1.99-2.33 3.7 0 .35 3.36 7 3.88 2.94.15-1.1-1.52-3.35-1.58-4.68 0 .05.77-2.61.73-2.5.36-1.07-.28-.89.48-2.3.57-1.05 3.35-1.26 3.57-2.34.07-.35-3.63-4.13-2.9-4.6-2.97 1.89-7 2.47-10.63 3.29-3.7.83-7.6 2.48-10.94-.18-2.95-2.35-3.95-8.07-4.08-12.1-.18-5.46.9-4.88 3.52-7.38.68-.65 7.54-6.63 7.66-5.98-.08-.44-2.06-1.7-2.1-1.96.06-.15.67-2.32.82-1.91-.56-1.52.8-1.88-1.5-3.7-1.04-.83-10.96-1.54-9.95 1.44.1.26 1.88-.19 2.8-.36-1.78.88-3.4 8.46-.13 6.58-4.72 2.7-12.12 9.89-13.61 16.07a20 20 0 0 0 .22 5.82c.7 1.86 2.85 2.85 3.72 4.97.92 2.24-.55 3.9-2.6 4.38 2.02-.02 4.23-.07 4.48.4 1.28 2.47-1.9 1.4-2.34 2.6-.73 2.08-2.86 4.23-3.06 7.17-.15 2.16 1.5 3.63.26 6.68-.13.31-3.15 3.65-2.63 3.65-1.14 0-2.35-2.53-3.83-1.77-1.23.64-1.15 4.32-3.14 4.56-4.7.55-2-4.83-3.1-7.22-1.58-3.42-4.48-5.35-5.34-9.32-.17-.78-.21-3.4-.28-3.85-.03.09-1.04-1.65-1.66-2.86-.29 1.51-3.08 3.3-3.7 3.46-.38.1-1.28-1.67-1.48-2.16.68 2.1-3.21 9-5.93 8.09-1.03-.35-7.28-6.8-7.62-6.65.73-.3 2.72-.23 3.56-.22-1.04-.6-1.05-.9-2.53-1.34.42-.23.8-.5 1.17-.81a7.11 7.11 0 0 1-1.64-.85c-.66-.88 2.49-.71 2.16-1.69-.52-.4-1.05-.77-1.6-1.12-.1-.22 3.25-1.2 3.52-1.27-1.23.3-4.36-1.47-4.25-1.5.04-.02 3.15-1.32 2.78-1.43-.46-.13-3.95.62-4.1-.11-.55-2.6 5.73-1.12 6.47-1.71 2.37-1.9-3.06-1.62-2.7-1.3-2.4-2.15-4.43-4.46-.3-6.1a4.32 4.32 0 0 1-.64-1.13c.92 1.21 6.84-.52 4.23-2.3 1.82.74 4.33 1.55 3.42.15-.08-.12-3.25-1.73-2.82-2.04.45-.33 4.87-.8 5.76-.96 1.82-.32 4.95.43 5.16-2.63-.3.16-4.77 1.46-3.98.05.3-.51 3.81-4.11 4.48-4a1.8 1.8 0 0 1-.97-1.11c.03 0 3.96-3.86 5.01-3.69-1.51-.25.12-4.04.31-4.63.1-.31.94-2.21.98-1.94.04-.64.26-4.18-.72-3.29 1.14-1.04 4.57-1.64 2.34-3.87.05.05 4.45-.52 4.09-.88-.53-.52-1.8-1.23-1.65-2.24-.1.79 3.9-4.11 2.44-4.38 3.16.57 2.77 2.42 5.18-1.52-.15.24-1.68 2.38-2.15 1.24-.48-1.17.25-5.2.73-5.78.45-.56 1.16.22 1.63.37a16.62 16.62 0 0 1-1.95-1.27c.77.02 1.52-.08 2.26-.3.13-.44-.42-1.85-.88-2.06.61.27 1.87 2.37 2.32 2.32-.18.02.14-4.54.1-4.63.33.54 1.26 3.9 2.02 3.96 1.58.14-.63-3.82-.84-3.9.43.17 2.29 2.07 2.35 2.38-.1-.47-.26-.99-.39-1.5 1.57.26 4.5-.42 4.43-1.23.51.41 1.06.78 1.6.6.8-.26-2.31-4.34-2.57-4.06 2.88-3.06 3.65 3.41 6.7 2.22.86-.34 2.48-7.4 2-7.74.6.32 1.16.72 1.66 1.17l-.37-1.22c.57-.19 5.47-1.58 5.47-1.12 0 1.87-3.13 2.92-2.95 4.56.36 3.21 8.93-7.56 8.93-5.7 0 .2-1.83 4.98-2.71 4.52.52.31 4.34 2.2 4.48 2.05 1.9-1.95-1.64-3.32 2.5-4.02.96-.16 7.08 2.04 5.7 3.7-.63.78-8.03 1.26-8.19 2.15-.57 3.34 9.56 1.74 9.71 1.76 1.26.16 1.43-.1 2.64.37.75.3 2.14 2.5 3.7 2.92 1.57.41 1.66-1.86 3.3-1.57 1.79.3 3.53 1.08 5.13 1.89 3 1.5 6.08 3.3 8.86 4.85 2.27 1.27 7.34 4.65 7.91 7.16.38 1.66-.87 5.85-3.18 7.37-2.19 1.44-8.07.99-10.44.47-1.81-.4-9.96-5.31-10.84-4.39-1.94 2.04 3.96 5.64 4.63 6.67.94 1.46.99 4.4 1.75 6.26 1.23 3 2.31 5.8 5.39 7 1.43.56 9.32-.07 10.26-.88-1 .87-15.54-10.1-5.55-7.69 2.23.54 2.99 4.18 5.68 4.17 4.52 0 2.18-2.04 2.29-4.41.23-5.03-.7-2.94 3.12-6.27 1.06-.92.68-2.72 2.35-3.05.93-.19 1.78 2.52 2.38 2.5 2.71-.09 2.82.18 3.2-2.7.24-1.83-2.6-4.73-2.59-4.8.24-1.32.34-4.06-.01-5.24-.28-.9-2.5-5.19-2.46-5.29 1.5-3.6 9.78 1.59 9.64 4.82-.07 1.66-2.94 2.24-2.2 4.45.82 2.5 4.9 1.78 6.2.56 1.7-1.57-.02-4.09 1.62-5.48.25-.2 3.47-.02 4.4-.66.25-.18 1.8-4.8 2.53-4.52.08.47-.02.9-.3 1.29.73-.73 2.39-2.28 3.23-2.82 1.23-.78 2.24.08 3.23-.62.6-.43-.72-1.97.12-2.2.45-.11 5.46-1 5.1-.18-.34.77-2.76.29-2.97 1.34.08-.39-.07 3.12-.42 2.93 5.91 3.18 5.24-3.48 5.39-3.5 3.56-.55 7.87 1.8 9.24-2.74.6-2 1.62 4.18 1.26 3.87.4.41 3.72 2.87 3.3 1.33a5.08 5.08 0 0 1-1.74-2.97c.7-.4 3.26.04 3.34-1.42.08-1.35-3.54-2.66-3.19-3.44.84-1.87 2.2-1.8.69-4.87 2.18.58 3.75-.53 5.64-.26 1.26.18 6.98 2.44 7.2 3.02a1.55 1.55 0 0 0-.26-.7c3.55-1.04 15.34 7.18 15.63 11.45.23 3.4-4.67 5.76-5.25 9.01-.83 4.74 3.18 2.7 3.52 6.97.18 2.34-3.24 5.79-3.68 8.56-.5 3.08.6 6.42 0 9.51-.68 3.56-2.46 6.07-2.56 9.45-.08 3.02 2.6 2.94-.98 5.25-1.66 1.07-4.07-.1-5.43.67-3.73 2.11-3.92 4.76-1.79 7.5.79 1.01 3.32.78 4.2 2.5-.04-.07-1 2.04-.98 2.35.1 4.52-2.47 4.35-3.59 7.33-1.15 3.07 1.23 6.21-1.7 8.96-.87.8-4.4 2.15-5.41 2.04-1.33-.13-1.6-2.19-1.93-2.26-2.78-.57-5.27-1.37-5.34 2.58-.03 1.82 2.46 3.96 2.8 5.85.5 2.65-4.3 8.36-4.4 8.07.43 1.12 2.36 1.62 3.13 1.82.98.24-5.53 7.89-5.7 8.6.41-.17 4.83-1.36 4.82-.82-.03 1.3-3.08 3.61-3.91 4.71-3.34 4.38-3.33.86.41 6.18 1.75 2.5 2.75 4.57 1.06 6.2-2.5 2.43-9.94-1.12-13 2.37-3.34 3.82 1.25 4.22 4.37 6.33 1.92 1.3 5.68 3.45 5.82 5.96.07 1.29-3.28 4.5-3.75 6.16-.23.81.64 3.4.24 4.34-1.55 3.75-3.9 2.38-6.86 5.1-1.5 1.39 1.27 2.94-.73 4.1-1.46.86-4.11-.55-5.84.06m-85.98-167.33h0zm-8.86 8.19zm-2.84-.35c-.76.57-.67 1.47-.45 2.38-1.14-.19-1.55-.87.45-2.38zm-3.6 1.44zm-2.4 2.3zm-17.63 34.25zm-12.71 9.79c.75.24 1.3.5 1.66.75a11.32 11.32 0 0 1-1.66-.75zm-2.69 2.68l.12.37a.59.59 0 0 1-.12-.37zm50.52-19.7a1.7 1.7 0 0 0-.52.05c.17-.08.35-.1.52-.04zm7.3 4.56v0zm-41.02 45.13c-.05.29-.15.55-.3.77.16-.34.27-.62.3-.77zm-6.2 2.46zm-35.77 51.83zm83.83 40.98c.66-.55 1.08-.44 1.36.02-.65-.1-1.19-.17-1.36-.02zm11.62-14.39zm6.54 3.6c-.13.01.08-.13.51-.37.01.22-.13.36-.51.38zm34.47-25.16zm4.75-6.7zm-73.03-131.92c-.41-.33-.8-.69-1.14-.8.79.26 1.12.54 1.14.8zm42.04 160.28c0 .03-.01.05-.03.08a.25.25 0 0 0 .03-.08z"/></defs><g><g transform="translate(-579 -4904)"><g><use fill="#75accf" xlink:href="#zhtta"/></g></g></g></svg>