<svg xmlns="http://www.w3.org/2000/svg" xmlns:xlink="http://www.w3.org/1999/xlink" width="234" height="229" viewBox="0 0 234 229"><defs><path id="27sra" d="M1221.03 5376.37c1.44-1.13 1.32.84 2.9.44 2.1-.53 4.1-4.95 5.73-4.95 2.28 0-2.24 6.75-3.41 7.32-2.45 1.17-9.07 0-10.87-2.24-.95-1.18 5.97-.82 5.65-.57m8.8-8c-1.11-.33-5.24.01-5.12-2.47.03-.7 6.83 1.65 7.46 2.48.52.66 2.07 6.74-.07 6.64-.06 0-.08-5.98-2.27-6.64m10.78 9.87c0-3.56 2.97 1.68 3.18 2.5.92 3.71-3.18-.02-3.18-2.5m6.46 3.95l-.03-1.36c.42-.48 3.52 2.61 3.59 3.15.06.45-3.4-.97-3.56-1.8m2.1 4.85c.41.42.71.9.9 1.46-.3-.09-3.41-2.6-2.67-3.15.83.24 1.43.8 1.78 1.7m7.59.32c-.38-.26-2.95-.98-2.63-1.79.28-.68 5.6.83 3.76 3.17-.42.54-.95-1.25-1.13-1.38m3.18 5.5a7.67 7.67 0 0 1 1.87 2.07c-2.17 0-2.38-2.58-1.87-2.07m3.98-.66c-.86-.83-1.8-2.32-1.5-3.67-.25 1.15 3.92 3.67 2.93 4.96-.6.8-1.18-1.04-1.43-1.29m.66 4.1c.23 0 2.15-.49 1.65.76-.57 1.47-2.39-.77-1.65-.77m10.7 51.91c-.37-.75-8.93-11.14-8.07-11.25 3.06-.4 9.17 7.95 10.58 10.12.44.68 5.42 2.69 1.25 3.83-2.11.57-2.96-1.1-3.75-2.7m-130.53-33.1c1.46-3.36-1.66-1.03-2.06-2.63.22.9 3.53-6 3.3-5.72 1.74-2.22 1.06-1.38 3.24-2.93.96-.68 3.72.8 4.33-.94.68-1.96-4.85-3.23-5.23-4.57-.1-.32 8.93 3.91 9.16 4 .73.28 2.03-.16 2.52.13.02.01 3 2.22 2.67 2.16 1.8.35 5.84-2.09 6.77.53 1.03 2.91-2.67 4.67-3.53 6.96-1.15 3.08-.74 3.1 1.83 5.7 2.44 2.48.2 1.36 3.7 2.84 1.67.7 3.17-.66 4.76.75 3.06 2.73.17 4.73 4.18 5.37 4.17.66 4.26-.95 5.56-4.1 1.22-2.95 1.47-7.1 2.2-10.19.47-1.97-.13-12.36.98-13.08 6.2-3.96 6.32 9.22 7.66 11.29 1.67 2.6 2.92 1.86 3.8 5.56.66 2.8 1.44 6.13 1.87 8.84.79 4.98-1.03 6.52 2.58 10.72 1.9 2.2 5.08 3.37 4.16 5.83 4.15 3.75 10.8 11.68 12.56 16.92.88 2.63.4 5.28 1.3 8.1 1.09 3.33 3.75 7.64 2.4 11.65-1.02 3.06-3.96 5.7-5.44 8.72-1.65 3.4-1.51 7.47-3.13 10.65-2.64 5.18-6.46 9.37-9.99 13.98-1.9 2.48-3.5 5.4-5.49 8.08-.93 1.25-1.78 3.9-2.35 4.67-1.68 2.3 3.42-.65-.45 2.06-1.8 1.26-5.1-.14-7.2.9-2.53 1.26-3.08 4.86-5.75 4.56-3.13-.35-4.37-5.13-8.5-4.53-3.85.56-3.02 4.2-7.73 2.21 0 0-3.78-4.27-3.37-3.5-1.4-2.6.1-4-.33-5.3-1.22-3.81-4.11-3-6.76-6.3-4.04-5.02 2.26.07 2.98-4.41 0 .03-6.12 1.72-6.28-1.44-.1-1.97 8.3-7 6.18-8.65-2.59-2-7.3 5.3-8.2 6.22-1.49 1.51.72 2.5-1.76 2.8-.56.08-3.8-2-4.02-2.9-.27-1.17 2.68-3.27 2.69-4.69.01-1.95-1.5-2.15-2.25-3.57-1-1.87-5.1-5.41-3.56-5.64-3.87-.37-7.23-1.93-10.66-2.56-4.4-.8-7.42.81-11.45 2-2.86.83-5.8.59-8.77 1.66-3.54 1.27-5.53 3.91-9.21 5.26-5.72 2.09-13.22-.13-18.4 3.32-3.32 2.22-2.32 3.74-7.01 2.32-.54-.16-4.91-2.05-5.13-2.4-1.06-1.75 1.18-1.97.96-3.28-.17-.98-1.84-4.2-1.6-5.2.86-3.47 4.1-2.32 4.28-7.04.1-2.49-1.1-5.86-1.63-8.28a78.18 78.18 0 0 1-1.18-6.05c-.1-.77.84-1.9.66-2.5-.32-1.14-2.52-3.3-2.62-4.33-.18-1.96 1.76-.74 1.97-2.38.3-2.44-.21-4.68-.05-7.1.26-3.88 2.43-8.72 4.83-11.77 3.46-4.41 8.04-4.14 13.14-4.64 3-.3 3.36-.98 5.73-2.19 1.8-.92 3.15-1.07 5.29-1.81 6.08-2.1 5.76-3.45 7.53-8.67 2.72-8 3.1 1.3 7.81-.89 1.11-.52 3.4-8.94 3.9-9.8.43-.73 2.84-4.45 4.56-5.15 5.7-2.33 4.75 2.16 8.18 4.81 2.2 1.7 7.48 2.75 8.87-.44m24.68 114.5zM1146 5406.75zm30.52 135.96c1.14-.98 3.39 2.49 5.05 3 .93.3 7.42-1.43 7.38-1.5 2.09 3.3-4.18 8.68-5.4 10.5-.78 1.17-1.08 2.6-1.78 3.82.52-.9-4.76 3.3-2.66 3.64-3.73-.6-3.6-5.68-3.76-8.46-.07-1.25 1.3-5.42 1.17-6.02-.09-.39-2.17-3.6-2.53-3.57.8-.54 1.65-1 2.53-1.41m-2.57 1.44l.04-.03-.04.03zm1.5-5.67c-2.71 1.23.23-2.7.27-2.6.14.34-.22 2.17-.28 2.6m13.83 3.47a3.22 3.22 0 0 1-.25-1.17c.3.06 2.32 2.16 1.32 2.26-.93.16-1.28-.2-1.07-1.09m.83-1.92c-.62.52-1.02.48-1.2-.12.16-.25.73-1.52.85-1.89.16.35 1.22 1.84.35 2m-1.2-.11c-.04.06-.05.05-.01-.07 0 .02 0 .04.02.07zm.85-1.89l-.02-.07c.05-.06.05-.03.02.07zm90.78 16.88c-.73.59-1.06 1.3-.98 2.14.32.37 4.23-1.07 3.99.03-.73 3.33-3.04 3.64-4.26 5.85-.77 1.43-.4 3.39-1.49 4.63-.48.54-1.94.27-2.4.74-1.71 1.8-5.12 4.28-7.04 6.46-.35.4-1.7.57-2.2 1.2-.38.49.58 2.33-.14 3.32-1.01 1.4-3.61 2.63-4.94 4.26-4.44 5.46-6.94 11.37-12.58 3.7-2.96-4.02-1.8-7.58 2.32-11.52 3.57-3.42 7-2.77 10.67-4.93.27-.17-.11-1.8.6-2.32.96-.7 2.19-.9 3.22-1.53 2.7-1.64 4.23-1.9 6-4.5.98-1.48 4.98-11.92 8.5-10.29l.73 2.76m7.75-4.77c1.31-2.3-3.52-2.76-3.75-4.13-.16-1 1.35-1.86 1.95-2.79.62-.96 2.07.22 3.27-1.4a44.6 44.6 0 0 0 1.46-4.41c.52-3.2.36-1.8-.43-5.09-.49-2.03-.7-4.53-.71-5.67 0-.5 1.16-2.22 1.2-3.21.13-2.48-2.3-5.8-1.24-8.28.43-1.01 3.58 7.3 3.62 7.7 0-.03.97 11.66 2.13 9.42 0 0 1.06-4.3 1.46-3.92 1.96 1.9-.82 6.08 1.16 7.94 2.02 1.9 6-.5 7.24.93 3.65 4.23-2.53 5.47-3.77 6.1.74-.37-4.61 3.85-5.17 2.53 1.94 4.57-.46 2.05-2.85 4.68-1.75 1.9-2 4.32-4.35 6.19-1.38 1.1-2.82 3.45-4.07 1.77-.77-1.03 2.28-7.35 2.85-8.36m-39.6 41.38c-.68.18-1.71 2.15-2.5 1.76-.4-.21 1.22-3.8 1.63-3.9.65-.12 1.95 1.85.87 2.14m-25.79-194.96c.1.04-6.2-.55-8.06-1.32-3.45-1.42-4.87-2.95-7.24-5.83-1.9-2.32-3.73-5.27-6.36-5-1.2.12-2.9 2.04-4.19 2.56-.83.32-3.44.42-4 .8-.94.62 5.47 3.76-.97 4.57-4.37.55-4.6-1.81-5.28-4.63-1.63-6.7 0-15.73 0-22.71 5.76 1.83 12.47 4.17 16.82 8.2 1.5 1.38 2.11 3.08 3.73 4.3 1.7 1.28 5.1 1.3 5.8 3.78.5 1.75-2.68.18-2.05 2.93-.12-.51 3.5 3.25 3.31 3.01.45.54.9 2.3 1.56 3.13.6.75 4.8 4.87 5.89 4.98-.3.07-.57.18-.83.35.5.51 1.12.8 1.87.88m-.87-1.26c-.04.03-.1.04-.17.03l.17-.03zm-7.62-8.09z"/></defs><g><g transform="translate(-1073 -5365)"><use fill="#75accf" xlink:href="#27sra"/></g></g></svg>