<svg xmlns="http://www.w3.org/2000/svg" xmlns:xlink="http://www.w3.org/1999/xlink" width="586" height="453" viewBox="0 0 586 453"><defs><path id="4f43a" d="M494.6 4968.8c.45-5.2-4.2-4.46-7.58-4.71-3.11-.24-7.59-1.79-10.63-1.38-1.25.17-3.55 2.1-3.83 2.1-3.42 0-1.23-2.97-1.23-3.16 0-3.81-6.1-2.72-1.88-6.95 0 .01-8.17-5.73 1.25-6.76 1.35-.14 2.96 1.12 4.6.99 1.16-.1 6.35-3.28 6.19-3.35-2.39-1.12-6.11.93-8.66.1-4.98-1.6-1.48-.18-2.63-2.36.3.57.39-2.56.3-2.84-.15-.55-5.24-4.41-4.49-4.62 6.52-1.84 10.2-5.74 17.19-5.64 5.3.08 4.21-.31 7.1-3.17 2.14-2.11 3.19-3.93 6.18-5.03-6.05-4.4-3.35-6.52 2.63-9.3.92-.43.88-1.5 1.96-1.85.96-.3 1.77 1.1 2.4.95 1.58-.41 3.3-.73 4.84-2.2.7-.67 2.1-4.17 2.39-4.32 3.27-1.59.85 1.24 3.94 1.31 1.88.04 3.12 1.66 5.02-1.77 1.17-2.1-1.13-4.36.42-6.34 1.5-1.92 5.7-.38 7.71-.01 5.62 1 4.38.17 4.67 4.22.16 2.1-2.21 3.6.43 5.6 2.35 1.76 3.82-.04 5.3-2.06 1.06-1.42 1.86-7.32 3.71-7.7 2.51-.54 3 6.74 3.38 8.07.56 1.93.94 5.25 3.13 6.21 1.08.47 4.94.27 5.5-1.14.4-.98-11.36-8.47-8.06-13.34 1.61-2.38 2.92 1 5.24 2.74-1.18-.88 3-3.47 3.67-3.68 2.98-.94 1.49-1.02 3.35.72 1.57 1.45 1.66 13.24 4.48 6.44.33-.79-.21-4.65-.34-5.32-.1-.47.98-.6.67-1.67-.11-.37-5.21-5.72-4.12-5.99 2.44-.61 5.15 3.85 7.58 1.84.64-.53-.47-3.17.67-4.4 2.06-2.2 10.27-1.38 12.64-1.04 1.54.23 11.4 2.47 10.64 5.3-.03.12-12.43.98-10.13 2.58 4 2.78 12.76-1.84 17.26.89 3.59 2.17 1.76 3.66-1.35 4.16 1.41-.15 2.17-.09 3.8 1.97 3.55 4.5-.24 5.15-3.95 5.6-2.25.27-10.98-.77-10.28 3.7.36 2.28 6.18.94 7.84.63l-1.31 1.76c4.33 2.06 14.45-2.34 8.37 5.7-.62.82-8.77 5.38-7.06 7.38 1.85 2.15 7.93-4.66 8.94-5.4 3.78-2.8 14.98-8.7 19.69-4.74 2.33 1.95 1.77 5.4.4 7.5-2.96 4.55-7.27 2.15-11.2 4.51.37-.22 6.28 1.2 6.35 2.25.18 2.8-6.65 1.48-7.72 1.51-4.66.16-3.39-.9-4.5 2.49.62-1.89 1.41 1.54 1.4 1.9-.06 2.22-1.64 5.17-2.2 7.4-1.18 4.76-4.08 9.65-4.4 14.5-.41 6.23.46.49 2.09 4.21.23.53 3.9 7.37 1.66 8-2.85.83-5.41-4.48-7.32 1.89-1.54 5.17 2.92 3.77 3.28 6.88.64 5.56-3.54 2.14-5.35 5.43-.59 1.08 1.29 3.6 1.87 5.6-1.64 1-5.08 1.85-5.47 2.77-.86 2 2.97 1.68 2.62 2.98-1.86 6.77-3.8-.53-6.38.8-4.93 2.52 4.08 6.99 1.18 10.66-1.26 1.59-7.57-2.86-7.56-2.75.2 2.07 3.1 4.2 4.55 5.38 5.43 5.65 2.82 6.12 2.82 12.77 0-.32-5.7-.7-6.16-1.12-.52-.49-2.63-8.35-3.17-7.85-1.75 1.65 2.63 6.89-.36 8.76-3.5 2.2-1.6-6.4-4.2-5.43-.7.26-.51 7.69-.19 8.05.38.42 11.51.69 10.97 2.67-.29 1.07-14.33 7.22-15.67 7.64-2.68.83-12.25 2.43-15.04 1.65.18.05.91-.4.22-.65-2.22-.83-1.13 9.8-1.52 10.26-1.74 2.01-9.23-1.74-10.14.8-.73 2.01 3.76 4.13-1.08 5.56-3.22.95-5.63-5.3-6.75-4.58-1.23.78-.81 4.8-2.1 6.11-.82.84-4.16 1.7-5.46 2.7-3 2.34-4.35 5.36-6.6 8.35 1.02-1.35-.57 4.77.05 3.86-1.2 1.76-3.39 1.44-4.2 3.13-.82 1.73.67 4.66-.15 6.72-.76 1.95-3.43 4.52-4.72 6.16-.21.28-.45 2.86-.7 2.96-3.35 1.37-4.43-2.87-5.65-3.73-2.26-1.58-8.14-2.69-10.16-5.68-1.6-2.37-1.85-6.3-3.14-9-.68-1.44-2.74-3.42-2.82-5.07-.12-2.75 2.5-2.4 2.59-5.08.08-2.7-1.93-3.4-2.59-5.82-.64-2.37.38-4.37.2-6.76-.33-4.19-2.07-9.02 1.87-12.77 4.07-3.89 5.35 1.43 5.76-5.08.48-7.62-2.79-1.67-6.54-4.91-2.25-1.94-.37-4.46.03-6.29-.42 1.92 3.64-6.66 1.32-4.2 1.55-1.65 2.31-1.16 4.5-1.69 3.52-.84 1.76 1.01 3.75-1.31 4.64-5.42-1.62-3.14-5.62-3.98-5.35-1.13-3.86-1.9-1.71-5.98.71-.8 1.31-1.67 1.79-2.63.63-1.4.17-2.46-1.4-3.19.17-1.75.94-3.18 1.47-4.91.12-.4 1.3-4.08 1.3-4.31.07-1.54-1.35-3.19-1.18-4.87.54-.47 1.07-.47 1.6 0a9.04 9.04 0 0 0-.5-4.58c-1.62-4.62-2.03-3.97-1.57-9.32m-2.44 46.77zm-1.31 4.2zm106.24-28.61c-.18.47-.32.95-.42 1.44 0-.3-.06-.65-.16-1 .23-.14.43-.3.58-.44zm-143.4-86.97c-1.26-.27-9.43-2.36-9.85-3.38-.42-1 6.98-3.73 7.52-3.2-1.03-1.02-3.62-.23-4.43-1.17-1-1.13-.37-2.45-.88-3.65.02.05-2.19-6.25-2.29-5.79.49-2.17 4.2-4.82 6.17-5.35 4.22-1.15 5.78 2.37 9.03 2.56 6.26.36 2.48-1.95 4.97-5.47 3.4-4.8 3.12-.97 7.1.86 3.23 1.5.25 2.19 4.3-.65 3.45-2.42 3.08-4.03 8.48-2.8 5.88 1.35 12 3.13 18 5.1 4.85 1.6 8.87 3.15 11.9 7.68.78 1.19 2.68 5.42 2.06 6.95-1.33 3.23-4.97 2.28-7.73 3.36-2.84 1.1-3.7 2.5-6.23 3.89-1.48.82-5.99 1.43-6.64 2.75-.36.71 2.42 1.06 2.6 1.26.34.36-9.33 1.66-10.06 2.02-2.46 1.2-4.9 4.76-7.18 6.48-2.66 2.01-6.49 5.08-9.8 5.85-3 .7-3.92-.92-5.85 2.25-2.03 3.33-.09 6.6-2.8 10.05-1.77 2.26-.2 1.38-2.77 2.96-1.57.97-4.02.26-5.63 1.56-2.35 1.91-1.6 5.64-5.63 6.64-2.97.74-6.17-3.53-8.24-2.71-2.78 1.09 14.63 14.5.76 11.63-2.61-.54-4.61-3.7-6.71-4-3.44-.48-1.51 2.34-2.26 2.57-1.87.6-15.42-3.75-16.21-6.18-1.06-3.28 8.66-7.25 10.7-6.57-.07-.24-.59-8.21.38-7.9 2.5.84 2.87 5.68 6.38 5.61 3.1-.06 2.84-3.74 2.25-6.54-5.53 2.57-6.42.73-2.09-4.24 1.79-2.04 1.89-2.57 4.53-3.51 1.94-.7 7.02 1.02 8.17.03 1.09-.93-2.59-4.38-2.7-5.07-.23-1.47.65-2.86.69-4.29.03-1.24.19-9.57.68-9.96 2.96-2.32 12.31 9.92 11.13 12.56 2.1-4.68-3.12-5.52.99-8.06 3.73-2.3 6.85 1.4 9.95-3.76-1.94-1.35-12.56 2.29-12.77-.37m-7.63-11.4zm-6.57 3c-4.76 1.6.08 4.5 1 5.72.88 1.14 1.91 1.98 2 3.63.06 1.21-1.67 8.9-4.27 7.44 1.26.72 5.25 1.43 3.04 5.03-1.26 2.03-4.94.76-4.96.8-.68.86-.03 3-.97 3.74-.44.35-1.96.05-2.82.74-.76.61-5.57 5.84-5.4 5.84-4.21 0-8.01-3.28-8.3-7.3-.12-1.45 2.65-9.34 2.95-9.34.5.1.94.3 1.34.61-1.16-.98-2.18-8.5-1.7-9.96.16-.5 6.04-.08 6.13-1.46.07-1.17-3.9-2.27-2-4.61.3-.39 6.5 1.05 6.3-.51-.26-2.06-1.6-2.79.15-4.8.1-.11 4.68-1.08 4.45-1.4-.04-.06-3.14-2.75-2.12-3 5.08-1.26 7.54 8.05 5.18 8.84m-1.34 16.74zm-25.44 12.06c-.47 2.05-3.84 1.25-5.12.3-1.91-1.45-.48-.73-1.15-3.2-.44-1.62.05-7.27 1.9-8.61 2.35-1.7 4.56 10.66 4.37 11.5m-.62 6.77c-2.27 1.7 2.34 1.32-1.46 1.5-.7.04-6.03-2.19-6.5-2.94-.54-.86 10.66-.59 7.96 1.44m6.63 2.4c1.5-.47 1.25 4.8-1.21 4.66-2.8-.17-.4-4.17 1.2-4.67m-12.52 13.01c1.14-.3-3.9-4.87-4.58-6.16-1.83-3.45-1.77-7.54 3.24-5.4.42.18 2.97 4.42 3.3 4.89.67.9 2.34.14 3.18 1.04-.32-.35 2.29 7.33 2.32 7.3-.53.68-3.34-3.02-4.06-2.67-.6.3 2.4 6.76 2.12 6.26 2.51 4.39 5.58 4.02 9.82 4 3.44-.01 10.96-1.39 13.35 2.22 2.27 3.41-1.04 1.34-2.75 3.82-.69 1 .44 5.62-1.65 5.62a.3.3 0 0 1 .07-.05c-1.17.05-2.38.42-3.51.16-.97-.21-.09-2.18-.52-2.25-1.92-.32-3.8.51-5.8.63-5.46.32-8.07-1.91-12.3-3.68-2.13-.9-6.73-1.37-6.99-4.86-.08-1.06 4.15-10.7 4.76-10.87m-1.11-31.8c-2.76 1.97-2 4.75-3.88 6.88-3.39 3.84-3.11.9-4.38-1.08-.35-.54-1.43-4.83-2.07-5.22-2.29-1.4-8.69.48-5.05-5.58.28-.48 3.89 3.64 5.54-.42 1.13-2.8-1.8-.7-3.2-1.56 1.16.71 1.9-5.36 3.43-5.87 3.15-1.06 4.65 3.45 4.72 5.65.03.77 1.72-1.46 2-1.93.08.8 3.94 8.15 2.89 9.13m-2.88-9.13v-.06c.06-.05.05-.02 0 .06zm-8.76 17.96c-2.34 1.12-3.83-3.11-2.77-3.76 1.89-1.16 5.22 2.59 2.77 3.76m21.92-21.23c.02-2.55-2.78-.52-2.27-3.5.27-1.6 1.47-2.94 3.22-.89 1.5 1.76-.97 6.05-.95 4.39m-33.8 24.04c-2.3-1.37-.3-6.5 2.12-7.1-.02 1.52.02 6.74-2.13 7.1m13.33 23.17c1.1-1 4.04 7.05.28 8.51-3 1.17-5.24-4.89-5.45-4.77 1.41-.79 5.02-3.6 5.17-3.74m-2.43-8.4c-2.32 2.2-3.75 7.61-6.16 9.39.24-.17-.58 2-.58 2-1.92 1.02-4.39-.73-4.38-2.16 0-2.03 4.9-2.57 3.7-5.48-.7-1.7-3.48-.63-4.79-1.74-1.52-1.29-4.66-8.08-.97-9.12.96-.28 7.34 4.25 6.77 6.14.88-2.9-3.15-7.26 1.27-7.48 2.18-.1 4.7 3.73 7.11 4.33-.4 1.21-1.04 3.24-1.97 4.13M370.72 4916c-.15-.1-4.82 4.52-7.34 3.07-2.62-1.5-1.3-7.2.9-9.02 2.24-1.86 6.66-1.02 8.9 1.24 1.17 1.18 2.31.86 1.6 2.77-.48 1.29-2.75 2.86-4.06 1.94m3.56-6.2c-.85-.28-5.18-2.96-5.6-3.7-.79-1.38 7.73-1.96 8.37-2.01-.47.04 2.03 7.31-2.77 5.71m-12 1.44c-2.77 2.44-1.36-1.54-1.57-1.81-.34-.44 4.6-.87 1.56 1.81m-6.63 11.15c-2.3 2.3-2.17-.94-3.2-1.44-.93-.47 5.87-1.24 3.2 1.44m6.94 5.66c3.21-1.92 2.38-2.9 2.57.63.02.4-.44 4.86-1.5 5.6.73-.04 1.67-.2 1.6.45.01-.07-3.66 3.92-2.35 3.68.59-.1 1.33-2.4 2.06-1.74.21.19.4 2.25 1 1.87 1.17-.74 1.09-3.7 2.88-2.76 2.45 1.29.84 2.7.31 4.26-.2.6-2.84 4.09-3.69 4.7-5.02 3.6-6.1-.06-10.06-.6-4.28-.58-9.2 5.55-14.21 2.98-10.25-5.25 7.8-3.59 9.26-5.95-.74 1.2-5.83-1.61-7.5-1.17.28-.15.48-.4.61-.7-.07.1-5.47 1.42-6.24 1.2-2.26-.64-3.58-4-3.58-5.72 0-1.96 6.14-.57 6.88-1.75.52-.83-2.83-1.22-1.46-2.3 1.34-1.06 2.74-.05 4.22-.56.23-.08-1.85-2.63-1.23-2.84 1.08-.39 2.85.98 3.38.64.19-.11 5.9-7.57 4.6-.95 4.32.8 1.5 8.87 4.27 10.75.58.4 3.05.47 4.16.24-1.26.03 1.8-5.54 1.69-3.48.24-4.6-1.57-4.13 2.33-6.48m-19.9 12.08a.8.8 0 0 1 .28-.13c-.09.05-.18.1-.27.13zm22.57-5.4zm3.75 10.04c.1-1.38 2.23.2 2.16 1.53-.12 2.16-3.78-.69-3.58-.72.38-.07 1.37-.22 1.42-.8m-28.07-21.87c-.07-2.03 5.07-6.53.5-4.75-2.67 1.04-3.4 5.84-6.56 6.98.04-.07 1.44-1.74.56-1.69-4.04.25-3.13 4.46-3.91-.77.43 2.89-5.3-.6-5.27-.46-.96-3.77 2.08-2.78 4.46-3.83 2.94-1.3 6.37-2.54 9.26-3.98 2.05-1.03 4.24-3.75 6.1-3.73 3.02.03 2.04 2.09 4.06 2.7.72.2 1.62-1.73 1.72-1.67 2.95 1.56 1.65 3.72-1.56 6.89-.92.9-8.7 6.94-9.4 6.44-.07-.71-.05-1.42.04-2.13m-3.37 4.99c-.73.47-5.19 6.26-6.45 3.16-.57-1.42 6.8-5.7 7.38-4.13l-.93.97m78.02 81.27c-2.9-.8-5.31-2.43-8.26-2.82-2.98-.4-6.7 1.76-9.44-.27-1.43-1.07-2.77-4.21-3.91-5.68-.64-.83-3.9-1.45-3.18-4.7.24-1.06 5.66 3.23 6.22-.33.15-.96-5.55-1.49-6.13-2.79-.03-.08 2.7-8.55 3.01-9.1 1.64-2.9 5.15-3.85 7.33-6.15 2.6-2.75 2.2-4.22 6.77-4.88 1.71-.25 3.44-1.36 4.81.41 1.67 2.14-.65 1.28-1.75 2.71-2.35 3.04-4.35 4.17-6.2 8.02-1.84 3.82-1.8 4.3-1.6 7.67.14 2.44.68 2.78.16 5.22-.29 1.38 2.86.36 3.25-.37.54-.99-.55-3.77-.42-5.02.14-1.47.36-2.97.78-3.84.36-.74 2.9-.2 3.43-1.26.55-1.12-2.26-1.9-2.31-1.77 1.59-4.02 2.84-1.98 3.68-2.57.98-.68-1.45-2-.18-3 1.23-.97 2.1-1.2 3.53-1.79 1.91-.78 7.23-1.53 8.55.33 2.68 3.77-4.72 9.43-3.02 13.12.9 1.94 3.62-3.43 3.5-3.4.6-.11 1.55 3.35 2.5 3.57 3.05.73-.23-1.67 1.18-2.12.81-.25 10.61-.97 9.85 2.11a61 61 0 0 0-2.25 1.42c.59 1.77 2.85 2.62 4.31 3.29-2.58-1.18-3.11 2.27-.88 3.9 2.19 1.58 4.44-.74 5.95 2.39-1.4.57-2.4 1.1-3.8 1.62 2.12-.8 4.79 4.6 3.76 3.93.22.15-.65 1.62.44 2.01 1.25.44 2.06-1.86 2.78-1.72.7.14 2.15-.6 3.14 1.36 1.92 3.8-1.96 2.02-3.7 3.58-.85.77 5.54.5 5.32.36.33.2 1.32 2.63 1.71 3.35.83 1.5-4.84.4-5.2 1.1-.75 1.52 2.29 1.41 2.32 1.7.1.87 2.43 1.55.89 3.42-.67.82-4.6-.52-4.6.42 0 1.47 2.05 10.54 5.57 9.53a3.5 3.5 0 0 1 1.1-1.6c.87.2 1.31 5.73 1.54 6.04 1.14 1.57 5.63 2.08 6.2 4.8.5 2.36-4.4 8.99-6.74 6.92-.54-.49-2.06 9.5-4.56-.38-.24-.97 1.05-2.16.52-3.22-.15-.3-2.97-.14-3.4-.46-1.11-.83-.51-2.49-1.94-3.4 1.34.86-4.92 5.66-4.92 2.8 0 4.68 1.38 7.2 3.93 11.56 1.13 1.93 3.44 3.56 2.41 7.01-.94 3.13-.2.94-3.14 2.81-.52.33 1.2 3.18 1.24 3.52.1.83-7.2-7.56-7.85-7.81-4.35-1.68 1.18 4.42 1.68 5.66 1.97 4.88.45 6.36-3.14 5.06-.57-.2-3.15-3.39-4.02-3.94-1.71-1.08-3.28-1.19-4.43-2.55-3.29-3.85-3.99-11.03-7.98-13.33 2.36 1.36-4.7.21-3.03-.1-1.53.23-3.8 1.1-5.2.89-5.84-.88-3.84-4.57-2.02-9 .77-1.89 3.69 3.8 3.9 4.2-.2-.53 5.66-1.07 5.68-1.08 3.42-1.4 2.05-.8 3.39-2.98.42-.7-1.16-1.85-.65-2.92.28-.6 2.49-1.19 3.02-1.83.73-.87 4.69-3.54 4.61-3.38 1.54-3.08 3.8-7.8 2.63-11.54-1.7-5.43-5.74-2.46-9.48-3.37 2.4.58 1.7-3.95 1.84-4.3.94-2.2-.46-.79 1.39-2.85.44-.5-3.25-3.41-3.7-3.65-.74-.38.03-6.84-3.4-4.3.06-.04.03 8.6-3.4 3.76m24.22-14zm-22.42 56.3v.01zm5.47-30.96zm-3 3.25c3.15 1.58 3.84 7.28-.63 7.64-7.23.57-.43-8.17.62-7.64m8.51 3.85c-.13 2.72-3.62 1.32-3.3.26.58-1.86 3.45-3.22 3.3-.26m-10.6-13.28c.48-1.07 1.07-1.32 1.78-.75 0 1.72-6.14 8.67-6.6 5.5-.25-1.7 4.07-4.29 4.82-4.75m-30.88 28.84c.56-1.61 2.52-1.27 3.66-.76-.73 2 9.09 14.84 6.67 14.97.1 0-6.41-2.42-6.68-2.55-.59-.28.72-2.33-1.2-2.65-1.7-.28-10.07 4.5-9.9 5.27-.2-.93 1.72-2.4.97-3.48-.84-1.24-4.1-1.1-4.7-2.76-.21-.6 2.77-.43 3.02-1 .72-.45 1.4-.95 2.06-1.5-.52-1.25-.4-2.29.36-3.11.75-1.63 2.39-7.32 5.1-7.32.08 0 .18 6.2.64 4.89m1.06 19.4c.2-.01-8.4.87-5.58-1.05.08-.06 5.24-1.82 5.43-1.68.64.44 1.24 2.64.15 2.74m9.91 2.25c-.24.37-4.76 6.05-4.76 3.81 0-1.78 4.06-7.6 4.76-3.81m7.36-8.01c.25 1.5-.37 3.26.56 4.5-.35-.47-2.63.17-2.43-1.97.04-.42 1.5-4.82 1.87-2.53m7.64.78c.41.37.79.78 1.12 1.22 0 .69-2.5 1.16-2.88.87-.62-.49 1.14-3.21 1.76-2.1m-38.05-86.55c-2.77 1.9 2.67 5.28.95 7.6-.43.58-3.05.83-3.84 1.47-1.1.89-1.2 2.48-2.11 3.26-3.65 3.1-2.93 1.99-4.6-2.2-.54-1.33-1.7-2.12-1.84-3.67-.03-.28 3.6-.56 2.61-1.52-2.9-2.83-5.9-6.46-.31-7.86 1.31-.33 3.31 2 4.75.38.25-.29-1.15-3.29-.67-4.27 1.02-2.07 9.1-3.27 10.46-1.13 2.28 3.56-3.51 6.64-5.4 7.94m13.27-2c-.23.03 8.66-9.4 7.13-2.39 2.07.64 6.03 1.38 7.17 3.2-.02-.05-10.64 7.83-12.08 8.17-1.11.26-3-.83-4.08-.3a4.64 4.64 0 0 0-1.79-.2 6.9 6.9 0 0 0-.23 2.9c-12.3 8.77 1.9-15.3 1.51-15.53.91.56 1.03 4.37 2.37 4.14m-23.78 42.08c-.31.17-8.92-3.68-8.73-2.25-.6-4.43 3.38-11.66 7.82-7.58 2.14 1.96 4.08 8.1.91 9.83m-32.4-11.62c-.78-2.13-5.74.53-5.82 1.7-.02.24 1.38.82 1.3.9-1.39 1.06-12.5.6-14.12-.2-2.03-1.02-1.65-1.05-2.93-3.19a3.57 3.57 0 0 0 1.37-2.13 24.08 24.08 0 0 0-2.7-2.62c-.77-.82-2.6-.47-3.16-1.48-1.37-2.51.43-9.38 2.64-9.99 3.5-.96 7.8 4.96 12.03 3.4 3.6-1.33 1.26-3.65-1.88-5.08-1.97-.89-12.4.72-10.18-4.62.97-2.33 10.2-1.18 10.16-2.45-.1-2.26-5.92-1.69-6.2-4.31-.22-2.2 4.94-4.32 5.55-4.74-.59.41 13.86-8.09 14.07-5.05.04.7-3.28 2.44-2.58 3.14 1.18 1.18 3.59-1.81 5.26.57 1.19 1.68-1.71 3.79-1.37 5.08 1.29 4.8 4.48 1.21 7.3-.74-1.85 1.29-1.65 14.2 2.14 6.42 1.9-3.92-3.27-9.72.51-10.74 1.3-.34 7.73 3.4 8.41 4.75 1.14 2.25.8 2.35-.34 4.57-1.53 2.97-4.58 3.27-4.91 6.7-.21 2.15 1.41 5.19 2.15 7.25-4.1 1.25 1.41 3.7 2.41 6.66 1.37 4.06.53 2.15-3.35 6.2-1.07 1.12-.84 3-2.66 3.87-4.44 2.1-3.14-1.67-5.65-2.59-.86-.31-2.84-.31-3.05-.38-2.07-.74-2.43 4.53-4.4-.9m25.14-35.22c-.13 1.82-7.14-1.23-4.54-4.55 2.85-3.64 6.05 2.63 7.66 2.2-1.2.32-3 .75-3.12 2.35m-29.84-9.01c-1.18 1.86-7.23 2.3-9.42 2.96-4.36 1.35-4.3 2.44-7.01 4.96-2.89 2.68-15.19 15.32-16.72 4.75-.15-1.03 2.28-8.04 2.72-9.44.95-3.05 2.79-4.67 4.86-7.04 2.49-2.85 9.5-5.24 8.64-8.76.14.55 11.17 1.28 12.18 1.67 5.34 2.1 7.95 5.86 4.75 10.9M85.22 5073.48c1.11-.18-2.63 2.12-3.39 2.54-.94.53-.18 1.7-1.68 2.2-.53.19-3.25-.83-3.04-1.15-.2.3 6.7-4.06 3.17-4.2 1.5.06 4.14.74 4.94.61m-5.12-.61zm-9.34 6.56c-1.07.65-1.86.5-2.34-.47.51-1.38 6.7-1.85 6.73-1.9-.44.8-3.46 1.94-4.39 2.37m-9.57 1.5c2.49-.67-1.6 2.78-1.6.57.47-.35 1-.54 1.6-.57m-12.01.54c2.79-.9-2.74 4.13-2.74 1.2 0-.87 2.32-1.07 2.74-1.2m-10.14.85c.9-.08 1.52.22 1.88.9-.33.13-2.61 1.7-2.91.4-.1-.45.64-1.32 1.03-1.3m11.39 1.15c.5.08 2.28-.72 2.13.76-.05.46-3.86-.14-2.13-.76m57.88-85.94c.22.44 1.22 2.14.87 2.62-.4.53-7.76-5.32-3.69-8.25 4.2-3.02 7.71 4.21 8.07 7.13a23.24 23.24 0 0 0-5.25-1.5m256.71 287.08c.47.3 3.13 2.76 2.38 3.38-2.57 2.14-10.3-1.25-7.56-5.13.28-.4 5.1 1.41 5.18 1.75m-18.27-16.92c-.46-.58-10.35 4.48-6.03-.72 2.82-3.4 8.99-1.24 11.71-.52 3.51.92 6.18 2 9.63 3.86 2.2 1.2 3.74 2.38 5.94 3.37 1.65.76 8.34 1.71 8.79 3.04.67 2.01-11.03 3.42-12.02 3.38.07-.08 1.3-1.94 1.83-2.7-1.4.4-8.37-3.71-5.91-4.85-1.95-.52-12.13-3.8-14.02-3.7.42-.23.44-.61.08-1.16m14.17 4.91zm-14.25-3.76c-.08.05-.18.09-.3.12.03-.07.13-.1.3-.12zm36.06 13.83c.39-1.68-3.26-1.5-3.7-2.62-.61-1.58 10.54-1.54 11.22-1.32.92.28 5.89 3.83 5.83 4.76-.15 2.35-7.66 3.3-9.4 3.4a26.2 26.2 0 0 1-11.18-1.97c.1.05 7.21-2.19 7.23-2.25m-7.23 2.25zm31.07 2.87c-1.57.35-4.37.67-5.37-1.39-.67-1.39 7.93-2.73 9.03.03a6.04 6.04 0 0 1-3.66 1.36m27.07-196.27l.06-.01c.62-.52 1.15-.99 1.52-1.32.9-.8 6.23-8.44 5.76-8.44 3.03 0 5.92 6.49 1.3 6.48 2.73 0 3.09 8.22 3.27 10.18.24 2.64-1 7.32-.08 9.78.34.9 8.55 13.54 11.28 11.5-1.82 1.36-4.9.12-6.8 1.47-1.87 1.34 4.75.97 4.02.81 1.27.28 2.98-.43 5.03 1.28 1.77 1.49 1.72 3.9 1.75 6.46-.01-.95-1.67 3.77-1.15 2.77-1.35 2.62 2.78.53-.47 3.11-1.45 1.15-5.93.02-7.89.75 1-.37-3.04 2.56-2.44 2.11-6.85 5.16-14.95 1.54-22.43 2.3-3.28.34-1.96-.98-5.69 1.48a56.01 56.01 0 0 0-5.05 3.82c-1.6 1.36-8.42 5.73-7.44 8.7-.83-2.51 13.35-6.65 14.77-6.88 2.12-.36 8.33-.78 5.23 3.44-1.73 2.36-4.9-.33-6.76 1.09-.89.67 4.57 1.13 4.1.37.57.93-1.18 4.16-1.7 5.11 2.97.45 1.26 2.29 2.51 3.5.77.76 5.9 2.68 8.29 3.85-2.3 0-7.08 2.55-7.62 3.07-2.2 2.09-4.27 7.73-8.12 3.47-.58-.64 4.61-3.88 4.54-4.85-.22-2.74-10.98 4.29-11.14 4.36-2.86 1.35-7.27-.12-9.59 2.9-1.65 2.14-.32 3.61-.7 5.88-1.2 7.08-6.1 3.34-12.09 5.98-.93.41-3.9 2.8-4.45 3.57-.7.98-1.14 6.28-2.82 6.47-.48.05-3.56-3.61-3.57-3.48-.13 1.47 1.6 3.9 1 5.21-.45.99-2.45 2.06-2.46 2.09-.16.36-1.62.64-1.82 2.85-.26 2.7 1.92 3.3 1.18 6.26-.51 2.06-1.88 3.67-3.27 5.23-3.35 3.74-7.56 5.45-11.63 8.04-.4.25-5.66 3.84-5.79 3.98-1.17 1.32-1.15.48-2.08 2.03.06-.1-.43 3.03-.45 3.18-.11.88-1.44 4.67-1.25 5.27.49 1.54 2.7 2.02 3.14 3.4.3.93-.68 2.83-.5 3.34.7 1.9 4.27 14.75-3.12 13.22-3.13-.65-3.31-10.18-3.9-12.55.16.63-5.78-10.98-6.12-9.1.18.76.21 1.51.1 2.28-1.96 2.03-7.34-2.78-8.96-3.14-.95-.21-7.41-.68-8.22-.38-3.6 1.32.65 2.24-1.79 5.1-.6.7-5.12.13-6.58-.3-4.34-1.25-8.74-3.58-13.98-.29a81.1 81.1 0 0 0-6.72 4.82c-2.42 2.17-3.63 3.5-4.22 6.99-.49 2.86.44 4.07-.6 7.09-.85 2.49-3.08 5.32-3.6 8.1-1.02 5.54 1.07 9.1 4.19 13.59 2.25 3.23 5.62 6.43 9.65 7.2.96.19 10.51.33 10.5.35.7-1.4 0-3.63.72-5.26.79-1.77 2.3-2.37 3.14-3.98 1.73-3.34.3-6.1 5.42-6.7-.32.03 5.66 1.28 5.18 1 1.6.9 2.22.8 2.4 2.86.04.49-2.22 8.86-2.42 9.22-.32.58-3.51 2.41-3.73 2.01 2.83 5.1-2.61 4.6-3.18 8.61-.18 1.27 11.21.52 12.81.77 1.97.31 7.17 1.3 8.73 2.48 4.3 3.27-.3 1.15-.36 4.33-.03 1.72 1.65 2.6 1.5 4.38-.16 2.07-2.24 3.21-2.56 5.2-.35 2.11 1.41 6.59 2.9 7.9 4.79 4.19 11.94-.07 17.25 1.63-2.44 2.21-4.1-.26-6.84 1.26 2.1-1.16-1 4.35-1.71 4.68.24.28.76.6.95.57-4.7.47-4.86-2.61-9-3.66-2.21-.56-5.03.4-6.15-.68-1-.98-.3-3.48-1.45-4.78-.6-.68-2.8.35-3.47-.46-1.54-1.85 1.56-1.66.52-3.02-1.2-1.57-3.5-1.28-4.81-2.78-1.97-2.27-.98-4.13-4.13-5.85-1.52-.83-5.3-1.29-7.05-1.68-4.7-1.07-10.39-2.01-14-5.84-1.88-2-1.46-5.04-4.9-5.08-2.62-.04-4.12 2.49-6.84 2.3-6.85-.5-14.61-7.79-21.21-10.17-4.1-1.47-6.27-3.44-8.33-7.52-1.07-2.12-1.22-.88-1.55-3.41-.2-1.62 1.38-2.86.72-4.47-.64-1.58-5.83-3.92-7.04-5.61-1.75-2.45-3.72-6.99-5.05-9.95-1.44-3.23-1.41-6.21-3.19-9.36-1.34-2.38-4.93-4.47-5.76-6.4-.5-1.16.28-3-.16-4.3-.64-1.93-1.47-1.86-2.44-3.47-1.5-2.5-1.52-5.34-5.43-4.72 2.31 3.6-1.46 4.95-.62 8.76.7 3.26 3.1 5.61 4.58 8.02 1.61 2.62 10.37 21.86 7.81 22.23.87-.13-6.22-7.53-6.4-7.82-1.29-2.1-.84-3.91-1.82-6.38-1.21-3.03-4.62-4.23-6.84-5.5-3.4-1.94 1.2-5.59 1.16-6.92-.08-2.85-3.59-3.81-4.37-5.76-1.8-4.44-.53-11.72-2.98-15.96-3-5.2-11.3-4.91-13.63-11.01-.77-2.02-1.02-.98-1.41-2.7.07.33.98-1.63 1-2.02.16-1.92.2-7.03-.02-8.28-.77-4.56-4.19-8.88-3.3-13.44.49-2.44 2.35-5.24 2.74-7.27.28-1.5.52-6.68.43-8.85-.03-.95-1.96-2.12-1.77-2.85.4-1.61 2.09-2.36 2.97-3.69 1.77-2.64 2.4-5.11 3.6-8.18.93-2.37 2.73-4.92 2.93-7.55.06-.72-1.63-2.45-1.5-2.82.09-.23 3.48-4.8 3.93-2.55.35 1.76 1.91 6.11 5.46 3.05 2.08-1.8.08-7.63-1.38-9.39-.94-1.13-3.05-1.26-3.92-2.56-1.02-1.54.04-2.63-.54-4.1-.68-1.76 0-1.64-1.26-3.13-.9-1.05-3.1-.92-3.96-2.07-1.88-2.5-.77-7.02-1.16-10.23-.22-1.82.27-2.7-.6-4.23-.77-1.3-3.14-.47-3.53-2.78-.28-1.66 3.09-5.81 3.39-8.01.12-.9-.12-2.09-.08-2.5.04-.43.28-4.1.3-4.86-.1.56-2.05-2.42-1.98-2.29-.4-.74.47-1.8 0-2.38-1.86-2.27-3.47-.9-4.76-4.13-.74-1.84-1.27-4.82-2.63-7.64-1.2-2.52-2.27-3.51-3.98-5.8-2.14-2.87-2.46-3.55-2.52-6.5-.1-4.38 1.71-5.56-2.7-7.86-4.68-2.44-9.72-3.17-15.07-4.5 1.19.29.56-3.03.21-3.48-1.08-1.44-2.22-1.95-3.6-2.76-.78-.45-8.3-5.6-8.3-5.6-.66.1.24 7.79-.77 8.85-.6.65-6.87 1.72-8.27 1.75-3.99.1-3.74.41-3.07-2.1.4-1.52 1.56-3.52 3.28-3.93-.34-.26-.57-.6-.69-1.02.12-1.36 11.27-4.3 1.7-4.78-2.54-.12-7.89 2.01-8.47 3.39-.94 2.23 2.27 2.45-.3 5.36-1.48 1.69-4.45.81-5.62 1.88-2.16 1.99-1.64 5.53-5.35 8.24-8.52 6.23-17.45 8.33-26.43 13.08-2.77 1.47-4.5 3.15-7.88 3.83-1.27.25-10.57 3.06-11.09 2.38.62.8 12.9-7.13 14.43-7.73 1.81-.7 3.8-.03 5.52-1.64.65-.6-.45-2.95.34-3.83.76-.84 2.24.15 3.04-.38 4.12-2.68 12.9-4.55 13.27-10.01.13-2 .67-2.68-1.63-3.37-2.74-.82-1.85.67-3.63 2.46.3-.3-1.8-4.67-1.85-4.51.16.61.02 1.02-.43 1.22-3.21-6.06-1.85 1.98-6.47-.2 1.58.74 2.37-3.47 2.3-3.43-2.17 1.22.93-4.95 1.45-6.15.05-.12 1.69-5.24 1.81-5-1.23-2.34-2.37.9-4.13 1.48-3.34 1.08-6.39.33-5-4.09 1.26-3.99 4.38.26 6.5-3.77-4.78 1.16-4.8-3.47-4.09-6.36.84-3.46 5.24-7.41 7.59-6.03 1.4.82-.04-2.8-.12-2.75.18-.57 8.28-1.66 8.95-1.77.73-.12 1.65-1.17 2.19-1.27 2.08-.4 2.52 1.72 3.1 1.76 3.21.18 12.02-11.04 7.38-13.21-.88-.41-12 3.65-13.17.14-.14-.42.94-.85 1.41-1.22-1.03.36-5.45-1.28-5.31-3.11.23-3.18 4.76-4.02 6.9-2.31-4.62-3.7-8.62-6.59-1.36-9.25 1.76-.65 12.73-2.98 13.33-1.9 1.96 3.6-4.24 3.55 1.27 6.17 3.26 1.56 4.33-.77 5.51-.1-.96-.55 3.57-2.11 2.98-1.24.48-.7-.1-.94.9-2.17-2.81 3.48-1.83-4.95-1.6-4.16-.28-.94-3.14-1.72-3.6-3.24-.28-.93.82-3.69.96-5.46.27-3.25-2.02-8.65-1.25-10.83 1.67-4.68 6.42-1.01 8.72-1.41 2.73-.48 2.09-2.2 3.06-2.47 1.82-.5 4.12-.47 5.81-1.26 2.06-.96 3.93-3.08 6.31-4.13 2.16-.95 1.05-1.96 3.38-2 .95-.02 2.83.88 3.26.87 1.22-.01 1.16.89 3.15.03 1.94-.83-.53-3.37.06-3.93 1.74-1.65 5.58.51 7.41.1 1.78-.38 5.07-3.67 5.86-3.7 2.7-.07-.28 5.83.02 6.52.1.21 4.5 2.1 4.23 2.05.3.07 4.06.2 4.15.29 1.44 1.27.76 4.05 1.77 5.66 2.2 3.46.72.47 4.71 2.31 1.98.9.61.99 1.03 1.4 2.72 2.7 1.92 3.34 5.76 5.05.83.37 4.3 2.4 4.52 2.45.23.07 3.8-.08 4.17.15 1.77 1.18 2.79 4.32 4.24 6.2 1.82 2.38 5.68 4.39 7.68 6.92 1.38 1.76 3.3 5.9 4.37 7.37 1.6-.94 3.47-1.95 5-2.84 1.32-.77 1.44-2.32 3.08-2.87 1.83-.62 4.25.76 6.3.4 2.91-.5 4.73-3.36 7.9-1.6-1.22 4.36-12.31 3.65-11.59 7.2.84 4.12 14.75-3.64 16.96-5.1 1.23-.82 3.82-4.26 5.7-3.35 4.12 2-1.37 5.64-1.32 7.49.14 4.38 9.89 3.25 13.25 5.36 2.81 1.77 4.45 4.3 7.5 6.17 2.28 1.4 4.53 1.97 6.13 4.47 2.49 3.87.2 2.6-.33 5.3-.48 2.5-1.9 2.59.67 4.61.01.02 7.67 2.59 7.53 2.59 3.47 0 2.8-3 6.23-1.15 1.68.92 4.32 11.45 4.64 11.25 2.25-1.5 1.43-7.7 3.38-9.59 1.83-1.77 4.92-.16 6.47-2.82.04-.07-5.44-.45-5.39-.61.8-2.37 4.16-2.29 5.94-1.62 4.05 1.51 1.48 2.35 3.58 5.15-.37.27-.77.48-1.2.64.75.05 7.9 6 8.79 6.1 1.73.17 3.76-.59 5.27-.73 1.95-.18 2.08.64 4.2-.1a3.94 3.94 0 0 0 .35-.15c2.75-1.28 4.9-5.71 7.44-.04.45 1.02 1.23.57 1.3 1.85.06 1.37-2.46.74-2.69 1.64-.12.47-.11 4.13-.07 4.62.1 1.36 4.34-.33 4.84-.74.45-.38-.86-1.98-.27-2.6.93-.97 1.96-1.81 3.1-2.78 3.15-2.66 6.13-5.71 5.83-9.88-.12-1.7-4.52-2.1-5.19-3.37-.38-.74 1.34-1.85 1.27-2.4-.44-3.68-.56-5.23 1.75-8.64 1.7-2.52 10.86-10.04 12.7-5.04 1.16 3.16-2.58 5.5-3.42 7.66-1.5 3.86.42 2.85 1.48 6.46.2.71 2.01 13.03 1.92 13.03 3.24.02 5.57-2.61 6.68 1.4.47 1.73-4.98 8.26-4.33 10.72.96 3.62 7.28-5.84 8.2-7.24 1.32-1.98 4.33-11.44 8.92-9.5 1.73.74.36 3.1 1.94 4.1 1.22.77 3.83-.56 4.79.29 3.21 2.83-4.5 5.81-5.3 8.66-.3 1.06 1.38 1.55 1.33 1.85-.5 2.81-.15 3.85-2.3 6.21-1.12 1.22-3.04 1.56-4.13 2.84-1.26 1.47-.54 3.4-2.68 4.63-4.37-3.87.51-6.56-6.35-5.62-1 .14-1.84 1.69-2.64 1.94-.63.2-2.93-1.8-3.46-1.28-.9.86.1 3.74-1.36 4.99-2.24 1.9-5.6.24-7.76-.97.89 1.19 4.16 4.44 3.72 5.8-.5 1.54-3.27 1.57-4.23 2.83-1.04 1.37.8 3.55-1.06 4.78-2.32 1.52-2.94-1.22-5-1-1.23.12-2.54 2.31-4.34 2.52-3.06.35-5.35-3.1-6.36 1.6 8.82.28 4.32 6.53-1.22 7.55-3.03.56-5-.44-7.79 2.88a40.92 40.92 0 0 0-4.33 6.45c-1.5 2.95-3.43 9.81-2.07 12.99.86 1.99 3.42.93 4.31 4.1.36 1.29-.73 8.48-2.23 8.48 6.42 0 6.51-.35 11.02 3.32a76.3 76.3 0 0 0 6.58 4.95c1.13.73 4.26 3.97 5.5 4.34 1.8.55 7.2-1.49 8.22.78.7 1.56-3.37 1.37-3.44 2.38-.14 1.76 2.78 3.78 3.15 5.5 1.03 4.9-2.9 3.65-1.45 8.82.65 2.3 1.65 5.76 2.77 6.42 3.47 2.04 4.63-.28 5.59-3.05 1.76-5.1-.27-12.6 2.63-17.26.71-1.14 2.52-.08 3.3-.9 1.4-1.45.9-2.6 2.5-3.96 1.37-1.16 4.49-1.02 5.55-2.46.24-.32 1.75-7.3 1.95-8.22 1.1-4.98 2.18-.4-1-5.44.09.14-2.17-4.03-2.25-3.04.25-3.2 5.67-4 6.92-6.53.78-1.59.72-.77.67-.43.04-.22.15-.77.42-1.93-.5-1.37-1.1-2.7-1.77-4 .05-.93.44-1.7 1.16-2.27-.2-2.74-1.1-6.6 1.1-8.04-.12.08 9.55-.07 10.1.06 1.89.42 7.53 4.31 8.18 5.98.51 1.33-1.16 3.52-.28 4.65.64.83 5.21 1.23 5.07.46.77 4.09-2.4 7.14-2.73 10.4-.35 3.45 1.6 8.8 4.4 8.56 1.8-.17 4.6-2.3 6.53-3.91l-.06.01m-107.4 180zm109.61-105.5c-.02-.15-.5-.44-1.22-.8.68 0 1.15.23 1.22.8zm-10.31-13.25zm35.21-23.06zm-4-10.02zm-62.82-31.18zm-272.87-83.42v-.03.03zm-6.3 36.06zm8.75 3.5zm53.3-.6zm31.67 38.82zm143.5 244.55zm-1.1-.86z"/></defs><g><g transform="translate(-38 -4875)"><use fill="#75accf" xlink:href="#4f43a"/></g></g></svg>