<svg xmlns="http://www.w3.org/2000/svg" xmlns:xlink="http://www.w3.org/1999/xlink" width="490" height="514" viewBox="0 0 490 514"><defs><path id="ndjya" d="M957.97 5321.52c2.67 2.82 6.82 10.65 2 12.98-6.9 3.34-6.84-12.72-3.64-12.98.07-.46.07-.91 0-1.37.73-.49 1.4 1 1.64 1.37M846.39 4985.8c2.28-3.42 5.77 4.22-.81 3.69-.7-1.77-1.28-3.18.8-3.7m13.31 2.2c.2.35.38.72.53 1.1.22.85-2.85-1.5-1.72-1.45 1.14.05.12-1.71 1.2.35m-.2-4.67c-1.82.22.43-1.65 1.04-1.81.43-.12.48 1.63-1.04 1.81m3.41 1.38c.03 0 1.87.8 1.88.69-.14 1.4-4.72-1.27-1.88-.69m9.2-1.25c.7.45 2.97 3.69 2.2 4.47a3.52 3.52 0 0 1-1.97-.8c-1.74 2.22-1.02-4.19-.22-3.67m.06 6.45c.07.45-2.39 3.19-3 2.94-2-.79 2.6-5.51 3-2.94m7.57-17.18c-.14.5-.46.82-.94.99-1.94-.28 1.47-1.21.94-.99m-2.44.31c.3.86.06 1.17-.75.91-1.52-.76.78-.93.75-.9m5.17.5c2.29.8-1.18.67-1.18 0h1.18m3.56-2.6c.4.2.58.53.52.99 0 .23-1.47.13-1.47-.27 0-.28.77-.74.95-.72m2.45 1.41c.8.83.8 1.17 0 1.01-.93-.24-.01-.92 0-1m-21.32-2.4c.4.23.64.56.75.98-2.73 1.36-.74-1.41-.75-.99m2.25-10.85c.59-.02.96 2.5.76 3.52-.26 1.26-3.8-3.42-.76-3.52m-.65-3.33c-.06-.87 1.9-1.53 2.32-.8.3.53-2.23 2.05-2.32.8m-.8.89c.51 1.55-2.04-.42-1.85-.47.36-.1 1.7.03 1.85.47m13.8 8.22c.04.04 1.86 1.35.44 1.6.49-.09-1.59-.86-1.74-.9 0-.75.44-.99 1.3-.7m-1.3.7c-.02 0-.02 0 0 0zm1.74.9zm21.96-22.78c1.95-.42.16 2.29-2.63.51 1.1-1.36 1.81-.34 2.63-.51m-2.63-2.96c-.1.72-1.39.16-1.55 0-.3-.3 1.87-2.55 1.55 0m-3.43-.37c1.83.36-1.83 1.67-1.3.52.16-.36.97-.58 1.3-.52m-.43-4.1c-.05.15-1.53.68-1.73.62-.54-.18 3.09-4.68 3.85-3.15.35.7-2.33 3.16-2.12 2.54m6.35.61c.38.65-1.65 1.05-1.65.23.46-.56 1-.63 1.65-.23m.05 1.31c.26-1.15 1.79 1.71.53 1.27-.36-.13-.6-.95-.53-1.27m-5.5-22.73c.91-3.07.54-.4-.07-3.08-.02-.07-1.28-3.42-1.84-3.48.5-.22 1.9-.3 1.9-.67.04-1.18-1.77-2.87-.71-4.04 1.56-1.74 3.28 5.11 2.38 5.15 2.56-.11 1.9-1.26 5.44-.6 1.86.34 5.16.99 5.75 2.85 1.3 4.1-4.21 7.4-6.9 8.29-.84.28-.67 4.84-3.73 3.75-1.62-.57-2.6-6.9-2.22-8.17m-1.91-6.56c-.09.04-.15.08-.17.13.05-.1.1-.14.17-.13zm-5.55 6.84c-3.97.5-13.3-.75-15.31-4.5-1.44-2.7-.79-7.52 1.51-9.43 3.63-3 6.61-.2 5.3 4.16-.63 2.12 4.27-6.37 1.96-5.87 3.38-.73 5.69 7.3 6.36 8.49.63 1.1 5.49 6.49.18 7.15m-18.78-6.39c-2.34 2.55-3.87.12-5.83-1.89-1.41-1.44 10.2-2.89 5.83 1.9m-4.04-5.48c-3-2.03-1.7.6-3.85.82.24-.02.1-15.34 2.42-17-.74.53 8.18 7.18 8.37 7.49 1.84 3.08 1.37 2.75.2 5.3-1.17 2.59-4.28 5.32-7.14 3.39m180.28 28.68c-.8.06-9.14 1.04-9.01 1.69-.65-3.23-1.92-6.9 3.21-7.46 2.72-.3 10.73 5.38 5.8 5.77m-12.86-4.98c-1.75 1.16-2.28-3.46-1.14-3.98 1.78-.83 2.34 3.18 1.14 3.98m-17.56-21.04l-.03 1.35c.32.17 3.52 2.3 3.68 2.24 2.84-1.06 0-1.68-.37-3.5.4-.37.84-.68 1.32-.94a8.36 8.36 0 0 1-1.32-2.07c2.74-3.65 5.2 5.2 5.56 5.89.91 1.74 6.07 4.91 8.1 5.72-1.8.35-5.97 2.04-6.03 2.07-3.6 2.26-1.15 1.28-2.28 4.7-.29.85-7.64-1.34-8.2-1.71-1.86-1.22-2.38-3.98-3.47-5.58-1.15-1.7-3.06-3.85-2.91-5.99.34-5.06 6.19-2.8 5.95-2.18m17.74 8.83c-.03.12-.33.06-.8-.14.53-.1.86-.08.8.14zm-6.1-8.74c.6-1.11-4.44-1.7.66-2.72.75-.16 6.82 1.6 6.95 2.25a6.9 6.9 0 0 1-2.03 1.2c-.58 1.24.1 2.09 2.03 2.56-.4 1.28.51 1.85-.57 2.76-3.13 2.62-8.88-2.62-7.04-6.05m11.27-2.26c.32-2.37 1.95 1.05 2.29 1.1.8.12 1.86-.45 2.55-.32.6.11 8.93-.17 8.72-.58 3.26 6.4-14.47 6.46-13.56-.2M1196 5040.66c.38.63.65 1.29.8 2-.26 1.5-7.64-7-.8-7 1.74 0-.2 4.47 0 5m.62 67.76c-.69 1.07-1.56 1.41-2.61 1.01.2-.08 2.93-5.42 2.15-5.38 1.28-.07 1.04 3.73.46 4.37m-2.62 1zm1.5 2.97a4.95 4.95 0 0 1-.8 2.33c-1.52-2.03.73-1.83.8-2.33zm-1.6 5.33v0m0 .02c.07.11 1.31.26.6.93-.93.88-.6-.75-.6-.93zm-2.76 11.49c0 .48-.14.9-.42 1.27-.1.15.38-1.5.42-1.27m2.76-24.66c-1.04 1.25-1.02-.92-.62-1.5.41.41.62.91.62 1.5m-7.95 33.77a2.03 2.03 0 0 1-1.83.8c.05 0 1.45-4.61 2.85-4.36-.2-.03-.71 3.26-1.02 3.56m-3.75 3.52c0-.01-5.95 4.97-4.74 5.83-4.24-3.03 6.7-9.76 4.74-5.83m-6.44 6.67c.22.5-1.44 2.84-1.4 3.6-.03-.53.19-6.37 1.4-3.6m-1.4 3.62zm0 0zm-54.23-66.46c-5.3 4.05-.37-6.25 1.13-1-.3.43-.67.76-1.13 1m18.28.75c2.36.4 4.8 5.64 5.88 7.33 1.87 2.91 1.6 6.47 3.35 10 1.04 2.09 12.67 18.74 11.84 19.1-1.65.74-2.68-5.61-5.3-2.42-1.24 1.52.28 6.16.82 7.6 1.39 3.67 7.42 8.42 6.32 11.37-.24-.5-3.83-3.66-4.07-3.07-.54 1.35.38 3.09-.14 4.35-.9 2.2-2.09-6.26-1.99-5.92a55.53 55.53 0 0 0-2.25-6.07c-2.09-4.8-2.87-9.26-4.5-14.28-1.22-3.7-2.87-6.67-4.88-9.97-1.53-2.51-2.5-3.38-3.2-6.68-.23-1.07-2.81-6.1-.1-4.82-.82-.38.46-2.06.53-2.3-.14.02-3.45-4.4-2.31-4.22zm26.23 63.67c1.16-.54 1.58 1.3 2.85 1.4 1.63.12 3.4-2.36 4.23-2.1.98.3.2 2.38 1.12 3.23 1.72 1.56.82.76 3.44 1.81-3.55-1.42-9.74 9.87-7.35 9.75-1.23.06-3.71-2.58-4.84-3.13-.73-.36-1.99-2.08-2.83-2.11-1.6-.06-.9 3.1-2.21 3a3.2 3.2 0 0 0-.86-1c-2.54-.2 3.62 4.43 3.78 4.39-4 1.04-4.96 4.3-6.33-1.93-.28-1.26-.17-6.08.13-6.24 1.41-.78 1.1-.26 2.1.47.52-1.76.99-3.74.7-5.34-.37-2-3.05-5.32-2.3-6.81 2.46-4.92 6.05 5.67 8.37 4.6m-3.6 18.63c-.95-1.88 1.86-.78 2.35-.49 1.1.66.21 1.9.75 2.81.77 1.32 1.49 2.49 2.19 3.94.89 1.87 1.68 3.34 1.94 5.45.14 1.13.1 3.07-.06 4.25-.05.4-1.24.66-1.26.95-.16 2.87.14 7.93.7 11.77.32 2.26 3.03 1.22 1.18 4-2.46 3.72-2.03.05-2.94-.55-1.64-1.1-3.2 4.72-2.8 4.66-.95.15-1.35-2.75-1.68-2.36-1.08 1.25-5.77 4.21-6.85 1.84 1.04 2.3 1.09 1-.25 3.6-.46.88-1.35 2.78-2.38 2.9-4.17.5-1.86-5.36-1.88-5.38-1.09-1.2-13.79 3.35-14.58 5.26.19-.46 3.93 3.18 4 3.7.32 2.3-1.96 5.5-.81 8a21.1 21.1 0 0 1-1.16 2.67c-.95.13-1.8-3.15-1.94-2.98-.36.45-.51 1.75-.6 2.32-1.15-1.11-2.9-4.29-2.37-5.89.02-.07 1.74.86 1.32-.64-.26-.92-1.1-1.71-1.54-2.41.27.65.06 1.07-.61 1.25-3.46-3.45.07-4.84 2.46-6.34-.83.52 1.76-3.78 1.65-3.6.77-1.33 1.86-3.53 3.16-4.52 2.62-2 7.38-3.1 10.6-1.83-.24-1.45.92-3.66.93-3.71.04-.29.1-3.94.24-4.25 2.28-4.99 1.54.66 3 .7 3.96.07 5.32-5.15 5.97-7.78.38-1.55 1.65-7.54.63-8.97.29.4-2.26-4.58-2.16-4.64.52-.35 1.8-3.2 1.3-3.17.48-.04.84 1.84 1.58 2 1.56.36-.02-2.48-.09-2.56zm-1.53.56zm-16.72 41.02c.38.57.84.64 1.38.19.42-3.48 4.92-1.98 4.11.97.4-1.43-5.33 4.25-4.93 4.44-.87.01-3.35-2.28-3.44-3.1-.29-2.63 2.67-2.02 2.88-2.5m.69 5.58c-.07.02-.11.03-.13.02.05 0 .09 0 .13-.02zm-36.25 47.09c-1.44 4.28-1.25 8.38-3.38 2.38-1.5-4.25-1.6-10.05 2.67-13.1 1.61-1.15.74 10.62.71 10.72m-38.8 18.04c.15 3.5-3.84 4.6-6.86 3.62-.88-.29 6.38-14.2 6.85-3.62m68.42-52.55c1.67-1.72.36 2.5.33 2.09-.05-.57-2.23-.11-.33-2.09m-2.44 10.34c-.13.1-.85 2.43-1.55.75-.28-.68 1.7-2.03 1.93-1.97.8.2-.32 1.17-.38 1.22m-1.64 3.28c-.76 0-.73-1.76.23-1.26.4.57.32 1-.23 1.26m-3.05 4.93c-.06.76-.45 1.1-1.18.99-.5-.53 1.55-2.88 1.7-2.86 1.76.25-.76 2.04-.52 1.87m-8.5 8.79c.82.32.42 1.28-.42 1.12-.6-.1-1.34-1.81.42-1.12m-5.35 3c.4-.73.96-.83 1.64-.28-.42.9-.97 1-1.64.28m4.46-44.43c-.25 1-4.3.82-4.32.05-.02-.85 4.83-2.06 4.32-.05m34.68-49.78c.85 2.67-2.8-.87-.88-1.07.47.22.77.57.88 1.07m60.39-100c-.91-3.06 7.19 3.43 6.54 4.25-.56.7-6.51-4.16-6.54-4.25m10.05 3.76a10.9 10.9 0 0 0-1.88-1.08c-.1-.5.08-.78.56-.85.28.11 4.58 2.31 3.48 2.68a2.75 2.75 0 0 1-2.16-.75m-119.49 223.14c-.4-.41-.2-5.85.81-7 .63-.7 5.32-2.54 5.76-1.92.53.74.3 3.19.81 4.31.5 1.11 2.16 2.78 2.01 4.23-.24 2.37-3.85 3.32-4.04 5.93-.2 2.75 1.67 3.4 3.1 4.32.22.14 5.69-.07 6.2 1.13.1.24 2.3 6.2 1.6 6.2-2.38 0-5.92-9.53-5.92-3.76 0-.38-6.89-3.45-7.87-4.1-3.75-2.51-2.46-4.64-2.46-9.34m7.51 8.13c-1-.33-.27-1.8.31-2.26-.22.86-.3 1.54-.3 2.26m8.2 3.66l.53-1.45c1.28 2.34.08 1.17-.52 1.45m4.88 7.85c-.74-1.71-2.33-.68-2.15-2.94.14-1.72 2.3.26 2.52.47 1.7 1.63 1.83 7.5-.37 2.47m-16.1-2.21c-.45-.53-2.61-2.82-2.5-3.71.12-.88 2.84-.13 3.1.14 1.56 1.57.62 5.4-.6 3.57m-4.08-5.26c-.1.05 1.22-1.56 1.22 0-.4.22-.8.22-1.22 0m6.69 1.4a1.32 1.32 0 0 1-.22-1.17c3.44-.62-.16 2.62.22 1.18m3.3 3.61c.32.34-2.33-.77-1.17-1.14 1.55-.5.77.72 1.18 1.14m3.85 1.5c.2-.28-1.77-.04-1.88 0-.07-.66-.2-1.15.17-1.74.42-.68 4.13 2.65 2.88 2.73-.78.06-1.17-.27-1.17-.98m-3.15 1.88c.46.35.96.44 1.5.28-.35.59-3.57 4.51-4.2 4.01-.11-.1-.25-5.32-.14-6.08.08.46 2.77 1.59 2.84 1.79m-2.82-1.88l-.02.09c0-.04 0-.07.02-.1zm4.32 5.82c-.04-.55.13-.97.52-1.26.16-.09 1.06 6.56.87 6.8-.84 1.09-3.55-1.38-3.63-2.03-.05-.46 2.04-2.78 2.24-3.5m3.94-2.42c.24.87-2.31 5.95-2.2 6-1.7-1.04 1.68-5.47 2.2-6m2.4 1.13c-2.82-.73.01-2.75.66-.38s2.21 1.79.18 3.69c-.27.25-.33-3.18-.84-3.31m-1.38 3.11c1.41 3.49-1.74 1.36-1.75 1.37-.02.03 1.43-2.16 1.75-1.37m-15.94-7.27c-.12.1-1.9 1.12-1.88 1.18-.3-1.16-.64-2.05.33-2.84a94.3 94.3 0 0 0 1.55 1.66zm-2.92 5.05c.27.38.47.79.6 1.23-.11.79-8.53 5.97-8.58 7.37.05-1.47 9.23-9.1 7.8-10.73.43.49.17 1.63.18 2.13m-.21-2.17zm-7.77 10.77zm9.67-7.88c.07.23 1.46.76.07.9-.82-.23-.84-.53-.07-.9m-10.09 9.77c.12.13 1.04 1.2 1.03 1.27-.37 2.64-1.78-2.11-1.03-1.27m19.15 4.41c-1.91-1.44 5.4-7.75 6.3-6.8.42.42-.46 3 .2 3 1.17 0 2.12-1.93 2.26-2.8.06-.36 1.07 1.2 1.09.45 0 .17-.25-2.07 0-2.11.48-.08 1.64 1.14 2.03.6.22-.27-.04-2.85 0-3.36.06-1 3.13 2.12 3.35 2.47.39.61.76 3.34.96 4.29.01.05 1.68 8.95-.86 6.8-.93-.8-.17-2.66-1.15-3.56-.1-.1-.11 7.61-4.33 5.35-1.97-1.06-.61-3.74-1.74-5.03-2.37-2.73-1.84-.28-3.46-.61-.33-.07-2.48-1.67-1.78-1.92-.98.35-2.36 3.62-2.87 3.23m-.28 1.27c1.52.15.46 1.7.05 1.58-.78-.24-1.35-1.7-.05-1.58m6.59-10.7c.54-.39.76 1.25.27 1.07-.8-.3-1.27-.38-.27-1.08m7.12-4.74c.13.25 1.07 2.82.2 2.97-.84.13-.38-3.33-.2-2.97m1.88 1.76c.75.33.85.85.28 1.54-.2.3-.52-1.43-.28-1.54m-108.64 29.38c-1.74-3.48-4.27-3.72-6.29-6.3-.4-.5-2.89-5.68-1.4-5.54 5.47.55 8.6 4.51 12.49 7.36 3.7 2.7 7.26 4.6 10.26 7 1 .8 3.5 3.71 5.32 5.18-.31-.25.7 2.64.7 2.64.52.61 1.85.21 2.48 1.1 2.54 3.63.68 4.41 6.07 4.41-3.01 0 2.36 8.9 3.5 9.54-.6.4-1.06.92-1.4 1.57.54.7.8 1.47.76 2.35-.41 1.5-1.29 2.79-1.5 4.41-17.67-1.45-19.22-24.35-30.99-33.72m33.13 25.4l.2-.13c0 .16-.07.2-.2.12zm1.18-4.77c-.2.58 2.6 2.16 1.18 3.01-1.22.74-4.73-4.39-4.44-5.26-.03.1 2.2-.64 2.34-.9-.55 1.14 1.06 2.74.92 3.15m4.57.7c1.03-.2 4.24 1 2.98 2.65-1.5 1.98-3.38-1.05-2.98-2.66m-9.46-8.76c.83 1.93-2.17.32-1.9-.52.22-.65 1.66.42 1.9.52m-1.9 1c.48.15.66.46.53.94-1 .07-.36-.36-.54-.95m-5.35-5.69c-.04 0-.06-.02-.06-.06.06.04.08.06.06.06m-.06-.06c-.38-.27-2.23-1.33.06-1.57.87-.1-.06 1.26-.06 1.57zm-20.72-.7c-.97 1.14-2.36-.5-1.23-1.83.76-.88 1.75 1.23 1.23 1.84m8.51 14.46c1.15-.17 1.85 1.17 2 2.1-1.51-.2-1.5-1.13-2-2.1m-14.77-20.6c-.86 1.11-2.05-.68-1.24-1.43.4-.38 1.57 1 1.24 1.43m-8.95-16.9c-.23 0-1.03-2.12-.34-2.33.02 0 1.78 2.25.34 2.32m-5.57-14.34c-1.37 0-.39-1.76-.14-2.06-.2.24 2.43 2.06.14 2.06m.9-8.7c-.53.95-1.22-2.47.85-4.07-.12.09-.57 3.58-.84 4.07m-.35 2.46c.01.5.6 2.8-.48 2.8-2.05 0-.53-1.8.48-2.8zm.2-.18c.53-.51.8-.68 0 0zm51.22 75.87l1.41-.56c-3.6-.54-2.8-2.16-.65-3.76 1.62-1.21 9.07.08 8.58 1.21.06-.14-1.94 1.55-1.87 1.52.88-.33 4.04.47 5.3.44 1.27-.03 2.55.43 3.82.23.87-.14 1.59-1.91 2.2-1.9 2.93.06 3.27 1.95 5.23 3.28.53.36.63 1.48 1.22 1.83 1.34.79 4.06-.56 5.26.5-.82-.72.12 3.78.3 3.6-1.73 1.73-16.4-2.82-19.11-3.7-3.7-1.18-8.1-.73-11.69-2.69m30.5 2.8v-.01zm-4.3-3.93c1.32 1.04 3.62 1.37 5.17 2.07-3.72.64-3.55-.8-5.17-2.07m5.64 4.23c.4-.04 4.58.25 3.85 1.19-2.1 2.68-3.9 1.03-3.85-1.19m6.24 1.74c1.56-.4-.5 2.05-.42 1.88.16-.32-3.18-.98.42-1.88m2.4 1.9c2.37-2.47.7-.03 4.22-.91a4.18 4.18 0 0 1-.87-1.23c-.2-1.15 4.74.36 5.28 1.5.4.86-8.9.92-8.64.64m11.27-.27c.65-2.81 9.25-1.07 11.85-2.85-1.6 1.1-3.06 2.7-6.26 3.12-.17.02-5.66.06-5.59-.27m-1.31 2.36h-.01m0 0c.1.08 5.92 4.4 4 4.12-.12-.01-5.92-3.74-6-3.58.17-.36 1.72-.69 2-.55zm20.43-1.56c1.25-.47 8.81-2.35 8.5-.93-.16.7-7.33 2.97-7.92 3.3-1.5.88-5.51 5.84-6.73 1.87-.32-1.05 4.98-3.81 6.15-4.24m-8.22 7c.54.2 2.1-1.87 2.43-.79.93 3.12-3.05.57-2.43.8m2.96-8.4c-2.11-.07 1.32-2 1.68-1.48.37.53-1.64 1.47-1.68 1.47m3.34-.22c.3-.36 2.03-3 2.81-1.05-.03-.08-2.41 2.15-2.81 1.05m-49.93-39.03c-.81-.56 13.09-12.99 14.5-14.14.51-.43 2.26-1.19 3.23-2.1 1.14-1.1 2.72-4.11 4.18-4.44 2.13-.49 1.58-.12 3.8 1-.4-.2 1.1 2.05 1.12 2.08.35.48 2.37.67 2.85 1.07-1.16-.97-6.11 6.05-1.78 4.83-3.92 1.1-4 1.31-3.8 5 .09 1.55 1.3 4.7 1.76 5.76.39.92 2.8.54 2.82 1.81.04 1.9-1.08.87-1.38 1.45-.12.22-2.2.93-2.5 1.38-1.3 1.88-.1 1.58-.88 3.57-.37.93-1.24 2-1.77 2.82l.11-.18c-.23.37-2.08 3.22-2.15 2.95-.38 1.55-.16 4.12-.83 5.55-.42.92-6.7 5.78-6.56 3.55.28-.28.5-.6.68-.96-.59-5.14-7.09-.28-6.91-.26-1.86-.15-3.11-2-3.54-3.97-3.99 1.58-5.14-.93-6.73-4.01-.3-.58.82-.78.58-1.5-.37-1.14-2.12-1.3-2.37-2.47-.09-.43 1.4-1.49 1.2-1.9-.15-.27-1.51-.62-1.51-.5 0-2.44-2.86-3.52-.19-6.78 2.25-2.75 3.23-1.55 6.07.4zm25.7-19.68zm7.6 28.57c1.35-.73-1.2-4.1-.5-5.38.82-1.49 2.33-.93 3.63-1.5 2.96-1.31 1.73-1.27 5.6-.31 1.22.3 2.34 1.05 3.68.99 2.4-.1 3.7-2.58 5.37-2.88 3.68-.64 3.03 1.88-.15 3.57-3.79 2-13.08-2.9-15.9 1.6-5.88 9.4 12.12 1.54 13 2.57 1.23 1.4-5.68 3.61-6.21 4.79-1.02 2.24-.4 3.57 1.5 6.14 2.06 2.77 3.4 3.17-.88 4.7-.67.23-1.33 1.65-2.22 1.25-1.97-.89.51-1.26-.45-2.88-1.65-2.76-2.51-6.65-4.02-3.32-.85 1.87.07 4.71-.77 6.46-.6 1.25-.24 3.98-2.9 1.84-1.36-1.1-.44-2.36-.79-3.67-.2-.8.26-2.72.2-3.32-.01-.12-2.52-.34-2.22-1 .86-1.9 1.16-3.45 1.46-5.81.06-.53.59-4.56.89-4.65.5-.15 1.6.86 1.68.81m14.72 2.32c-.9 1.15-1.31.92-2.38 1.25-1.97.63 4.06-3.41 2.38-1.25m5.75 1.13c-.04.52-2.68 1.31-3.19.62-.33-.46 3.3-2 3.2-.62m3 .2c.8 2.28-1.86-.04-1.94 0 .65-.37 1.3-.37 1.94 0m-1.94 0zm-12.65 13.26c.25-.67.7-1.05 1.32-1.12-.5 1.06-2.23 3.06-1.32 1.12m-6.54 3.95c-.26.55-.17.97.28 1.25-.62.62-1.61-1.79-1.06-2.07.62-.03.88.24.78.82m23.16-12c.16-.78 4.62 1.32 2.1 2.6-1.53.79-4.9-.57-3.72-2.6.27-.47 1.4 1.12 1.62 0m11.3-.26c1.87-1.36 5.7.77 6.66 2.57-.54-1-11.4.28-12.95-2.57-.96-1.78 6.41-.1 6.3 0m-5.52-10.29c-.73-3.65-4.82-6.5-.5-10.14-1.75 6.93 3.3 2.38 3.32 2.5.05.48-1.02 2.13-1.06 2.6-.06.6 1.37 1.46 1.06 2.16-.36.84-1.64-.2-2.02 1.3-.03.1 1.67 3.68.5 3.53-.8-.34-1.24-.99-1.3-1.95m.1 3.7c1.24 2.55-2.28-.03-2.26-.03-.02 0 1.01-2.57 2.27.03m11.41-4.04c-3.92-1.95 1.95-.52 2.1-.67-.1.1-2.19.42-2.1.67m2.32 27.84c-.21.2-4.07 3.06-4.07 1.31 0 .01 3.82-2.85 3.72-2.95.67.42.79.97.35 1.64m-.36-1.64zm10.06-3.31c1.27-.64.86-2.1.67-3.07.43 2.11 2.35 4.57-.8 6.1-.55.26-.9-2.51.13-3.03m-208.55-434.2c-2.04 4.63-2.28 10.34-3.53 14.89-.2.75-2.31 5.98-2.15 6.32 2.78 5.72 3.22-4.75 2.76-4.34.74-.67 2 .81 3.02-.53a70.2 70.2 0 0 1 2.03-2.45s3.25-4.66 3.23-4.88c-.03-.23-5.28 1.44-5.08-.18 0 .04 1.47-2.56 1.6-2.73 1.78.58 2.46-.63 2.65-.59 1.08.23 2.38 2.89 1.67 2.89 1.76 0 3.41-1.14 2.91-2.96 2.07.74 2.14 3.8 3.47 3.84 4.36.14 0-2.17 1.83-3.48.7-.49 13.45-2.77 13.48-2.6.6 3 .32 3.99 4.32 4.4 2.8.3 7.97-.23 8.26-2.63.07-.48 2.29.25 2.6-1.35.23-1.22-1.4-2.92-1.08-4 1.03-3.39.78-.32 3-1.03.73-.24 4.77-1.73 5.5-1.67 2.42.21 6.95 1.97 8.85 3.58 1.26 1.07.46 2.86 1.43 3.86.63.65 3.71-.24 4.24 1.12-.46.31-.87.67-1.25 1.07.15.22 2.64 1.94 1.64 2.6-.35.24-2.18.2-2.58.15.27.4 2.62 3.3 3.06 3.24-.1 0 4.77-3.23 3.98-1.1-.89 2.43 5.34 6.11 7.49 5.75 5.42-.94-1.74-7.61-2.88-9.9.7 1.4 7.5 4.37 9.63 3.62 1.15-.4 2.77-4.39 3.51-5.62.83-1.39 4.15 2.88 4.48 2.85.38-.03 3.99-2.08 3.26-3.04.2.25-3.83-1.34-3.17-1.47 4.4-.85 5.9 2.73 6.72-1.36.5-2.45-.19-1.87-1.65-3.87-1.47-2-2.68-1.7-3.14-4.82-.25-1.69 4.59-.24.64-2.95 2.45-1.1 7.12 2.95 8.15 1.98.81-.77-1.53-1.94.44-2.66 1.96-.72 3-1.4 5.2-.58.99.37 2.32 4.65 3.1 4.65 2.96 0 .77-5.93 1.87-7 .95-.93 5.4-1.1 6.77-.85 2.2.4 8.16 5.4 4.73 5.51 2.5.3 4.3 1.96 6.65 2.26 1.1.14 1.4-2.78 3.53-1.43 1.52.98 1.06 4.85 1.01 4.83 4.92 2.05 11.88-5.78 16.73-6.55 2.37-.38 5.43-.54 7.69.74 4.2 2.36 1.99 7.33 4.92 9.63-.56-.44 4.27-1.96 4.43-1.96 1.65 0 3.63 2.85 5.28 2.33 1.66-.52 1.4-5 3.17-6.26 1.83-1.3 7.36.05 9.97-2 3.24-2.55 1.2-.17 2.76-5.4.76-2.53 4.24 5.52 4.04 6.06.93.21 7.8 2.51 7.67 2.5 4.01.43 3.37-.52 2.32-3.22-.72-1.83-2.18-2.15-3.01-3.58-2.27-3.87 0 .07 0-2.88 0-.6-4.17-2.42-3.07-3.3 2.25-1.83 5.31-.24 7.78-.7.82-.16 3.2-2 3.17-2 .45 0 4.24 1.75 4 1.92 2.3-1.62-.86-1 2.9-1.54.57-.08 1.28-.1 1.85-.14 3.14-.2 6.36.68 9.2 1.07.12.02 1.2 1.8 1.95 1.99.96.24.38-1.75 1.2-1.53 2.9.78 6.02 3.38 7.45 1.46 3.5-.1 7.6 1.87 11.36 2.07 5.36.27 4.55.52 8.22 4.65 1.22 1.37 5.04 5.18 4.81 1.48-.08-1.32-4.73-5.15-3.53-5.9 2.01-1.28.98.92 2.38.61-.22.05-.24-2.64 1.15-3.2 3.06-1.23.82-.27 3.82.43 1.7.4 4.43 2.24 6.15.8-2.12 1.77 3.12 5.7 2.92 6.43-.11.4-2.68.5-2.73.44.03.04 2.05.9 2.02.9-.46.25-4.12 4.27-4.28 4.2 1.89.8.88.66 2.12 1.8.63.57 1-2.38 2.2 0 .25.47.27 1.68.5 2.07-.26-.43.5 5.68 1.72 4.17.08-.11 2.38 1.08 2.67 1.05-1.56.18-.52 2.23-1.6 2.93-1.53.98-4.5-.08-6.03-.01-.96.04-1.56 1.45-4.28.33-.86-.36-1.31-3.3-3.68-3.22-.02 0-4.35 3.2-4.2 2.62-.45 1.78 1.58 3.06-1.18 2.31-1.7-.46-1.56-3.2-1.56-4.65 0-.4-2.86 2.22-2.87 3.78-.02 2.34 4.2 3.04.33 4.4 2.47 1 5.06 1.36 5.71 4.08.55 2.3-1.56 2.48-1.58 3.24 0 .27.67 3.03.68 3.01-1.22 2.53.36 2.14-2.98 2.37-1.9.13-2.88-.72-4.55-1.06-.52-.1-1.52 3.67-1.26 3.84 1.02.72 2.23-1.65 3.26-1.47.71.12 1.28 1.2 1.87 1.31 2.17.4 3.43 1.74 5.02 2.69 1.51.89 2.94 2.3 4.17 3.2-.14-.1 6.37 6.55 5.3 6.2 1.64.54 1.08-1.82 3.14.76-.53-.65.84 4.54 1.22 3.39-1.13 3.46-2.43.66-4.98 1.4-6.88 2.02-7.1 6.67-9 12.26a5.71 5.71 0 0 0-1.98 1.93c-.18 1.2 0 2.33.56 3.38-.17 1.17-.75 2.7-.8 3.76-.11 3.05 1.05 5.76-2.37 5.97-4.36.27-3.74-3.94-8.42-.95-.66.42-2.27.96-2.77 1.55-.7.82-.02 3.63-1.08 3.95-1.86.56-2.66-4.37-2.79-4.2-3.58 4.67-4.37 6.7-3.63 12.4.34 2.62.37 12.34 2.91 13.44 2.59 1.13 1.66-4.03 4.53-1.01 1.6 1.7-1.51 3.19-.23 5.1 1.69 2.52 2.28-1.3 4.39.84.8.82 1.78 5.48-.67 5.3-.62-.05-1.03-3.46-1.22-3.4-2.44.7-.2 8.87.5 10.14 1.63 2.88 4.57 3.53 3.28 6.61-.72 1.73-4.53 3.45-4.89 6.14-.3 2.26 5.18 3.64 1.58 6.75-.12.1-2.4-.3-2.42 1.97-.01 1.66 2.4 2.95 2.5 4.43.06.96-3.57 9.63-4.17 9.5-1.52-.3-6.03-10.68-6.58-11.77-1.5-3.02-3-4.65-5.07-7.2-.79-.97-3.87-4.2-4.11-4.87-.4-1.08-.93-5.22-1.78-7.3-.87-2.13-2.28-3.56-2.84-5.4-1.6-5.26 1.55-7.47-1.16-12.9.03.06 4.58.46 2.32-2.18 2.17 2.53 2.02-7.37 1.94-6.9.44-2.63 1.15-9.74 1.48-12.72.16-1.4 4.77-11.51 2.72-12.57-.97-.5-2.52-2.9-2.86-4.89-.52-3.14.05-3.47 2.04-5.2-2.8-.66-5.75-2.46-6.82 1.32-.88 3.08 3.04 5.38 3.18 7.01.03.41-.15 1.5-.12 1.2.13-1.27-2.1 3.2-2.02 3.02-.62 1.3-2.28 5.5-2.28 6.31 0-.36-.32-1.14-.39-1.5-4.92-.09-1.71-5.35-4.38-7.02.68.43-5.23 3.63-3.87-.16-1.13 3.15-4.58 1-6.6 4.91-.4.8.01 4.34.04 5.42.1 4.35-.97 8.24-.97 12.14 0 .13 3.77-.03 4.28.7 1.35 1.96-.86.75-1.43 1.32-.27.27-.6 1.57-.7 1.63-.88.5-1.8-.64-1.7-.72-.2.17-2.37 3.28-2.39 3.28a2.08 2.08 0 0 1-.6-.87c-.2 1.41-4.55 2.8-4.25 1.73.21-.18.43-.35.66-.51-.4-.2-.76-.46-1.06-.78 0-.72 1.5-1.53 2.45-1.82-2.77-2.5-9.45-2.42-11.83-.75-1.38.97.2 1.97-1.29 2.9-1.4.86-2.54.8-3.42 1.1-2.11.72-3.32-1.14-3.32 2.2 0-2.59-10.92 1.44-11.29 1.8-.77.72-1.08 3.16-1.2 3.46-.3.76-1.22 2.55-1.78 4.04-1.57 4.15-3.32 8.94-4.17 13.44-.23 1.27-3.4 15.74-4.9 14 .87 1 2.47-.52 2.8-.06.13.16 1.09 2.93.64 2.68.52.39 4.66 3.55 4.6 3.19-1.26-7.57 6.13 1.03 3.75 1.03.97 0 2.55.85 2.63.85 1.1 0 1.82-4.1 2.86-4.4 2.36-.69 1.69.76 3.35 1.44.22.09 2.66 2.04 3.1 2.43 2.67 2.39 2.12.23 2.12 2.72 0-.14 2.68 4.54 2.63 4.42.18.42.89 3.6 1.33 4.83 1.55 4.37 2.58 10.4 3.3 14.99.67 4.19.62 9.65-.5 13.34-.33 1.08-1.71 1.33-1.93 2.58-.25 1.42.38 2.9.05 4.26-.28 1.16-3.42 8.23-3.36 8.58a1.3 1.3 0 0 1-.27-.7c-.12 3.6-3.58 11.53-7.26 12.7-1.94.62-4.28-1.03-4.14-1.06-2.17.43-.5.04-2.37 1.13-.18.1-2.69 2.47-2.94 2.91-2.15 3.71-.65 6.12-1.55 9.24-1.07 3.74-8.07 5.04-5.47 9.76.36.65 4.3 3.23 5.04 4.06 1.55 1.72 3.16 3.44 4.14 5.35 1.78 3.5 4.51 9.53.84 12.45-2.18 1.73-2.45-.34-4.5.33-1.52.49-.62 3.26-3 2.39-2-.73-.57-8.55-.57-9.67 0 .4-3.17-1.13-3.15-1.13.63-.6 2.8-2.09 2.49-3.2-.8-2.85-5.09-1.44-6.25-2.33-2.52-1.95-2.06-6.57-1.83-8.93.44-4.38-10.46 1.67-11.04 2.06-1.56 1.06-1.96 3.33-4.4 2.59-2.14-.65.7-2.35.7-2.78a67.9 67.9 0 0 0-1.93-2.3c.56.36 5.1-4.88.05-6.24-2.9-.79-2.54 2.21-3.56 3.44-.5.59-6.46 10.27-7.62 7.59.22.5 2.24 5.6.93 5.56.85.03 2.81-1.6 3.56-.44.54.82-.81 2.84.03 3.53 1.1.9 3.88.55 5.44.02 1.33-.46 1.15-2.19 2.03-2.3.58-.07 2.06.78 1.54.91.46-.11 7.08-.62 7.15-.5 1.08 2-5.62 5.49-6.87 6.27-.7.43-3.3 2.06-3.76 2.88 0 .02-.43 4.63-.34 4.81 1.77 3.56 4.44 2.12 6.72 5.7.42.64 6.09 9.57 6.27 9.02-.52 1.56-4.77-1.22-5.13-1.31.42.11 5.07 4.41 5.2 5.26.34 2.34-3.05 2.05-2.7 4.32-.05-.3 3.85 1.82 3.95 2.14.82 2.63-3.27 3.2-.07 5.13-.56.18-1.1.4-1.63.68-.2.21 2.5 1.58 2.31 1.8-.25.3-2.87-.33-2.87.4 0 .83-2.55 6.95-3.59 4.74.8 1.7.06 3.06-.69 5.28-.47 1.4-1.7 1.69-2.23 2.69-.52 1 1.26 1.52 1.32 2.5 0-.03-3.97 1.79-3.88 1.73-.4.27 1.13 1.14.43 1.9-.9.98-3.04 1.05-3.59 1.32.5-.24-1.14 1.56-1.49 1.99-.36.03-5.61 2.85-4.9 2.6-1.2.42-1.94 1.39-3.29 1.8-1.06.33.35-2.27-1-1.82-2.33.78-3.09 2.89-4.83 3.88-1.04.59-2.31.54-3.56 1.32-1.53.95-2.4 2.23-3.55 3 .93-.63-1.3 4.01-2.52 1.43-.48-1.02-.86-1.95-2.55-2.99-.2-.12 1.12-.76 1.77-1.09-1.03.09-3.87-1.2-3.85-2.08-.04 1.42-5.66 3.25-7.03 4.65-1.5 1.53-3.15 6.46-3.28 8.9.1-2.04 6.5 7.31 6.5 7.31 3.27 2.86 4.84 2.27 6.7 6.01 1.07 2.15 1.8 4.82 2.58 7.37.19.6 1.3 4.42 1.1 5.75-.29 2.02-9.16 10.8-10.14 7.33 2.17 7.64-7.55 1.43-10.61-.03-1.05-.5-.14-1.9-.97-2.59-.5-.41-.71 1.39-1.4.46-.55-.72-.77-1.69-1.8-2.54-.32-.27.1-1.62-.35-2.12.42.47-3.1-.75-2.86-.66-.77-.27-4.86-2.57-5.39-1.25.31-.78 1.58-3.91-1.07-2.98-2.37.83-1.28 2.38-1.8 4.44-.7 2.87-3.02 10.05-.07 12.73 0 .01 1.4-3.09 1.84-2.13 1.2 2.57.5 5.94 2.1 8.58 1.71 2.78 5.94 3.9 7.58 5.47 3.03 2.9 2.56 5.53 3.28 8.84.11.53 2.1 7.84 3.72 8.31-.56.07-1.02.3-1.38.72.11.13 1.33 1.73.85 1.42-6.43-4.15-11.1-5.43-13.74-13.15-.86-2.55-4.59-18.3-9.35-13.69-.73-5.05 1.35-9.05 1.44-13.65.03-1.71-.04-5.74-.76-7.51-.4-1.03-2.08-1.95-2.53-2.86-.57-1.14-.6-3.38-1.1-4.7-.2-.56-3.7-8.38-3.23-8.2-1.26-.47-5.55 3.94-7.23 4.64-4.18 1.72-2.84.85-3.91-4.51-.08-.38-2.5-7.95-2.18-7.95-3.25 0-1.34 1.85-3.54-.53.06.06-.84-3.13-1.2-3.7-.98-1.6-2.35-1.08-3.28-2.54-1.44-2.28-.45-2.84-1.48-4.96-2.4-4.89-2.44-2.2-5.93-.95-.42.14-2.05-.4-1.88-.5.12-.08-2.83 1.3-2.3 1.24-.32.03-.86 1.58-1.48 1.72-.9.2-2-2.73-2.87-2.23-3.96 2.29-4.28 13.87-9.38 14.3-1 .08-.83-3.52-2.7-2.8-1.14.44-1.21 3.22-1.95 4.38-1.03 1.61-2.38 2.53-3.6 4.05-1.2 1.46-2.76 3.16-3.9 4.39-.52.57-4.35 2.54-4.75 3.5-.89 2.13.58 4.63.7 6.66.05 1.17-1.21 2.44-1.07 3.32.22 1.36 2.74 3.34 2.22 4.8 0 .02-1.42 1.5-1.75 2.33-.36.93.37 2.22-.13 3.36.1-.25-4.81 5.29-5.18 5.15-2.58-.96-2.43 4.72-7.18 1.81-3.68-2.25-2.23-7.3-3.96-10.4-.35-.62-2.54-.98-3.22-1.81-.27-.34 1.34-1.9 1.17-2.2-1.28-2.3-2.85-3.28-3.98-6-1.71-4.11-4.76-10.04-5.54-14.28-.47-2.6.09-3.48-.62-6.09-.57-2.11-1.46-4.6-1.82-7.31-.48-3.67 1.45-8.99-2.25-5.64-1.65 1.49-.6 4.5-3.97 5.13-3.53.68-1.2-.16-3.64-1.79-.83-.55-3.76-2.48-3.71-3.36.13-2.34 4.6-.83 4.96-2.53-.12.56-5.64-2.37-6-2.53-1.35-.6-1.26-1.3-2.61-1.71-1.4-.43-3.73 1.87-5.46.46-.41-.33.76-5.42-1.5-7.07-1.97-1.45-4.94-.58-7.12-.35-2.03.22-3.87.61-5.94.5-.87-.04-2.38-1.55-2.92-1.5-1.82.17-1.56 1.96-2.72 2.16-2.83.49-2.21-.1-5.16-.65-2.62-.5-5.04-1.93-7.5-2.38-1.65-.3-3.6 1.07-5.26-.1-.37-.26.7-2.8-.27-3.63-4.35-3.71-10.84.8-15.82-1.02-.15-.05-1.2-1.46-1.84-1.76-1.27-.58-3.33-.15-4.6-1.07-.62-.45-2.51-4.4-3.62-5.7-1.73-2.05-.29-4.59-4.7-4.16-2.49.23-3.41 1.36-3.27 3.69.23 3.74 5.2 6.15 7.36 9.68 1.74 2.86-1.08 6.57 2.24 6.73 2.9.13 1.58-3.1 3.2-3.48 3.85-.89-1.55 10.57 2.9 7.99 2.18 3.07 7.59.32 9.52-1.98 4.25-5.04 4.47-10.78 7.9-2.05.8 2.02 1.36 4.08 3.2 5.39-1.18-.84 3.34-.37 3.36-.4.04.06.12 2.03.3 2.12 2.99 1.51 7.87 4.14 4.27 9.5-1.25 1.87-2.75 1.81-3.78 3.64-.84 1.49.1 3.91-.92 5.47-.68 1.05-3.52 2.33-4.66 3.01-1.36.8-3.23 2.32-4.01 2.8-.96.59.15 1.16-1.61 1.98-.91.42-2.95-.5-4.04-.14-1 .33-4.73 2.65-5.49 3.36-1.9 1.79-2.29 6.09-5.8 6.72-2.22.4-4.94-2.2-7.69-1.65-1.44.3-4.94 2.57-5.93 3.36-.23.18-1.9 2.55-1.4 2.36-2.12.81-3.59-.19-5.8.46-4.5 1.32-4.5 4.56-7.74-.92-1.86-3.15-1.74-8.25-3.3-11.15-1.08-2.03-3.01-2.25-3.78-3.4-.66-.97.62-2.4-.06-3.77-.48-.95-2.61-2.93-3.42-4.1-1.19-1.72-1.28-2.71-2.74-4.02-.55-.5-1.6.86-2.63.02-4.02-3.3-2.18-8.8-3.25-11.73-.65-1.8-2.07-3.05-2.9-4.21.29.4-1.97-.26-2.23-.5-.62-.58.06-2.53-.55-3.12-2.16-2.12-3.27-1.9-4.92-5.1-1.08-2.11-1.76-4.44-2.84-6.55-.95-1.86-2.18-4.04-3.04-7.07-.58-2.03-4.26-6.67-4.2-7.69.04-.83 4.18-6.1 4.78-6.62-1.51 1.32 1.08-4.43 1.1-4.52.26-1.46 1.24-5.6.5-6.98-.21.07-.4.18-.56.32-.99-.5.83-5.3.95-5.55.02-.05-9.96 2.62-10.76 2.4.29.3.6.56.96.78 1.24 1.38-6.32-1.54-4.35-1.01-1.7-.46-3.44-1.5-5.3-1.27-.61.08-.6 1.91-1.18 2-3.55.57-3.4-.85-6.32-1.45-1.33-.27-1.11-.98-1.98-1.35-.74-.3-2.13 1.45-3.53.94 1.19.43-.78-2.84-1.17-3.49-.25-.17-2.56-2.4-3.67-2.86.7-.9 1.87-2.6 1.9-2.85.3-3.23-2.7-2.77-2.44-4.64.53-3.7 8.2-3.12 10.88-4.34.14-.06-.8-1.4-.49-1.6 1.64-1.07 1.81-.33 3.94-1.01 2.4-.76 4.85-1.44 7.25-2.35 1.97-.74 5.08-1.88 7.65-1.9.87-.02 6.37 2 6.2 2.09-.36-.01-.71 0-1.06.03-.44.33 5.4 1.66 5.33 1.65 3.1.53 5.03.09 8.1-.11 3.78-.25 7.93.7 12.08.08 1.03-.15 5.8.06 6.63-.5 1.04-.72.75-3.53 2.17-4.95 1.3-1.31 3.96-.94 5.08-2.69 1.1-1.74-.33-4.41.1-5.93.68-2.43 4.04-4.84 3.66-7.2-.2-1.29-3.93-3.8-5-4.53-4.73-3.24-10.15-5.77-1.2-8.3 5.26-1.49 11.78 1.8 8.91-4.96-1.53-3.6-4.88-3.83-3.2-7.33.75-1.58 5.77-3.13 5.82-5.65.02-.54-4.4.65-4.8.82.17-.78 6.63-8.38 5.69-8.61-.72-.19-2.72-.72-3.14-1.82.1.29 4.92-5.35 4.41-8.08-.32-1.74-2.66-3.75-2.73-5.3-.32-7.22 6.32-1.21 9.2-1.52 3.82-.4 4.77-2.77 5.4-5.97.25-1.32-.7-3.32-.3-4.41.52-1.37 2.05-1.14 2.44-2.05.7-1.62 2-5.24 1.53-6.86-.63-2.21-3.16-1.95-4.46-4.11-1.5-2.5.43-5.37 2.84-6.85 1.79-1.1 4.6 1.35 6.54-1.02 1.84-2.24-.37-2.62-.32-4.75.1-3.31 1.78-5.67 2.54-9.13.53-2.43-.07-5.16.06-7.62.15-3 .16-3.75 1.4-6.63.59-1.39 2.92-3.5 2.55-5.2-.46-2.17-3.9-1.8-4.3-3.13-.92-3.04 2.7-5.77 3.87-7.94 2.13-3.94 1.79-4-.4-8 1.1.51 2.12-2.43 1.82-3.49-.45-1.59-1.7-1.3-2.42-2.3-.65-.87-4.94-4.01-5.9-3.1.11-.2.27-.4.45-.56-.48-.15-2.56-1.26-2.63-1.79-.1-.72 1.72-.93 1.12-2.24-.45-.99-1.29-1.92-1.68-2.83-1.21-2.79-3.18-2.96-2.36-6.71.56-2.56 2.72-4.68 3-6.7-.2 1.33-1.15-5.2-1.1-4.37-.05-.73-.48-2.55-.48-3.45 0-1.91 6.18-1.59 7.56-1.24 4.52 1.13 4.35 3.02 4.74 7.07.24 2.48.08 4.8 1.3 7 2.78 5.02 2.73 3 3.68 8.78.54 3.3 1.85 3.7 3.61 6.65.34.57-.69 2.17.1 3.17.89 1.1 2.82.77 3.8 2.2 1 1.47 1.15 2.72 1.2 4.34-.7.27-1.31.68-1.86 1.2-.57 1-.28 1.6.9 1.84-.16.77.45 7.28-.27 7.89-1.4 1.18-13.17-3.56-5.64.76 1.5.86 5.63 1.93 7.18 1.66 3.57-.6 2.75-1.96 3.28-5.86.46-3.4 1.9-6.43 1.2-10.18-.43-2.33-4.24-5.76.96-6.16 4.48-.34 4.24 5.18 7.12 7.1.98.65 8.21 1.08 8 1.73.74-2.23-5.41-1.8-6.22-2.77-1.44-1.73.14-3.3-1.11-4.95-.88-1.16-6.18-3.52-7.8-3.74-.77-.1-2.4-.53-3.22-.42-.9.1-.52 2.23-1.46 2.22-3.54-.03-4.4-4.48-4.73-6.65-.57-3.95-1.18-4.5-3.3-7.96.01.03-2.33-6.63-3.09-5.97 4.24-3.64 1.05-2.44 1.93-7.38.75-4.21 1.9-.26 2.76 2.02 1.78 4.65.29 5.7 4.96 7.2 2.44.79 4.64.1 7.57 1.73-3.1-4.56-9.1-.29-9.99-7.55-.07-.57 7.48.45 6.6-1-.2-.33-3-1.58-2.81-2.07 1.86-4.65 13.79 2.94 14.27 3.29 1.32.94 1.26-1 2.44.97.63 1.05-.55 3.73-.19 4.85 2.44 7.48 1.9-2.68 1.95-2.69.97-.2 5.2 10.6 5.3 10.21.7-2.8-.7-5.95-2.3-8.54-.7-1.14-1.97-2.47-2.5-3.68-.87-2.03.75-1.48.75-3 0-1.14-9.56-3.11-10.9-4.13-2.98-2.28-2.84-5.05-3.66-6.77-3.59-7.58.62-3.3 6.25-5.6 1.34-.55 2.14-3.04 3.7-3.7.83-.34 4.28 2.45 4.8.38.96-3.87-8.22-4.09-8.26-4.72-.02-.44 2.93-.8 3.18-1.29-.35.66-4.25-3.05-3.28-4.14.81-.9 2.11.44 2.8-.6.16-.26.17-1.7.09-1.61-1.29 1.32 1.17-3.66 1.17-1.5 0-3.04 10.28-11.94 14.15-10.66-2.2-.74-4.94-.55-6.94-1.72.47.27 10.83-2.77 10.98-2.44.17.64.1 1.24-.19 1.81 1.3-.86 3-.63 4.04-.84.01-.31.22-2.98.42-3.09 1.36-.76 1.39 4.02 4.01 1.58 3.26-3.04-3.15-2.36-2.83-4.88.18-1.45 4.88.57 5.2.19-.13-.47-.3-.93-.5-1.37.1.02 2.86-.06 2.46-.36-1.44-1.07-2.55-1.21-3.75-2.32.66.6-2.41-4.84-2.67-3.7.73-3.26.85-6.07 3-8.93.82-1.1 3.38-2.43 5.16-1.34 2.9 1.77.01 4.47 1.11 5.94 1.18 1.57 4.32-1.95 5.2-1.82 2.14.3 1.92.98 3.2 2.44 2.66 3.05-1.22 5.15 2.73 1.83-.67.57 1.71-2.34 1.68-2.3 2.09-2.36 2.8-2.15 4.5-2.08.51.02 5.14 1.74 5.92 2.6.76.8 1.78 3.52 2.62 3.83 2.43.9.87-3.3 1.29-3.17 1.09.34 3.18 2.73 3.4 3.23.13.29.28 2.32.32 2.4-.57-1.31-1.04 1.07-.86 1.57.33.88 3.76.25 3.62.48-.42.74.68 3.51.63 5.19-.07 2.06-1.18 4.52-1.91 6.43m210.04-19.25zm-46.94 269.2zm-88.64-242.66zm-94-27.77zm-19.4 7.88zm1.29 2.68zm-70.42 56.48zm3.01 25.6c.03-.18.09-.3.18-.4-.07.13-.13.26-.18.4zm-104.17 184.22c-.16-.64.09-.74.53-.56-.3.38-.52.63-.53.56zm125.22 58.42zm116.23 6.48zm63.1 81.36a.52.52 0 0 1-.37.02l.37-.02zm-7.73-41.37zm46.96-46.43c-.03.02 0-.01.05-.08.04 0 .02.02-.05.08zm1.54-2.06zm1.56-78.88zm47.5-32.82v-.01.01zm88.65-158.44zm-13.97-17.84zm-27.44 393.74c4.1 2.51 1.37 21.12 1.37 26.36-.75-.25-8.82-3.96-11.5-4.03.6-.76 1.27-1.88 1.24-1.79.08-.23 3.42-.96 3.03-1.5-1.46-2.03-2.9-3.55-2.9-5.89 0-1.51-15-6.52-16.53-8.77-.77-1.14-1.69 2.99-2.06 2.93-1.89-.31-.92-.39-2.35-1.15-.15-.08-2.21-3.75-2.9-3.54.87-.38 7.8-1.56 6.75-2.62-1.57-1.57-5.2-.73-7.14-2.47-2.8-2.5-2.21-1.58-.18-3.27 2.48-2.05 6.77-2.9 9.27-.17.77.84 1.68 6.95 1.05 7.7.4-.21.8-.37 1.24-.47-.17.11 1.16 3.34 2.75 3.43 1.33.07 3.92-3.47 4.68-4.21 4.46-4.27 8.36-4.1 14.18-.54m-21.6 1.32zm-11.07 1.34a.2.2 0 0 1 .07-.04.3.3 0 0 0-.07.04zm21.68 20.16c-.02-.36.3-.5.86-.5-.44.57-.83.94-.86.5z"/></defs><g><g transform="translate(-744 -4888)"><use fill="#75accf" xlink:href="#ndjya"/></g></g></svg>